<?xml version="1.0" encoding="utf-8" standalone="no"?>
<!DOCTYPE svg PUBLIC "-//W3C//DTD SVG 1.1//EN"
  "http://www.w3.org/Graphics/SVG/1.1/DTD/svg11.dtd">
<svg xmlns:xlink="http://www.w3.org/1999/xlink" width="864pt" height="576pt" viewBox="0 0 864 576" xmlns="http://www.w3.org/2000/svg" version="1.1">
 <metadata>
  <rdf:RDF xmlns:dc="http://purl.org/dc/elements/1.1/" xmlns:cc="http://creativecommons.org/ns#" xmlns:rdf="http://www.w3.org/1999/02/22-rdf-syntax-ns#">
   <cc:Work>
    <dc:type rdf:resource="http://purl.org/dc/dcmitype/StillImage"/>
    <dc:date>2025-11-07T09:51:19.811803</dc:date>
    <dc:format>image/svg+xml</dc:format>
    <dc:creator>
     <cc:Agent>
      <dc:title>Matplotlib v3.9.2, https://matplotlib.org/</dc:title>
     </cc:Agent>
    </dc:creator>
   </cc:Work>
  </rdf:RDF>
 </metadata>
 <defs>
  <style type="text/css">*{stroke-linejoin: round; stroke-linecap: butt}</style>
 </defs>
 <g id="figure_1">
  <g id="patch_1">
   <path d="M 0 576 
L 864 576 
L 864 0 
L 0 0 
L 0 576 
z
" style="fill: none"/>
  </g>
  <g id="axes_1">
   <g id="patch_2">
    <path d="M 84.53 379.350663 
L 842.4 379.350663 
L 842.4 46.32 
L 84.53 46.32 
L 84.53 379.350663 
z
" style="fill: none"/>
   </g>
   <g id="PolyCollection_1">
    <defs>
     <path id="mfec862f3a9" d="M 179.26375 -211.787095 
L 173.197288 -211.787095 
L 172.378503 -214.831004 
L 171.48453 -217.874913 
L 170.514148 -220.918822 
L 169.467193 -223.962731 
L 168.344714 -227.00664 
L 167.149117 -230.050548 
L 165.884281 -233.094457 
L 164.55565 -236.138366 
L 163.17029 -239.182275 
L 161.736903 -242.226184 
L 160.265802 -245.270093 
L 158.768834 -248.314002 
L 157.259254 -251.357911 
L 155.751543 -254.40182 
L 154.261164 -257.445729 
L 152.804273 -260.489638 
L 151.397358 -263.533547 
L 150.05684 -266.577456 
L 148.798626 -269.621365 
L 147.637637 -272.665273 
L 146.587329 -275.709182 
L 145.659215 -278.753091 
L 144.862438 -281.797 
L 144.203395 -284.840909 
L 143.685456 -287.884818 
L 143.308781 -290.928727 
L 143.070277 -293.972636 
L 142.963673 -297.016545 
L 142.979746 -300.060454 
L 143.106659 -303.104363 
L 143.330425 -306.148272 
L 143.635441 -309.192181 
L 144.005096 -312.23609 
L 144.422386 -315.279999 
L 144.870531 -318.323907 
L 145.333542 -321.367816 
L 145.796719 -324.411725 
L 146.247059 -327.455634 
L 146.673554 -330.499543 
L 147.067373 -333.543452 
L 147.421932 -336.587361 
L 147.732848 -339.63127 
L 147.997807 -342.675179 
L 148.216335 -345.719088 
L 148.389514 -348.762997 
L 148.519654 -351.806906 
L 148.60993 -354.850815 
L 148.664022 -357.894724 
L 148.685762 -360.938633 
L 148.678813 -363.982541 
L 148.646383 -367.02645 
L 148.591008 -370.070359 
L 148.514392 -373.114268 
L 148.417326 -376.158177 
L 148.299689 -379.202086 
L 148.160532 -382.245995 
L 147.99823 -385.289904 
L 147.810719 -388.333813 
L 147.59578 -391.377722 
L 147.351366 -394.421631 
L 147.075953 -397.46554 
L 146.768883 -400.509449 
L 146.430679 -403.553358 
L 146.063308 -406.597267 
L 145.670371 -409.641175 
L 145.257196 -412.685084 
L 144.83083 -415.728993 
L 144.399922 -418.772902 
L 143.974493 -421.816811 
L 143.565618 -424.86072 
L 143.185026 -427.904629 
L 142.84465 -430.948538 
L 142.556156 -433.992447 
L 142.33048 -437.036356 
L 142.177408 -440.080265 
L 142.105234 -443.124174 
L 142.120505 -446.168083 
L 142.227891 -449.211992 
L 142.430161 -452.2559 
L 142.728289 -455.299809 
L 143.121652 -458.343718 
L 143.608317 -461.387627 
L 144.185365 -464.431536 
L 144.849244 -467.475445 
L 145.596089 -470.519354 
L 146.421989 -473.563263 
L 147.323179 -476.607172 
L 148.29612 -479.651081 
L 149.337481 -482.69499 
L 150.444014 -485.738899 
L 151.612347 -488.782808 
L 152.838714 -491.826717 
L 154.118663 -494.870626 
L 155.446782 -497.914534 
L 156.816462 -500.958443 
L 158.219758 -504.002352 
L 159.647343 -507.046261 
L 161.088588 -510.09017 
L 162.531759 -513.134079 
L 179.26375 -513.134079 
L 179.26375 -513.134079 
L 179.26375 -510.09017 
L 179.26375 -507.046261 
L 179.26375 -504.002352 
L 179.26375 -500.958443 
L 179.26375 -497.914534 
L 179.26375 -494.870626 
L 179.26375 -491.826717 
L 179.26375 -488.782808 
L 179.26375 -485.738899 
L 179.26375 -482.69499 
L 179.26375 -479.651081 
L 179.26375 -476.607172 
L 179.26375 -473.563263 
L 179.26375 -470.519354 
L 179.26375 -467.475445 
L 179.26375 -464.431536 
L 179.26375 -461.387627 
L 179.26375 -458.343718 
L 179.26375 -455.299809 
L 179.26375 -452.2559 
L 179.26375 -449.211992 
L 179.26375 -446.168083 
L 179.26375 -443.124174 
L 179.26375 -440.080265 
L 179.26375 -437.036356 
L 179.26375 -433.992447 
L 179.26375 -430.948538 
L 179.26375 -427.904629 
L 179.26375 -424.86072 
L 179.26375 -421.816811 
L 179.26375 -418.772902 
L 179.26375 -415.728993 
L 179.26375 -412.685084 
L 179.26375 -409.641175 
L 179.26375 -406.597267 
L 179.26375 -403.553358 
L 179.26375 -400.509449 
L 179.26375 -397.46554 
L 179.26375 -394.421631 
L 179.26375 -391.377722 
L 179.26375 -388.333813 
L 179.26375 -385.289904 
L 179.26375 -382.245995 
L 179.26375 -379.202086 
L 179.26375 -376.158177 
L 179.26375 -373.114268 
L 179.26375 -370.070359 
L 179.26375 -367.02645 
L 179.26375 -363.982541 
L 179.26375 -360.938633 
L 179.26375 -357.894724 
L 179.26375 -354.850815 
L 179.26375 -351.806906 
L 179.26375 -348.762997 
L 179.26375 -345.719088 
L 179.26375 -342.675179 
L 179.26375 -339.63127 
L 179.26375 -336.587361 
L 179.26375 -333.543452 
L 179.26375 -330.499543 
L 179.26375 -327.455634 
L 179.26375 -324.411725 
L 179.26375 -321.367816 
L 179.26375 -318.323907 
L 179.26375 -315.279999 
L 179.26375 -312.23609 
L 179.26375 -309.192181 
L 179.26375 -306.148272 
L 179.26375 -303.104363 
L 179.26375 -300.060454 
L 179.26375 -297.016545 
L 179.26375 -293.972636 
L 179.26375 -290.928727 
L 179.26375 -287.884818 
L 179.26375 -284.840909 
L 179.26375 -281.797 
L 179.26375 -278.753091 
L 179.26375 -275.709182 
L 179.26375 -272.665273 
L 179.26375 -269.621365 
L 179.26375 -266.577456 
L 179.26375 -263.533547 
L 179.26375 -260.489638 
L 179.26375 -257.445729 
L 179.26375 -254.40182 
L 179.26375 -251.357911 
L 179.26375 -248.314002 
L 179.26375 -245.270093 
L 179.26375 -242.226184 
L 179.26375 -239.182275 
L 179.26375 -236.138366 
L 179.26375 -233.094457 
L 179.26375 -230.050548 
L 179.26375 -227.00664 
L 179.26375 -223.962731 
L 179.26375 -220.918822 
L 179.26375 -217.874913 
L 179.26375 -214.831004 
L 179.26375 -211.787095 
z
" style="stroke: #1e1e1e; stroke-width: 3"/>
    </defs>
    <g clip-path="url(#pdd84f90079)">
     <use xlink:href="#mfec862f3a9" x="0" y="576" style="fill: #0c580c; stroke: #1e1e1e; stroke-width: 3"/>
    </g>
   </g>
   <g id="PolyCollection_2">
    <defs>
     <path id="m33757cc835" d="M 185.823435 -244.526896 
L 179.26375 -244.526896 
L 179.26375 -247.215208 
L 179.26375 -249.90352 
L 179.26375 -252.591832 
L 179.26375 -255.280144 
L 179.26375 -257.968456 
L 179.26375 -260.656768 
L 179.26375 -263.34508 
L 179.26375 -266.033392 
L 179.26375 -268.721705 
L 179.26375 -271.410017 
L 179.26375 -274.098329 
L 179.26375 -276.786641 
L 179.26375 -279.474953 
L 179.26375 -282.163265 
L 179.26375 -284.851577 
L 179.26375 -287.539889 
L 179.26375 -290.228201 
L 179.26375 -292.916513 
L 179.26375 -295.604826 
L 179.26375 -298.293138 
L 179.26375 -300.98145 
L 179.26375 -303.669762 
L 179.26375 -306.358074 
L 179.26375 -309.046386 
L 179.26375 -311.734698 
L 179.26375 -314.42301 
L 179.26375 -317.111322 
L 179.26375 -319.799634 
L 179.26375 -322.487946 
L 179.26375 -325.176259 
L 179.26375 -327.864571 
L 179.26375 -330.552883 
L 179.26375 -333.241195 
L 179.26375 -335.929507 
L 179.26375 -338.617819 
L 179.26375 -341.306131 
L 179.26375 -343.994443 
L 179.26375 -346.682755 
L 179.26375 -349.371067 
L 179.26375 -352.059379 
L 179.26375 -354.747692 
L 179.26375 -357.436004 
L 179.26375 -360.124316 
L 179.26375 -362.812628 
L 179.26375 -365.50094 
L 179.26375 -368.189252 
L 179.26375 -370.877564 
L 179.26375 -373.565876 
L 179.26375 -376.254188 
L 179.26375 -378.9425 
L 179.26375 -381.630813 
L 179.26375 -384.319125 
L 179.26375 -387.007437 
L 179.26375 -389.695749 
L 179.26375 -392.384061 
L 179.26375 -395.072373 
L 179.26375 -397.760685 
L 179.26375 -400.448997 
L 179.26375 -403.137309 
L 179.26375 -405.825621 
L 179.26375 -408.513933 
L 179.26375 -411.202246 
L 179.26375 -413.890558 
L 179.26375 -416.57887 
L 179.26375 -419.267182 
L 179.26375 -421.955494 
L 179.26375 -424.643806 
L 179.26375 -427.332118 
L 179.26375 -430.02043 
L 179.26375 -432.708742 
L 179.26375 -435.397054 
L 179.26375 -438.085367 
L 179.26375 -440.773679 
L 179.26375 -443.461991 
L 179.26375 -446.150303 
L 179.26375 -448.838615 
L 179.26375 -451.526927 
L 179.26375 -454.215239 
L 179.26375 -456.903551 
L 179.26375 -459.591863 
L 179.26375 -462.280175 
L 179.26375 -464.968487 
L 179.26375 -467.6568 
L 179.26375 -470.345112 
L 179.26375 -473.033424 
L 179.26375 -475.721736 
L 179.26375 -478.410048 
L 179.26375 -481.09836 
L 179.26375 -483.786672 
L 179.26375 -486.474984 
L 179.26375 -489.163296 
L 179.26375 -491.851608 
L 179.26375 -494.53992 
L 179.26375 -497.228233 
L 179.26375 -499.916545 
L 179.26375 -502.604857 
L 179.26375 -505.293169 
L 179.26375 -507.981481 
L 179.26375 -510.669793 
L 207.410332 -510.669793 
L 207.410332 -510.669793 
L 210.778911 -507.981481 
L 214.258575 -505.293169 
L 217.809588 -502.604857 
L 221.388669 -499.916545 
L 224.950104 -497.228233 
L 228.44694 -494.53992 
L 231.832237 -491.851608 
L 235.060324 -489.163296 
L 238.08801 -486.474984 
L 240.875724 -483.786672 
L 243.388543 -481.09836 
L 245.597083 -478.410048 
L 247.478221 -475.721736 
L 249.015623 -473.033424 
L 250.200058 -470.345112 
L 251.029473 -467.6568 
L 251.50881 -464.968487 
L 251.649568 -462.280175 
L 251.469101 -459.591863 
L 250.98968 -456.903551 
L 250.237358 -454.215239 
L 249.240686 -451.526927 
L 248.029366 -448.838615 
L 246.632915 -446.150303 
L 245.079442 -443.461991 
L 243.394611 -440.773679 
L 241.600877 -438.085367 
L 239.71705 -435.397054 
L 237.758188 -432.708742 
L 235.735843 -430.02043 
L 233.658596 -427.332118 
L 231.532818 -424.643806 
L 229.363574 -421.955494 
L 227.155562 -419.267182 
L 224.914 -416.57887 
L 222.645355 -413.890558 
L 220.357865 -411.202246 
L 218.061812 -408.513933 
L 215.769523 -405.825621 
L 213.495128 -403.137309 
L 211.254117 -400.448997 
L 209.062746 -397.760685 
L 206.937362 -395.072373 
L 204.893714 -392.384061 
L 202.946307 -389.695749 
L 201.107853 -387.007437 
L 199.388834 -384.319125 
L 197.797213 -381.630813 
L 196.338283 -378.9425 
L 195.014641 -376.254188 
L 193.82628 -373.565876 
L 192.770765 -370.877564 
L 191.843486 -368.189252 
L 191.037951 -365.50094 
L 190.346121 -362.812628 
L 189.758769 -360.124316 
L 189.265848 -357.436004 
L 188.856874 -354.747692 
L 188.5213 -352.059379 
L 188.248884 -349.371067 
L 188.030036 -346.682755 
L 187.856117 -343.994443 
L 187.719682 -341.306131 
L 187.614651 -338.617819 
L 187.536386 -335.929507 
L 187.481665 -333.241195 
L 187.448565 -330.552883 
L 187.436246 -327.864571 
L 187.444665 -325.176259 
L 187.474242 -322.487946 
L 187.525511 -319.799634 
L 187.598785 -317.111322 
L 187.693873 -314.42301 
L 187.809862 -311.734698 
L 187.944989 -309.046386 
L 188.096598 -306.358074 
L 188.261178 -303.669762 
L 188.434467 -300.98145 
L 188.6116 -298.293138 
L 188.787274 -295.604826 
L 188.955911 -292.916513 
L 189.111805 -290.228201 
L 189.249246 -287.539889 
L 189.362618 -284.851577 
L 189.446477 -282.163265 
L 189.49563 -279.474953 
L 189.50522 -276.786641 
L 189.470832 -274.098329 
L 189.388629 -271.410017 
L 189.255507 -268.721705 
L 189.069282 -266.033392 
L 188.828868 -263.34508 
L 188.534448 -260.656768 
L 188.187607 -257.968456 
L 187.791403 -255.280144 
L 187.35037 -252.591832 
L 186.870434 -249.90352 
L 186.358746 -247.215208 
L 185.823435 -244.526896 
z
" style="stroke: #1e1e1e; stroke-width: 3"/>
    </defs>
    <g clip-path="url(#pdd84f90079)">
     <use xlink:href="#m33757cc835" x="0" y="576" style="fill: #9ce29c; stroke: #1e1e1e; stroke-width: 3"/>
    </g>
   </g>
   <g id="PolyCollection_3">
    <defs>
     <path id="m52e2d27c98" d="M 368.73125 -212.139136 
L 365.478522 -212.139136 
L 364.929603 -215.190157 
L 364.300905 -218.241177 
L 363.585713 -221.292198 
L 362.778349 -224.343219 
L 361.87461 -227.39424 
L 360.872195 -230.445261 
L 359.771104 -233.496282 
L 358.573972 -236.547303 
L 357.286325 -239.598324 
L 355.916711 -242.649344 
L 354.476712 -245.700365 
L 352.980793 -248.751386 
L 351.446011 -251.802407 
L 349.891566 -254.853428 
L 348.338203 -257.904449 
L 346.807509 -260.95547 
L 345.321103 -264.00649 
L 343.899788 -267.057511 
L 342.562686 -270.108532 
L 341.326422 -273.159553 
L 340.204402 -276.210574 
L 339.206234 -279.261595 
L 338.337333 -282.312616 
L 337.598747 -285.363637 
L 336.987221 -288.414657 
L 336.495492 -291.465678 
L 336.11282 -294.516699 
L 335.825701 -297.56772 
L 335.618731 -300.618741 
L 335.47555 -303.669762 
L 335.37981 -306.720783 
L 335.316091 -309.771804 
L 335.270709 -312.822824 
L 335.232353 -315.873845 
L 335.192521 -318.924866 
L 335.145734 -321.975887 
L 335.089504 -325.026908 
L 335.024102 -328.077929 
L 334.95213 -331.12895 
L 334.877945 -334.17997 
L 334.806999 -337.230991 
L 334.74513 -340.282012 
L 334.697877 -343.333033 
L 334.669851 -346.384054 
L 334.664213 -349.435075 
L 334.682293 -352.486096 
L 334.723358 -355.537117 
L 334.784539 -358.588137 
L 334.860926 -361.639158 
L 334.945792 -364.690179 
L 335.030952 -367.7412 
L 335.107203 -370.792221 
L 335.164827 -373.843242 
L 335.194127 -376.894263 
L 335.185951 -379.945284 
L 335.13218 -382.996304 
L 335.026168 -386.047325 
L 334.863081 -389.098346 
L 334.640169 -392.149367 
L 334.356912 -395.200388 
L 334.015087 -398.251409 
L 333.618723 -401.30243 
L 333.17398 -404.35345 
L 332.68895 -407.404471 
L 332.173407 -410.455492 
L 331.638508 -413.506513 
L 331.096473 -416.557534 
L 330.560254 -419.608555 
L 330.043201 -422.659576 
L 329.558731 -425.710597 
L 329.120015 -428.761617 
L 328.73968 -431.812638 
L 328.429521 -434.863659 
L 328.200253 -437.91468 
L 328.061272 -440.965701 
L 328.020463 -444.016722 
L 328.084049 -447.067743 
L 328.256488 -450.118763 
L 328.540441 -453.169784 
L 328.936805 -456.220805 
L 329.444819 -459.271826 
L 330.062239 -462.322847 
L 330.785574 -465.373868 
L 331.610353 -468.424889 
L 332.531414 -471.47591 
L 333.543172 -474.52693 
L 334.639848 -477.577951 
L 335.815625 -480.628972 
L 337.064715 -483.679993 
L 338.381336 -486.731014 
L 339.759588 -489.782035 
L 341.193263 -492.833056 
L 342.675608 -495.884077 
L 344.199076 -498.935097 
L 345.755111 -501.986118 
L 347.334006 -505.037139 
L 348.924852 -508.08816 
L 350.51562 -511.139181 
L 352.093368 -514.190202 
L 368.73125 -514.190202 
L 368.73125 -514.190202 
L 368.73125 -511.139181 
L 368.73125 -508.08816 
L 368.73125 -505.037139 
L 368.73125 -501.986118 
L 368.73125 -498.935097 
L 368.73125 -495.884077 
L 368.73125 -492.833056 
L 368.73125 -489.782035 
L 368.73125 -486.731014 
L 368.73125 -483.679993 
L 368.73125 -480.628972 
L 368.73125 -477.577951 
L 368.73125 -474.52693 
L 368.73125 -471.47591 
L 368.73125 -468.424889 
L 368.73125 -465.373868 
L 368.73125 -462.322847 
L 368.73125 -459.271826 
L 368.73125 -456.220805 
L 368.73125 -453.169784 
L 368.73125 -450.118763 
L 368.73125 -447.067743 
L 368.73125 -444.016722 
L 368.73125 -440.965701 
L 368.73125 -437.91468 
L 368.73125 -434.863659 
L 368.73125 -431.812638 
L 368.73125 -428.761617 
L 368.73125 -425.710597 
L 368.73125 -422.659576 
L 368.73125 -419.608555 
L 368.73125 -416.557534 
L 368.73125 -413.506513 
L 368.73125 -410.455492 
L 368.73125 -407.404471 
L 368.73125 -404.35345 
L 368.73125 -401.30243 
L 368.73125 -398.251409 
L 368.73125 -395.200388 
L 368.73125 -392.149367 
L 368.73125 -389.098346 
L 368.73125 -386.047325 
L 368.73125 -382.996304 
L 368.73125 -379.945284 
L 368.73125 -376.894263 
L 368.73125 -373.843242 
L 368.73125 -370.792221 
L 368.73125 -367.7412 
L 368.73125 -364.690179 
L 368.73125 -361.639158 
L 368.73125 -358.588137 
L 368.73125 -355.537117 
L 368.73125 -352.486096 
L 368.73125 -349.435075 
L 368.73125 -346.384054 
L 368.73125 -343.333033 
L 368.73125 -340.282012 
L 368.73125 -337.230991 
L 368.73125 -334.17997 
L 368.73125 -331.12895 
L 368.73125 -328.077929 
L 368.73125 -325.026908 
L 368.73125 -321.975887 
L 368.73125 -318.924866 
L 368.73125 -315.873845 
L 368.73125 -312.822824 
L 368.73125 -309.771804 
L 368.73125 -306.720783 
L 368.73125 -303.669762 
L 368.73125 -300.618741 
L 368.73125 -297.56772 
L 368.73125 -294.516699 
L 368.73125 -291.465678 
L 368.73125 -288.414657 
L 368.73125 -285.363637 
L 368.73125 -282.312616 
L 368.73125 -279.261595 
L 368.73125 -276.210574 
L 368.73125 -273.159553 
L 368.73125 -270.108532 
L 368.73125 -267.057511 
L 368.73125 -264.00649 
L 368.73125 -260.95547 
L 368.73125 -257.904449 
L 368.73125 -254.853428 
L 368.73125 -251.802407 
L 368.73125 -248.751386 
L 368.73125 -245.700365 
L 368.73125 -242.649344 
L 368.73125 -239.598324 
L 368.73125 -236.547303 
L 368.73125 -233.496282 
L 368.73125 -230.445261 
L 368.73125 -227.39424 
L 368.73125 -224.343219 
L 368.73125 -221.292198 
L 368.73125 -218.241177 
L 368.73125 -215.190157 
L 368.73125 -212.139136 
z
" style="stroke: #1e1e1e; stroke-width: 3"/>
    </defs>
    <g clip-path="url(#pdd84f90079)">
     <use xlink:href="#m52e2d27c98" x="0" y="576" style="fill: #0c580c; stroke: #1e1e1e; stroke-width: 3"/>
    </g>
   </g>
   <g id="PolyCollection_4">
    <defs>
     <path id="md71d768144" d="M 373.634891 -267.761593 
L 368.73125 -267.761593 
L 368.73125 -270.254327 
L 368.73125 -272.747061 
L 368.73125 -275.239795 
L 368.73125 -277.732528 
L 368.73125 -280.225262 
L 368.73125 -282.717996 
L 368.73125 -285.21073 
L 368.73125 -287.703464 
L 368.73125 -290.196198 
L 368.73125 -292.688931 
L 368.73125 -295.181665 
L 368.73125 -297.674399 
L 368.73125 -300.167133 
L 368.73125 -302.659867 
L 368.73125 -305.152601 
L 368.73125 -307.645334 
L 368.73125 -310.138068 
L 368.73125 -312.630802 
L 368.73125 -315.123536 
L 368.73125 -317.61627 
L 368.73125 -320.109004 
L 368.73125 -322.601737 
L 368.73125 -325.094471 
L 368.73125 -327.587205 
L 368.73125 -330.079939 
L 368.73125 -332.572673 
L 368.73125 -335.065407 
L 368.73125 -337.55814 
L 368.73125 -340.050874 
L 368.73125 -342.543608 
L 368.73125 -345.036342 
L 368.73125 -347.529076 
L 368.73125 -350.02181 
L 368.73125 -352.514543 
L 368.73125 -355.007277 
L 368.73125 -357.500011 
L 368.73125 -359.992745 
L 368.73125 -362.485479 
L 368.73125 -364.978213 
L 368.73125 -367.470946 
L 368.73125 -369.96368 
L 368.73125 -372.456414 
L 368.73125 -374.949148 
L 368.73125 -377.441882 
L 368.73125 -379.934616 
L 368.73125 -382.427349 
L 368.73125 -384.920083 
L 368.73125 -387.412817 
L 368.73125 -389.905551 
L 368.73125 -392.398285 
L 368.73125 -394.891019 
L 368.73125 -397.383752 
L 368.73125 -399.876486 
L 368.73125 -402.36922 
L 368.73125 -404.861954 
L 368.73125 -407.354688 
L 368.73125 -409.847422 
L 368.73125 -412.340155 
L 368.73125 -414.832889 
L 368.73125 -417.325623 
L 368.73125 -419.818357 
L 368.73125 -422.311091 
L 368.73125 -424.803825 
L 368.73125 -427.296558 
L 368.73125 -429.789292 
L 368.73125 -432.282026 
L 368.73125 -434.77476 
L 368.73125 -437.267494 
L 368.73125 -439.760228 
L 368.73125 -442.252961 
L 368.73125 -444.745695 
L 368.73125 -447.238429 
L 368.73125 -449.731163 
L 368.73125 -452.223897 
L 368.73125 -454.716631 
L 368.73125 -457.209364 
L 368.73125 -459.702098 
L 368.73125 -462.194832 
L 368.73125 -464.687566 
L 368.73125 -467.1803 
L 368.73125 -469.673034 
L 368.73125 -472.165767 
L 368.73125 -474.658501 
L 368.73125 -477.151235 
L 368.73125 -479.643969 
L 368.73125 -482.136703 
L 368.73125 -484.629437 
L 368.73125 -487.12217 
L 368.73125 -489.614904 
L 368.73125 -492.107638 
L 368.73125 -494.600372 
L 368.73125 -497.093106 
L 368.73125 -499.58584 
L 368.73125 -502.078573 
L 368.73125 -504.571307 
L 368.73125 -507.064041 
L 368.73125 -509.556775 
L 368.73125 -512.049509 
L 368.73125 -514.542243 
L 395.074885 -514.542243 
L 395.074885 -514.542243 
L 398.517189 -512.049509 
L 402.090054 -509.556775 
L 405.752473 -507.064041 
L 409.460499 -504.571307 
L 413.168522 -502.078573 
L 416.830546 -499.58584 
L 420.401409 -497.093106 
L 423.837906 -494.600372 
L 427.099764 -492.107638 
L 430.150465 -489.614904 
L 432.957879 -487.12217 
L 435.49474 -484.629437 
L 437.738944 -482.136703 
L 439.67372 -479.643969 
L 441.287684 -477.151235 
L 442.574826 -474.658501 
L 443.534441 -472.165767 
L 444.171027 -469.673034 
L 444.49415 -467.1803 
L 444.51825 -464.687566 
L 444.262356 -462.194832 
L 443.749651 -459.702098 
L 443.006839 -457.209364 
L 442.06327 -454.716631 
L 440.949816 -452.223897 
L 439.69751 -449.731163 
L 438.336028 -447.238429 
L 436.892118 -444.745695 
L 435.388137 -442.252961 
L 433.840849 -439.760228 
L 432.260661 -437.267494 
L 430.651405 -434.77476 
L 429.010742 -432.282026 
L 427.331185 -429.789292 
L 425.601644 -427.296558 
L 423.809332 -424.803825 
L 421.941832 -422.311091 
L 419.989075 -419.818357 
L 417.945013 -417.325623 
L 415.808821 -414.832889 
L 413.585499 -412.340155 
L 411.28588 -409.847422 
L 408.926062 -407.354688 
L 406.526428 -404.861954 
L 404.11037 -402.36922 
L 401.702931 -399.876486 
L 399.329496 -397.383752 
L 397.014667 -394.891019 
L 394.781384 -392.398285 
L 392.650318 -389.905551 
L 390.639505 -387.412817 
L 388.764161 -384.920083 
L 387.036617 -382.427349 
L 385.466287 -379.934616 
L 384.059639 -377.441882 
L 382.820117 -374.949148 
L 381.748038 -372.456414 
L 380.840471 -369.96368 
L 380.091148 -367.470946 
L 379.490452 -364.978213 
L 379.025542 -362.485479 
L 378.680638 -359.992745 
L 378.437496 -357.500011 
L 378.276079 -355.007277 
L 378.175379 -352.514543 
L 378.114376 -350.02181 
L 378.073032 -347.529076 
L 378.033285 -345.036342 
L 377.979929 -342.543608 
L 377.901323 -340.050874 
L 377.789849 -337.55814 
L 377.642093 -335.065407 
L 377.45871 -332.572673 
L 377.243994 -330.079939 
L 377.005201 -327.587205 
L 376.751668 -325.094471 
L 376.493847 -322.601737 
L 376.242304 -320.109004 
L 376.006814 -317.61627 
L 375.795593 -315.123536 
L 375.614736 -312.630802 
L 375.467882 -310.138068 
L 375.356095 -307.645334 
L 375.277949 -305.152601 
L 375.22976 -302.659867 
L 375.205928 -300.167133 
L 375.199334 -297.674399 
L 375.201773 -295.181665 
L 375.204378 -292.688931 
L 375.198044 -290.196198 
L 375.173844 -287.703464 
L 375.123442 -285.21073 
L 375.039499 -282.717996 
L 374.916067 -280.225262 
L 374.748951 -277.732528 
L 374.536008 -275.239795 
L 374.277349 -272.747061 
L 373.975415 -270.254327 
L 373.634891 -267.761593 
z
" style="stroke: #1e1e1e; stroke-width: 3"/>
    </defs>
    <g clip-path="url(#pdd84f90079)">
     <use xlink:href="#md71d768144" x="0" y="576" style="fill: #9ce29c; stroke: #1e1e1e; stroke-width: 3"/>
    </g>
   </g>
   <g id="PolyCollection_5">
    <defs>
     <path id="m19e2cdae19" d="M 558.19875 -218.123831 
L 550.443039 -218.123831 
L 549.06812 -220.865482 
L 547.561805 -223.607134 
L 545.928114 -226.348785 
L 544.171846 -229.090437 
L 542.298023 -231.832089 
L 540.311531 -234.57374 
L 538.217051 -237.315392 
L 536.019321 -240.057043 
L 533.723678 -242.798695 
L 531.336753 -245.540347 
L 528.867143 -248.281998 
L 526.325859 -251.02365 
L 523.72641 -253.765302 
L 521.084458 -256.506953 
L 518.417072 -259.248605 
L 515.74175 -261.990256 
L 513.075412 -264.731908 
L 510.433613 -267.47356 
L 507.830151 -270.215211 
L 505.27717 -272.956863 
L 502.785732 -275.698515 
L 500.366709 -278.440166 
L 498.031769 -281.181818 
L 495.794221 -283.923469 
L 493.66949 -286.665121 
L 491.675096 -289.406773 
L 489.830125 -292.148424 
L 488.154253 -294.890076 
L 486.666519 -297.631727 
L 485.384049 -300.373379 
L 484.320953 -303.115031 
L 483.487591 -305.856682 
L 482.890326 -308.598334 
L 482.531809 -311.339986 
L 482.41175 -314.081637 
L 482.528061 -316.823289 
L 482.878178 -319.56494 
L 483.460326 -322.306592 
L 484.274476 -325.048244 
L 485.32278 -327.789895 
L 486.609286 -330.531547 
L 488.1389 -333.273199 
L 489.915623 -336.01485 
L 491.940285 -338.756502 
L 494.20807 -341.498153 
L 496.706252 -344.239805 
L 499.412535 -346.981457 
L 502.294359 -349.723108 
L 505.309384 -352.46476 
L 508.407214 -355.206412 
L 511.53218 -357.948063 
L 514.626881 -360.689715 
L 517.636012 -363.431366 
L 520.51001 -366.173018 
L 523.208052 -368.91467 
L 525.700093 -371.656321 
L 527.967779 -374.397973 
L 530.004243 -377.139624 
L 531.812965 -379.881276 
L 533.405971 -382.622928 
L 534.801684 -385.364579 
L 536.022731 -388.106231 
L 537.093927 -390.847883 
L 538.040564 -393.589534 
L 538.887044 -396.331186 
L 539.655827 -399.072837 
L 540.366623 -401.814489 
L 541.035787 -404.556141 
L 541.675894 -407.297792 
L 542.295515 -410.039444 
L 542.899269 -412.781096 
L 543.488213 -415.522747 
L 544.060609 -418.264399 
L 544.613042 -421.00605 
L 545.141795 -423.747702 
L 545.644283 -426.489354 
L 546.120333 -429.231005 
L 546.573055 -431.972657 
L 547.009115 -434.714308 
L 547.438316 -437.45596 
L 547.872512 -440.197612 
L 548.323998 -442.939263 
L 548.803655 -445.680915 
L 549.319156 -448.422567 
L 549.873566 -451.164218 
L 550.464566 -453.90587 
L 551.084478 -456.647521 
L 551.721054 -459.389173 
L 552.358932 -462.130825 
L 552.981497 -464.872476 
L 553.572855 -467.614128 
L 554.119614 -470.35578 
L 554.612232 -473.097431 
L 555.045741 -475.839083 
L 555.419828 -478.580734 
L 555.738294 -481.322386 
L 556.008065 -484.064038 
L 556.237928 -486.805689 
L 556.437223 -489.547341 
L 558.19875 -489.547341 
L 558.19875 -489.547341 
L 558.19875 -486.805689 
L 558.19875 -484.064038 
L 558.19875 -481.322386 
L 558.19875 -478.580734 
L 558.19875 -475.839083 
L 558.19875 -473.097431 
L 558.19875 -470.35578 
L 558.19875 -467.614128 
L 558.19875 -464.872476 
L 558.19875 -462.130825 
L 558.19875 -459.389173 
L 558.19875 -456.647521 
L 558.19875 -453.90587 
L 558.19875 -451.164218 
L 558.19875 -448.422567 
L 558.19875 -445.680915 
L 558.19875 -442.939263 
L 558.19875 -440.197612 
L 558.19875 -437.45596 
L 558.19875 -434.714308 
L 558.19875 -431.972657 
L 558.19875 -429.231005 
L 558.19875 -426.489354 
L 558.19875 -423.747702 
L 558.19875 -421.00605 
L 558.19875 -418.264399 
L 558.19875 -415.522747 
L 558.19875 -412.781096 
L 558.19875 -410.039444 
L 558.19875 -407.297792 
L 558.19875 -404.556141 
L 558.19875 -401.814489 
L 558.19875 -399.072837 
L 558.19875 -396.331186 
L 558.19875 -393.589534 
L 558.19875 -390.847883 
L 558.19875 -388.106231 
L 558.19875 -385.364579 
L 558.19875 -382.622928 
L 558.19875 -379.881276 
L 558.19875 -377.139624 
L 558.19875 -374.397973 
L 558.19875 -371.656321 
L 558.19875 -368.91467 
L 558.19875 -366.173018 
L 558.19875 -363.431366 
L 558.19875 -360.689715 
L 558.19875 -357.948063 
L 558.19875 -355.206412 
L 558.19875 -352.46476 
L 558.19875 -349.723108 
L 558.19875 -346.981457 
L 558.19875 -344.239805 
L 558.19875 -341.498153 
L 558.19875 -338.756502 
L 558.19875 -336.01485 
L 558.19875 -333.273199 
L 558.19875 -330.531547 
L 558.19875 -327.789895 
L 558.19875 -325.048244 
L 558.19875 -322.306592 
L 558.19875 -319.56494 
L 558.19875 -316.823289 
L 558.19875 -314.081637 
L 558.19875 -311.339986 
L 558.19875 -308.598334 
L 558.19875 -305.856682 
L 558.19875 -303.115031 
L 558.19875 -300.373379 
L 558.19875 -297.631727 
L 558.19875 -294.890076 
L 558.19875 -292.148424 
L 558.19875 -289.406773 
L 558.19875 -286.665121 
L 558.19875 -283.923469 
L 558.19875 -281.181818 
L 558.19875 -278.440166 
L 558.19875 -275.698515 
L 558.19875 -272.956863 
L 558.19875 -270.215211 
L 558.19875 -267.47356 
L 558.19875 -264.731908 
L 558.19875 -261.990256 
L 558.19875 -259.248605 
L 558.19875 -256.506953 
L 558.19875 -253.765302 
L 558.19875 -251.02365 
L 558.19875 -248.281998 
L 558.19875 -245.540347 
L 558.19875 -242.798695 
L 558.19875 -240.057043 
L 558.19875 -237.315392 
L 558.19875 -234.57374 
L 558.19875 -231.832089 
L 558.19875 -229.090437 
L 558.19875 -226.348785 
L 558.19875 -223.607134 
L 558.19875 -220.865482 
L 558.19875 -218.123831 
z
" style="stroke: #1e1e1e; stroke-width: 3"/>
    </defs>
    <g clip-path="url(#pdd84f90079)">
     <use xlink:href="#m19e2cdae19" x="0" y="576" style="fill: #0c580c; stroke: #1e1e1e; stroke-width: 3"/>
    </g>
   </g>
   <g id="PolyCollection_6">
    <defs>
     <path id="m0bae1f963d" d="M 563.070891 -220.940157 
L 558.19875 -220.940157 
L 558.19875 -223.816936 
L 558.19875 -226.693714 
L 558.19875 -229.570493 
L 558.19875 -232.447271 
L 558.19875 -235.32405 
L 558.19875 -238.200828 
L 558.19875 -241.077606 
L 558.19875 -243.954385 
L 558.19875 -246.831163 
L 558.19875 -249.707942 
L 558.19875 -252.58472 
L 558.19875 -255.461498 
L 558.19875 -258.338277 
L 558.19875 -261.215055 
L 558.19875 -264.091834 
L 558.19875 -266.968612 
L 558.19875 -269.845391 
L 558.19875 -272.722169 
L 558.19875 -275.598947 
L 558.19875 -278.475726 
L 558.19875 -281.352504 
L 558.19875 -284.229283 
L 558.19875 -287.106061 
L 558.19875 -289.98284 
L 558.19875 -292.859618 
L 558.19875 -295.736396 
L 558.19875 -298.613175 
L 558.19875 -301.489953 
L 558.19875 -304.366732 
L 558.19875 -307.24351 
L 558.19875 -310.120288 
L 558.19875 -312.997067 
L 558.19875 -315.873845 
L 558.19875 -318.750624 
L 558.19875 -321.627402 
L 558.19875 -324.504181 
L 558.19875 -327.380959 
L 558.19875 -330.257737 
L 558.19875 -333.134516 
L 558.19875 -336.011294 
L 558.19875 -338.888073 
L 558.19875 -341.764851 
L 558.19875 -344.641629 
L 558.19875 -347.518408 
L 558.19875 -350.395186 
L 558.19875 -353.271965 
L 558.19875 -356.148743 
L 558.19875 -359.025522 
L 558.19875 -361.9023 
L 558.19875 -364.779078 
L 558.19875 -367.655857 
L 558.19875 -370.532635 
L 558.19875 -373.409414 
L 558.19875 -376.286192 
L 558.19875 -379.16297 
L 558.19875 -382.039749 
L 558.19875 -384.916527 
L 558.19875 -387.793306 
L 558.19875 -390.670084 
L 558.19875 -393.546863 
L 558.19875 -396.423641 
L 558.19875 -399.300419 
L 558.19875 -402.177198 
L 558.19875 -405.053976 
L 558.19875 -407.930755 
L 558.19875 -410.807533 
L 558.19875 -413.684311 
L 558.19875 -416.56109 
L 558.19875 -419.437868 
L 558.19875 -422.314647 
L 558.19875 -425.191425 
L 558.19875 -428.068204 
L 558.19875 -430.944982 
L 558.19875 -433.82176 
L 558.19875 -436.698539 
L 558.19875 -439.575317 
L 558.19875 -442.452096 
L 558.19875 -445.328874 
L 558.19875 -448.205653 
L 558.19875 -451.082431 
L 558.19875 -453.959209 
L 558.19875 -456.835988 
L 558.19875 -459.712766 
L 558.19875 -462.589545 
L 558.19875 -465.466323 
L 558.19875 -468.343101 
L 558.19875 -471.21988 
L 558.19875 -474.096658 
L 558.19875 -476.973437 
L 558.19875 -479.850215 
L 558.19875 -482.726994 
L 558.19875 -485.603772 
L 558.19875 -488.48055 
L 558.19875 -491.357329 
L 558.19875 -494.234107 
L 558.19875 -497.110886 
L 558.19875 -499.987664 
L 558.19875 -502.864442 
L 558.19875 -505.741221 
L 575.452533 -505.741221 
L 575.452533 -505.741221 
L 577.551693 -502.864442 
L 579.750108 -499.987664 
L 582.030218 -497.110886 
L 584.372132 -494.234107 
L 586.754023 -491.357329 
L 589.152563 -488.48055 
L 591.543386 -485.603772 
L 593.901559 -482.726994 
L 596.202044 -479.850215 
L 598.420142 -476.973437 
L 600.531914 -474.096658 
L 602.514573 -471.21988 
L 604.346857 -468.343101 
L 606.009366 -465.466323 
L 607.484893 -462.589545 
L 608.758721 -459.712766 
L 609.818897 -456.835988 
L 610.656478 -453.959209 
L 611.265729 -451.082431 
L 611.644261 -448.205653 
L 611.793111 -445.328874 
L 611.716723 -442.452096 
L 611.422846 -439.575317 
L 610.922331 -436.698539 
L 610.228833 -433.82176 
L 609.358422 -430.944982 
L 608.329121 -428.068204 
L 607.160402 -425.191425 
L 605.872642 -422.314647 
L 604.486596 -419.437868 
L 603.022895 -416.56109 
L 601.501602 -413.684311 
L 599.941848 -410.807533 
L 598.361556 -407.930755 
L 596.777267 -405.053976 
L 595.204059 -402.177198 
L 593.655555 -399.300419 
L 592.143989 -396.423641 
L 590.680329 -393.546863 
L 589.274413 -390.670084 
L 587.935086 -387.793306 
L 586.670306 -384.916527 
L 585.487218 -382.039749 
L 584.392172 -379.16297 
L 583.390694 -376.286192 
L 582.487407 -373.409414 
L 581.685929 -370.532635 
L 580.988751 -367.655857 
L 580.397118 -364.779078 
L 579.910938 -361.9023 
L 579.528722 -359.025522 
L 579.247575 -356.148743 
L 579.063227 -353.271965 
L 578.97012 -350.395186 
L 578.961522 -347.518408 
L 579.02967 -344.641629 
L 579.165921 -341.764851 
L 579.3609 -338.888073 
L 579.604639 -336.011294 
L 579.886702 -333.134516 
L 580.196286 -330.257737 
L 580.52232 -327.380959 
L 580.853564 -324.504181 
L 581.178705 -321.627402 
L 581.48649 -318.750624 
L 581.76587 -315.873845 
L 582.006186 -312.997067 
L 582.197377 -310.120288 
L 582.33021 -307.24351 
L 582.396518 -304.366732 
L 582.389436 -301.489953 
L 582.303597 -298.613175 
L 582.1353 -295.736396 
L 581.882609 -292.859618 
L 581.545383 -289.98284 
L 581.125242 -287.106061 
L 580.625447 -284.229283 
L 580.050728 -281.352504 
L 579.407052 -278.475726 
L 578.701364 -275.598947 
L 577.941305 -272.722169 
L 577.134943 -269.845391 
L 576.290515 -266.968612 
L 575.416208 -264.091834 
L 574.519982 -261.215055 
L 573.609434 -258.338277 
L 572.69172 -255.461498 
L 571.773501 -252.58472 
L 570.860933 -249.707942 
L 569.959678 -246.831163 
L 569.074923 -243.954385 
L 568.211409 -241.077606 
L 567.373448 -238.200828 
L 566.564939 -235.32405 
L 565.789367 -232.447271 
L 565.049795 -229.570493 
L 564.348841 -226.693714 
L 563.688654 -223.816936 
L 563.070891 -220.940157 
z
" style="stroke: #1e1e1e; stroke-width: 3"/>
    </defs>
    <g clip-path="url(#pdd84f90079)">
     <use xlink:href="#m0bae1f963d" x="0" y="576" style="fill: #9ce29c; stroke: #1e1e1e; stroke-width: 3"/>
    </g>
   </g>
   <g id="PolyCollection_7">
    <defs>
     <path id="mf2ed5d8d49" d="M 747.66625 -228.333016 
L 745.20254 -228.333016 
L 744.937243 -231.113783 
L 744.659043 -233.89455 
L 744.367216 -236.675318 
L 744.060913 -239.456085 
L 743.739284 -242.236852 
L 743.401581 -245.017619 
L 743.047216 -247.798387 
L 742.675757 -250.579154 
L 742.28686 -253.359921 
L 741.880136 -256.140688 
L 741.454994 -258.921456 
L 741.010467 -261.702223 
L 740.545093 -264.48299 
L 740.056849 -267.263758 
L 739.543178 -270.044525 
L 739.001104 -272.825292 
L 738.42742 -275.606059 
L 737.818909 -278.386827 
L 737.172568 -281.167594 
L 736.485783 -283.948361 
L 735.756428 -286.729128 
L 734.982863 -289.509896 
L 734.163853 -292.290663 
L 733.298407 -295.07143 
L 732.385605 -297.852198 
L 731.424424 -300.632965 
L 730.413631 -303.413732 
L 729.351759 -306.194499 
L 728.237184 -308.975267 
L 727.068303 -311.756034 
L 725.843785 -314.536801 
L 724.562875 -317.317568 
L 723.225716 -320.098336 
L 721.833641 -322.879103 
L 720.389429 -325.65987 
L 718.897483 -328.440638 
L 717.363935 -331.221405 
L 715.796657 -334.002172 
L 714.205201 -336.782939 
L 712.600646 -339.563707 
L 710.995383 -342.344474 
L 709.402827 -345.125241 
L 707.837069 -347.906008 
L 706.312463 -350.686776 
L 704.843168 -353.467543 
L 703.442633 -356.24831 
L 702.123044 -359.029078 
L 700.894751 -361.809845 
L 699.76569 -364.590612 
L 698.740846 -367.371379 
L 697.821782 -370.152147 
L 697.006303 -372.932914 
L 696.28829 -375.713681 
L 695.657779 -378.494448 
L 695.10131 -381.275216 
L 694.602588 -384.055983 
L 694.143445 -386.83675 
L 693.705089 -389.617518 
L 693.26956 -392.398285 
L 692.8213 -395.179052 
L 692.348718 -397.959819 
L 691.845596 -400.740587 
L 691.312198 -403.521354 
L 690.755967 -406.302121 
L 690.191693 -409.082888 
L 689.641127 -411.863656 
L 689.132011 -414.644423 
L 688.696596 -417.42519 
L 688.369726 -420.205957 
L 688.186629 -422.986725 
L 688.180562 -425.767492 
L 688.380488 -428.548259 
L 688.808951 -431.329027 
L 689.480316 -434.109794 
L 690.399511 -436.890561 
L 691.561392 -439.671328 
L 692.950799 -442.452096 
L 694.543329 -445.232863 
L 696.306782 -448.01363 
L 698.203207 -450.794397 
L 700.191369 -453.575165 
L 702.229458 -456.355932 
L 704.277814 -459.136699 
L 706.301411 -461.917467 
L 708.271916 -464.698234 
L 710.169129 -467.479001 
L 711.981696 -470.259768 
L 713.707067 -473.040536 
L 715.350721 -475.821303 
L 716.924767 -478.60207 
L 718.446071 -481.382837 
L 719.934098 -484.163605 
L 721.408673 -486.944372 
L 722.887849 -489.725139 
L 724.386064 -492.505907 
L 725.912728 -495.286674 
L 727.471326 -498.067441 
L 729.059104 -500.848208 
L 730.667319 -503.628976 
L 747.66625 -503.628976 
L 747.66625 -503.628976 
L 747.66625 -500.848208 
L 747.66625 -498.067441 
L 747.66625 -495.286674 
L 747.66625 -492.505907 
L 747.66625 -489.725139 
L 747.66625 -486.944372 
L 747.66625 -484.163605 
L 747.66625 -481.382837 
L 747.66625 -478.60207 
L 747.66625 -475.821303 
L 747.66625 -473.040536 
L 747.66625 -470.259768 
L 747.66625 -467.479001 
L 747.66625 -464.698234 
L 747.66625 -461.917467 
L 747.66625 -459.136699 
L 747.66625 -456.355932 
L 747.66625 -453.575165 
L 747.66625 -450.794397 
L 747.66625 -448.01363 
L 747.66625 -445.232863 
L 747.66625 -442.452096 
L 747.66625 -439.671328 
L 747.66625 -436.890561 
L 747.66625 -434.109794 
L 747.66625 -431.329027 
L 747.66625 -428.548259 
L 747.66625 -425.767492 
L 747.66625 -422.986725 
L 747.66625 -420.205957 
L 747.66625 -417.42519 
L 747.66625 -414.644423 
L 747.66625 -411.863656 
L 747.66625 -409.082888 
L 747.66625 -406.302121 
L 747.66625 -403.521354 
L 747.66625 -400.740587 
L 747.66625 -397.959819 
L 747.66625 -395.179052 
L 747.66625 -392.398285 
L 747.66625 -389.617518 
L 747.66625 -386.83675 
L 747.66625 -384.055983 
L 747.66625 -381.275216 
L 747.66625 -378.494448 
L 747.66625 -375.713681 
L 747.66625 -372.932914 
L 747.66625 -370.152147 
L 747.66625 -367.371379 
L 747.66625 -364.590612 
L 747.66625 -361.809845 
L 747.66625 -359.029078 
L 747.66625 -356.24831 
L 747.66625 -353.467543 
L 747.66625 -350.686776 
L 747.66625 -347.906008 
L 747.66625 -345.125241 
L 747.66625 -342.344474 
L 747.66625 -339.563707 
L 747.66625 -336.782939 
L 747.66625 -334.002172 
L 747.66625 -331.221405 
L 747.66625 -328.440638 
L 747.66625 -325.65987 
L 747.66625 -322.879103 
L 747.66625 -320.098336 
L 747.66625 -317.317568 
L 747.66625 -314.536801 
L 747.66625 -311.756034 
L 747.66625 -308.975267 
L 747.66625 -306.194499 
L 747.66625 -303.413732 
L 747.66625 -300.632965 
L 747.66625 -297.852198 
L 747.66625 -295.07143 
L 747.66625 -292.290663 
L 747.66625 -289.509896 
L 747.66625 -286.729128 
L 747.66625 -283.948361 
L 747.66625 -281.167594 
L 747.66625 -278.386827 
L 747.66625 -275.606059 
L 747.66625 -272.825292 
L 747.66625 -270.044525 
L 747.66625 -267.263758 
L 747.66625 -264.48299 
L 747.66625 -261.702223 
L 747.66625 -258.921456 
L 747.66625 -256.140688 
L 747.66625 -253.359921 
L 747.66625 -250.579154 
L 747.66625 -247.798387 
L 747.66625 -245.017619 
L 747.66625 -242.236852 
L 747.66625 -239.456085 
L 747.66625 -236.675318 
L 747.66625 -233.89455 
L 747.66625 -231.113783 
L 747.66625 -228.333016 
z
" style="stroke: #1e1e1e; stroke-width: 3"/>
    </defs>
    <g clip-path="url(#pdd84f90079)">
     <use xlink:href="#mf2ed5d8d49" x="0" y="576" style="fill: #0c580c; stroke: #1e1e1e; stroke-width: 3"/>
    </g>
   </g>
   <g id="patch_3">
    <path d="M 179.26375 407.513932 
L 179.26375 407.513932 
L 179.26375 407.513932 
L 179.26375 407.513932 
z
" clip-path="url(#pdd84f90079)" style="fill: #0c580c; stroke: #1e1e1e; stroke-width: 3; stroke-linejoin: miter"/>
   </g>
   <g id="patch_4">
    <path d="M 179.26375 407.513932 
L 179.26375 407.513932 
L 179.26375 407.513932 
L 179.26375 407.513932 
z
" clip-path="url(#pdd84f90079)" style="fill: #9ce29c; stroke: #1e1e1e; stroke-width: 3; stroke-linejoin: miter"/>
   </g>
   <g id="matplotlib.axis_1">
    <g id="xtick_1">
     <g id="line2d_1"/>
     <g id="text_1">
      <!-- AlphaFold 2 -->
      <g transform="translate(141.724114 476.480439) rotate(-45) scale(0.2 -0.2)">
       <defs>
        <path id="DejaVuSans-41" d="M 2188 4044 
L 1331 1722 
L 3047 1722 
L 2188 4044 
z
M 1831 4666 
L 2547 4666 
L 4325 0 
L 3669 0 
L 3244 1197 
L 1141 1197 
L 716 0 
L 50 0 
L 1831 4666 
z
" transform="scale(0.015625)"/>
        <path id="DejaVuSans-6c" d="M 603 4863 
L 1178 4863 
L 1178 0 
L 603 0 
L 603 4863 
z
" transform="scale(0.015625)"/>
        <path id="DejaVuSans-70" d="M 1159 525 
L 1159 -1331 
L 581 -1331 
L 581 3500 
L 1159 3500 
L 1159 2969 
Q 1341 3281 1617 3432 
Q 1894 3584 2278 3584 
Q 2916 3584 3314 3078 
Q 3713 2572 3713 1747 
Q 3713 922 3314 415 
Q 2916 -91 2278 -91 
Q 1894 -91 1617 61 
Q 1341 213 1159 525 
z
M 3116 1747 
Q 3116 2381 2855 2742 
Q 2594 3103 2138 3103 
Q 1681 3103 1420 2742 
Q 1159 2381 1159 1747 
Q 1159 1113 1420 752 
Q 1681 391 2138 391 
Q 2594 391 2855 752 
Q 3116 1113 3116 1747 
z
" transform="scale(0.015625)"/>
        <path id="DejaVuSans-68" d="M 3513 2113 
L 3513 0 
L 2938 0 
L 2938 2094 
Q 2938 2591 2744 2837 
Q 2550 3084 2163 3084 
Q 1697 3084 1428 2787 
Q 1159 2491 1159 1978 
L 1159 0 
L 581 0 
L 581 4863 
L 1159 4863 
L 1159 2956 
Q 1366 3272 1645 3428 
Q 1925 3584 2291 3584 
Q 2894 3584 3203 3211 
Q 3513 2838 3513 2113 
z
" transform="scale(0.015625)"/>
        <path id="DejaVuSans-61" d="M 2194 1759 
Q 1497 1759 1228 1600 
Q 959 1441 959 1056 
Q 959 750 1161 570 
Q 1363 391 1709 391 
Q 2188 391 2477 730 
Q 2766 1069 2766 1631 
L 2766 1759 
L 2194 1759 
z
M 3341 1997 
L 3341 0 
L 2766 0 
L 2766 531 
Q 2569 213 2275 61 
Q 1981 -91 1556 -91 
Q 1019 -91 701 211 
Q 384 513 384 1019 
Q 384 1609 779 1909 
Q 1175 2209 1959 2209 
L 2766 2209 
L 2766 2266 
Q 2766 2663 2505 2880 
Q 2244 3097 1772 3097 
Q 1472 3097 1187 3025 
Q 903 2953 641 2809 
L 641 3341 
Q 956 3463 1253 3523 
Q 1550 3584 1831 3584 
Q 2591 3584 2966 3190 
Q 3341 2797 3341 1997 
z
" transform="scale(0.015625)"/>
        <path id="DejaVuSans-46" d="M 628 4666 
L 3309 4666 
L 3309 4134 
L 1259 4134 
L 1259 2759 
L 3109 2759 
L 3109 2228 
L 1259 2228 
L 1259 0 
L 628 0 
L 628 4666 
z
" transform="scale(0.015625)"/>
        <path id="DejaVuSans-6f" d="M 1959 3097 
Q 1497 3097 1228 2736 
Q 959 2375 959 1747 
Q 959 1119 1226 758 
Q 1494 397 1959 397 
Q 2419 397 2687 759 
Q 2956 1122 2956 1747 
Q 2956 2369 2687 2733 
Q 2419 3097 1959 3097 
z
M 1959 3584 
Q 2709 3584 3137 3096 
Q 3566 2609 3566 1747 
Q 3566 888 3137 398 
Q 2709 -91 1959 -91 
Q 1206 -91 779 398 
Q 353 888 353 1747 
Q 353 2609 779 3096 
Q 1206 3584 1959 3584 
z
" transform="scale(0.015625)"/>
        <path id="DejaVuSans-64" d="M 2906 2969 
L 2906 4863 
L 3481 4863 
L 3481 0 
L 2906 0 
L 2906 525 
Q 2725 213 2448 61 
Q 2172 -91 1784 -91 
Q 1150 -91 751 415 
Q 353 922 353 1747 
Q 353 2572 751 3078 
Q 1150 3584 1784 3584 
Q 2172 3584 2448 3432 
Q 2725 3281 2906 2969 
z
M 947 1747 
Q 947 1113 1208 752 
Q 1469 391 1925 391 
Q 2381 391 2643 752 
Q 2906 1113 2906 1747 
Q 2906 2381 2643 2742 
Q 2381 3103 1925 3103 
Q 1469 3103 1208 2742 
Q 947 2381 947 1747 
z
" transform="scale(0.015625)"/>
        <path id="DejaVuSans-20" transform="scale(0.015625)"/>
        <path id="DejaVuSans-32" d="M 1228 531 
L 3431 531 
L 3431 0 
L 469 0 
L 469 531 
Q 828 903 1448 1529 
Q 2069 2156 2228 2338 
Q 2531 2678 2651 2914 
Q 2772 3150 2772 3378 
Q 2772 3750 2511 3984 
Q 2250 4219 1831 4219 
Q 1534 4219 1204 4116 
Q 875 4013 500 3803 
L 500 4441 
Q 881 4594 1212 4672 
Q 1544 4750 1819 4750 
Q 2544 4750 2975 4387 
Q 3406 4025 3406 3419 
Q 3406 3131 3298 2873 
Q 3191 2616 2906 2266 
Q 2828 2175 2409 1742 
Q 1991 1309 1228 531 
z
" transform="scale(0.015625)"/>
       </defs>
       <use xlink:href="#DejaVuSans-41"/>
       <use xlink:href="#DejaVuSans-6c" x="68.408203"/>
       <use xlink:href="#DejaVuSans-70" x="96.191406"/>
       <use xlink:href="#DejaVuSans-68" x="159.667969"/>
       <use xlink:href="#DejaVuSans-61" x="223.046875"/>
       <use xlink:href="#DejaVuSans-46" x="284.326172"/>
       <use xlink:href="#DejaVuSans-6f" x="338.220703"/>
       <use xlink:href="#DejaVuSans-6c" x="399.402344"/>
       <use xlink:href="#DejaVuSans-64" x="427.185547"/>
       <use xlink:href="#DejaVuSans-20" x="490.662109"/>
       <use xlink:href="#DejaVuSans-32" x="522.449219"/>
      </g>
     </g>
    </g>
    <g id="xtick_2">
     <g id="line2d_2"/>
     <g id="text_2">
      <!-- AlphaFold 3 -->
      <g transform="translate(331.191614 476.480439) rotate(-45) scale(0.2 -0.2)">
       <defs>
        <path id="DejaVuSans-33" d="M 2597 2516 
Q 3050 2419 3304 2112 
Q 3559 1806 3559 1356 
Q 3559 666 3084 287 
Q 2609 -91 1734 -91 
Q 1441 -91 1130 -33 
Q 819 25 488 141 
L 488 750 
Q 750 597 1062 519 
Q 1375 441 1716 441 
Q 2309 441 2620 675 
Q 2931 909 2931 1356 
Q 2931 1769 2642 2001 
Q 2353 2234 1838 2234 
L 1294 2234 
L 1294 2753 
L 1863 2753 
Q 2328 2753 2575 2939 
Q 2822 3125 2822 3475 
Q 2822 3834 2567 4026 
Q 2313 4219 1838 4219 
Q 1578 4219 1281 4162 
Q 984 4106 628 3988 
L 628 4550 
Q 988 4650 1302 4700 
Q 1616 4750 1894 4750 
Q 2613 4750 3031 4423 
Q 3450 4097 3450 3541 
Q 3450 3153 3228 2886 
Q 3006 2619 2597 2516 
z
" transform="scale(0.015625)"/>
       </defs>
       <use xlink:href="#DejaVuSans-41"/>
       <use xlink:href="#DejaVuSans-6c" x="68.408203"/>
       <use xlink:href="#DejaVuSans-70" x="96.191406"/>
       <use xlink:href="#DejaVuSans-68" x="159.667969"/>
       <use xlink:href="#DejaVuSans-61" x="223.046875"/>
       <use xlink:href="#DejaVuSans-46" x="284.326172"/>
       <use xlink:href="#DejaVuSans-6f" x="338.220703"/>
       <use xlink:href="#DejaVuSans-6c" x="399.402344"/>
       <use xlink:href="#DejaVuSans-64" x="427.185547"/>
       <use xlink:href="#DejaVuSans-20" x="490.662109"/>
       <use xlink:href="#DejaVuSans-33" x="522.449219"/>
      </g>
     </g>
    </g>
    <g id="xtick_3">
     <g id="line2d_3"/>
     <g id="text_3">
      <!-- RoseTTAFold2 -->
      <g transform="translate(513.25217 491.294326) rotate(-45) scale(0.2 -0.2)">
       <defs>
        <path id="DejaVuSans-52" d="M 2841 2188 
Q 3044 2119 3236 1894 
Q 3428 1669 3622 1275 
L 4263 0 
L 3584 0 
L 2988 1197 
Q 2756 1666 2539 1819 
Q 2322 1972 1947 1972 
L 1259 1972 
L 1259 0 
L 628 0 
L 628 4666 
L 2053 4666 
Q 2853 4666 3247 4331 
Q 3641 3997 3641 3322 
Q 3641 2881 3436 2590 
Q 3231 2300 2841 2188 
z
M 1259 4147 
L 1259 2491 
L 2053 2491 
Q 2509 2491 2742 2702 
Q 2975 2913 2975 3322 
Q 2975 3731 2742 3939 
Q 2509 4147 2053 4147 
L 1259 4147 
z
" transform="scale(0.015625)"/>
        <path id="DejaVuSans-73" d="M 2834 3397 
L 2834 2853 
Q 2591 2978 2328 3040 
Q 2066 3103 1784 3103 
Q 1356 3103 1142 2972 
Q 928 2841 928 2578 
Q 928 2378 1081 2264 
Q 1234 2150 1697 2047 
L 1894 2003 
Q 2506 1872 2764 1633 
Q 3022 1394 3022 966 
Q 3022 478 2636 193 
Q 2250 -91 1575 -91 
Q 1294 -91 989 -36 
Q 684 19 347 128 
L 347 722 
Q 666 556 975 473 
Q 1284 391 1588 391 
Q 1994 391 2212 530 
Q 2431 669 2431 922 
Q 2431 1156 2273 1281 
Q 2116 1406 1581 1522 
L 1381 1569 
Q 847 1681 609 1914 
Q 372 2147 372 2553 
Q 372 3047 722 3315 
Q 1072 3584 1716 3584 
Q 2034 3584 2315 3537 
Q 2597 3491 2834 3397 
z
" transform="scale(0.015625)"/>
        <path id="DejaVuSans-65" d="M 3597 1894 
L 3597 1613 
L 953 1613 
Q 991 1019 1311 708 
Q 1631 397 2203 397 
Q 2534 397 2845 478 
Q 3156 559 3463 722 
L 3463 178 
Q 3153 47 2828 -22 
Q 2503 -91 2169 -91 
Q 1331 -91 842 396 
Q 353 884 353 1716 
Q 353 2575 817 3079 
Q 1281 3584 2069 3584 
Q 2775 3584 3186 3129 
Q 3597 2675 3597 1894 
z
M 3022 2063 
Q 3016 2534 2758 2815 
Q 2500 3097 2075 3097 
Q 1594 3097 1305 2825 
Q 1016 2553 972 2059 
L 3022 2063 
z
" transform="scale(0.015625)"/>
        <path id="DejaVuSans-54" d="M -19 4666 
L 3928 4666 
L 3928 4134 
L 2272 4134 
L 2272 0 
L 1638 0 
L 1638 4134 
L -19 4134 
L -19 4666 
z
" transform="scale(0.015625)"/>
       </defs>
       <use xlink:href="#DejaVuSans-52"/>
       <use xlink:href="#DejaVuSans-6f" x="64.982422"/>
       <use xlink:href="#DejaVuSans-73" x="126.164062"/>
       <use xlink:href="#DejaVuSans-65" x="178.263672"/>
       <use xlink:href="#DejaVuSans-54" x="239.787109"/>
       <use xlink:href="#DejaVuSans-54" x="299.121094"/>
       <use xlink:href="#DejaVuSans-41" x="352.455078"/>
       <use xlink:href="#DejaVuSans-46" x="420.863281"/>
       <use xlink:href="#DejaVuSans-6f" x="474.757812"/>
       <use xlink:href="#DejaVuSans-6c" x="535.939453"/>
       <use xlink:href="#DejaVuSans-64" x="563.722656"/>
       <use xlink:href="#DejaVuSans-32" x="627.199219"/>
      </g>
     </g>
    </g>
    <g id="xtick_4">
     <g id="line2d_4"/>
     <g id="text_4">
      <!-- AlphaFold2 Cluster -->
      <g transform="translate(685.029847 526.673972) rotate(-45) scale(0.2 -0.2)">
       <defs>
        <path id="DejaVuSans-43" d="M 4122 4306 
L 4122 3641 
Q 3803 3938 3442 4084 
Q 3081 4231 2675 4231 
Q 1875 4231 1450 3742 
Q 1025 3253 1025 2328 
Q 1025 1406 1450 917 
Q 1875 428 2675 428 
Q 3081 428 3442 575 
Q 3803 722 4122 1019 
L 4122 359 
Q 3791 134 3420 21 
Q 3050 -91 2638 -91 
Q 1578 -91 968 557 
Q 359 1206 359 2328 
Q 359 3453 968 4101 
Q 1578 4750 2638 4750 
Q 3056 4750 3426 4639 
Q 3797 4528 4122 4306 
z
" transform="scale(0.015625)"/>
        <path id="DejaVuSans-75" d="M 544 1381 
L 544 3500 
L 1119 3500 
L 1119 1403 
Q 1119 906 1312 657 
Q 1506 409 1894 409 
Q 2359 409 2629 706 
Q 2900 1003 2900 1516 
L 2900 3500 
L 3475 3500 
L 3475 0 
L 2900 0 
L 2900 538 
Q 2691 219 2414 64 
Q 2138 -91 1772 -91 
Q 1169 -91 856 284 
Q 544 659 544 1381 
z
M 1991 3584 
L 1991 3584 
z
" transform="scale(0.015625)"/>
        <path id="DejaVuSans-74" d="M 1172 4494 
L 1172 3500 
L 2356 3500 
L 2356 3053 
L 1172 3053 
L 1172 1153 
Q 1172 725 1289 603 
Q 1406 481 1766 481 
L 2356 481 
L 2356 0 
L 1766 0 
Q 1100 0 847 248 
Q 594 497 594 1153 
L 594 3053 
L 172 3053 
L 172 3500 
L 594 3500 
L 594 4494 
L 1172 4494 
z
" transform="scale(0.015625)"/>
        <path id="DejaVuSans-72" d="M 2631 2963 
Q 2534 3019 2420 3045 
Q 2306 3072 2169 3072 
Q 1681 3072 1420 2755 
Q 1159 2438 1159 1844 
L 1159 0 
L 581 0 
L 581 3500 
L 1159 3500 
L 1159 2956 
Q 1341 3275 1631 3429 
Q 1922 3584 2338 3584 
Q 2397 3584 2469 3576 
Q 2541 3569 2628 3553 
L 2631 2963 
z
" transform="scale(0.015625)"/>
       </defs>
       <use xlink:href="#DejaVuSans-41"/>
       <use xlink:href="#DejaVuSans-6c" x="68.408203"/>
       <use xlink:href="#DejaVuSans-70" x="96.191406"/>
       <use xlink:href="#DejaVuSans-68" x="159.667969"/>
       <use xlink:href="#DejaVuSans-61" x="223.046875"/>
       <use xlink:href="#DejaVuSans-46" x="284.326172"/>
       <use xlink:href="#DejaVuSans-6f" x="338.220703"/>
       <use xlink:href="#DejaVuSans-6c" x="399.402344"/>
       <use xlink:href="#DejaVuSans-64" x="427.185547"/>
       <use xlink:href="#DejaVuSans-32" x="490.662109"/>
       <use xlink:href="#DejaVuSans-20" x="554.285156"/>
       <use xlink:href="#DejaVuSans-43" x="586.072266"/>
       <use xlink:href="#DejaVuSans-6c" x="655.896484"/>
       <use xlink:href="#DejaVuSans-75" x="683.679688"/>
       <use xlink:href="#DejaVuSans-73" x="747.058594"/>
       <use xlink:href="#DejaVuSans-74" x="799.158203"/>
       <use xlink:href="#DejaVuSans-65" x="838.367188"/>
       <use xlink:href="#DejaVuSans-72" x="899.890625"/>
      </g>
     </g>
    </g>
    <g id="text_5">
     <!-- Model -->
     <g transform="translate(433.438438 548.811969) scale(0.2 -0.2)">
      <defs>
       <path id="DejaVuSans-4d" d="M 628 4666 
L 1569 4666 
L 2759 1491 
L 3956 4666 
L 4897 4666 
L 4897 0 
L 4281 0 
L 4281 4097 
L 3078 897 
L 2444 897 
L 1241 4097 
L 1241 0 
L 628 0 
L 628 4666 
z
" transform="scale(0.015625)"/>
      </defs>
      <use xlink:href="#DejaVuSans-4d"/>
      <use xlink:href="#DejaVuSans-6f" x="86.279297"/>
      <use xlink:href="#DejaVuSans-64" x="147.460938"/>
      <use xlink:href="#DejaVuSans-65" x="210.9375"/>
      <use xlink:href="#DejaVuSans-6c" x="272.460938"/>
     </g>
    </g>
   </g>
   <g id="matplotlib.axis_2">
    <g id="ytick_1">
     <g id="line2d_5">
      <defs>
       <path id="m02a41f1eb8" d="M 0 0 
L -3.5 0 
" style="stroke: #000000; stroke-width: 0.8"/>
      </defs>
      <g>
       <use xlink:href="#m02a41f1eb8" x="84.53" y="337.105758" style="stroke: #000000; stroke-width: 0.8"/>
      </g>
     </g>
     <g id="text_6">
      <!-- 0.2 -->
      <g transform="translate(45.72375 344.704196) scale(0.2 -0.2)">
       <defs>
        <path id="DejaVuSans-30" d="M 2034 4250 
Q 1547 4250 1301 3770 
Q 1056 3291 1056 2328 
Q 1056 1369 1301 889 
Q 1547 409 2034 409 
Q 2525 409 2770 889 
Q 3016 1369 3016 2328 
Q 3016 3291 2770 3770 
Q 2525 4250 2034 4250 
z
M 2034 4750 
Q 2819 4750 3233 4129 
Q 3647 3509 3647 2328 
Q 3647 1150 3233 529 
Q 2819 -91 2034 -91 
Q 1250 -91 836 529 
Q 422 1150 422 2328 
Q 422 3509 836 4129 
Q 1250 4750 2034 4750 
z
" transform="scale(0.015625)"/>
        <path id="DejaVuSans-2e" d="M 684 794 
L 1344 794 
L 1344 0 
L 684 0 
L 684 794 
z
" transform="scale(0.015625)"/>
       </defs>
       <use xlink:href="#DejaVuSans-30"/>
       <use xlink:href="#DejaVuSans-2e" x="63.623047"/>
       <use xlink:href="#DejaVuSans-32" x="95.410156"/>
      </g>
     </g>
    </g>
    <g id="ytick_2">
     <g id="line2d_6">
      <g>
       <use xlink:href="#m02a41f1eb8" x="84.53" y="266.697584" style="stroke: #000000; stroke-width: 0.8"/>
      </g>
     </g>
     <g id="text_7">
      <!-- 0.4 -->
      <g transform="translate(45.72375 274.296022) scale(0.2 -0.2)">
       <defs>
        <path id="DejaVuSans-34" d="M 2419 4116 
L 825 1625 
L 2419 1625 
L 2419 4116 
z
M 2253 4666 
L 3047 4666 
L 3047 1625 
L 3713 1625 
L 3713 1100 
L 3047 1100 
L 3047 0 
L 2419 0 
L 2419 1100 
L 313 1100 
L 313 1709 
L 2253 4666 
z
" transform="scale(0.015625)"/>
       </defs>
       <use xlink:href="#DejaVuSans-30"/>
       <use xlink:href="#DejaVuSans-2e" x="63.623047"/>
       <use xlink:href="#DejaVuSans-34" x="95.410156"/>
      </g>
     </g>
    </g>
    <g id="ytick_3">
     <g id="line2d_7">
      <g>
       <use xlink:href="#m02a41f1eb8" x="84.53" y="196.28941" style="stroke: #000000; stroke-width: 0.8"/>
      </g>
     </g>
     <g id="text_8">
      <!-- 0.6 -->
      <g transform="translate(45.72375 203.887848) scale(0.2 -0.2)">
       <defs>
        <path id="DejaVuSans-36" d="M 2113 2584 
Q 1688 2584 1439 2293 
Q 1191 2003 1191 1497 
Q 1191 994 1439 701 
Q 1688 409 2113 409 
Q 2538 409 2786 701 
Q 3034 994 3034 1497 
Q 3034 2003 2786 2293 
Q 2538 2584 2113 2584 
z
M 3366 4563 
L 3366 3988 
Q 3128 4100 2886 4159 
Q 2644 4219 2406 4219 
Q 1781 4219 1451 3797 
Q 1122 3375 1075 2522 
Q 1259 2794 1537 2939 
Q 1816 3084 2150 3084 
Q 2853 3084 3261 2657 
Q 3669 2231 3669 1497 
Q 3669 778 3244 343 
Q 2819 -91 2113 -91 
Q 1303 -91 875 529 
Q 447 1150 447 2328 
Q 447 3434 972 4092 
Q 1497 4750 2381 4750 
Q 2619 4750 2861 4703 
Q 3103 4656 3366 4563 
z
" transform="scale(0.015625)"/>
       </defs>
       <use xlink:href="#DejaVuSans-30"/>
       <use xlink:href="#DejaVuSans-2e" x="63.623047"/>
       <use xlink:href="#DejaVuSans-36" x="95.410156"/>
      </g>
     </g>
    </g>
    <g id="ytick_4">
     <g id="line2d_8">
      <g>
       <use xlink:href="#m02a41f1eb8" x="84.53" y="125.881237" style="stroke: #000000; stroke-width: 0.8"/>
      </g>
     </g>
     <g id="text_9">
      <!-- 0.8 -->
      <g transform="translate(45.72375 133.479674) scale(0.2 -0.2)">
       <defs>
        <path id="DejaVuSans-38" d="M 2034 2216 
Q 1584 2216 1326 1975 
Q 1069 1734 1069 1313 
Q 1069 891 1326 650 
Q 1584 409 2034 409 
Q 2484 409 2743 651 
Q 3003 894 3003 1313 
Q 3003 1734 2745 1975 
Q 2488 2216 2034 2216 
z
M 1403 2484 
Q 997 2584 770 2862 
Q 544 3141 544 3541 
Q 544 4100 942 4425 
Q 1341 4750 2034 4750 
Q 2731 4750 3128 4425 
Q 3525 4100 3525 3541 
Q 3525 3141 3298 2862 
Q 3072 2584 2669 2484 
Q 3125 2378 3379 2068 
Q 3634 1759 3634 1313 
Q 3634 634 3220 271 
Q 2806 -91 2034 -91 
Q 1263 -91 848 271 
Q 434 634 434 1313 
Q 434 1759 690 2068 
Q 947 2378 1403 2484 
z
M 1172 3481 
Q 1172 3119 1398 2916 
Q 1625 2713 2034 2713 
Q 2441 2713 2670 2916 
Q 2900 3119 2900 3481 
Q 2900 3844 2670 4047 
Q 2441 4250 2034 4250 
Q 1625 4250 1398 4047 
Q 1172 3844 1172 3481 
z
" transform="scale(0.015625)"/>
       </defs>
       <use xlink:href="#DejaVuSans-30"/>
       <use xlink:href="#DejaVuSans-2e" x="63.623047"/>
       <use xlink:href="#DejaVuSans-38" x="95.410156"/>
      </g>
     </g>
    </g>
    <g id="ytick_5">
     <g id="line2d_9">
      <g>
       <use xlink:href="#m02a41f1eb8" x="84.53" y="55.473063" style="stroke: #000000; stroke-width: 0.8"/>
      </g>
     </g>
     <g id="text_10">
      <!-- 1.0 -->
      <g transform="translate(45.72375 63.0715) scale(0.2 -0.2)">
       <defs>
        <path id="DejaVuSans-31" d="M 794 531 
L 1825 531 
L 1825 4091 
L 703 3866 
L 703 4441 
L 1819 4666 
L 2450 4666 
L 2450 531 
L 3481 531 
L 3481 0 
L 794 0 
L 794 531 
z
" transform="scale(0.015625)"/>
       </defs>
       <use xlink:href="#DejaVuSans-31"/>
       <use xlink:href="#DejaVuSans-2e" x="63.623047"/>
       <use xlink:href="#DejaVuSans-30" x="95.410156"/>
      </g>
     </g>
    </g>
    <g id="text_11">
     <!-- lDDT -->
     <g transform="translate(37.564375 237.121269) rotate(-90) scale(0.2 -0.2)">
      <defs>
       <path id="DejaVuSans-44" d="M 1259 4147 
L 1259 519 
L 2022 519 
Q 2988 519 3436 956 
Q 3884 1394 3884 2338 
Q 3884 3275 3436 3711 
Q 2988 4147 2022 4147 
L 1259 4147 
z
M 628 4666 
L 1925 4666 
Q 3281 4666 3915 4102 
Q 4550 3538 4550 2338 
Q 4550 1131 3912 565 
Q 3275 0 1925 0 
L 628 0 
L 628 4666 
z
" transform="scale(0.015625)"/>
      </defs>
      <use xlink:href="#DejaVuSans-6c"/>
      <use xlink:href="#DejaVuSans-44" x="27.783203"/>
      <use xlink:href="#DejaVuSans-44" x="104.785156"/>
      <use xlink:href="#DejaVuSans-54" x="181.787109"/>
     </g>
    </g>
   </g>
   <g id="line2d_10">
    <path d="M 143.086199 273.386361 
L 179.26375 273.386361 
" clip-path="url(#pdd84f90079)" style="fill: none; stroke-dasharray: 3.75,2.25; stroke-dashoffset: 0; stroke: #1e1e1e; stroke-width: 3"/>
   </g>
   <g id="line2d_11">
    <path d="M 148.402484 199.457778 
L 179.26375 199.457778 
" clip-path="url(#pdd84f90079)" style="fill: none; stroke-dasharray: 7.5,3; stroke-dashoffset: 0; stroke: #1e1e1e; stroke-width: 3"/>
   </g>
   <g id="line2d_12">
    <path d="M 142.179153 128.169502 
L 179.26375 128.169502 
" clip-path="url(#pdd84f90079)" style="fill: none; stroke-dasharray: 3.75,2.25; stroke-dashoffset: 0; stroke: #1e1e1e; stroke-width: 3"/>
   </g>
   <g id="line2d_13">
    <path d="M 179.26375 161.085323 
L 223.509601 161.085323 
" clip-path="url(#pdd84f90079)" style="fill: none; stroke-dasharray: 3.75,2.25; stroke-dashoffset: 0; stroke: #1e1e1e; stroke-width: 3"/>
   </g>
   <g id="line2d_14">
    <path d="M 179.26375 125.177155 
L 248.923435 125.177155 
" clip-path="url(#pdd84f90079)" style="fill: none; stroke-dasharray: 7.5,3; stroke-dashoffset: 0; stroke: #1e1e1e; stroke-width: 3"/>
   </g>
   <g id="line2d_15">
    <path d="M 179.26375 100.006233 
L 247.287868 100.006233 
" clip-path="url(#pdd84f90079)" style="fill: none; stroke-dasharray: 3.75,2.25; stroke-dashoffset: 0; stroke: #1e1e1e; stroke-width: 3"/>
   </g>
   <g id="line2d_16">
    <path d="M 335.111671 252.175898 
L 368.73125 252.175898 
" clip-path="url(#pdd84f90079)" style="fill: none; stroke-dasharray: 3.75,2.25; stroke-dashoffset: 0; stroke: #1e1e1e; stroke-width: 3"/>
   </g>
   <g id="line2d_17">
    <path d="M 334.828787 186.432266 
L 368.73125 186.432266 
" clip-path="url(#pdd84f90079)" style="fill: none; stroke-dasharray: 7.5,3; stroke-dashoffset: 0; stroke: #1e1e1e; stroke-width: 3"/>
   </g>
   <g id="line2d_18">
    <path d="M 328.281061 125.617206 
L 368.73125 125.617206 
" clip-path="url(#pdd84f90079)" style="fill: none; stroke-dasharray: 3.75,2.25; stroke-dashoffset: 0; stroke: #1e1e1e; stroke-width: 3"/>
   </g>
   <g id="line2d_19">
    <path d="M 368.73125 157.036853 
L 419.287795 157.036853 
" clip-path="url(#pdd84f90079)" style="fill: none; stroke-dasharray: 3.75,2.25; stroke-dashoffset: 0; stroke: #1e1e1e; stroke-width: 3"/>
   </g>
   <g id="line2d_20">
    <path d="M 368.73125 124.121032 
L 440.77653 124.121032 
" clip-path="url(#pdd84f90079)" style="fill: none; stroke-dasharray: 7.5,3; stroke-dashoffset: 0; stroke: #1e1e1e; stroke-width: 3"/>
   </g>
   <g id="line2d_21">
    <path d="M 368.73125 98.598069 
L 441.125366 98.598069 
" clip-path="url(#pdd84f90079)" style="fill: none; stroke-dasharray: 3.75,2.25; stroke-dashoffset: 0; stroke: #1e1e1e; stroke-width: 3"/>
   </g>
   <g id="line2d_22">
    <path d="M 493.335797 288.876159 
L 558.19875 288.876159 
" clip-path="url(#pdd84f90079)" style="fill: none; stroke-dasharray: 3.75,2.25; stroke-dashoffset: 0; stroke: #1e1e1e; stroke-width: 3"/>
   </g>
   <g id="line2d_23">
    <path d="M 482.669062 258.072583 
L 558.19875 258.072583 
" clip-path="url(#pdd84f90079)" style="fill: none; stroke-dasharray: 7.5,3; stroke-dashoffset: 0; stroke: #1e1e1e; stroke-width: 3"/>
   </g>
   <g id="line2d_24">
    <path d="M 500.603951 227.885078 
L 558.19875 227.885078 
" clip-path="url(#pdd84f90079)" style="fill: none; stroke-dasharray: 3.75,2.25; stroke-dashoffset: 0; stroke: #1e1e1e; stroke-width: 3"/>
   </g>
   <g id="line2d_25">
    <path d="M 558.19875 238.182274 
L 579.451587 238.182274 
" clip-path="url(#pdd84f90079)" style="fill: none; stroke-dasharray: 3.75,2.25; stroke-dashoffset: 0; stroke: #1e1e1e; stroke-width: 3"/>
   </g>
   <g id="line2d_26">
    <path d="M 558.19875 158.973078 
L 603.25991 158.973078 
" clip-path="url(#pdd84f90079)" style="fill: none; stroke-dasharray: 7.5,3; stroke-dashoffset: 0; stroke: #1e1e1e; stroke-width: 3"/>
   </g>
   <g id="line2d_27">
    <path d="M 558.19875 122.448838 
L 610.742895 122.448838 
" clip-path="url(#pdd84f90079)" style="fill: none; stroke-dasharray: 3.75,2.25; stroke-dashoffset: 0; stroke: #1e1e1e; stroke-width: 3"/>
   </g>
   <g id="line2d_28">
    <path d="M 701.034936 214.507525 
L 747.66625 214.507525 
" clip-path="url(#pdd84f90079)" style="fill: none; stroke-dasharray: 3.75,2.25; stroke-dashoffset: 0; stroke: #1e1e1e; stroke-width: 3"/>
   </g>
   <g id="line2d_29">
    <path d="M 691.180965 171.82257 
L 747.66625 171.82257 
" clip-path="url(#pdd84f90079)" style="fill: none; stroke-dasharray: 7.5,3; stroke-dashoffset: 0; stroke: #1e1e1e; stroke-width: 3"/>
   </g>
   <g id="line2d_30">
    <path d="M 693.208414 133.098074 
L 747.66625 133.098074 
" clip-path="url(#pdd84f90079)" style="fill: none; stroke-dasharray: 3.75,2.25; stroke-dashoffset: 0; stroke: #1e1e1e; stroke-width: 3"/>
   </g>
   <g id="patch_5">
    <path d="M 84.53 379.350663 
L 84.53 46.32 
" style="fill: none; stroke: #000000; stroke-width: 3; stroke-linejoin: miter; stroke-linecap: square"/>
   </g>
   <g id="text_12">
    <!-- lDDT of best model (N=174) -->
    <g transform="translate(292.87375 40.32) scale(0.24 -0.24)">
     <defs>
      <path id="DejaVuSans-66" d="M 2375 4863 
L 2375 4384 
L 1825 4384 
Q 1516 4384 1395 4259 
Q 1275 4134 1275 3809 
L 1275 3500 
L 2222 3500 
L 2222 3053 
L 1275 3053 
L 1275 0 
L 697 0 
L 697 3053 
L 147 3053 
L 147 3500 
L 697 3500 
L 697 3744 
Q 697 4328 969 4595 
Q 1241 4863 1831 4863 
L 2375 4863 
z
" transform="scale(0.015625)"/>
      <path id="DejaVuSans-62" d="M 3116 1747 
Q 3116 2381 2855 2742 
Q 2594 3103 2138 3103 
Q 1681 3103 1420 2742 
Q 1159 2381 1159 1747 
Q 1159 1113 1420 752 
Q 1681 391 2138 391 
Q 2594 391 2855 752 
Q 3116 1113 3116 1747 
z
M 1159 2969 
Q 1341 3281 1617 3432 
Q 1894 3584 2278 3584 
Q 2916 3584 3314 3078 
Q 3713 2572 3713 1747 
Q 3713 922 3314 415 
Q 2916 -91 2278 -91 
Q 1894 -91 1617 61 
Q 1341 213 1159 525 
L 1159 0 
L 581 0 
L 581 4863 
L 1159 4863 
L 1159 2969 
z
" transform="scale(0.015625)"/>
      <path id="DejaVuSans-6d" d="M 3328 2828 
Q 3544 3216 3844 3400 
Q 4144 3584 4550 3584 
Q 5097 3584 5394 3201 
Q 5691 2819 5691 2113 
L 5691 0 
L 5113 0 
L 5113 2094 
Q 5113 2597 4934 2840 
Q 4756 3084 4391 3084 
Q 3944 3084 3684 2787 
Q 3425 2491 3425 1978 
L 3425 0 
L 2847 0 
L 2847 2094 
Q 2847 2600 2669 2842 
Q 2491 3084 2119 3084 
Q 1678 3084 1418 2786 
Q 1159 2488 1159 1978 
L 1159 0 
L 581 0 
L 581 3500 
L 1159 3500 
L 1159 2956 
Q 1356 3278 1631 3431 
Q 1906 3584 2284 3584 
Q 2666 3584 2933 3390 
Q 3200 3197 3328 2828 
z
" transform="scale(0.015625)"/>
      <path id="DejaVuSans-28" d="M 1984 4856 
Q 1566 4138 1362 3434 
Q 1159 2731 1159 2009 
Q 1159 1288 1364 580 
Q 1569 -128 1984 -844 
L 1484 -844 
Q 1016 -109 783 600 
Q 550 1309 550 2009 
Q 550 2706 781 3412 
Q 1013 4119 1484 4856 
L 1984 4856 
z
" transform="scale(0.015625)"/>
      <path id="DejaVuSans-4e" d="M 628 4666 
L 1478 4666 
L 3547 763 
L 3547 4666 
L 4159 4666 
L 4159 0 
L 3309 0 
L 1241 3903 
L 1241 0 
L 628 0 
L 628 4666 
z
" transform="scale(0.015625)"/>
      <path id="DejaVuSans-3d" d="M 678 2906 
L 4684 2906 
L 4684 2381 
L 678 2381 
L 678 2906 
z
M 678 1631 
L 4684 1631 
L 4684 1100 
L 678 1100 
L 678 1631 
z
" transform="scale(0.015625)"/>
      <path id="DejaVuSans-37" d="M 525 4666 
L 3525 4666 
L 3525 4397 
L 1831 0 
L 1172 0 
L 2766 4134 
L 525 4134 
L 525 4666 
z
" transform="scale(0.015625)"/>
      <path id="DejaVuSans-29" d="M 513 4856 
L 1013 4856 
Q 1481 4119 1714 3412 
Q 1947 2706 1947 2009 
Q 1947 1309 1714 600 
Q 1481 -109 1013 -844 
L 513 -844 
Q 928 -128 1133 580 
Q 1338 1288 1338 2009 
Q 1338 2731 1133 3434 
Q 928 4138 513 4856 
z
" transform="scale(0.015625)"/>
     </defs>
     <use xlink:href="#DejaVuSans-6c"/>
     <use xlink:href="#DejaVuSans-44" x="27.783203"/>
     <use xlink:href="#DejaVuSans-44" x="104.785156"/>
     <use xlink:href="#DejaVuSans-54" x="181.787109"/>
     <use xlink:href="#DejaVuSans-20" x="242.871094"/>
     <use xlink:href="#DejaVuSans-6f" x="274.658203"/>
     <use xlink:href="#DejaVuSans-66" x="335.839844"/>
     <use xlink:href="#DejaVuSans-20" x="371.044922"/>
     <use xlink:href="#DejaVuSans-62" x="402.832031"/>
     <use xlink:href="#DejaVuSans-65" x="466.308594"/>
     <use xlink:href="#DejaVuSans-73" x="527.832031"/>
     <use xlink:href="#DejaVuSans-74" x="579.931641"/>
     <use xlink:href="#DejaVuSans-20" x="619.140625"/>
     <use xlink:href="#DejaVuSans-6d" x="650.927734"/>
     <use xlink:href="#DejaVuSans-6f" x="748.339844"/>
     <use xlink:href="#DejaVuSans-64" x="809.521484"/>
     <use xlink:href="#DejaVuSans-65" x="872.998047"/>
     <use xlink:href="#DejaVuSans-6c" x="934.521484"/>
     <use xlink:href="#DejaVuSans-20" x="962.304688"/>
     <use xlink:href="#DejaVuSans-28" x="994.091797"/>
     <use xlink:href="#DejaVuSans-4e" x="1033.105469"/>
     <use xlink:href="#DejaVuSans-3d" x="1107.910156"/>
     <use xlink:href="#DejaVuSans-31" x="1191.699219"/>
     <use xlink:href="#DejaVuSans-37" x="1255.322266"/>
     <use xlink:href="#DejaVuSans-34" x="1318.945312"/>
     <use xlink:href="#DejaVuSans-29" x="1382.568359"/>
    </g>
   </g>
   <g id="legend_1">
    <g id="patch_6">
     <path d="M 384.2525 369.350663 
L 542.6775 369.350663 
Q 546.6775 369.350663 546.6775 365.350663 
L 546.6775 279.281913 
Q 546.6775 275.281913 542.6775 275.281913 
L 384.2525 275.281913 
Q 380.2525 275.281913 380.2525 279.281913 
L 380.2525 365.350663 
Q 380.2525 369.350663 384.2525 369.350663 
z
" style="fill: #ffffff; opacity: 0.8; stroke: #cccccc; stroke-linejoin: miter"/>
    </g>
    <g id="text_13">
     <!-- MSA -->
     <g transform="translate(441.460312 298.478788) scale(0.2 -0.2)">
      <defs>
       <path id="DejaVuSans-53" d="M 3425 4513 
L 3425 3897 
Q 3066 4069 2747 4153 
Q 2428 4238 2131 4238 
Q 1616 4238 1336 4038 
Q 1056 3838 1056 3469 
Q 1056 3159 1242 3001 
Q 1428 2844 1947 2747 
L 2328 2669 
Q 3034 2534 3370 2195 
Q 3706 1856 3706 1288 
Q 3706 609 3251 259 
Q 2797 -91 1919 -91 
Q 1588 -91 1214 -16 
Q 841 59 441 206 
L 441 856 
Q 825 641 1194 531 
Q 1563 422 1919 422 
Q 2459 422 2753 634 
Q 3047 847 3047 1241 
Q 3047 1584 2836 1778 
Q 2625 1972 2144 2069 
L 1759 2144 
Q 1053 2284 737 2584 
Q 422 2884 422 3419 
Q 422 4038 858 4394 
Q 1294 4750 2059 4750 
Q 2388 4750 2728 4690 
Q 3069 4631 3425 4513 
z
" transform="scale(0.015625)"/>
      </defs>
      <use xlink:href="#DejaVuSans-4d"/>
      <use xlink:href="#DejaVuSans-53" x="86.279297"/>
      <use xlink:href="#DejaVuSans-41" x="151.630859"/>
     </g>
    </g>
    <g id="patch_7">
     <path d="M 388.2525 327.835038 
L 428.2525 327.835038 
L 428.2525 313.835038 
L 388.2525 313.835038 
z
" style="fill: #006400"/>
    </g>
    <g id="text_14">
     <!-- MMseqs2 -->
     <g transform="translate(444.2525 327.835038) scale(0.2 -0.2)">
      <defs>
       <path id="DejaVuSans-71" d="M 947 1747 
Q 947 1113 1208 752 
Q 1469 391 1925 391 
Q 2381 391 2643 752 
Q 2906 1113 2906 1747 
Q 2906 2381 2643 2742 
Q 2381 3103 1925 3103 
Q 1469 3103 1208 2742 
Q 947 2381 947 1747 
z
M 2906 525 
Q 2725 213 2448 61 
Q 2172 -91 1784 -91 
Q 1150 -91 751 415 
Q 353 922 353 1747 
Q 353 2572 751 3078 
Q 1150 3584 1784 3584 
Q 2172 3584 2448 3432 
Q 2725 3281 2906 2969 
L 2906 3500 
L 3481 3500 
L 3481 -1331 
L 2906 -1331 
L 2906 525 
z
" transform="scale(0.015625)"/>
      </defs>
      <use xlink:href="#DejaVuSans-4d"/>
      <use xlink:href="#DejaVuSans-4d" x="86.279297"/>
      <use xlink:href="#DejaVuSans-73" x="172.558594"/>
      <use xlink:href="#DejaVuSans-65" x="224.658203"/>
      <use xlink:href="#DejaVuSans-71" x="286.181641"/>
      <use xlink:href="#DejaVuSans-73" x="349.658203"/>
      <use xlink:href="#DejaVuSans-32" x="401.757812"/>
     </g>
    </g>
    <g id="patch_8">
     <path d="M 388.2525 357.191288 
L 428.2525 357.191288 
L 428.2525 343.191288 
L 388.2525 343.191288 
z
" style="fill: #90ee90"/>
    </g>
    <g id="text_15">
     <!-- Synthetic -->
     <g transform="translate(444.2525 357.191288) scale(0.2 -0.2)">
      <defs>
       <path id="DejaVuSans-79" d="M 2059 -325 
Q 1816 -950 1584 -1140 
Q 1353 -1331 966 -1331 
L 506 -1331 
L 506 -850 
L 844 -850 
Q 1081 -850 1212 -737 
Q 1344 -625 1503 -206 
L 1606 56 
L 191 3500 
L 800 3500 
L 1894 763 
L 2988 3500 
L 3597 3500 
L 2059 -325 
z
" transform="scale(0.015625)"/>
       <path id="DejaVuSans-6e" d="M 3513 2113 
L 3513 0 
L 2938 0 
L 2938 2094 
Q 2938 2591 2744 2837 
Q 2550 3084 2163 3084 
Q 1697 3084 1428 2787 
Q 1159 2491 1159 1978 
L 1159 0 
L 581 0 
L 581 3500 
L 1159 3500 
L 1159 2956 
Q 1366 3272 1645 3428 
Q 1925 3584 2291 3584 
Q 2894 3584 3203 3211 
Q 3513 2838 3513 2113 
z
" transform="scale(0.015625)"/>
       <path id="DejaVuSans-69" d="M 603 3500 
L 1178 3500 
L 1178 0 
L 603 0 
L 603 3500 
z
M 603 4863 
L 1178 4863 
L 1178 4134 
L 603 4134 
L 603 4863 
z
" transform="scale(0.015625)"/>
       <path id="DejaVuSans-63" d="M 3122 3366 
L 3122 2828 
Q 2878 2963 2633 3030 
Q 2388 3097 2138 3097 
Q 1578 3097 1268 2742 
Q 959 2388 959 1747 
Q 959 1106 1268 751 
Q 1578 397 2138 397 
Q 2388 397 2633 464 
Q 2878 531 3122 666 
L 3122 134 
Q 2881 22 2623 -34 
Q 2366 -91 2075 -91 
Q 1284 -91 818 406 
Q 353 903 353 1747 
Q 353 2603 823 3093 
Q 1294 3584 2113 3584 
Q 2378 3584 2631 3529 
Q 2884 3475 3122 3366 
z
" transform="scale(0.015625)"/>
      </defs>
      <use xlink:href="#DejaVuSans-53"/>
      <use xlink:href="#DejaVuSans-79" x="63.476562"/>
      <use xlink:href="#DejaVuSans-6e" x="122.65625"/>
      <use xlink:href="#DejaVuSans-74" x="186.035156"/>
      <use xlink:href="#DejaVuSans-68" x="225.244141"/>
      <use xlink:href="#DejaVuSans-65" x="288.623047"/>
      <use xlink:href="#DejaVuSans-74" x="350.146484"/>
      <use xlink:href="#DejaVuSans-69" x="389.355469"/>
      <use xlink:href="#DejaVuSans-63" x="417.138672"/>
     </g>
    </g>
   </g>
  </g>
 </g>
 <defs>
  <clipPath id="pdd84f90079">
   <rect x="84.53" y="46.32" width="757.87" height="333.030663"/>
  </clipPath>
 </defs>
</svg>
