<?xml version="1.0" encoding="utf-8" standalone="no"?>
<!DOCTYPE svg PUBLIC "-//W3C//DTD SVG 1.1//EN"
  "http://www.w3.org/Graphics/SVG/1.1/DTD/svg11.dtd">
<svg xmlns:xlink="http://www.w3.org/1999/xlink" width="504pt" height="576pt" viewBox="0 0 504 576" xmlns="http://www.w3.org/2000/svg" version="1.1">
 <metadata>
  <rdf:RDF xmlns:dc="http://purl.org/dc/elements/1.1/" xmlns:cc="http://creativecommons.org/ns#" xmlns:rdf="http://www.w3.org/1999/02/22-rdf-syntax-ns#">
   <cc:Work>
    <dc:type rdf:resource="http://purl.org/dc/dcmitype/StillImage"/>
    <dc:date>2025-11-07T09:51:21.085969</dc:date>
    <dc:format>image/svg+xml</dc:format>
    <dc:creator>
     <cc:Agent>
      <dc:title>Matplotlib v3.9.2, https://matplotlib.org/</dc:title>
     </cc:Agent>
    </dc:creator>
   </cc:Work>
  </rdf:RDF>
 </metadata>
 <defs>
  <style type="text/css">*{stroke-linejoin: round; stroke-linecap: butt}</style>
 </defs>
 <g id="figure_1">
  <g id="patch_1">
   <path d="M 0 576 
L 504 576 
L 504 0 
L 0 0 
L 0 576 
z
" style="fill: none"/>
  </g>
  <g id="axes_1">
   <g id="patch_2">
    <path d="M 84.53 384.505471 
L 482.4 384.505471 
L 482.4 46.32 
L 84.53 46.32 
L 84.53 384.505471 
z
" style="fill: none"/>
   </g>
   <g id="PolyCollection_1">
    <defs>
     <path id="mfb05b223a7" d="M 183.9975 -206.866596 
L 171.006329 -206.866596 
L 169.252923 -209.972064 
L 167.338502 -213.077532 
L 165.260454 -216.183 
L 163.018427 -219.288468 
L 160.614668 -222.393936 
L 158.054327 -225.499404 
L 155.345713 -228.604872 
L 152.500485 -231.71034 
L 149.533772 -234.815808 
L 146.464211 -237.921276 
L 143.313886 -241.026744 
L 140.108168 -244.132213 
L 136.875442 -247.237681 
L 133.646717 -250.343149 
L 130.455111 -253.448617 
L 127.335216 -256.554085 
L 124.322344 -259.659553 
L 121.451659 -262.765021 
L 118.757225 -265.870489 
L 116.270999 -268.975957 
L 114.02179 -272.081425 
L 112.034258 -275.186893 
L 110.327981 -278.292361 
L 108.916659 -281.397829 
L 107.807505 -284.503297 
L 107.000866 -287.608765 
L 106.490115 -290.714233 
L 106.261826 -293.819701 
L 106.296245 -296.925169 
L 106.568027 -300.030637 
L 107.047214 -303.136106 
L 107.700399 -306.241574 
L 108.492006 -309.347042 
L 109.385622 -312.45251 
L 110.345313 -315.557978 
L 111.336839 -318.663446 
L 112.32872 -321.768914 
L 113.293112 -324.874382 
L 114.20644 -327.97985 
L 115.049793 -331.085318 
L 115.809071 -334.190786 
L 116.474891 -337.296254 
L 117.042293 -340.401722 
L 117.510264 -343.50719 
L 117.881124 -346.612658 
L 118.159815 -349.718126 
L 118.353138 -352.823594 
L 118.468974 -355.929062 
L 118.515531 -359.03453 
L 118.500649 -362.139999 
L 118.431202 -365.245467 
L 118.312618 -368.350935 
L 118.148546 -371.456403 
L 117.940681 -374.561871 
L 117.688766 -377.667339 
L 117.390764 -380.772807 
L 117.043199 -383.878275 
L 116.641649 -386.983743 
L 116.181362 -390.089211 
L 115.657956 -393.194679 
L 115.068167 -396.300147 
L 114.410585 -399.405615 
L 113.686329 -402.511083 
L 112.899614 -405.616551 
L 112.058149 -408.722019 
L 111.173345 -411.827487 
L 110.260294 -414.932955 
L 109.337516 -418.038423 
L 108.426471 -421.143892 
L 107.550875 -424.24936 
L 106.735847 -427.354828 
L 106.006941 -430.460296 
L 105.389139 -433.565764 
L 104.905859 -436.671232 
L 104.57806 -439.7767 
L 104.4235 -442.882168 
L 104.456204 -445.987636 
L 104.686167 -449.093104 
L 105.119323 -452.198572 
L 105.757756 -455.30404 
L 106.600134 -458.409508 
L 107.642313 -461.514976 
L 108.878047 -464.620444 
L 110.299727 -467.725912 
L 111.899075 -470.83138 
L 113.66772 -473.936848 
L 115.597594 -477.042317 
L 117.681122 -480.147785 
L 119.911169 -483.253253 
L 122.280782 -486.358721 
L 124.782737 -489.464189 
L 127.408969 -492.569657 
L 130.149948 -495.675125 
L 132.994079 -498.780593 
L 135.927214 -501.886061 
L 138.932336 -504.991529 
L 141.989472 -508.096997 
L 145.075861 -511.202465 
L 148.166376 -514.307933 
L 183.9975 -514.307933 
L 183.9975 -514.307933 
L 183.9975 -511.202465 
L 183.9975 -508.096997 
L 183.9975 -504.991529 
L 183.9975 -501.886061 
L 183.9975 -498.780593 
L 183.9975 -495.675125 
L 183.9975 -492.569657 
L 183.9975 -489.464189 
L 183.9975 -486.358721 
L 183.9975 -483.253253 
L 183.9975 -480.147785 
L 183.9975 -477.042317 
L 183.9975 -473.936848 
L 183.9975 -470.83138 
L 183.9975 -467.725912 
L 183.9975 -464.620444 
L 183.9975 -461.514976 
L 183.9975 -458.409508 
L 183.9975 -455.30404 
L 183.9975 -452.198572 
L 183.9975 -449.093104 
L 183.9975 -445.987636 
L 183.9975 -442.882168 
L 183.9975 -439.7767 
L 183.9975 -436.671232 
L 183.9975 -433.565764 
L 183.9975 -430.460296 
L 183.9975 -427.354828 
L 183.9975 -424.24936 
L 183.9975 -421.143892 
L 183.9975 -418.038423 
L 183.9975 -414.932955 
L 183.9975 -411.827487 
L 183.9975 -408.722019 
L 183.9975 -405.616551 
L 183.9975 -402.511083 
L 183.9975 -399.405615 
L 183.9975 -396.300147 
L 183.9975 -393.194679 
L 183.9975 -390.089211 
L 183.9975 -386.983743 
L 183.9975 -383.878275 
L 183.9975 -380.772807 
L 183.9975 -377.667339 
L 183.9975 -374.561871 
L 183.9975 -371.456403 
L 183.9975 -368.350935 
L 183.9975 -365.245467 
L 183.9975 -362.139999 
L 183.9975 -359.03453 
L 183.9975 -355.929062 
L 183.9975 -352.823594 
L 183.9975 -349.718126 
L 183.9975 -346.612658 
L 183.9975 -343.50719 
L 183.9975 -340.401722 
L 183.9975 -337.296254 
L 183.9975 -334.190786 
L 183.9975 -331.085318 
L 183.9975 -327.97985 
L 183.9975 -324.874382 
L 183.9975 -321.768914 
L 183.9975 -318.663446 
L 183.9975 -315.557978 
L 183.9975 -312.45251 
L 183.9975 -309.347042 
L 183.9975 -306.241574 
L 183.9975 -303.136106 
L 183.9975 -300.030637 
L 183.9975 -296.925169 
L 183.9975 -293.819701 
L 183.9975 -290.714233 
L 183.9975 -287.608765 
L 183.9975 -284.503297 
L 183.9975 -281.397829 
L 183.9975 -278.292361 
L 183.9975 -275.186893 
L 183.9975 -272.081425 
L 183.9975 -268.975957 
L 183.9975 -265.870489 
L 183.9975 -262.765021 
L 183.9975 -259.659553 
L 183.9975 -256.554085 
L 183.9975 -253.448617 
L 183.9975 -250.343149 
L 183.9975 -247.237681 
L 183.9975 -244.132213 
L 183.9975 -241.026744 
L 183.9975 -237.921276 
L 183.9975 -234.815808 
L 183.9975 -231.71034 
L 183.9975 -228.604872 
L 183.9975 -225.499404 
L 183.9975 -222.393936 
L 183.9975 -219.288468 
L 183.9975 -216.183 
L 183.9975 -213.077532 
L 183.9975 -209.972064 
L 183.9975 -206.866596 
z
" style="stroke: #1e1e1e; stroke-width: 3"/>
    </defs>
    <g clip-path="url(#pcb742cbd2e)">
     <use xlink:href="#mfb05b223a7" x="0" y="576" style="fill: #0c580c; stroke: #1e1e1e; stroke-width: 3"/>
    </g>
   </g>
   <g id="PolyCollection_2">
    <defs>
     <path id="m60c11858af" d="M 191.208586 -240.268517 
L 183.9975 -240.268517 
L 183.9975 -243.011197 
L 183.9975 -245.753876 
L 183.9975 -248.496556 
L 183.9975 -251.239236 
L 183.9975 -253.981916 
L 183.9975 -256.724595 
L 183.9975 -259.467275 
L 183.9975 -262.209955 
L 183.9975 -264.952634 
L 183.9975 -267.695314 
L 183.9975 -270.437994 
L 183.9975 -273.180674 
L 183.9975 -275.923353 
L 183.9975 -278.666033 
L 183.9975 -281.408713 
L 183.9975 -284.151393 
L 183.9975 -286.894072 
L 183.9975 -289.636752 
L 183.9975 -292.379432 
L 183.9975 -295.122111 
L 183.9975 -297.864791 
L 183.9975 -300.607471 
L 183.9975 -303.350151 
L 183.9975 -306.09283 
L 183.9975 -308.83551 
L 183.9975 -311.57819 
L 183.9975 -314.32087 
L 183.9975 -317.063549 
L 183.9975 -319.806229 
L 183.9975 -322.548909 
L 183.9975 -325.291588 
L 183.9975 -328.034268 
L 183.9975 -330.776948 
L 183.9975 -333.519628 
L 183.9975 -336.262307 
L 183.9975 -339.004987 
L 183.9975 -341.747667 
L 183.9975 -344.490347 
L 183.9975 -347.233026 
L 183.9975 -349.975706 
L 183.9975 -352.718386 
L 183.9975 -355.461066 
L 183.9975 -358.203745 
L 183.9975 -360.946425 
L 183.9975 -363.689105 
L 183.9975 -366.431784 
L 183.9975 -369.174464 
L 183.9975 -371.917144 
L 183.9975 -374.659824 
L 183.9975 -377.402503 
L 183.9975 -380.145183 
L 183.9975 -382.887863 
L 183.9975 -385.630543 
L 183.9975 -388.373222 
L 183.9975 -391.115902 
L 183.9975 -393.858582 
L 183.9975 -396.601261 
L 183.9975 -399.343941 
L 183.9975 -402.086621 
L 183.9975 -404.829301 
L 183.9975 -407.57198 
L 183.9975 -410.31466 
L 183.9975 -413.05734 
L 183.9975 -415.80002 
L 183.9975 -418.542699 
L 183.9975 -421.285379 
L 183.9975 -424.028059 
L 183.9975 -426.770738 
L 183.9975 -429.513418 
L 183.9975 -432.256098 
L 183.9975 -434.998778 
L 183.9975 -437.741457 
L 183.9975 -440.484137 
L 183.9975 -443.226817 
L 183.9975 -445.969497 
L 183.9975 -448.712176 
L 183.9975 -451.454856 
L 183.9975 -454.197536 
L 183.9975 -456.940215 
L 183.9975 -459.682895 
L 183.9975 -462.425575 
L 183.9975 -465.168255 
L 183.9975 -467.910934 
L 183.9975 -470.653614 
L 183.9975 -473.396294 
L 183.9975 -476.138974 
L 183.9975 -478.881653 
L 183.9975 -481.624333 
L 183.9975 -484.367013 
L 183.9975 -487.109692 
L 183.9975 -489.852372 
L 183.9975 -492.595052 
L 183.9975 -495.337732 
L 183.9975 -498.080411 
L 183.9975 -500.823091 
L 183.9975 -503.565771 
L 183.9975 -506.308451 
L 183.9975 -509.05113 
L 183.9975 -511.79381 
L 214.939143 -511.79381 
L 214.939143 -511.79381 
L 218.642234 -509.05113 
L 222.467442 -506.308451 
L 226.371083 -503.565771 
L 230.305581 -500.823091 
L 234.22068 -498.080411 
L 238.064764 -495.337732 
L 241.786234 -492.595052 
L 245.334882 -489.852372 
L 248.663229 -487.109692 
L 251.727773 -484.367013 
L 254.490124 -481.624333 
L 256.917981 -478.881653 
L 258.985923 -476.138974 
L 260.675994 -473.396294 
L 261.978048 -470.653614 
L 262.889827 -467.910934 
L 263.416764 -465.168255 
L 263.5715 -462.425575 
L 263.373112 -459.682895 
L 262.846083 -456.940215 
L 262.019052 -454.197536 
L 260.923407 -451.454856 
L 259.591798 -448.712176 
L 258.056675 -445.969497 
L 256.348936 -443.226817 
L 254.496794 -440.484137 
L 252.524937 -437.741457 
L 250.454038 -434.998778 
L 248.300654 -432.256098 
L 246.077483 -429.513418 
L 243.793958 -426.770738 
L 241.457082 -424.028059 
L 239.072423 -421.285379 
L 236.645148 -418.542699 
L 234.18099 -415.80002 
L 231.68706 -413.05734 
L 229.172414 -410.31466 
L 226.648355 -407.57198 
L 224.128432 -404.829301 
L 221.628181 -402.086621 
L 219.16463 -399.343941 
L 216.755648 -396.601261 
L 214.419205 -393.858582 
L 212.172615 -391.115902 
L 210.031824 -388.373222 
L 208.010804 -385.630543 
L 206.12108 -382.887863 
L 204.371405 -380.145183 
L 202.767597 -377.402503 
L 201.312513 -374.659824 
L 200.006143 -371.917144 
L 198.845812 -369.174464 
L 197.826451 -366.431784 
L 196.940923 -363.689105 
L 196.180391 -360.946425 
L 195.534713 -358.203745 
L 194.992844 -355.461066 
L 194.543257 -352.718386 
L 194.174359 -349.975706 
L 193.874891 -347.233026 
L 193.634311 -344.490347 
L 193.443121 -341.747667 
L 193.293137 -339.004987 
L 193.177677 -336.262307 
L 193.091639 -333.519628 
L 193.031484 -330.776948 
L 192.995098 -328.034268 
L 192.981555 -325.291588 
L 192.99081 -322.548909 
L 193.023325 -319.806229 
L 193.079685 -317.063549 
L 193.160235 -314.32087 
L 193.264765 -311.57819 
L 193.392273 -308.83551 
L 193.540818 -306.09283 
L 193.707483 -303.350151 
L 193.888406 -300.607471 
L 194.078903 -297.864791 
L 194.273627 -295.122111 
L 194.466746 -292.379432 
L 194.652129 -289.636752 
L 194.823503 -286.894072 
L 194.974593 -284.151393 
L 195.099223 -281.408713 
L 195.19141 -278.666033 
L 195.245444 -275.923353 
L 195.255986 -273.180674 
L 195.218184 -270.437994 
L 195.127817 -267.695314 
L 194.981476 -264.952634 
L 194.776758 -262.209955 
L 194.51247 -259.467275 
L 194.188813 -256.724595 
L 193.807529 -253.981916 
L 193.371981 -251.239236 
L 192.887151 -248.496556 
L 192.359556 -245.753876 
L 191.797055 -243.011197 
L 191.208586 -240.268517 
z
" style="stroke: #1e1e1e; stroke-width: 3"/>
    </defs>
    <g clip-path="url(#pcb742cbd2e)">
     <use xlink:href="#m60c11858af" x="0" y="576" style="fill: #9ce29c; stroke: #1e1e1e; stroke-width: 3"/>
    </g>
   </g>
   <g id="PolyCollection_3">
    <defs>
     <path id="mc78a0eaba1" d="M 389.675466 -240.627677 
L 382.9325 -240.627677 
L 382.9325 -243.34859 
L 382.9325 -246.069502 
L 382.9325 -248.790415 
L 382.9325 -251.511327 
L 382.9325 -254.232239 
L 382.9325 -256.953152 
L 382.9325 -259.674064 
L 382.9325 -262.394977 
L 382.9325 -265.115889 
L 382.9325 -267.836802 
L 382.9325 -270.557714 
L 382.9325 -273.278626 
L 382.9325 -275.999539 
L 382.9325 -278.720451 
L 382.9325 -281.441364 
L 382.9325 -284.162276 
L 382.9325 -286.883189 
L 382.9325 -289.604101 
L 382.9325 -292.325013 
L 382.9325 -295.045926 
L 382.9325 -297.766838 
L 382.9325 -300.487751 
L 382.9325 -303.208663 
L 382.9325 -305.929576 
L 382.9325 -308.650488 
L 382.9325 -311.3714 
L 382.9325 -314.092313 
L 382.9325 -316.813225 
L 382.9325 -319.534138 
L 382.9325 -322.25505 
L 382.9325 -324.975963 
L 382.9325 -327.696875 
L 382.9325 -330.417787 
L 382.9325 -333.1387 
L 382.9325 -335.859612 
L 382.9325 -338.580525 
L 382.9325 -341.301437 
L 382.9325 -344.02235 
L 382.9325 -346.743262 
L 382.9325 -349.464175 
L 382.9325 -352.185087 
L 382.9325 -354.905999 
L 382.9325 -357.626912 
L 382.9325 -360.347824 
L 382.9325 -363.068737 
L 382.9325 -365.789649 
L 382.9325 -368.510562 
L 382.9325 -371.231474 
L 382.9325 -373.952386 
L 382.9325 -376.673299 
L 382.9325 -379.394211 
L 382.9325 -382.115124 
L 382.9325 -384.836036 
L 382.9325 -387.556949 
L 382.9325 -390.277861 
L 382.9325 -392.998773 
L 382.9325 -395.719686 
L 382.9325 -398.440598 
L 382.9325 -401.161511 
L 382.9325 -403.882423 
L 382.9325 -406.603336 
L 382.9325 -409.324248 
L 382.9325 -412.04516 
L 382.9325 -414.766073 
L 382.9325 -417.486985 
L 382.9325 -420.207898 
L 382.9325 -422.92881 
L 382.9325 -425.649723 
L 382.9325 -428.370635 
L 382.9325 -431.091547 
L 382.9325 -433.81246 
L 382.9325 -436.533372 
L 382.9325 -439.254285 
L 382.9325 -441.975197 
L 382.9325 -444.69611 
L 382.9325 -447.417022 
L 382.9325 -450.137934 
L 382.9325 -452.858847 
L 382.9325 -455.579759 
L 382.9325 -458.300672 
L 382.9325 -461.021584 
L 382.9325 -463.742497 
L 382.9325 -466.463409 
L 382.9325 -469.184321 
L 382.9325 -471.905234 
L 382.9325 -474.626146 
L 382.9325 -477.347059 
L 382.9325 -480.067971 
L 382.9325 -482.788884 
L 382.9325 -485.509796 
L 382.9325 -488.230708 
L 382.9325 -490.951621 
L 382.9325 -493.672533 
L 382.9325 -496.393446 
L 382.9325 -499.114358 
L 382.9325 -501.835271 
L 382.9325 -504.556183 
L 382.9325 -507.277095 
L 382.9325 -509.998008 
L 403.503209 -509.998008 
L 403.503209 -509.998008 
L 406.272916 -507.277095 
L 409.216933 -504.556183 
L 412.315045 -501.835271 
L 415.541934 -499.114358 
L 418.867282 -496.393446 
L 422.256081 -493.672533 
L 425.669169 -490.951621 
L 429.064009 -488.230708 
L 432.395725 -485.509796 
L 435.618371 -482.788884 
L 438.686398 -480.067971 
L 441.556242 -477.347059 
L 444.187962 -474.626146 
L 446.5468 -471.905234 
L 448.604567 -469.184321 
L 450.340741 -466.463409 
L 451.74316 -463.742497 
L 452.808275 -461.021584 
L 453.540887 -458.300672 
L 453.953413 -455.579759 
L 454.064702 -452.858847 
L 453.898507 -450.137934 
L 453.48174 -447.417022 
L 452.842642 -444.69611 
L 452.009037 -441.975197 
L 451.006811 -439.254285 
L 449.858735 -436.533372 
L 448.583726 -433.81246 
L 447.196585 -431.091547 
L 445.708209 -428.370635 
L 444.126225 -425.649723 
L 442.455955 -422.92881 
L 440.701585 -420.207898 
L 438.867402 -417.486985 
L 436.958966 -414.766073 
L 434.984071 -412.04516 
L 432.953427 -409.324248 
L 430.880959 -406.603336 
L 428.783744 -403.882423 
L 426.681558 -401.161511 
L 424.596129 -398.440598 
L 422.550143 -395.719686 
L 420.566124 -392.998773 
L 418.665289 -390.277861 
L 416.86647 -387.556949 
L 415.185207 -384.836036 
L 413.633057 -382.115124 
L 412.217181 -379.394211 
L 410.940204 -376.673299 
L 409.800348 -373.952386 
L 408.791811 -371.231474 
L 407.905337 -368.510562 
L 407.128936 -365.789649 
L 406.44868 -363.068737 
L 405.84954 -360.347824 
L 405.31619 -357.626912 
L 404.833751 -354.905999 
L 404.38844 -352.185087 
L 403.96808 -349.464175 
L 403.562485 -346.743262 
L 403.163689 -344.02235 
L 402.766038 -341.301437 
L 402.366143 -338.580525 
L 401.962723 -335.859612 
L 401.556344 -333.1387 
L 401.149088 -330.417787 
L 400.74418 -327.696875 
L 400.345584 -324.975963 
L 399.957604 -322.25505 
L 399.584518 -319.534138 
L 399.230235 -316.813225 
L 398.898023 -314.092313 
L 398.590286 -311.3714 
L 398.308409 -308.650488 
L 398.052666 -305.929576 
L 397.822178 -303.208663 
L 397.614931 -300.487751 
L 397.427827 -297.766838 
L 397.256775 -295.045926 
L 397.09681 -292.325013 
L 396.94224 -289.604101 
L 396.786812 -286.883189 
L 396.62391 -284.162276 
L 396.446765 -281.441364 
L 396.248699 -278.720451 
L 396.023375 -275.999539 
L 395.76506 -273.278626 
L 395.468889 -270.557714 
L 395.131107 -267.836802 
L 394.749284 -265.115889 
L 394.322475 -262.394977 
L 393.851323 -259.674064 
L 393.338086 -256.953152 
L 392.786578 -254.232239 
L 392.202044 -251.511327 
L 391.59095 -248.790415 
L 390.960719 -246.069502 
L 390.319426 -243.34859 
L 389.675466 -240.627677 
z
" style="stroke: #1e1e1e; stroke-width: 3"/>
    </defs>
    <g clip-path="url(#pcb742cbd2e)">
     <use xlink:href="#mc78a0eaba1" x="0" y="576" style="fill: #9ce29c; stroke: #1e1e1e; stroke-width: 3"/>
    </g>
   </g>
   <g id="patch_3">
    <path d="M 183.9975 413.310138 
L 183.9975 413.310138 
L 183.9975 413.310138 
L 183.9975 413.310138 
z
" clip-path="url(#pcb742cbd2e)" style="fill: #0c580c; stroke: #1e1e1e; stroke-width: 3; stroke-linejoin: miter"/>
   </g>
   <g id="patch_4">
    <path d="M 183.9975 413.310138 
L 183.9975 413.310138 
L 183.9975 413.310138 
L 183.9975 413.310138 
z
" clip-path="url(#pcb742cbd2e)" style="fill: #9ce29c; stroke: #1e1e1e; stroke-width: 3; stroke-linejoin: miter"/>
   </g>
   <g id="matplotlib.axis_1">
    <g id="xtick_1">
     <g id="line2d_1"/>
     <g id="text_1">
      <!-- AlphaFold 2 -->
      <g transform="translate(146.457864 481.635248) rotate(-45) scale(0.2 -0.2)">
       <defs>
        <path id="DejaVuSans-41" d="M 2188 4044 
L 1331 1722 
L 3047 1722 
L 2188 4044 
z
M 1831 4666 
L 2547 4666 
L 4325 0 
L 3669 0 
L 3244 1197 
L 1141 1197 
L 716 0 
L 50 0 
L 1831 4666 
z
" transform="scale(0.015625)"/>
        <path id="DejaVuSans-6c" d="M 603 4863 
L 1178 4863 
L 1178 0 
L 603 0 
L 603 4863 
z
" transform="scale(0.015625)"/>
        <path id="DejaVuSans-70" d="M 1159 525 
L 1159 -1331 
L 581 -1331 
L 581 3500 
L 1159 3500 
L 1159 2969 
Q 1341 3281 1617 3432 
Q 1894 3584 2278 3584 
Q 2916 3584 3314 3078 
Q 3713 2572 3713 1747 
Q 3713 922 3314 415 
Q 2916 -91 2278 -91 
Q 1894 -91 1617 61 
Q 1341 213 1159 525 
z
M 3116 1747 
Q 3116 2381 2855 2742 
Q 2594 3103 2138 3103 
Q 1681 3103 1420 2742 
Q 1159 2381 1159 1747 
Q 1159 1113 1420 752 
Q 1681 391 2138 391 
Q 2594 391 2855 752 
Q 3116 1113 3116 1747 
z
" transform="scale(0.015625)"/>
        <path id="DejaVuSans-68" d="M 3513 2113 
L 3513 0 
L 2938 0 
L 2938 2094 
Q 2938 2591 2744 2837 
Q 2550 3084 2163 3084 
Q 1697 3084 1428 2787 
Q 1159 2491 1159 1978 
L 1159 0 
L 581 0 
L 581 4863 
L 1159 4863 
L 1159 2956 
Q 1366 3272 1645 3428 
Q 1925 3584 2291 3584 
Q 2894 3584 3203 3211 
Q 3513 2838 3513 2113 
z
" transform="scale(0.015625)"/>
        <path id="DejaVuSans-61" d="M 2194 1759 
Q 1497 1759 1228 1600 
Q 959 1441 959 1056 
Q 959 750 1161 570 
Q 1363 391 1709 391 
Q 2188 391 2477 730 
Q 2766 1069 2766 1631 
L 2766 1759 
L 2194 1759 
z
M 3341 1997 
L 3341 0 
L 2766 0 
L 2766 531 
Q 2569 213 2275 61 
Q 1981 -91 1556 -91 
Q 1019 -91 701 211 
Q 384 513 384 1019 
Q 384 1609 779 1909 
Q 1175 2209 1959 2209 
L 2766 2209 
L 2766 2266 
Q 2766 2663 2505 2880 
Q 2244 3097 1772 3097 
Q 1472 3097 1187 3025 
Q 903 2953 641 2809 
L 641 3341 
Q 956 3463 1253 3523 
Q 1550 3584 1831 3584 
Q 2591 3584 2966 3190 
Q 3341 2797 3341 1997 
z
" transform="scale(0.015625)"/>
        <path id="DejaVuSans-46" d="M 628 4666 
L 3309 4666 
L 3309 4134 
L 1259 4134 
L 1259 2759 
L 3109 2759 
L 3109 2228 
L 1259 2228 
L 1259 0 
L 628 0 
L 628 4666 
z
" transform="scale(0.015625)"/>
        <path id="DejaVuSans-6f" d="M 1959 3097 
Q 1497 3097 1228 2736 
Q 959 2375 959 1747 
Q 959 1119 1226 758 
Q 1494 397 1959 397 
Q 2419 397 2687 759 
Q 2956 1122 2956 1747 
Q 2956 2369 2687 2733 
Q 2419 3097 1959 3097 
z
M 1959 3584 
Q 2709 3584 3137 3096 
Q 3566 2609 3566 1747 
Q 3566 888 3137 398 
Q 2709 -91 1959 -91 
Q 1206 -91 779 398 
Q 353 888 353 1747 
Q 353 2609 779 3096 
Q 1206 3584 1959 3584 
z
" transform="scale(0.015625)"/>
        <path id="DejaVuSans-64" d="M 2906 2969 
L 2906 4863 
L 3481 4863 
L 3481 0 
L 2906 0 
L 2906 525 
Q 2725 213 2448 61 
Q 2172 -91 1784 -91 
Q 1150 -91 751 415 
Q 353 922 353 1747 
Q 353 2572 751 3078 
Q 1150 3584 1784 3584 
Q 2172 3584 2448 3432 
Q 2725 3281 2906 2969 
z
M 947 1747 
Q 947 1113 1208 752 
Q 1469 391 1925 391 
Q 2381 391 2643 752 
Q 2906 1113 2906 1747 
Q 2906 2381 2643 2742 
Q 2381 3103 1925 3103 
Q 1469 3103 1208 2742 
Q 947 2381 947 1747 
z
" transform="scale(0.015625)"/>
        <path id="DejaVuSans-20" transform="scale(0.015625)"/>
        <path id="DejaVuSans-32" d="M 1228 531 
L 3431 531 
L 3431 0 
L 469 0 
L 469 531 
Q 828 903 1448 1529 
Q 2069 2156 2228 2338 
Q 2531 2678 2651 2914 
Q 2772 3150 2772 3378 
Q 2772 3750 2511 3984 
Q 2250 4219 1831 4219 
Q 1534 4219 1204 4116 
Q 875 4013 500 3803 
L 500 4441 
Q 881 4594 1212 4672 
Q 1544 4750 1819 4750 
Q 2544 4750 2975 4387 
Q 3406 4025 3406 3419 
Q 3406 3131 3298 2873 
Q 3191 2616 2906 2266 
Q 2828 2175 2409 1742 
Q 1991 1309 1228 531 
z
" transform="scale(0.015625)"/>
       </defs>
       <use xlink:href="#DejaVuSans-41"/>
       <use xlink:href="#DejaVuSans-6c" x="68.408203"/>
       <use xlink:href="#DejaVuSans-70" x="96.191406"/>
       <use xlink:href="#DejaVuSans-68" x="159.667969"/>
       <use xlink:href="#DejaVuSans-61" x="223.046875"/>
       <use xlink:href="#DejaVuSans-46" x="284.326172"/>
       <use xlink:href="#DejaVuSans-6f" x="338.220703"/>
       <use xlink:href="#DejaVuSans-6c" x="399.402344"/>
       <use xlink:href="#DejaVuSans-64" x="427.185547"/>
       <use xlink:href="#DejaVuSans-20" x="490.662109"/>
       <use xlink:href="#DejaVuSans-32" x="522.449219"/>
      </g>
     </g>
    </g>
    <g id="xtick_2">
     <g id="line2d_2"/>
     <g id="text_2">
      <!-- Remote homologs -->
      <g transform="translate(322.81848 526.784016) rotate(-45) scale(0.2 -0.2)">
       <defs>
        <path id="DejaVuSans-52" d="M 2841 2188 
Q 3044 2119 3236 1894 
Q 3428 1669 3622 1275 
L 4263 0 
L 3584 0 
L 2988 1197 
Q 2756 1666 2539 1819 
Q 2322 1972 1947 1972 
L 1259 1972 
L 1259 0 
L 628 0 
L 628 4666 
L 2053 4666 
Q 2853 4666 3247 4331 
Q 3641 3997 3641 3322 
Q 3641 2881 3436 2590 
Q 3231 2300 2841 2188 
z
M 1259 4147 
L 1259 2491 
L 2053 2491 
Q 2509 2491 2742 2702 
Q 2975 2913 2975 3322 
Q 2975 3731 2742 3939 
Q 2509 4147 2053 4147 
L 1259 4147 
z
" transform="scale(0.015625)"/>
        <path id="DejaVuSans-65" d="M 3597 1894 
L 3597 1613 
L 953 1613 
Q 991 1019 1311 708 
Q 1631 397 2203 397 
Q 2534 397 2845 478 
Q 3156 559 3463 722 
L 3463 178 
Q 3153 47 2828 -22 
Q 2503 -91 2169 -91 
Q 1331 -91 842 396 
Q 353 884 353 1716 
Q 353 2575 817 3079 
Q 1281 3584 2069 3584 
Q 2775 3584 3186 3129 
Q 3597 2675 3597 1894 
z
M 3022 2063 
Q 3016 2534 2758 2815 
Q 2500 3097 2075 3097 
Q 1594 3097 1305 2825 
Q 1016 2553 972 2059 
L 3022 2063 
z
" transform="scale(0.015625)"/>
        <path id="DejaVuSans-6d" d="M 3328 2828 
Q 3544 3216 3844 3400 
Q 4144 3584 4550 3584 
Q 5097 3584 5394 3201 
Q 5691 2819 5691 2113 
L 5691 0 
L 5113 0 
L 5113 2094 
Q 5113 2597 4934 2840 
Q 4756 3084 4391 3084 
Q 3944 3084 3684 2787 
Q 3425 2491 3425 1978 
L 3425 0 
L 2847 0 
L 2847 2094 
Q 2847 2600 2669 2842 
Q 2491 3084 2119 3084 
Q 1678 3084 1418 2786 
Q 1159 2488 1159 1978 
L 1159 0 
L 581 0 
L 581 3500 
L 1159 3500 
L 1159 2956 
Q 1356 3278 1631 3431 
Q 1906 3584 2284 3584 
Q 2666 3584 2933 3390 
Q 3200 3197 3328 2828 
z
" transform="scale(0.015625)"/>
        <path id="DejaVuSans-74" d="M 1172 4494 
L 1172 3500 
L 2356 3500 
L 2356 3053 
L 1172 3053 
L 1172 1153 
Q 1172 725 1289 603 
Q 1406 481 1766 481 
L 2356 481 
L 2356 0 
L 1766 0 
Q 1100 0 847 248 
Q 594 497 594 1153 
L 594 3053 
L 172 3053 
L 172 3500 
L 594 3500 
L 594 4494 
L 1172 4494 
z
" transform="scale(0.015625)"/>
        <path id="DejaVuSans-67" d="M 2906 1791 
Q 2906 2416 2648 2759 
Q 2391 3103 1925 3103 
Q 1463 3103 1205 2759 
Q 947 2416 947 1791 
Q 947 1169 1205 825 
Q 1463 481 1925 481 
Q 2391 481 2648 825 
Q 2906 1169 2906 1791 
z
M 3481 434 
Q 3481 -459 3084 -895 
Q 2688 -1331 1869 -1331 
Q 1566 -1331 1297 -1286 
Q 1028 -1241 775 -1147 
L 775 -588 
Q 1028 -725 1275 -790 
Q 1522 -856 1778 -856 
Q 2344 -856 2625 -561 
Q 2906 -266 2906 331 
L 2906 616 
Q 2728 306 2450 153 
Q 2172 0 1784 0 
Q 1141 0 747 490 
Q 353 981 353 1791 
Q 353 2603 747 3093 
Q 1141 3584 1784 3584 
Q 2172 3584 2450 3431 
Q 2728 3278 2906 2969 
L 2906 3500 
L 3481 3500 
L 3481 434 
z
" transform="scale(0.015625)"/>
        <path id="DejaVuSans-73" d="M 2834 3397 
L 2834 2853 
Q 2591 2978 2328 3040 
Q 2066 3103 1784 3103 
Q 1356 3103 1142 2972 
Q 928 2841 928 2578 
Q 928 2378 1081 2264 
Q 1234 2150 1697 2047 
L 1894 2003 
Q 2506 1872 2764 1633 
Q 3022 1394 3022 966 
Q 3022 478 2636 193 
Q 2250 -91 1575 -91 
Q 1294 -91 989 -36 
Q 684 19 347 128 
L 347 722 
Q 666 556 975 473 
Q 1284 391 1588 391 
Q 1994 391 2212 530 
Q 2431 669 2431 922 
Q 2431 1156 2273 1281 
Q 2116 1406 1581 1522 
L 1381 1569 
Q 847 1681 609 1914 
Q 372 2147 372 2553 
Q 372 3047 722 3315 
Q 1072 3584 1716 3584 
Q 2034 3584 2315 3537 
Q 2597 3491 2834 3397 
z
" transform="scale(0.015625)"/>
       </defs>
       <use xlink:href="#DejaVuSans-52"/>
       <use xlink:href="#DejaVuSans-65" x="64.982422"/>
       <use xlink:href="#DejaVuSans-6d" x="126.505859"/>
       <use xlink:href="#DejaVuSans-6f" x="223.917969"/>
       <use xlink:href="#DejaVuSans-74" x="285.099609"/>
       <use xlink:href="#DejaVuSans-65" x="324.308594"/>
       <use xlink:href="#DejaVuSans-20" x="385.832031"/>
       <use xlink:href="#DejaVuSans-68" x="417.619141"/>
       <use xlink:href="#DejaVuSans-6f" x="480.998047"/>
       <use xlink:href="#DejaVuSans-6d" x="542.179688"/>
       <use xlink:href="#DejaVuSans-6f" x="639.591797"/>
       <use xlink:href="#DejaVuSans-6c" x="700.773438"/>
       <use xlink:href="#DejaVuSans-6f" x="728.556641"/>
       <use xlink:href="#DejaVuSans-67" x="789.738281"/>
       <use xlink:href="#DejaVuSans-73" x="853.214844"/>
      </g>
     </g>
    </g>
    <g id="text_3">
     <!-- Model -->
     <g transform="translate(253.438438 548.922013) scale(0.2 -0.2)">
      <defs>
       <path id="DejaVuSans-4d" d="M 628 4666 
L 1569 4666 
L 2759 1491 
L 3956 4666 
L 4897 4666 
L 4897 0 
L 4281 0 
L 4281 4097 
L 3078 897 
L 2444 897 
L 1241 4097 
L 1241 0 
L 628 0 
L 628 4666 
z
" transform="scale(0.015625)"/>
      </defs>
      <use xlink:href="#DejaVuSans-4d"/>
      <use xlink:href="#DejaVuSans-6f" x="86.279297"/>
      <use xlink:href="#DejaVuSans-64" x="147.460938"/>
      <use xlink:href="#DejaVuSans-65" x="210.9375"/>
      <use xlink:href="#DejaVuSans-6c" x="272.460938"/>
     </g>
    </g>
   </g>
   <g id="matplotlib.axis_2">
    <g id="ytick_1">
     <g id="line2d_3">
      <defs>
       <path id="mf617e311c4" d="M 0 0 
L -3.5 0 
" style="stroke: #000000; stroke-width: 0.8"/>
      </defs>
      <g>
       <use xlink:href="#mf617e311c4" x="84.53" y="341.47805" style="stroke: #000000; stroke-width: 0.8"/>
      </g>
     </g>
     <g id="text_4">
      <!-- 0.2 -->
      <g transform="translate(45.72375 349.076488) scale(0.2 -0.2)">
       <defs>
        <path id="DejaVuSans-30" d="M 2034 4250 
Q 1547 4250 1301 3770 
Q 1056 3291 1056 2328 
Q 1056 1369 1301 889 
Q 1547 409 2034 409 
Q 2525 409 2770 889 
Q 3016 1369 3016 2328 
Q 3016 3291 2770 3770 
Q 2525 4250 2034 4250 
z
M 2034 4750 
Q 2819 4750 3233 4129 
Q 3647 3509 3647 2328 
Q 3647 1150 3233 529 
Q 2819 -91 2034 -91 
Q 1250 -91 836 529 
Q 422 1150 422 2328 
Q 422 3509 836 4129 
Q 1250 4750 2034 4750 
z
" transform="scale(0.015625)"/>
        <path id="DejaVuSans-2e" d="M 684 794 
L 1344 794 
L 1344 0 
L 684 0 
L 684 794 
z
" transform="scale(0.015625)"/>
       </defs>
       <use xlink:href="#DejaVuSans-30"/>
       <use xlink:href="#DejaVuSans-2e" x="63.623047"/>
       <use xlink:href="#DejaVuSans-32" x="95.410156"/>
      </g>
     </g>
    </g>
    <g id="ytick_2">
     <g id="line2d_4">
      <g>
       <use xlink:href="#mf617e311c4" x="84.53" y="269.645962" style="stroke: #000000; stroke-width: 0.8"/>
      </g>
     </g>
     <g id="text_5">
      <!-- 0.4 -->
      <g transform="translate(45.72375 277.2444) scale(0.2 -0.2)">
       <defs>
        <path id="DejaVuSans-34" d="M 2419 4116 
L 825 1625 
L 2419 1625 
L 2419 4116 
z
M 2253 4666 
L 3047 4666 
L 3047 1625 
L 3713 1625 
L 3713 1100 
L 3047 1100 
L 3047 0 
L 2419 0 
L 2419 1100 
L 313 1100 
L 313 1709 
L 2253 4666 
z
" transform="scale(0.015625)"/>
       </defs>
       <use xlink:href="#DejaVuSans-30"/>
       <use xlink:href="#DejaVuSans-2e" x="63.623047"/>
       <use xlink:href="#DejaVuSans-34" x="95.410156"/>
      </g>
     </g>
    </g>
    <g id="ytick_3">
     <g id="line2d_5">
      <g>
       <use xlink:href="#mf617e311c4" x="84.53" y="197.813874" style="stroke: #000000; stroke-width: 0.8"/>
      </g>
     </g>
     <g id="text_6">
      <!-- 0.6 -->
      <g transform="translate(45.72375 205.412311) scale(0.2 -0.2)">
       <defs>
        <path id="DejaVuSans-36" d="M 2113 2584 
Q 1688 2584 1439 2293 
Q 1191 2003 1191 1497 
Q 1191 994 1439 701 
Q 1688 409 2113 409 
Q 2538 409 2786 701 
Q 3034 994 3034 1497 
Q 3034 2003 2786 2293 
Q 2538 2584 2113 2584 
z
M 3366 4563 
L 3366 3988 
Q 3128 4100 2886 4159 
Q 2644 4219 2406 4219 
Q 1781 4219 1451 3797 
Q 1122 3375 1075 2522 
Q 1259 2794 1537 2939 
Q 1816 3084 2150 3084 
Q 2853 3084 3261 2657 
Q 3669 2231 3669 1497 
Q 3669 778 3244 343 
Q 2819 -91 2113 -91 
Q 1303 -91 875 529 
Q 447 1150 447 2328 
Q 447 3434 972 4092 
Q 1497 4750 2381 4750 
Q 2619 4750 2861 4703 
Q 3103 4656 3366 4563 
z
" transform="scale(0.015625)"/>
       </defs>
       <use xlink:href="#DejaVuSans-30"/>
       <use xlink:href="#DejaVuSans-2e" x="63.623047"/>
       <use xlink:href="#DejaVuSans-36" x="95.410156"/>
      </g>
     </g>
    </g>
    <g id="ytick_4">
     <g id="line2d_6">
      <g>
       <use xlink:href="#mf617e311c4" x="84.53" y="125.981786" style="stroke: #000000; stroke-width: 0.8"/>
      </g>
     </g>
     <g id="text_7">
      <!-- 0.8 -->
      <g transform="translate(45.72375 133.580223) scale(0.2 -0.2)">
       <defs>
        <path id="DejaVuSans-38" d="M 2034 2216 
Q 1584 2216 1326 1975 
Q 1069 1734 1069 1313 
Q 1069 891 1326 650 
Q 1584 409 2034 409 
Q 2484 409 2743 651 
Q 3003 894 3003 1313 
Q 3003 1734 2745 1975 
Q 2488 2216 2034 2216 
z
M 1403 2484 
Q 997 2584 770 2862 
Q 544 3141 544 3541 
Q 544 4100 942 4425 
Q 1341 4750 2034 4750 
Q 2731 4750 3128 4425 
Q 3525 4100 3525 3541 
Q 3525 3141 3298 2862 
Q 3072 2584 2669 2484 
Q 3125 2378 3379 2068 
Q 3634 1759 3634 1313 
Q 3634 634 3220 271 
Q 2806 -91 2034 -91 
Q 1263 -91 848 271 
Q 434 634 434 1313 
Q 434 1759 690 2068 
Q 947 2378 1403 2484 
z
M 1172 3481 
Q 1172 3119 1398 2916 
Q 1625 2713 2034 2713 
Q 2441 2713 2670 2916 
Q 2900 3119 2900 3481 
Q 2900 3844 2670 4047 
Q 2441 4250 2034 4250 
Q 1625 4250 1398 4047 
Q 1172 3844 1172 3481 
z
" transform="scale(0.015625)"/>
       </defs>
       <use xlink:href="#DejaVuSans-30"/>
       <use xlink:href="#DejaVuSans-2e" x="63.623047"/>
       <use xlink:href="#DejaVuSans-38" x="95.410156"/>
      </g>
     </g>
    </g>
    <g id="ytick_5">
     <g id="line2d_7">
      <g>
       <use xlink:href="#mf617e311c4" x="84.53" y="54.149698" style="stroke: #000000; stroke-width: 0.8"/>
      </g>
     </g>
     <g id="text_8">
      <!-- 1.0 -->
      <g transform="translate(45.72375 61.748135) scale(0.2 -0.2)">
       <defs>
        <path id="DejaVuSans-31" d="M 794 531 
L 1825 531 
L 1825 4091 
L 703 3866 
L 703 4441 
L 1819 4666 
L 2450 4666 
L 2450 531 
L 3481 531 
L 3481 0 
L 794 0 
L 794 531 
z
" transform="scale(0.015625)"/>
       </defs>
       <use xlink:href="#DejaVuSans-31"/>
       <use xlink:href="#DejaVuSans-2e" x="63.623047"/>
       <use xlink:href="#DejaVuSans-30" x="95.410156"/>
      </g>
     </g>
    </g>
    <g id="text_9">
     <!-- lDDT -->
     <g transform="translate(37.564375 239.698673) rotate(-90) scale(0.2 -0.2)">
      <defs>
       <path id="DejaVuSans-44" d="M 1259 4147 
L 1259 519 
L 2022 519 
Q 2988 519 3436 956 
Q 3884 1394 3884 2338 
Q 3884 3275 3436 3711 
Q 2988 4147 2022 4147 
L 1259 4147 
z
M 628 4666 
L 1925 4666 
Q 3281 4666 3915 4102 
Q 4550 3538 4550 2338 
Q 4550 1131 3912 565 
Q 3275 0 1925 0 
L 628 0 
L 628 4666 
z
" transform="scale(0.015625)"/>
       <path id="DejaVuSans-54" d="M -19 4666 
L 3928 4666 
L 3928 4134 
L 2272 4134 
L 2272 0 
L 1638 0 
L 1638 4134 
L -19 4134 
L -19 4666 
z
" transform="scale(0.015625)"/>
      </defs>
      <use xlink:href="#DejaVuSans-6c"/>
      <use xlink:href="#DejaVuSans-44" x="27.783203"/>
      <use xlink:href="#DejaVuSans-44" x="104.785156"/>
      <use xlink:href="#DejaVuSans-54" x="181.787109"/>
     </g>
    </g>
   </g>
   <g id="line2d_8">
    <path d="M 106.524211 276.47001 
L 183.9975 276.47001 
" clip-path="url(#pcb742cbd2e)" style="fill: none; stroke-dasharray: 3.75,2.25; stroke-dashoffset: 0; stroke: #1e1e1e; stroke-width: 3"/>
   </g>
   <g id="line2d_9">
    <path d="M 117.908898 201.046318 
L 183.9975 201.046318 
" clip-path="url(#pcb742cbd2e)" style="fill: none; stroke-dasharray: 7.5,3; stroke-dashoffset: 0; stroke: #1e1e1e; stroke-width: 3"/>
   </g>
   <g id="line2d_10">
    <path d="M 104.581797 128.316329 
L 183.9975 128.316329 
" clip-path="url(#pcb742cbd2e)" style="fill: none; stroke-dasharray: 3.75,2.25; stroke-dashoffset: 0; stroke: #1e1e1e; stroke-width: 3"/>
   </g>
   <g id="line2d_11">
    <path d="M 183.9975 161.89783 
L 232.637129 161.89783 
" clip-path="url(#pcb742cbd2e)" style="fill: none; stroke-dasharray: 3.75,2.25; stroke-dashoffset: 0; stroke: #1e1e1e; stroke-width: 3"/>
   </g>
   <g id="line2d_12">
    <path d="M 183.9975 125.263465 
L 260.574652 125.263465 
" clip-path="url(#pcb742cbd2e)" style="fill: none; stroke-dasharray: 7.5,3; stroke-dashoffset: 0; stroke: #1e1e1e; stroke-width: 3"/>
   </g>
   <g id="line2d_13">
    <path d="M 183.9975 99.583493 
L 258.776667 99.583493 
" clip-path="url(#pcb742cbd2e)" style="fill: none; stroke-dasharray: 3.75,2.25; stroke-dashoffset: 0; stroke: #1e1e1e; stroke-width: 3"/>
   </g>
   <g id="line2d_14">
    <path d="M 382.9325 190.002134 
L 415.903106 190.002134 
" clip-path="url(#pcb742cbd2e)" style="fill: none; stroke-dasharray: 3.75,2.25; stroke-dashoffset: 0; stroke: #1e1e1e; stroke-width: 3"/>
   </g>
   <g id="line2d_15">
    <path d="M 382.9325 145.196869 
L 447.038817 145.196869 
" clip-path="url(#pcb742cbd2e)" style="fill: none; stroke-dasharray: 7.5,3; stroke-dashoffset: 0; stroke: #1e1e1e; stroke-width: 3"/>
   </g>
   <g id="line2d_16">
    <path d="M 382.9325 111.705158 
L 451.458469 111.705158 
" clip-path="url(#pcb742cbd2e)" style="fill: none; stroke-dasharray: 3.75,2.25; stroke-dashoffset: 0; stroke: #1e1e1e; stroke-width: 3"/>
   </g>
   <g id="patch_5">
    <path d="M 84.53 384.505471 
L 84.53 46.32 
" style="fill: none; stroke: #000000; stroke-width: 2; stroke-linejoin: miter; stroke-linecap: square"/>
   </g>
   <g id="text_10">
    <!-- lDDT of best model (N=174) -->
    <g transform="translate(112.87375 40.32) scale(0.24 -0.24)">
     <defs>
      <path id="DejaVuSans-66" d="M 2375 4863 
L 2375 4384 
L 1825 4384 
Q 1516 4384 1395 4259 
Q 1275 4134 1275 3809 
L 1275 3500 
L 2222 3500 
L 2222 3053 
L 1275 3053 
L 1275 0 
L 697 0 
L 697 3053 
L 147 3053 
L 147 3500 
L 697 3500 
L 697 3744 
Q 697 4328 969 4595 
Q 1241 4863 1831 4863 
L 2375 4863 
z
" transform="scale(0.015625)"/>
      <path id="DejaVuSans-62" d="M 3116 1747 
Q 3116 2381 2855 2742 
Q 2594 3103 2138 3103 
Q 1681 3103 1420 2742 
Q 1159 2381 1159 1747 
Q 1159 1113 1420 752 
Q 1681 391 2138 391 
Q 2594 391 2855 752 
Q 3116 1113 3116 1747 
z
M 1159 2969 
Q 1341 3281 1617 3432 
Q 1894 3584 2278 3584 
Q 2916 3584 3314 3078 
Q 3713 2572 3713 1747 
Q 3713 922 3314 415 
Q 2916 -91 2278 -91 
Q 1894 -91 1617 61 
Q 1341 213 1159 525 
L 1159 0 
L 581 0 
L 581 4863 
L 1159 4863 
L 1159 2969 
z
" transform="scale(0.015625)"/>
      <path id="DejaVuSans-28" d="M 1984 4856 
Q 1566 4138 1362 3434 
Q 1159 2731 1159 2009 
Q 1159 1288 1364 580 
Q 1569 -128 1984 -844 
L 1484 -844 
Q 1016 -109 783 600 
Q 550 1309 550 2009 
Q 550 2706 781 3412 
Q 1013 4119 1484 4856 
L 1984 4856 
z
" transform="scale(0.015625)"/>
      <path id="DejaVuSans-4e" d="M 628 4666 
L 1478 4666 
L 3547 763 
L 3547 4666 
L 4159 4666 
L 4159 0 
L 3309 0 
L 1241 3903 
L 1241 0 
L 628 0 
L 628 4666 
z
" transform="scale(0.015625)"/>
      <path id="DejaVuSans-3d" d="M 678 2906 
L 4684 2906 
L 4684 2381 
L 678 2381 
L 678 2906 
z
M 678 1631 
L 4684 1631 
L 4684 1100 
L 678 1100 
L 678 1631 
z
" transform="scale(0.015625)"/>
      <path id="DejaVuSans-37" d="M 525 4666 
L 3525 4666 
L 3525 4397 
L 1831 0 
L 1172 0 
L 2766 4134 
L 525 4134 
L 525 4666 
z
" transform="scale(0.015625)"/>
      <path id="DejaVuSans-29" d="M 513 4856 
L 1013 4856 
Q 1481 4119 1714 3412 
Q 1947 2706 1947 2009 
Q 1947 1309 1714 600 
Q 1481 -109 1013 -844 
L 513 -844 
Q 928 -128 1133 580 
Q 1338 1288 1338 2009 
Q 1338 2731 1133 3434 
Q 928 4138 513 4856 
z
" transform="scale(0.015625)"/>
     </defs>
     <use xlink:href="#DejaVuSans-6c"/>
     <use xlink:href="#DejaVuSans-44" x="27.783203"/>
     <use xlink:href="#DejaVuSans-44" x="104.785156"/>
     <use xlink:href="#DejaVuSans-54" x="181.787109"/>
     <use xlink:href="#DejaVuSans-20" x="242.871094"/>
     <use xlink:href="#DejaVuSans-6f" x="274.658203"/>
     <use xlink:href="#DejaVuSans-66" x="335.839844"/>
     <use xlink:href="#DejaVuSans-20" x="371.044922"/>
     <use xlink:href="#DejaVuSans-62" x="402.832031"/>
     <use xlink:href="#DejaVuSans-65" x="466.308594"/>
     <use xlink:href="#DejaVuSans-73" x="527.832031"/>
     <use xlink:href="#DejaVuSans-74" x="579.931641"/>
     <use xlink:href="#DejaVuSans-20" x="619.140625"/>
     <use xlink:href="#DejaVuSans-6d" x="650.927734"/>
     <use xlink:href="#DejaVuSans-6f" x="748.339844"/>
     <use xlink:href="#DejaVuSans-64" x="809.521484"/>
     <use xlink:href="#DejaVuSans-65" x="872.998047"/>
     <use xlink:href="#DejaVuSans-6c" x="934.521484"/>
     <use xlink:href="#DejaVuSans-20" x="962.304688"/>
     <use xlink:href="#DejaVuSans-28" x="994.091797"/>
     <use xlink:href="#DejaVuSans-4e" x="1033.105469"/>
     <use xlink:href="#DejaVuSans-3d" x="1107.910156"/>
     <use xlink:href="#DejaVuSans-31" x="1191.699219"/>
     <use xlink:href="#DejaVuSans-37" x="1255.322266"/>
     <use xlink:href="#DejaVuSans-34" x="1318.945312"/>
     <use xlink:href="#DejaVuSans-29" x="1382.568359"/>
    </g>
   </g>
   <g id="legend_1">
    <g id="patch_6">
     <path d="M 204.2525 374.505471 
L 362.6775 374.505471 
Q 366.6775 374.505471 366.6775 370.505471 
L 366.6775 284.436721 
Q 366.6775 280.436721 362.6775 280.436721 
L 204.2525 280.436721 
Q 200.2525 280.436721 200.2525 284.436721 
L 200.2525 370.505471 
Q 200.2525 374.505471 204.2525 374.505471 
z
" style="fill: #ffffff; opacity: 0.8; stroke: #cccccc; stroke-linejoin: miter"/>
    </g>
    <g id="text_11">
     <!-- MSA -->
     <g transform="translate(261.460312 303.633596) scale(0.2 -0.2)">
      <defs>
       <path id="DejaVuSans-53" d="M 3425 4513 
L 3425 3897 
Q 3066 4069 2747 4153 
Q 2428 4238 2131 4238 
Q 1616 4238 1336 4038 
Q 1056 3838 1056 3469 
Q 1056 3159 1242 3001 
Q 1428 2844 1947 2747 
L 2328 2669 
Q 3034 2534 3370 2195 
Q 3706 1856 3706 1288 
Q 3706 609 3251 259 
Q 2797 -91 1919 -91 
Q 1588 -91 1214 -16 
Q 841 59 441 206 
L 441 856 
Q 825 641 1194 531 
Q 1563 422 1919 422 
Q 2459 422 2753 634 
Q 3047 847 3047 1241 
Q 3047 1584 2836 1778 
Q 2625 1972 2144 2069 
L 1759 2144 
Q 1053 2284 737 2584 
Q 422 2884 422 3419 
Q 422 4038 858 4394 
Q 1294 4750 2059 4750 
Q 2388 4750 2728 4690 
Q 3069 4631 3425 4513 
z
" transform="scale(0.015625)"/>
      </defs>
      <use xlink:href="#DejaVuSans-4d"/>
      <use xlink:href="#DejaVuSans-53" x="86.279297"/>
      <use xlink:href="#DejaVuSans-41" x="151.630859"/>
     </g>
    </g>
    <g id="patch_7">
     <path d="M 208.2525 332.989846 
L 248.2525 332.989846 
L 248.2525 318.989846 
L 208.2525 318.989846 
z
" style="fill: #006400"/>
    </g>
    <g id="text_12">
     <!-- MMseqs2 -->
     <g transform="translate(264.2525 332.989846) scale(0.2 -0.2)">
      <defs>
       <path id="DejaVuSans-71" d="M 947 1747 
Q 947 1113 1208 752 
Q 1469 391 1925 391 
Q 2381 391 2643 752 
Q 2906 1113 2906 1747 
Q 2906 2381 2643 2742 
Q 2381 3103 1925 3103 
Q 1469 3103 1208 2742 
Q 947 2381 947 1747 
z
M 2906 525 
Q 2725 213 2448 61 
Q 2172 -91 1784 -91 
Q 1150 -91 751 415 
Q 353 922 353 1747 
Q 353 2572 751 3078 
Q 1150 3584 1784 3584 
Q 2172 3584 2448 3432 
Q 2725 3281 2906 2969 
L 2906 3500 
L 3481 3500 
L 3481 -1331 
L 2906 -1331 
L 2906 525 
z
" transform="scale(0.015625)"/>
      </defs>
      <use xlink:href="#DejaVuSans-4d"/>
      <use xlink:href="#DejaVuSans-4d" x="86.279297"/>
      <use xlink:href="#DejaVuSans-73" x="172.558594"/>
      <use xlink:href="#DejaVuSans-65" x="224.658203"/>
      <use xlink:href="#DejaVuSans-71" x="286.181641"/>
      <use xlink:href="#DejaVuSans-73" x="349.658203"/>
      <use xlink:href="#DejaVuSans-32" x="401.757812"/>
     </g>
    </g>
    <g id="patch_8">
     <path d="M 208.2525 362.346096 
L 248.2525 362.346096 
L 248.2525 348.346096 
L 208.2525 348.346096 
z
" style="fill: #90ee90"/>
    </g>
    <g id="text_13">
     <!-- Synthetic -->
     <g transform="translate(264.2525 362.346096) scale(0.2 -0.2)">
      <defs>
       <path id="DejaVuSans-79" d="M 2059 -325 
Q 1816 -950 1584 -1140 
Q 1353 -1331 966 -1331 
L 506 -1331 
L 506 -850 
L 844 -850 
Q 1081 -850 1212 -737 
Q 1344 -625 1503 -206 
L 1606 56 
L 191 3500 
L 800 3500 
L 1894 763 
L 2988 3500 
L 3597 3500 
L 2059 -325 
z
" transform="scale(0.015625)"/>
       <path id="DejaVuSans-6e" d="M 3513 2113 
L 3513 0 
L 2938 0 
L 2938 2094 
Q 2938 2591 2744 2837 
Q 2550 3084 2163 3084 
Q 1697 3084 1428 2787 
Q 1159 2491 1159 1978 
L 1159 0 
L 581 0 
L 581 3500 
L 1159 3500 
L 1159 2956 
Q 1366 3272 1645 3428 
Q 1925 3584 2291 3584 
Q 2894 3584 3203 3211 
Q 3513 2838 3513 2113 
z
" transform="scale(0.015625)"/>
       <path id="DejaVuSans-69" d="M 603 3500 
L 1178 3500 
L 1178 0 
L 603 0 
L 603 3500 
z
M 603 4863 
L 1178 4863 
L 1178 4134 
L 603 4134 
L 603 4863 
z
" transform="scale(0.015625)"/>
       <path id="DejaVuSans-63" d="M 3122 3366 
L 3122 2828 
Q 2878 2963 2633 3030 
Q 2388 3097 2138 3097 
Q 1578 3097 1268 2742 
Q 959 2388 959 1747 
Q 959 1106 1268 751 
Q 1578 397 2138 397 
Q 2388 397 2633 464 
Q 2878 531 3122 666 
L 3122 134 
Q 2881 22 2623 -34 
Q 2366 -91 2075 -91 
Q 1284 -91 818 406 
Q 353 903 353 1747 
Q 353 2603 823 3093 
Q 1294 3584 2113 3584 
Q 2378 3584 2631 3529 
Q 2884 3475 3122 3366 
z
" transform="scale(0.015625)"/>
      </defs>
      <use xlink:href="#DejaVuSans-53"/>
      <use xlink:href="#DejaVuSans-79" x="63.476562"/>
      <use xlink:href="#DejaVuSans-6e" x="122.65625"/>
      <use xlink:href="#DejaVuSans-74" x="186.035156"/>
      <use xlink:href="#DejaVuSans-68" x="225.244141"/>
      <use xlink:href="#DejaVuSans-65" x="288.623047"/>
      <use xlink:href="#DejaVuSans-74" x="350.146484"/>
      <use xlink:href="#DejaVuSans-69" x="389.355469"/>
      <use xlink:href="#DejaVuSans-63" x="417.138672"/>
     </g>
    </g>
   </g>
  </g>
 </g>
 <defs>
  <clipPath id="pcb742cbd2e">
   <rect x="84.53" y="46.32" width="397.87" height="338.185471"/>
  </clipPath>
 </defs>
</svg>
