<?xml version="1.0" encoding="utf-8" standalone="no"?>
<!DOCTYPE svg PUBLIC "-//W3C//DTD SVG 1.1//EN"
  "http://www.w3.org/Graphics/SVG/1.1/DTD/svg11.dtd">
<svg xmlns:xlink="http://www.w3.org/1999/xlink" width="864pt" height="576pt" viewBox="0 0 864 576" xmlns="http://www.w3.org/2000/svg" version="1.1">
 <metadata>
  <rdf:RDF xmlns:dc="http://purl.org/dc/elements/1.1/" xmlns:cc="http://creativecommons.org/ns#" xmlns:rdf="http://www.w3.org/1999/02/22-rdf-syntax-ns#">
   <cc:Work>
    <dc:type rdf:resource="http://purl.org/dc/dcmitype/StillImage"/>
    <dc:date>2025-11-07T09:51:20.515193</dc:date>
    <dc:format>image/svg+xml</dc:format>
    <dc:creator>
     <cc:Agent>
      <dc:title>Matplotlib v3.9.2, https://matplotlib.org/</dc:title>
     </cc:Agent>
    </dc:creator>
   </cc:Work>
  </rdf:RDF>
 </metadata>
 <defs>
  <style type="text/css">*{stroke-linejoin: round; stroke-linecap: butt}</style>
 </defs>
 <g id="figure_1">
  <g id="patch_1">
   <path d="M 0 576 
L 864 576 
L 864 0 
L 0 0 
L 0 576 
z
" style="fill: none"/>
  </g>
  <g id="axes_1">
   <g id="patch_2">
    <path d="M 90.83 379.350663 
L 842.4 379.350663 
L 842.4 46.32 
L 90.83 46.32 
L 90.83 379.350663 
z
" style="fill: none"/>
   </g>
   <g id="PolyCollection_1">
    <defs>
     <path id="med7c68c9b5" d="M 184.77625 -300.108108 
L 181.526684 -300.108108 
L 181.295102 -302.262757 
L 181.05452 -304.417405 
L 180.801336 -306.572054 
L 180.531638 -308.726703 
L 180.241523 -310.881352 
L 179.927408 -313.036 
L 179.586331 -315.190649 
L 179.216192 -317.345298 
L 178.815902 -319.499946 
L 178.385427 -321.654595 
L 177.925714 -323.809244 
L 177.438502 -325.963893 
L 176.926034 -328.118541 
L 176.390711 -330.27319 
L 175.834712 -332.427839 
L 175.259655 -334.582488 
L 174.66631 -336.737136 
L 174.054446 -338.891785 
L 173.422803 -341.046434 
L 172.76924 -343.201083 
L 172.091024 -345.355731 
L 171.385254 -347.51038 
L 170.64937 -349.665029 
L 169.881679 -351.819678 
L 169.081851 -353.974326 
L 168.251302 -356.128975 
L 167.393406 -358.283624 
L 166.513509 -360.438272 
L 165.618702 -362.592921 
L 164.717381 -364.74757 
L 163.818615 -366.902219 
L 162.931383 -369.056867 
L 162.063765 -371.211516 
L 161.222154 -373.366165 
L 160.410601 -375.520814 
L 159.630345 -377.675462 
L 158.879596 -379.830111 
L 158.153607 -381.98476 
L 157.445018 -384.139409 
L 156.744462 -386.294057 
L 156.041365 -388.448706 
L 155.324882 -390.603355 
L 154.584867 -392.758004 
L 153.812798 -394.912652 
L 153.002592 -397.067301 
L 152.151211 -399.22195 
L 151.259051 -401.376598 
L 150.330065 -403.531247 
L 149.371621 -405.685896 
L 148.39413 -407.840545 
L 147.410457 -409.995193 
L 146.435183 -412.149842 
L 145.483753 -414.304491 
L 144.571576 -416.45914 
L 143.713128 -418.613788 
L 142.921096 -420.768437 
L 142.205606 -422.923086 
L 141.573558 -425.077735 
L 141.028091 -427.232383 
L 140.568197 -429.387032 
L 140.188484 -431.541681 
L 139.879101 -433.696329 
L 139.625844 -435.850978 
L 139.410432 -438.005627 
L 139.210975 -440.160276 
L 139.002637 -442.314924 
L 138.758471 -444.469573 
L 138.450445 -446.624222 
L 138.050596 -448.778871 
L 137.532295 -450.933519 
L 136.871559 -453.088168 
L 136.048341 -455.242817 
L 135.04774 -457.397466 
L 133.861054 -459.552114 
L 132.48662 -461.706763 
L 130.930406 -463.861412 
L 129.206319 -466.016061 
L 127.336245 -468.170709 
L 125.349812 -470.325358 
L 123.283919 -472.480007 
L 121.182054 -474.634655 
L 119.093421 -476.789304 
L 117.071903 -478.943953 
L 115.174862 -481.098602 
L 113.461758 -483.25325 
L 111.992601 -485.407899 
L 110.826204 -487.562548 
L 110.018257 -489.717197 
L 109.61925 -491.871845 
L 109.672321 -494.026494 
L 110.21111 -496.181143 
L 111.257762 -498.335792 
L 112.82124 -500.49044 
L 114.896089 -502.645089 
L 117.461813 -504.799738 
L 120.482968 -506.954386 
L 123.910048 -509.109035 
L 127.681144 -511.263684 
L 131.724324 -513.418333 
L 184.77625 -513.418333 
L 184.77625 -513.418333 
L 184.77625 -511.263684 
L 184.77625 -509.109035 
L 184.77625 -506.954386 
L 184.77625 -504.799738 
L 184.77625 -502.645089 
L 184.77625 -500.49044 
L 184.77625 -498.335792 
L 184.77625 -496.181143 
L 184.77625 -494.026494 
L 184.77625 -491.871845 
L 184.77625 -489.717197 
L 184.77625 -487.562548 
L 184.77625 -485.407899 
L 184.77625 -483.25325 
L 184.77625 -481.098602 
L 184.77625 -478.943953 
L 184.77625 -476.789304 
L 184.77625 -474.634655 
L 184.77625 -472.480007 
L 184.77625 -470.325358 
L 184.77625 -468.170709 
L 184.77625 -466.016061 
L 184.77625 -463.861412 
L 184.77625 -461.706763 
L 184.77625 -459.552114 
L 184.77625 -457.397466 
L 184.77625 -455.242817 
L 184.77625 -453.088168 
L 184.77625 -450.933519 
L 184.77625 -448.778871 
L 184.77625 -446.624222 
L 184.77625 -444.469573 
L 184.77625 -442.314924 
L 184.77625 -440.160276 
L 184.77625 -438.005627 
L 184.77625 -435.850978 
L 184.77625 -433.696329 
L 184.77625 -431.541681 
L 184.77625 -429.387032 
L 184.77625 -427.232383 
L 184.77625 -425.077735 
L 184.77625 -422.923086 
L 184.77625 -420.768437 
L 184.77625 -418.613788 
L 184.77625 -416.45914 
L 184.77625 -414.304491 
L 184.77625 -412.149842 
L 184.77625 -409.995193 
L 184.77625 -407.840545 
L 184.77625 -405.685896 
L 184.77625 -403.531247 
L 184.77625 -401.376598 
L 184.77625 -399.22195 
L 184.77625 -397.067301 
L 184.77625 -394.912652 
L 184.77625 -392.758004 
L 184.77625 -390.603355 
L 184.77625 -388.448706 
L 184.77625 -386.294057 
L 184.77625 -384.139409 
L 184.77625 -381.98476 
L 184.77625 -379.830111 
L 184.77625 -377.675462 
L 184.77625 -375.520814 
L 184.77625 -373.366165 
L 184.77625 -371.211516 
L 184.77625 -369.056867 
L 184.77625 -366.902219 
L 184.77625 -364.74757 
L 184.77625 -362.592921 
L 184.77625 -360.438272 
L 184.77625 -358.283624 
L 184.77625 -356.128975 
L 184.77625 -353.974326 
L 184.77625 -351.819678 
L 184.77625 -349.665029 
L 184.77625 -347.51038 
L 184.77625 -345.355731 
L 184.77625 -343.201083 
L 184.77625 -341.046434 
L 184.77625 -338.891785 
L 184.77625 -336.737136 
L 184.77625 -334.582488 
L 184.77625 -332.427839 
L 184.77625 -330.27319 
L 184.77625 -328.118541 
L 184.77625 -325.963893 
L 184.77625 -323.809244 
L 184.77625 -321.654595 
L 184.77625 -319.499946 
L 184.77625 -317.345298 
L 184.77625 -315.190649 
L 184.77625 -313.036 
L 184.77625 -310.881352 
L 184.77625 -308.726703 
L 184.77625 -306.572054 
L 184.77625 -304.417405 
L 184.77625 -302.262757 
L 184.77625 -300.108108 
z
" style="stroke: #1e1e1e; stroke-width: 3"/>
    </defs>
    <g clip-path="url(#p2baa23415b)">
     <use xlink:href="#med7c68c9b5" x="0" y="576" style="fill: #0c580c; stroke: #1e1e1e; stroke-width: 3"/>
    </g>
   </g>
   <g id="PolyCollection_2">
    <defs>
     <path id="m21ee424eab" d="M 187.384703 -373.525554 
L 184.77625 -373.525554 
L 184.77625 -374.938046 
L 184.77625 -376.350538 
L 184.77625 -377.763031 
L 184.77625 -379.175523 
L 184.77625 -380.588015 
L 184.77625 -382.000507 
L 184.77625 -383.413 
L 184.77625 -384.825492 
L 184.77625 -386.237984 
L 184.77625 -387.650477 
L 184.77625 -389.062969 
L 184.77625 -390.475461 
L 184.77625 -391.887953 
L 184.77625 -393.300446 
L 184.77625 -394.712938 
L 184.77625 -396.12543 
L 184.77625 -397.537922 
L 184.77625 -398.950415 
L 184.77625 -400.362907 
L 184.77625 -401.775399 
L 184.77625 -403.187891 
L 184.77625 -404.600384 
L 184.77625 -406.012876 
L 184.77625 -407.425368 
L 184.77625 -408.83786 
L 184.77625 -410.250353 
L 184.77625 -411.662845 
L 184.77625 -413.075337 
L 184.77625 -414.487829 
L 184.77625 -415.900322 
L 184.77625 -417.312814 
L 184.77625 -418.725306 
L 184.77625 -420.137798 
L 184.77625 -421.550291 
L 184.77625 -422.962783 
L 184.77625 -424.375275 
L 184.77625 -425.787768 
L 184.77625 -427.20026 
L 184.77625 -428.612752 
L 184.77625 -430.025244 
L 184.77625 -431.437737 
L 184.77625 -432.850229 
L 184.77625 -434.262721 
L 184.77625 -435.675213 
L 184.77625 -437.087706 
L 184.77625 -438.500198 
L 184.77625 -439.91269 
L 184.77625 -441.325182 
L 184.77625 -442.737675 
L 184.77625 -444.150167 
L 184.77625 -445.562659 
L 184.77625 -446.975151 
L 184.77625 -448.387644 
L 184.77625 -449.800136 
L 184.77625 -451.212628 
L 184.77625 -452.62512 
L 184.77625 -454.037613 
L 184.77625 -455.450105 
L 184.77625 -456.862597 
L 184.77625 -458.275089 
L 184.77625 -459.687582 
L 184.77625 -461.100074 
L 184.77625 -462.512566 
L 184.77625 -463.925059 
L 184.77625 -465.337551 
L 184.77625 -466.750043 
L 184.77625 -468.162535 
L 184.77625 -469.575028 
L 184.77625 -470.98752 
L 184.77625 -472.400012 
L 184.77625 -473.812504 
L 184.77625 -475.224997 
L 184.77625 -476.637489 
L 184.77625 -478.049981 
L 184.77625 -479.462473 
L 184.77625 -480.874966 
L 184.77625 -482.287458 
L 184.77625 -483.69995 
L 184.77625 -485.112442 
L 184.77625 -486.524935 
L 184.77625 -487.937427 
L 184.77625 -489.349919 
L 184.77625 -490.762411 
L 184.77625 -492.174904 
L 184.77625 -493.587396 
L 184.77625 -494.999888 
L 184.77625 -496.41238 
L 184.77625 -497.824873 
L 184.77625 -499.237365 
L 184.77625 -500.649857 
L 184.77625 -502.06235 
L 184.77625 -503.474842 
L 184.77625 -504.887334 
L 184.77625 -506.299826 
L 184.77625 -507.712319 
L 184.77625 -509.124811 
L 184.77625 -510.537303 
L 184.77625 -511.949795 
L 184.77625 -513.362288 
L 242.219235 -513.362288 
L 242.219235 -513.362288 
L 246.780949 -511.949795 
L 250.809436 -510.537303 
L 254.18843 -509.124811 
L 256.829171 -507.712319 
L 258.675374 -506.299826 
L 259.70565 -504.887334 
L 259.93325 -503.474842 
L 259.403284 -502.06235 
L 258.187838 -500.649857 
L 256.379582 -499.237365 
L 254.08458 -497.824873 
L 251.414993 -496.41238 
L 248.4823 -494.999888 
L 245.391516 -493.587396 
L 242.236713 -492.174904 
L 239.097973 -490.762411 
L 236.039749 -489.349919 
L 233.11049 -487.937427 
L 230.343309 -486.524935 
L 227.757438 -485.112442 
L 225.360211 -483.69995 
L 223.149335 -482.287458 
L 221.115256 -480.874966 
L 219.243445 -479.462473 
L 217.516495 -478.049981 
L 215.915939 -476.637489 
L 214.42373 -475.224997 
L 213.023352 -473.812504 
L 211.700573 -472.400012 
L 210.443842 -470.98752 
L 209.244373 -469.575028 
L 208.09598 -468.162535 
L 206.99472 -466.750043 
L 205.938422 -465.337551 
L 204.926185 -463.925059 
L 203.957901 -462.512566 
L 203.033859 -461.100074 
L 202.154461 -459.687582 
L 201.320059 -458.275089 
L 200.530892 -456.862597 
L 199.787101 -455.450105 
L 199.088773 -454.037613 
L 198.435983 -452.62512 
L 197.828781 -451.212628 
L 197.267126 -449.800136 
L 196.750753 -448.387644 
L 196.278982 -446.975151 
L 195.850519 -445.562659 
L 195.463267 -444.150167 
L 195.114193 -442.737675 
L 194.799284 -441.325182 
L 194.5136 -439.91269 
L 194.251445 -438.500198 
L 194.00662 -437.087706 
L 193.772748 -435.675213 
L 193.543625 -434.262721 
L 193.313565 -432.850229 
L 193.077698 -431.437737 
L 192.832182 -430.025244 
L 192.574339 -428.612752 
L 192.302671 -427.20026 
L 192.016808 -425.787768 
L 191.717374 -424.375275 
L 191.405819 -422.962783 
L 191.084241 -421.550291 
L 190.755223 -420.137798 
L 190.421709 -418.725306 
L 190.086923 -417.312814 
L 189.754334 -415.900322 
L 189.427639 -414.487829 
L 189.110759 -413.075337 
L 188.807808 -411.662845 
L 188.523019 -410.250353 
L 188.260619 -408.83786 
L 188.024646 -407.425368 
L 187.818716 -406.012876 
L 187.645775 -404.600384 
L 187.50786 -403.187891 
L 187.405901 -401.775399 
L 187.339592 -400.362907 
L 187.30736 -398.950415 
L 187.306415 -397.537922 
L 187.332896 -396.12543 
L 187.382075 -394.712938 
L 187.448603 -393.300446 
L 187.526752 -391.887953 
L 187.610653 -390.475461 
L 187.694483 -389.062969 
L 187.772632 -387.650477 
L 187.839817 -386.237984 
L 187.891195 -384.825492 
L 187.922458 -383.413 
L 187.929949 -382.000507 
L 187.910782 -380.588015 
L 187.862989 -379.175523 
L 187.785645 -377.763031 
L 187.678983 -376.350538 
L 187.544452 -374.938046 
L 187.384703 -373.525554 
z
" style="stroke: #1e1e1e; stroke-width: 3"/>
    </defs>
    <g clip-path="url(#p2baa23415b)">
     <use xlink:href="#m21ee424eab" x="0" y="576" style="fill: #9ce29c; stroke: #1e1e1e; stroke-width: 3"/>
    </g>
   </g>
   <g id="PolyCollection_3">
    <defs>
     <path id="m2abc769f0f" d="M 372.66875 -301.679201 
L 369.310238 -301.679201 
L 368.887444 -303.813 
L 368.42913 -305.946799 
L 367.935032 -308.080597 
L 367.405672 -310.214396 
L 366.84253 -312.348195 
L 366.248173 -314.481993 
L 365.62634 -316.615792 
L 364.981957 -318.749591 
L 364.321074 -320.883389 
L 363.650699 -323.017188 
L 362.978555 -325.150987 
L 362.312728 -327.284785 
L 361.661263 -329.418584 
L 361.031683 -331.552382 
L 360.430509 -333.686181 
L 359.862773 -335.81998 
L 359.331602 -337.953778 
L 358.837877 -340.087577 
L 358.380032 -342.221376 
L 357.953995 -344.355174 
L 357.553307 -346.488973 
L 357.169403 -348.622772 
L 356.792053 -350.75657 
L 356.409934 -352.890369 
L 356.011277 -355.024168 
L 355.584555 -357.157966 
L 355.119143 -359.291765 
L 354.605896 -361.425564 
L 354.0376 -363.559362 
L 353.409262 -365.693161 
L 352.718213 -367.82696 
L 351.964032 -369.960758 
L 351.14832 -372.094557 
L 350.274353 -374.228356 
L 349.346677 -376.362154 
L 348.370706 -378.495953 
L 347.352377 -380.629751 
L 346.297914 -382.76355 
L 345.213736 -384.897349 
L 344.106512 -387.031147 
L 342.983338 -389.164946 
L 341.852008 -391.298745 
L 340.721303 -393.432543 
L 339.601218 -395.566342 
L 338.503064 -397.700141 
L 337.439354 -399.833939 
L 336.423454 -401.967738 
L 335.468955 -404.101537 
L 334.588812 -406.235335 
L 333.794291 -408.369134 
L 333.093833 -410.502933 
L 332.491943 -412.636731 
L 331.98824 -414.77053 
L 331.576791 -416.904329 
L 331.245841 -419.038127 
L 330.978002 -421.171926 
L 330.750932 -423.305725 
L 330.538481 -425.439523 
L 330.312217 -427.573322 
L 330.043216 -429.707121 
L 329.703959 -431.840919 
L 329.270164 -433.974718 
L 328.722384 -436.108516 
L 328.047214 -438.242315 
L 327.238011 -440.376114 
L 326.295053 -442.509912 
L 325.225127 -444.643711 
L 324.040628 -446.77751 
L 322.758242 -448.911308 
L 321.39738 -451.045107 
L 319.978533 -453.178906 
L 318.521725 -455.312704 
L 317.045232 -457.446503 
L 315.564697 -459.580302 
L 314.092742 -461.7141 
L 312.639111 -463.847899 
L 311.211318 -465.981698 
L 309.815723 -468.115496 
L 308.458928 -470.249295 
L 307.149305 -472.383094 
L 305.898496 -474.516892 
L 304.722704 -476.650691 
L 303.643589 -478.78449 
L 302.688657 -480.918288 
L 301.891029 -483.052087 
L 301.288581 -485.185886 
L 300.922441 -487.319684 
L 300.834964 -489.453483 
L 301.067277 -491.587281 
L 301.656613 -493.72108 
L 302.633595 -495.854879 
L 304.019723 -497.988677 
L 305.825255 -500.122476 
L 308.04766 -502.256275 
L 310.670806 -504.390073 
L 313.664944 -506.523872 
L 316.987523 -508.657671 
L 320.584793 -510.791469 
L 324.394073 -512.925268 
L 372.66875 -512.925268 
L 372.66875 -512.925268 
L 372.66875 -510.791469 
L 372.66875 -508.657671 
L 372.66875 -506.523872 
L 372.66875 -504.390073 
L 372.66875 -502.256275 
L 372.66875 -500.122476 
L 372.66875 -497.988677 
L 372.66875 -495.854879 
L 372.66875 -493.72108 
L 372.66875 -491.587281 
L 372.66875 -489.453483 
L 372.66875 -487.319684 
L 372.66875 -485.185886 
L 372.66875 -483.052087 
L 372.66875 -480.918288 
L 372.66875 -478.78449 
L 372.66875 -476.650691 
L 372.66875 -474.516892 
L 372.66875 -472.383094 
L 372.66875 -470.249295 
L 372.66875 -468.115496 
L 372.66875 -465.981698 
L 372.66875 -463.847899 
L 372.66875 -461.7141 
L 372.66875 -459.580302 
L 372.66875 -457.446503 
L 372.66875 -455.312704 
L 372.66875 -453.178906 
L 372.66875 -451.045107 
L 372.66875 -448.911308 
L 372.66875 -446.77751 
L 372.66875 -444.643711 
L 372.66875 -442.509912 
L 372.66875 -440.376114 
L 372.66875 -438.242315 
L 372.66875 -436.108516 
L 372.66875 -433.974718 
L 372.66875 -431.840919 
L 372.66875 -429.707121 
L 372.66875 -427.573322 
L 372.66875 -425.439523 
L 372.66875 -423.305725 
L 372.66875 -421.171926 
L 372.66875 -419.038127 
L 372.66875 -416.904329 
L 372.66875 -414.77053 
L 372.66875 -412.636731 
L 372.66875 -410.502933 
L 372.66875 -408.369134 
L 372.66875 -406.235335 
L 372.66875 -404.101537 
L 372.66875 -401.967738 
L 372.66875 -399.833939 
L 372.66875 -397.700141 
L 372.66875 -395.566342 
L 372.66875 -393.432543 
L 372.66875 -391.298745 
L 372.66875 -389.164946 
L 372.66875 -387.031147 
L 372.66875 -384.897349 
L 372.66875 -382.76355 
L 372.66875 -380.629751 
L 372.66875 -378.495953 
L 372.66875 -376.362154 
L 372.66875 -374.228356 
L 372.66875 -372.094557 
L 372.66875 -369.960758 
L 372.66875 -367.82696 
L 372.66875 -365.693161 
L 372.66875 -363.559362 
L 372.66875 -361.425564 
L 372.66875 -359.291765 
L 372.66875 -357.157966 
L 372.66875 -355.024168 
L 372.66875 -352.890369 
L 372.66875 -350.75657 
L 372.66875 -348.622772 
L 372.66875 -346.488973 
L 372.66875 -344.355174 
L 372.66875 -342.221376 
L 372.66875 -340.087577 
L 372.66875 -337.953778 
L 372.66875 -335.81998 
L 372.66875 -333.686181 
L 372.66875 -331.552382 
L 372.66875 -329.418584 
L 372.66875 -327.284785 
L 372.66875 -325.150987 
L 372.66875 -323.017188 
L 372.66875 -320.883389 
L 372.66875 -318.749591 
L 372.66875 -316.615792 
L 372.66875 -314.481993 
L 372.66875 -312.348195 
L 372.66875 -310.214396 
L 372.66875 -308.080597 
L 372.66875 -305.946799 
L 372.66875 -303.813 
L 372.66875 -301.679201 
z
" style="stroke: #1e1e1e; stroke-width: 3"/>
    </defs>
    <g clip-path="url(#p2baa23415b)">
     <use xlink:href="#m2abc769f0f" x="0" y="576" style="fill: #0c580c; stroke: #1e1e1e; stroke-width: 3"/>
    </g>
   </g>
   <g id="PolyCollection_4">
    <defs>
     <path id="m9390a41fd4" d="M 373.516044 -303.869433 
L 372.66875 -303.869433 
L 372.66875 -305.997441 
L 372.66875 -308.125449 
L 372.66875 -310.253457 
L 372.66875 -312.381465 
L 372.66875 -314.509474 
L 372.66875 -316.637482 
L 372.66875 -318.76549 
L 372.66875 -320.893498 
L 372.66875 -323.021506 
L 372.66875 -325.149514 
L 372.66875 -327.277523 
L 372.66875 -329.405531 
L 372.66875 -331.533539 
L 372.66875 -333.661547 
L 372.66875 -335.789555 
L 372.66875 -337.917564 
L 372.66875 -340.045572 
L 372.66875 -342.17358 
L 372.66875 -344.301588 
L 372.66875 -346.429596 
L 372.66875 -348.557604 
L 372.66875 -350.685613 
L 372.66875 -352.813621 
L 372.66875 -354.941629 
L 372.66875 -357.069637 
L 372.66875 -359.197645 
L 372.66875 -361.325654 
L 372.66875 -363.453662 
L 372.66875 -365.58167 
L 372.66875 -367.709678 
L 372.66875 -369.837686 
L 372.66875 -371.965694 
L 372.66875 -374.093703 
L 372.66875 -376.221711 
L 372.66875 -378.349719 
L 372.66875 -380.477727 
L 372.66875 -382.605735 
L 372.66875 -384.733744 
L 372.66875 -386.861752 
L 372.66875 -388.98976 
L 372.66875 -391.117768 
L 372.66875 -393.245776 
L 372.66875 -395.373784 
L 372.66875 -397.501793 
L 372.66875 -399.629801 
L 372.66875 -401.757809 
L 372.66875 -403.885817 
L 372.66875 -406.013825 
L 372.66875 -408.141834 
L 372.66875 -410.269842 
L 372.66875 -412.39785 
L 372.66875 -414.525858 
L 372.66875 -416.653866 
L 372.66875 -418.781874 
L 372.66875 -420.909883 
L 372.66875 -423.037891 
L 372.66875 -425.165899 
L 372.66875 -427.293907 
L 372.66875 -429.421915 
L 372.66875 -431.549924 
L 372.66875 -433.677932 
L 372.66875 -435.80594 
L 372.66875 -437.933948 
L 372.66875 -440.061956 
L 372.66875 -442.189964 
L 372.66875 -444.317973 
L 372.66875 -446.445981 
L 372.66875 -448.573989 
L 372.66875 -450.701997 
L 372.66875 -452.830005 
L 372.66875 -454.958014 
L 372.66875 -457.086022 
L 372.66875 -459.21403 
L 372.66875 -461.342038 
L 372.66875 -463.470046 
L 372.66875 -465.598054 
L 372.66875 -467.726063 
L 372.66875 -469.854071 
L 372.66875 -471.982079 
L 372.66875 -474.110087 
L 372.66875 -476.238095 
L 372.66875 -478.366104 
L 372.66875 -480.494112 
L 372.66875 -482.62212 
L 372.66875 -484.750128 
L 372.66875 -486.878136 
L 372.66875 -489.006144 
L 372.66875 -491.134153 
L 372.66875 -493.262161 
L 372.66875 -495.390169 
L 372.66875 -497.518177 
L 372.66875 -499.646185 
L 372.66875 -501.774194 
L 372.66875 -503.902202 
L 372.66875 -506.03021 
L 372.66875 -508.158218 
L 372.66875 -510.286226 
L 372.66875 -512.414234 
L 372.66875 -514.542243 
L 400.679204 -514.542243 
L 400.679204 -514.542243 
L 404.119254 -512.414234 
L 407.460363 -510.286226 
L 410.613465 -508.158218 
L 413.497039 -506.03021 
L 416.041237 -503.902202 
L 418.190604 -501.774194 
L 419.905254 -499.646185 
L 421.160682 -497.518177 
L 421.946562 -495.390169 
L 422.265051 -493.262161 
L 422.12905 -491.134153 
L 421.560823 -489.006144 
L 420.591101 -486.878136 
L 419.258641 -484.750128 
L 417.609986 -482.62212 
L 415.699083 -480.494112 
L 413.586406 -478.366104 
L 411.337357 -476.238095 
L 409.019865 -474.110087 
L 406.701312 -471.982079 
L 404.445091 -469.854071 
L 402.307207 -467.726063 
L 400.333345 -465.598054 
L 398.556781 -463.470046 
L 396.997357 -461.342038 
L 395.661589 -459.21403 
L 394.543784 -457.086022 
L 393.627955 -454.958014 
L 392.890203 -452.830005 
L 392.301261 -450.701997 
L 391.82894 -448.573989 
L 391.440289 -446.445981 
L 391.103396 -444.317973 
L 390.78881 -442.189964 
L 390.470645 -440.061956 
L 390.127411 -437.933948 
L 389.742612 -435.80594 
L 389.305125 -433.677932 
L 388.809326 -431.549924 
L 388.254917 -429.421915 
L 387.646438 -427.293907 
L 386.992432 -425.165899 
L 386.30434 -423.037891 
L 385.595197 -420.909883 
L 384.878282 -418.781874 
L 384.165876 -416.653866 
L 383.468265 -414.525858 
L 382.793111 -412.39785 
L 382.145237 -410.269842 
L 381.526822 -408.141834 
L 380.937937 -406.013825 
L 380.377302 -403.885817 
L 379.843127 -401.757809 
L 379.333893 -399.629801 
L 378.848954 -397.501793 
L 378.38888 -395.373784 
L 377.95551 -393.245776 
L 377.551726 -391.117768 
L 377.181024 -388.98976 
L 376.84695 -386.861752 
L 376.55252 -384.733744 
L 376.299699 -382.605735 
L 376.089016 -380.477727 
L 375.919364 -378.349719 
L 375.787983 -376.221711 
L 375.690617 -374.093703 
L 375.621804 -371.965694 
L 375.575256 -369.837686 
L 375.544278 -367.709678 
L 375.522184 -365.58167 
L 375.502691 -363.453662 
L 375.480246 -361.325654 
L 375.450293 -359.197645 
L 375.409456 -357.069637 
L 375.355641 -354.941629 
L 375.28805 -352.813621 
L 375.207096 -350.685613 
L 375.114254 -348.557604 
L 375.011826 -346.429596 
L 374.902667 -344.301588 
L 374.789894 -342.17358 
L 374.676596 -340.045572 
L 374.565592 -337.917564 
L 374.459234 -335.789555 
L 374.359299 -333.661547 
L 374.266937 -331.533539 
L 374.182691 -329.405531 
L 374.106557 -327.277523 
L 374.038072 -325.149514 
L 373.97641 -323.021506 
L 373.920472 -320.893498 
L 373.868966 -318.76549 
L 373.820477 -316.637482 
L 373.773531 -314.509474 
L 373.726668 -312.381465 
L 373.678522 -310.253457 
L 373.627911 -308.125449 
L 373.57393 -305.997441 
L 373.516044 -303.869433 
z
" style="stroke: #1e1e1e; stroke-width: 3"/>
    </defs>
    <g clip-path="url(#p2baa23415b)">
     <use xlink:href="#m9390a41fd4" x="0" y="576" style="fill: #9ce29c; stroke: #1e1e1e; stroke-width: 3"/>
    </g>
   </g>
   <g id="PolyCollection_5">
    <defs>
     <path id="m7550b654f7" d="M 560.56125 -211.787095 
L 524.487869 -211.787095 
L 521.668065 -214.422604 
L 518.945867 -217.058114 
L 516.364713 -219.693623 
L 513.965973 -222.329133 
L 511.78753 -224.964642 
L 509.862491 -227.600151 
L 508.218073 -230.235661 
L 506.874734 -232.87117 
L 505.84558 -235.50668 
L 505.136078 -238.142189 
L 504.744083 -240.777699 
L 504.660166 -243.413208 
L 504.868204 -246.048717 
L 505.346215 -248.684227 
L 506.067362 -251.319736 
L 507.001077 -253.955246 
L 508.114253 -256.590755 
L 509.37243 -259.226265 
L 510.740938 -261.861774 
L 512.185941 -264.497283 
L 513.675353 -267.132793 
L 515.179598 -269.768302 
L 516.672209 -272.403812 
L 518.130248 -275.039321 
L 519.534562 -277.67483 
L 520.86989 -280.31034 
L 522.124818 -282.945849 
L 523.291632 -285.581359 
L 524.366056 -288.216868 
L 525.346928 -290.852378 
L 526.235811 -293.487887 
L 527.036569 -296.123396 
L 527.754927 -298.758906 
L 528.398021 -301.394415 
L 528.973959 -304.029925 
L 529.491404 -306.665434 
L 529.959189 -309.300944 
L 530.385966 -311.936453 
L 530.779911 -314.571962 
L 531.14848 -317.207472 
L 531.498223 -319.842981 
L 531.834661 -322.478491 
L 532.162229 -325.114 
L 532.484276 -327.74951 
L 532.803121 -330.385019 
L 533.12016 -333.020528 
L 533.436013 -335.656038 
L 533.750698 -338.291547 
L 534.063818 -340.927057 
L 534.374754 -343.562566 
L 534.682842 -346.198076 
L 534.987539 -348.833585 
L 535.288544 -351.469094 
L 535.585895 -354.104604 
L 535.880017 -356.740113 
L 536.171734 -359.375623 
L 536.462245 -362.011132 
L 536.753064 -364.646641 
L 537.045935 -367.282151 
L 537.342739 -369.91766 
L 537.645375 -372.55317 
L 537.955662 -375.188679 
L 538.275227 -377.824189 
L 538.605423 -380.459698 
L 538.947253 -383.095207 
L 539.301314 -385.730717 
L 539.667765 -388.366226 
L 540.046313 -391.001736 
L 540.436218 -393.637245 
L 540.836315 -396.272755 
L 541.245056 -398.908264 
L 541.660557 -401.543773 
L 542.080673 -404.179283 
L 542.50307 -406.814792 
L 542.925313 -409.450302 
L 543.344968 -412.085811 
L 543.759704 -414.721321 
L 544.167401 -417.35683 
L 544.56626 -419.992339 
L 544.95491 -422.627849 
L 545.332504 -425.263358 
L 545.698799 -427.898868 
L 546.054215 -430.534377 
L 546.39987 -433.169887 
L 546.73757 -435.805396 
L 547.069776 -438.440905 
L 547.399515 -441.076415 
L 547.730271 -443.711924 
L 548.06582 -446.347434 
L 548.410053 -448.982943 
L 548.766769 -451.618453 
L 549.139463 -454.253962 
L 549.531118 -456.889471 
L 549.944012 -459.524981 
L 550.379559 -462.16049 
L 550.838185 -464.796 
L 551.319262 -467.431509 
L 551.821088 -470.067018 
L 552.340933 -472.702528 
L 560.56125 -472.702528 
L 560.56125 -472.702528 
L 560.56125 -470.067018 
L 560.56125 -467.431509 
L 560.56125 -464.796 
L 560.56125 -462.16049 
L 560.56125 -459.524981 
L 560.56125 -456.889471 
L 560.56125 -454.253962 
L 560.56125 -451.618453 
L 560.56125 -448.982943 
L 560.56125 -446.347434 
L 560.56125 -443.711924 
L 560.56125 -441.076415 
L 560.56125 -438.440905 
L 560.56125 -435.805396 
L 560.56125 -433.169887 
L 560.56125 -430.534377 
L 560.56125 -427.898868 
L 560.56125 -425.263358 
L 560.56125 -422.627849 
L 560.56125 -419.992339 
L 560.56125 -417.35683 
L 560.56125 -414.721321 
L 560.56125 -412.085811 
L 560.56125 -409.450302 
L 560.56125 -406.814792 
L 560.56125 -404.179283 
L 560.56125 -401.543773 
L 560.56125 -398.908264 
L 560.56125 -396.272755 
L 560.56125 -393.637245 
L 560.56125 -391.001736 
L 560.56125 -388.366226 
L 560.56125 -385.730717 
L 560.56125 -383.095207 
L 560.56125 -380.459698 
L 560.56125 -377.824189 
L 560.56125 -375.188679 
L 560.56125 -372.55317 
L 560.56125 -369.91766 
L 560.56125 -367.282151 
L 560.56125 -364.646641 
L 560.56125 -362.011132 
L 560.56125 -359.375623 
L 560.56125 -356.740113 
L 560.56125 -354.104604 
L 560.56125 -351.469094 
L 560.56125 -348.833585 
L 560.56125 -346.198076 
L 560.56125 -343.562566 
L 560.56125 -340.927057 
L 560.56125 -338.291547 
L 560.56125 -335.656038 
L 560.56125 -333.020528 
L 560.56125 -330.385019 
L 560.56125 -327.74951 
L 560.56125 -325.114 
L 560.56125 -322.478491 
L 560.56125 -319.842981 
L 560.56125 -317.207472 
L 560.56125 -314.571962 
L 560.56125 -311.936453 
L 560.56125 -309.300944 
L 560.56125 -306.665434 
L 560.56125 -304.029925 
L 560.56125 -301.394415 
L 560.56125 -298.758906 
L 560.56125 -296.123396 
L 560.56125 -293.487887 
L 560.56125 -290.852378 
L 560.56125 -288.216868 
L 560.56125 -285.581359 
L 560.56125 -282.945849 
L 560.56125 -280.31034 
L 560.56125 -277.67483 
L 560.56125 -275.039321 
L 560.56125 -272.403812 
L 560.56125 -269.768302 
L 560.56125 -267.132793 
L 560.56125 -264.497283 
L 560.56125 -261.861774 
L 560.56125 -259.226265 
L 560.56125 -256.590755 
L 560.56125 -253.955246 
L 560.56125 -251.319736 
L 560.56125 -248.684227 
L 560.56125 -246.048717 
L 560.56125 -243.413208 
L 560.56125 -240.777699 
L 560.56125 -238.142189 
L 560.56125 -235.50668 
L 560.56125 -232.87117 
L 560.56125 -230.235661 
L 560.56125 -227.600151 
L 560.56125 -224.964642 
L 560.56125 -222.329133 
L 560.56125 -219.693623 
L 560.56125 -217.058114 
L 560.56125 -214.422604 
L 560.56125 -211.787095 
z
" style="stroke: #1e1e1e; stroke-width: 3"/>
    </defs>
    <g clip-path="url(#p2baa23415b)">
     <use xlink:href="#m7550b654f7" x="0" y="576" style="fill: #0c580c; stroke: #1e1e1e; stroke-width: 3"/>
    </g>
   </g>
   <g id="PolyCollection_6">
    <defs>
     <path id="m3d773e0466" d="M 561.887611 -214.97031 
L 560.56125 -214.97031 
L 560.56125 -217.967997 
L 560.56125 -220.965685 
L 560.56125 -223.963372 
L 560.56125 -226.96106 
L 560.56125 -229.958747 
L 560.56125 -232.956435 
L 560.56125 -235.954122 
L 560.56125 -238.95181 
L 560.56125 -241.949497 
L 560.56125 -244.947184 
L 560.56125 -247.944872 
L 560.56125 -250.942559 
L 560.56125 -253.940247 
L 560.56125 -256.937934 
L 560.56125 -259.935622 
L 560.56125 -262.933309 
L 560.56125 -265.930997 
L 560.56125 -268.928684 
L 560.56125 -271.926372 
L 560.56125 -274.924059 
L 560.56125 -277.921747 
L 560.56125 -280.919434 
L 560.56125 -283.917122 
L 560.56125 -286.914809 
L 560.56125 -289.912497 
L 560.56125 -292.910184 
L 560.56125 -295.907872 
L 560.56125 -298.905559 
L 560.56125 -301.903246 
L 560.56125 -304.900934 
L 560.56125 -307.898621 
L 560.56125 -310.896309 
L 560.56125 -313.893996 
L 560.56125 -316.891684 
L 560.56125 -319.889371 
L 560.56125 -322.887059 
L 560.56125 -325.884746 
L 560.56125 -328.882434 
L 560.56125 -331.880121 
L 560.56125 -334.877809 
L 560.56125 -337.875496 
L 560.56125 -340.873184 
L 560.56125 -343.870871 
L 560.56125 -346.868559 
L 560.56125 -349.866246 
L 560.56125 -352.863933 
L 560.56125 -355.861621 
L 560.56125 -358.859308 
L 560.56125 -361.856996 
L 560.56125 -364.854683 
L 560.56125 -367.852371 
L 560.56125 -370.850058 
L 560.56125 -373.847746 
L 560.56125 -376.845433 
L 560.56125 -379.843121 
L 560.56125 -382.840808 
L 560.56125 -385.838496 
L 560.56125 -388.836183 
L 560.56125 -391.833871 
L 560.56125 -394.831558 
L 560.56125 -397.829246 
L 560.56125 -400.826933 
L 560.56125 -403.82462 
L 560.56125 -406.822308 
L 560.56125 -409.819995 
L 560.56125 -412.817683 
L 560.56125 -415.81537 
L 560.56125 -418.813058 
L 560.56125 -421.810745 
L 560.56125 -424.808433 
L 560.56125 -427.80612 
L 560.56125 -430.803808 
L 560.56125 -433.801495 
L 560.56125 -436.799183 
L 560.56125 -439.79687 
L 560.56125 -442.794558 
L 560.56125 -445.792245 
L 560.56125 -448.789933 
L 560.56125 -451.78762 
L 560.56125 -454.785308 
L 560.56125 -457.782995 
L 560.56125 -460.780682 
L 560.56125 -463.77837 
L 560.56125 -466.776057 
L 560.56125 -469.773745 
L 560.56125 -472.771432 
L 560.56125 -475.76912 
L 560.56125 -478.766807 
L 560.56125 -481.764495 
L 560.56125 -484.762182 
L 560.56125 -487.75987 
L 560.56125 -490.757557 
L 560.56125 -493.755245 
L 560.56125 -496.752932 
L 560.56125 -499.75062 
L 560.56125 -502.748307 
L 560.56125 -505.745995 
L 560.56125 -508.743682 
L 560.56125 -511.741369 
L 568.502092 -511.741369 
L 568.502092 -511.741369 
L 569.578664 -508.743682 
L 570.714155 -505.745995 
L 571.899061 -502.748307 
L 573.122407 -499.75062 
L 574.371973 -496.752932 
L 575.634587 -493.755245 
L 576.896473 -490.757557 
L 578.143637 -487.75987 
L 579.362289 -484.762182 
L 580.539255 -481.764495 
L 581.662355 -478.766807 
L 582.720717 -475.76912 
L 583.704998 -472.771432 
L 584.607484 -469.773745 
L 585.422072 -466.776057 
L 586.14414 -463.77837 
L 586.770316 -460.780682 
L 587.298196 -457.782995 
L 587.726036 -454.785308 
L 588.052475 -451.78762 
L 588.276314 -448.789933 
L 588.396397 -445.792245 
L 588.411589 -442.794558 
L 588.320868 -439.79687 
L 588.123519 -436.799183 
L 587.819387 -433.801495 
L 587.409177 -430.803808 
L 586.894751 -427.80612 
L 586.279387 -424.808433 
L 585.567973 -421.810745 
L 584.767104 -418.813058 
L 583.885081 -415.81537 
L 582.931795 -412.817683 
L 581.918508 -409.819995 
L 580.857555 -406.822308 
L 579.761975 -403.82462 
L 578.645114 -400.826933 
L 577.520218 -397.829246 
L 576.400055 -394.831558 
L 575.296584 -391.833871 
L 574.220695 -388.836183 
L 573.182032 -385.838496 
L 572.188896 -382.840808 
L 571.248241 -379.843121 
L 570.365727 -376.845433 
L 569.54583 -373.847746 
L 568.79198 -370.850058 
L 568.106708 -367.852371 
L 567.491773 -364.854683 
L 566.948263 -361.856996 
L 566.476652 -358.859308 
L 566.076807 -355.861621 
L 565.747952 -352.863933 
L 565.48859 -349.866246 
L 565.296408 -346.868559 
L 565.168169 -343.870871 
L 565.099621 -340.873184 
L 565.085441 -337.875496 
L 565.119228 -334.877809 
L 565.193564 -331.880121 
L 565.300156 -328.882434 
L 565.430044 -325.884746 
L 565.573879 -322.887059 
L 565.722263 -319.889371 
L 565.866099 -316.891684 
L 565.99696 -313.893996 
L 566.107413 -310.896309 
L 566.191297 -307.898621 
L 566.243914 -304.900934 
L 566.262135 -301.903246 
L 566.244401 -298.905559 
L 566.190641 -295.907872 
L 566.10211 -292.910184 
L 565.981176 -289.912497 
L 565.831076 -286.914809 
L 565.655672 -283.917122 
L 565.459216 -280.919434 
L 565.246153 -277.921747 
L 565.020951 -274.924059 
L 564.787984 -271.926372 
L 564.551432 -268.928684 
L 564.315217 -265.930997 
L 564.082941 -262.933309 
L 563.857837 -259.935622 
L 563.642705 -256.937934 
L 563.43985 -253.940247 
L 563.251014 -250.942559 
L 563.077311 -247.944872 
L 562.919181 -244.947184 
L 562.776363 -241.949497 
L 562.647919 -238.95181 
L 562.53229 -235.954122 
L 562.42741 -232.956435 
L 562.330857 -229.958747 
L 562.240041 -226.96106 
L 562.152406 -223.963372 
L 562.065634 -220.965685 
L 561.97782 -217.967997 
L 561.887611 -214.97031 
z
" style="stroke: #1e1e1e; stroke-width: 3"/>
    </defs>
    <g clip-path="url(#p2baa23415b)">
     <use xlink:href="#m3d773e0466" x="0" y="576" style="fill: #9ce29c; stroke: #1e1e1e; stroke-width: 3"/>
    </g>
   </g>
   <g id="PolyCollection_7">
    <defs>
     <path id="m4e60ead3c7" d="M 748.45375 -286.968762 
L 736.486261 -286.968762 
L 735.59977 -289.256612 
L 734.714806 -291.544463 
L 733.838239 -293.832313 
L 732.976938 -296.120163 
L 732.137638 -298.408014 
L 731.326791 -300.695864 
L 730.550413 -302.983714 
L 729.813912 -305.271564 
L 729.121924 -307.559415 
L 728.478148 -309.847265 
L 727.885192 -312.135115 
L 727.344433 -314.422966 
L 726.855918 -316.710816 
L 726.418287 -318.998666 
L 726.028752 -321.286517 
L 725.683117 -323.574367 
L 725.375861 -325.862217 
L 725.100268 -328.150067 
L 724.84862 -330.437918 
L 724.612431 -332.725768 
L 724.382733 -335.013618 
L 724.150384 -337.301469 
L 723.906401 -339.589319 
L 723.642299 -341.877169 
L 723.350414 -344.16502 
L 723.024201 -346.45287 
L 722.658492 -348.74072 
L 722.249695 -351.02857 
L 721.795925 -353.316421 
L 721.29706 -355.604271 
L 720.754724 -357.892121 
L 720.172178 -360.179972 
L 719.554157 -362.467822 
L 718.906627 -364.755672 
L 718.236504 -367.043523 
L 717.551339 -369.331373 
L 716.858983 -371.619223 
L 716.167266 -373.907073 
L 715.483693 -376.194924 
L 714.815179 -378.482774 
L 714.167834 -380.770624 
L 713.546808 -383.058475 
L 712.956202 -385.346325 
L 712.399028 -387.634175 
L 711.877246 -389.922025 
L 711.391833 -392.209876 
L 710.942901 -394.497726 
L 710.529845 -396.785576 
L 710.151497 -399.073427 
L 709.806293 -401.361277 
L 709.492435 -403.649127 
L 709.20803 -405.936978 
L 708.951215 -408.224828 
L 708.720253 -410.512678 
L 708.513599 -412.800528 
L 708.329932 -415.088379 
L 708.168155 -417.376229 
L 708.027366 -419.664079 
L 707.90679 -421.95193 
L 707.805687 -424.23978 
L 707.723236 -426.52763 
L 707.658392 -428.815481 
L 707.609738 -431.103331 
L 707.575332 -433.391181 
L 707.552561 -435.679031 
L 707.538026 -437.966882 
L 707.527461 -440.254732 
L 707.515714 -442.542582 
L 707.496797 -444.830433 
L 707.464024 -447.118283 
L 707.410239 -449.406133 
L 707.32814 -451.693984 
L 707.210699 -453.981834 
L 707.051645 -456.269684 
L 706.846014 -458.557534 
L 706.590712 -460.845385 
L 706.28507 -463.133235 
L 705.93134 -465.421085 
L 705.535102 -467.708936 
L 705.105524 -469.996786 
L 704.655464 -472.284636 
L 704.201366 -474.572487 
L 703.762951 -476.860337 
L 703.362704 -479.148187 
L 703.025152 -481.436037 
L 702.775988 -483.723888 
L 702.641058 -486.011738 
L 702.645276 -488.299588 
L 702.811517 -490.587439 
L 703.159557 -492.875289 
L 703.70511 -495.163139 
L 704.459025 -497.450989 
L 705.426686 -499.73884 
L 706.607648 -502.02669 
L 707.995536 -504.31454 
L 709.578201 -506.602391 
L 711.338133 -508.890241 
L 713.253098 -511.178091 
L 715.29697 -513.465942 
L 748.45375 -513.465942 
L 748.45375 -513.465942 
L 748.45375 -511.178091 
L 748.45375 -508.890241 
L 748.45375 -506.602391 
L 748.45375 -504.31454 
L 748.45375 -502.02669 
L 748.45375 -499.73884 
L 748.45375 -497.450989 
L 748.45375 -495.163139 
L 748.45375 -492.875289 
L 748.45375 -490.587439 
L 748.45375 -488.299588 
L 748.45375 -486.011738 
L 748.45375 -483.723888 
L 748.45375 -481.436037 
L 748.45375 -479.148187 
L 748.45375 -476.860337 
L 748.45375 -474.572487 
L 748.45375 -472.284636 
L 748.45375 -469.996786 
L 748.45375 -467.708936 
L 748.45375 -465.421085 
L 748.45375 -463.133235 
L 748.45375 -460.845385 
L 748.45375 -458.557534 
L 748.45375 -456.269684 
L 748.45375 -453.981834 
L 748.45375 -451.693984 
L 748.45375 -449.406133 
L 748.45375 -447.118283 
L 748.45375 -444.830433 
L 748.45375 -442.542582 
L 748.45375 -440.254732 
L 748.45375 -437.966882 
L 748.45375 -435.679031 
L 748.45375 -433.391181 
L 748.45375 -431.103331 
L 748.45375 -428.815481 
L 748.45375 -426.52763 
L 748.45375 -424.23978 
L 748.45375 -421.95193 
L 748.45375 -419.664079 
L 748.45375 -417.376229 
L 748.45375 -415.088379 
L 748.45375 -412.800528 
L 748.45375 -410.512678 
L 748.45375 -408.224828 
L 748.45375 -405.936978 
L 748.45375 -403.649127 
L 748.45375 -401.361277 
L 748.45375 -399.073427 
L 748.45375 -396.785576 
L 748.45375 -394.497726 
L 748.45375 -392.209876 
L 748.45375 -389.922025 
L 748.45375 -387.634175 
L 748.45375 -385.346325 
L 748.45375 -383.058475 
L 748.45375 -380.770624 
L 748.45375 -378.482774 
L 748.45375 -376.194924 
L 748.45375 -373.907073 
L 748.45375 -371.619223 
L 748.45375 -369.331373 
L 748.45375 -367.043523 
L 748.45375 -364.755672 
L 748.45375 -362.467822 
L 748.45375 -360.179972 
L 748.45375 -357.892121 
L 748.45375 -355.604271 
L 748.45375 -353.316421 
L 748.45375 -351.02857 
L 748.45375 -348.74072 
L 748.45375 -346.45287 
L 748.45375 -344.16502 
L 748.45375 -341.877169 
L 748.45375 -339.589319 
L 748.45375 -337.301469 
L 748.45375 -335.013618 
L 748.45375 -332.725768 
L 748.45375 -330.437918 
L 748.45375 -328.150067 
L 748.45375 -325.862217 
L 748.45375 -323.574367 
L 748.45375 -321.286517 
L 748.45375 -318.998666 
L 748.45375 -316.710816 
L 748.45375 -314.422966 
L 748.45375 -312.135115 
L 748.45375 -309.847265 
L 748.45375 -307.559415 
L 748.45375 -305.271564 
L 748.45375 -302.983714 
L 748.45375 -300.695864 
L 748.45375 -298.408014 
L 748.45375 -296.120163 
L 748.45375 -293.832313 
L 748.45375 -291.544463 
L 748.45375 -289.256612 
L 748.45375 -286.968762 
z
" style="stroke: #1e1e1e; stroke-width: 3"/>
    </defs>
    <g clip-path="url(#p2baa23415b)">
     <use xlink:href="#m4e60ead3c7" x="0" y="576" style="fill: #0c580c; stroke: #1e1e1e; stroke-width: 3"/>
    </g>
   </g>
   <g id="patch_3">
    <path d="M 184.77625 397.262828 
L 184.77625 397.262828 
L 184.77625 397.262828 
L 184.77625 397.262828 
z
" clip-path="url(#p2baa23415b)" style="fill: #0c580c; stroke: #1e1e1e; stroke-width: 3; stroke-linejoin: miter"/>
   </g>
   <g id="patch_4">
    <path d="M 184.77625 397.262828 
L 184.77625 397.262828 
L 184.77625 397.262828 
L 184.77625 397.262828 
z
" clip-path="url(#p2baa23415b)" style="fill: #9ce29c; stroke: #1e1e1e; stroke-width: 3; stroke-linejoin: miter"/>
   </g>
   <g id="matplotlib.axis_1">
    <g id="xtick_1">
     <g id="line2d_1"/>
     <g id="text_1">
      <!-- AlphaFold 2 -->
      <g transform="translate(147.236614 476.480439) rotate(-45) scale(0.2 -0.2)">
       <defs>
        <path id="DejaVuSans-41" d="M 2188 4044 
L 1331 1722 
L 3047 1722 
L 2188 4044 
z
M 1831 4666 
L 2547 4666 
L 4325 0 
L 3669 0 
L 3244 1197 
L 1141 1197 
L 716 0 
L 50 0 
L 1831 4666 
z
" transform="scale(0.015625)"/>
        <path id="DejaVuSans-6c" d="M 603 4863 
L 1178 4863 
L 1178 0 
L 603 0 
L 603 4863 
z
" transform="scale(0.015625)"/>
        <path id="DejaVuSans-70" d="M 1159 525 
L 1159 -1331 
L 581 -1331 
L 581 3500 
L 1159 3500 
L 1159 2969 
Q 1341 3281 1617 3432 
Q 1894 3584 2278 3584 
Q 2916 3584 3314 3078 
Q 3713 2572 3713 1747 
Q 3713 922 3314 415 
Q 2916 -91 2278 -91 
Q 1894 -91 1617 61 
Q 1341 213 1159 525 
z
M 3116 1747 
Q 3116 2381 2855 2742 
Q 2594 3103 2138 3103 
Q 1681 3103 1420 2742 
Q 1159 2381 1159 1747 
Q 1159 1113 1420 752 
Q 1681 391 2138 391 
Q 2594 391 2855 752 
Q 3116 1113 3116 1747 
z
" transform="scale(0.015625)"/>
        <path id="DejaVuSans-68" d="M 3513 2113 
L 3513 0 
L 2938 0 
L 2938 2094 
Q 2938 2591 2744 2837 
Q 2550 3084 2163 3084 
Q 1697 3084 1428 2787 
Q 1159 2491 1159 1978 
L 1159 0 
L 581 0 
L 581 4863 
L 1159 4863 
L 1159 2956 
Q 1366 3272 1645 3428 
Q 1925 3584 2291 3584 
Q 2894 3584 3203 3211 
Q 3513 2838 3513 2113 
z
" transform="scale(0.015625)"/>
        <path id="DejaVuSans-61" d="M 2194 1759 
Q 1497 1759 1228 1600 
Q 959 1441 959 1056 
Q 959 750 1161 570 
Q 1363 391 1709 391 
Q 2188 391 2477 730 
Q 2766 1069 2766 1631 
L 2766 1759 
L 2194 1759 
z
M 3341 1997 
L 3341 0 
L 2766 0 
L 2766 531 
Q 2569 213 2275 61 
Q 1981 -91 1556 -91 
Q 1019 -91 701 211 
Q 384 513 384 1019 
Q 384 1609 779 1909 
Q 1175 2209 1959 2209 
L 2766 2209 
L 2766 2266 
Q 2766 2663 2505 2880 
Q 2244 3097 1772 3097 
Q 1472 3097 1187 3025 
Q 903 2953 641 2809 
L 641 3341 
Q 956 3463 1253 3523 
Q 1550 3584 1831 3584 
Q 2591 3584 2966 3190 
Q 3341 2797 3341 1997 
z
" transform="scale(0.015625)"/>
        <path id="DejaVuSans-46" d="M 628 4666 
L 3309 4666 
L 3309 4134 
L 1259 4134 
L 1259 2759 
L 3109 2759 
L 3109 2228 
L 1259 2228 
L 1259 0 
L 628 0 
L 628 4666 
z
" transform="scale(0.015625)"/>
        <path id="DejaVuSans-6f" d="M 1959 3097 
Q 1497 3097 1228 2736 
Q 959 2375 959 1747 
Q 959 1119 1226 758 
Q 1494 397 1959 397 
Q 2419 397 2687 759 
Q 2956 1122 2956 1747 
Q 2956 2369 2687 2733 
Q 2419 3097 1959 3097 
z
M 1959 3584 
Q 2709 3584 3137 3096 
Q 3566 2609 3566 1747 
Q 3566 888 3137 398 
Q 2709 -91 1959 -91 
Q 1206 -91 779 398 
Q 353 888 353 1747 
Q 353 2609 779 3096 
Q 1206 3584 1959 3584 
z
" transform="scale(0.015625)"/>
        <path id="DejaVuSans-64" d="M 2906 2969 
L 2906 4863 
L 3481 4863 
L 3481 0 
L 2906 0 
L 2906 525 
Q 2725 213 2448 61 
Q 2172 -91 1784 -91 
Q 1150 -91 751 415 
Q 353 922 353 1747 
Q 353 2572 751 3078 
Q 1150 3584 1784 3584 
Q 2172 3584 2448 3432 
Q 2725 3281 2906 2969 
z
M 947 1747 
Q 947 1113 1208 752 
Q 1469 391 1925 391 
Q 2381 391 2643 752 
Q 2906 1113 2906 1747 
Q 2906 2381 2643 2742 
Q 2381 3103 1925 3103 
Q 1469 3103 1208 2742 
Q 947 2381 947 1747 
z
" transform="scale(0.015625)"/>
        <path id="DejaVuSans-20" transform="scale(0.015625)"/>
        <path id="DejaVuSans-32" d="M 1228 531 
L 3431 531 
L 3431 0 
L 469 0 
L 469 531 
Q 828 903 1448 1529 
Q 2069 2156 2228 2338 
Q 2531 2678 2651 2914 
Q 2772 3150 2772 3378 
Q 2772 3750 2511 3984 
Q 2250 4219 1831 4219 
Q 1534 4219 1204 4116 
Q 875 4013 500 3803 
L 500 4441 
Q 881 4594 1212 4672 
Q 1544 4750 1819 4750 
Q 2544 4750 2975 4387 
Q 3406 4025 3406 3419 
Q 3406 3131 3298 2873 
Q 3191 2616 2906 2266 
Q 2828 2175 2409 1742 
Q 1991 1309 1228 531 
z
" transform="scale(0.015625)"/>
       </defs>
       <use xlink:href="#DejaVuSans-41"/>
       <use xlink:href="#DejaVuSans-6c" x="68.408203"/>
       <use xlink:href="#DejaVuSans-70" x="96.191406"/>
       <use xlink:href="#DejaVuSans-68" x="159.667969"/>
       <use xlink:href="#DejaVuSans-61" x="223.046875"/>
       <use xlink:href="#DejaVuSans-46" x="284.326172"/>
       <use xlink:href="#DejaVuSans-6f" x="338.220703"/>
       <use xlink:href="#DejaVuSans-6c" x="399.402344"/>
       <use xlink:href="#DejaVuSans-64" x="427.185547"/>
       <use xlink:href="#DejaVuSans-20" x="490.662109"/>
       <use xlink:href="#DejaVuSans-32" x="522.449219"/>
      </g>
     </g>
    </g>
    <g id="xtick_2">
     <g id="line2d_2"/>
     <g id="text_2">
      <!-- AlphaFold 3 -->
      <g transform="translate(335.129114 476.480439) rotate(-45) scale(0.2 -0.2)">
       <defs>
        <path id="DejaVuSans-33" d="M 2597 2516 
Q 3050 2419 3304 2112 
Q 3559 1806 3559 1356 
Q 3559 666 3084 287 
Q 2609 -91 1734 -91 
Q 1441 -91 1130 -33 
Q 819 25 488 141 
L 488 750 
Q 750 597 1062 519 
Q 1375 441 1716 441 
Q 2309 441 2620 675 
Q 2931 909 2931 1356 
Q 2931 1769 2642 2001 
Q 2353 2234 1838 2234 
L 1294 2234 
L 1294 2753 
L 1863 2753 
Q 2328 2753 2575 2939 
Q 2822 3125 2822 3475 
Q 2822 3834 2567 4026 
Q 2313 4219 1838 4219 
Q 1578 4219 1281 4162 
Q 984 4106 628 3988 
L 628 4550 
Q 988 4650 1302 4700 
Q 1616 4750 1894 4750 
Q 2613 4750 3031 4423 
Q 3450 4097 3450 3541 
Q 3450 3153 3228 2886 
Q 3006 2619 2597 2516 
z
" transform="scale(0.015625)"/>
       </defs>
       <use xlink:href="#DejaVuSans-41"/>
       <use xlink:href="#DejaVuSans-6c" x="68.408203"/>
       <use xlink:href="#DejaVuSans-70" x="96.191406"/>
       <use xlink:href="#DejaVuSans-68" x="159.667969"/>
       <use xlink:href="#DejaVuSans-61" x="223.046875"/>
       <use xlink:href="#DejaVuSans-46" x="284.326172"/>
       <use xlink:href="#DejaVuSans-6f" x="338.220703"/>
       <use xlink:href="#DejaVuSans-6c" x="399.402344"/>
       <use xlink:href="#DejaVuSans-64" x="427.185547"/>
       <use xlink:href="#DejaVuSans-20" x="490.662109"/>
       <use xlink:href="#DejaVuSans-33" x="522.449219"/>
      </g>
     </g>
    </g>
    <g id="xtick_3">
     <g id="line2d_3"/>
     <g id="text_3">
      <!-- RoseTTAFold2 -->
      <g transform="translate(515.61467 491.294326) rotate(-45) scale(0.2 -0.2)">
       <defs>
        <path id="DejaVuSans-52" d="M 2841 2188 
Q 3044 2119 3236 1894 
Q 3428 1669 3622 1275 
L 4263 0 
L 3584 0 
L 2988 1197 
Q 2756 1666 2539 1819 
Q 2322 1972 1947 1972 
L 1259 1972 
L 1259 0 
L 628 0 
L 628 4666 
L 2053 4666 
Q 2853 4666 3247 4331 
Q 3641 3997 3641 3322 
Q 3641 2881 3436 2590 
Q 3231 2300 2841 2188 
z
M 1259 4147 
L 1259 2491 
L 2053 2491 
Q 2509 2491 2742 2702 
Q 2975 2913 2975 3322 
Q 2975 3731 2742 3939 
Q 2509 4147 2053 4147 
L 1259 4147 
z
" transform="scale(0.015625)"/>
        <path id="DejaVuSans-73" d="M 2834 3397 
L 2834 2853 
Q 2591 2978 2328 3040 
Q 2066 3103 1784 3103 
Q 1356 3103 1142 2972 
Q 928 2841 928 2578 
Q 928 2378 1081 2264 
Q 1234 2150 1697 2047 
L 1894 2003 
Q 2506 1872 2764 1633 
Q 3022 1394 3022 966 
Q 3022 478 2636 193 
Q 2250 -91 1575 -91 
Q 1294 -91 989 -36 
Q 684 19 347 128 
L 347 722 
Q 666 556 975 473 
Q 1284 391 1588 391 
Q 1994 391 2212 530 
Q 2431 669 2431 922 
Q 2431 1156 2273 1281 
Q 2116 1406 1581 1522 
L 1381 1569 
Q 847 1681 609 1914 
Q 372 2147 372 2553 
Q 372 3047 722 3315 
Q 1072 3584 1716 3584 
Q 2034 3584 2315 3537 
Q 2597 3491 2834 3397 
z
" transform="scale(0.015625)"/>
        <path id="DejaVuSans-65" d="M 3597 1894 
L 3597 1613 
L 953 1613 
Q 991 1019 1311 708 
Q 1631 397 2203 397 
Q 2534 397 2845 478 
Q 3156 559 3463 722 
L 3463 178 
Q 3153 47 2828 -22 
Q 2503 -91 2169 -91 
Q 1331 -91 842 396 
Q 353 884 353 1716 
Q 353 2575 817 3079 
Q 1281 3584 2069 3584 
Q 2775 3584 3186 3129 
Q 3597 2675 3597 1894 
z
M 3022 2063 
Q 3016 2534 2758 2815 
Q 2500 3097 2075 3097 
Q 1594 3097 1305 2825 
Q 1016 2553 972 2059 
L 3022 2063 
z
" transform="scale(0.015625)"/>
        <path id="DejaVuSans-54" d="M -19 4666 
L 3928 4666 
L 3928 4134 
L 2272 4134 
L 2272 0 
L 1638 0 
L 1638 4134 
L -19 4134 
L -19 4666 
z
" transform="scale(0.015625)"/>
       </defs>
       <use xlink:href="#DejaVuSans-52"/>
       <use xlink:href="#DejaVuSans-6f" x="64.982422"/>
       <use xlink:href="#DejaVuSans-73" x="126.164062"/>
       <use xlink:href="#DejaVuSans-65" x="178.263672"/>
       <use xlink:href="#DejaVuSans-54" x="239.787109"/>
       <use xlink:href="#DejaVuSans-54" x="299.121094"/>
       <use xlink:href="#DejaVuSans-41" x="352.455078"/>
       <use xlink:href="#DejaVuSans-46" x="420.863281"/>
       <use xlink:href="#DejaVuSans-6f" x="474.757812"/>
       <use xlink:href="#DejaVuSans-6c" x="535.939453"/>
       <use xlink:href="#DejaVuSans-64" x="563.722656"/>
       <use xlink:href="#DejaVuSans-32" x="627.199219"/>
      </g>
     </g>
    </g>
    <g id="xtick_4">
     <g id="line2d_4"/>
     <g id="text_4">
      <!-- AlphaFold2 Cluster -->
      <g transform="translate(685.817347 526.673972) rotate(-45) scale(0.2 -0.2)">
       <defs>
        <path id="DejaVuSans-43" d="M 4122 4306 
L 4122 3641 
Q 3803 3938 3442 4084 
Q 3081 4231 2675 4231 
Q 1875 4231 1450 3742 
Q 1025 3253 1025 2328 
Q 1025 1406 1450 917 
Q 1875 428 2675 428 
Q 3081 428 3442 575 
Q 3803 722 4122 1019 
L 4122 359 
Q 3791 134 3420 21 
Q 3050 -91 2638 -91 
Q 1578 -91 968 557 
Q 359 1206 359 2328 
Q 359 3453 968 4101 
Q 1578 4750 2638 4750 
Q 3056 4750 3426 4639 
Q 3797 4528 4122 4306 
z
" transform="scale(0.015625)"/>
        <path id="DejaVuSans-75" d="M 544 1381 
L 544 3500 
L 1119 3500 
L 1119 1403 
Q 1119 906 1312 657 
Q 1506 409 1894 409 
Q 2359 409 2629 706 
Q 2900 1003 2900 1516 
L 2900 3500 
L 3475 3500 
L 3475 0 
L 2900 0 
L 2900 538 
Q 2691 219 2414 64 
Q 2138 -91 1772 -91 
Q 1169 -91 856 284 
Q 544 659 544 1381 
z
M 1991 3584 
L 1991 3584 
z
" transform="scale(0.015625)"/>
        <path id="DejaVuSans-74" d="M 1172 4494 
L 1172 3500 
L 2356 3500 
L 2356 3053 
L 1172 3053 
L 1172 1153 
Q 1172 725 1289 603 
Q 1406 481 1766 481 
L 2356 481 
L 2356 0 
L 1766 0 
Q 1100 0 847 248 
Q 594 497 594 1153 
L 594 3053 
L 172 3053 
L 172 3500 
L 594 3500 
L 594 4494 
L 1172 4494 
z
" transform="scale(0.015625)"/>
        <path id="DejaVuSans-72" d="M 2631 2963 
Q 2534 3019 2420 3045 
Q 2306 3072 2169 3072 
Q 1681 3072 1420 2755 
Q 1159 2438 1159 1844 
L 1159 0 
L 581 0 
L 581 3500 
L 1159 3500 
L 1159 2956 
Q 1341 3275 1631 3429 
Q 1922 3584 2338 3584 
Q 2397 3584 2469 3576 
Q 2541 3569 2628 3553 
L 2631 2963 
z
" transform="scale(0.015625)"/>
       </defs>
       <use xlink:href="#DejaVuSans-41"/>
       <use xlink:href="#DejaVuSans-6c" x="68.408203"/>
       <use xlink:href="#DejaVuSans-70" x="96.191406"/>
       <use xlink:href="#DejaVuSans-68" x="159.667969"/>
       <use xlink:href="#DejaVuSans-61" x="223.046875"/>
       <use xlink:href="#DejaVuSans-46" x="284.326172"/>
       <use xlink:href="#DejaVuSans-6f" x="338.220703"/>
       <use xlink:href="#DejaVuSans-6c" x="399.402344"/>
       <use xlink:href="#DejaVuSans-64" x="427.185547"/>
       <use xlink:href="#DejaVuSans-32" x="490.662109"/>
       <use xlink:href="#DejaVuSans-20" x="554.285156"/>
       <use xlink:href="#DejaVuSans-43" x="586.072266"/>
       <use xlink:href="#DejaVuSans-6c" x="655.896484"/>
       <use xlink:href="#DejaVuSans-75" x="683.679688"/>
       <use xlink:href="#DejaVuSans-73" x="747.058594"/>
       <use xlink:href="#DejaVuSans-74" x="799.158203"/>
       <use xlink:href="#DejaVuSans-65" x="838.367188"/>
       <use xlink:href="#DejaVuSans-72" x="899.890625"/>
      </g>
     </g>
    </g>
    <g id="text_5">
     <!-- Model -->
     <g transform="translate(436.588437 548.811969) scale(0.2 -0.2)">
      <defs>
       <path id="DejaVuSans-4d" d="M 628 4666 
L 1569 4666 
L 2759 1491 
L 3956 4666 
L 4897 4666 
L 4897 0 
L 4281 0 
L 4281 4097 
L 3078 897 
L 2444 897 
L 1241 4097 
L 1241 0 
L 628 0 
L 628 4666 
z
" transform="scale(0.015625)"/>
      </defs>
      <use xlink:href="#DejaVuSans-4d"/>
      <use xlink:href="#DejaVuSans-6f" x="86.279297"/>
      <use xlink:href="#DejaVuSans-64" x="147.460938"/>
      <use xlink:href="#DejaVuSans-65" x="210.9375"/>
      <use xlink:href="#DejaVuSans-6c" x="272.460938"/>
     </g>
    </g>
   </g>
   <g id="matplotlib.axis_2">
    <g id="ytick_1">
     <g id="line2d_5">
      <defs>
       <path id="m2ec748c01e" d="M 0 0 
L -3.5 0 
" style="stroke: #000000; stroke-width: 0.8"/>
      </defs>
      <g>
       <use xlink:href="#m2ec748c01e" x="90.83" y="329.250125" style="stroke: #000000; stroke-width: 0.8"/>
      </g>
     </g>
     <g id="text_6">
      <!-- 20 -->
      <g transform="translate(58.38 336.848562) scale(0.2 -0.2)">
       <defs>
        <path id="DejaVuSans-30" d="M 2034 4250 
Q 1547 4250 1301 3770 
Q 1056 3291 1056 2328 
Q 1056 1369 1301 889 
Q 1547 409 2034 409 
Q 2525 409 2770 889 
Q 3016 1369 3016 2328 
Q 3016 3291 2770 3770 
Q 2525 4250 2034 4250 
z
M 2034 4750 
Q 2819 4750 3233 4129 
Q 3647 3509 3647 2328 
Q 3647 1150 3233 529 
Q 2819 -91 2034 -91 
Q 1250 -91 836 529 
Q 422 1150 422 2328 
Q 422 3509 836 4129 
Q 1250 4750 2034 4750 
z
" transform="scale(0.015625)"/>
       </defs>
       <use xlink:href="#DejaVuSans-32"/>
       <use xlink:href="#DejaVuSans-30" x="63.623047"/>
      </g>
     </g>
    </g>
    <g id="ytick_2">
     <g id="line2d_6">
      <g>
       <use xlink:href="#m2ec748c01e" x="90.83" y="261.237422" style="stroke: #000000; stroke-width: 0.8"/>
      </g>
     </g>
     <g id="text_7">
      <!-- 40 -->
      <g transform="translate(58.38 268.835859) scale(0.2 -0.2)">
       <defs>
        <path id="DejaVuSans-34" d="M 2419 4116 
L 825 1625 
L 2419 1625 
L 2419 4116 
z
M 2253 4666 
L 3047 4666 
L 3047 1625 
L 3713 1625 
L 3713 1100 
L 3047 1100 
L 3047 0 
L 2419 0 
L 2419 1100 
L 313 1100 
L 313 1709 
L 2253 4666 
z
" transform="scale(0.015625)"/>
       </defs>
       <use xlink:href="#DejaVuSans-34"/>
       <use xlink:href="#DejaVuSans-30" x="63.623047"/>
      </g>
     </g>
    </g>
    <g id="ytick_3">
     <g id="line2d_7">
      <g>
       <use xlink:href="#m2ec748c01e" x="90.83" y="193.224718" style="stroke: #000000; stroke-width: 0.8"/>
      </g>
     </g>
     <g id="text_8">
      <!-- 60 -->
      <g transform="translate(58.38 200.823156) scale(0.2 -0.2)">
       <defs>
        <path id="DejaVuSans-36" d="M 2113 2584 
Q 1688 2584 1439 2293 
Q 1191 2003 1191 1497 
Q 1191 994 1439 701 
Q 1688 409 2113 409 
Q 2538 409 2786 701 
Q 3034 994 3034 1497 
Q 3034 2003 2786 2293 
Q 2538 2584 2113 2584 
z
M 3366 4563 
L 3366 3988 
Q 3128 4100 2886 4159 
Q 2644 4219 2406 4219 
Q 1781 4219 1451 3797 
Q 1122 3375 1075 2522 
Q 1259 2794 1537 2939 
Q 1816 3084 2150 3084 
Q 2853 3084 3261 2657 
Q 3669 2231 3669 1497 
Q 3669 778 3244 343 
Q 2819 -91 2113 -91 
Q 1303 -91 875 529 
Q 447 1150 447 2328 
Q 447 3434 972 4092 
Q 1497 4750 2381 4750 
Q 2619 4750 2861 4703 
Q 3103 4656 3366 4563 
z
" transform="scale(0.015625)"/>
       </defs>
       <use xlink:href="#DejaVuSans-36"/>
       <use xlink:href="#DejaVuSans-30" x="63.623047"/>
      </g>
     </g>
    </g>
    <g id="ytick_4">
     <g id="line2d_8">
      <g>
       <use xlink:href="#m2ec748c01e" x="90.83" y="125.212015" style="stroke: #000000; stroke-width: 0.8"/>
      </g>
     </g>
     <g id="text_9">
      <!-- 80 -->
      <g transform="translate(58.38 132.810453) scale(0.2 -0.2)">
       <defs>
        <path id="DejaVuSans-38" d="M 2034 2216 
Q 1584 2216 1326 1975 
Q 1069 1734 1069 1313 
Q 1069 891 1326 650 
Q 1584 409 2034 409 
Q 2484 409 2743 651 
Q 3003 894 3003 1313 
Q 3003 1734 2745 1975 
Q 2488 2216 2034 2216 
z
M 1403 2484 
Q 997 2584 770 2862 
Q 544 3141 544 3541 
Q 544 4100 942 4425 
Q 1341 4750 2034 4750 
Q 2731 4750 3128 4425 
Q 3525 4100 3525 3541 
Q 3525 3141 3298 2862 
Q 3072 2584 2669 2484 
Q 3125 2378 3379 2068 
Q 3634 1759 3634 1313 
Q 3634 634 3220 271 
Q 2806 -91 2034 -91 
Q 1263 -91 848 271 
Q 434 634 434 1313 
Q 434 1759 690 2068 
Q 947 2378 1403 2484 
z
M 1172 3481 
Q 1172 3119 1398 2916 
Q 1625 2713 2034 2713 
Q 2441 2713 2670 2916 
Q 2900 3119 2900 3481 
Q 2900 3844 2670 4047 
Q 2441 4250 2034 4250 
Q 1625 4250 1398 4047 
Q 1172 3844 1172 3481 
z
" transform="scale(0.015625)"/>
       </defs>
       <use xlink:href="#DejaVuSans-38"/>
       <use xlink:href="#DejaVuSans-30" x="63.623047"/>
      </g>
     </g>
    </g>
    <g id="ytick_5">
     <g id="line2d_9">
      <g>
       <use xlink:href="#m2ec748c01e" x="90.83" y="57.199312" style="stroke: #000000; stroke-width: 0.8"/>
      </g>
     </g>
     <g id="text_10">
      <!-- 100 -->
      <g transform="translate(45.655 64.79775) scale(0.2 -0.2)">
       <defs>
        <path id="DejaVuSans-31" d="M 794 531 
L 1825 531 
L 1825 4091 
L 703 3866 
L 703 4441 
L 1819 4666 
L 2450 4666 
L 2450 531 
L 3481 531 
L 3481 0 
L 794 0 
L 794 531 
z
" transform="scale(0.015625)"/>
       </defs>
       <use xlink:href="#DejaVuSans-31"/>
       <use xlink:href="#DejaVuSans-30" x="63.623047"/>
       <use xlink:href="#DejaVuSans-30" x="127.246094"/>
      </g>
     </g>
    </g>
    <g id="text_11">
     <!-- pLDDT -->
     <g transform="translate(37.495625 246.263456) rotate(-90) scale(0.2 -0.2)">
      <defs>
       <path id="DejaVuSans-4c" d="M 628 4666 
L 1259 4666 
L 1259 531 
L 3531 531 
L 3531 0 
L 628 0 
L 628 4666 
z
" transform="scale(0.015625)"/>
       <path id="DejaVuSans-44" d="M 1259 4147 
L 1259 519 
L 2022 519 
Q 2988 519 3436 956 
Q 3884 1394 3884 2338 
Q 3884 3275 3436 3711 
Q 2988 4147 2022 4147 
L 1259 4147 
z
M 628 4666 
L 1925 4666 
Q 3281 4666 3915 4102 
Q 4550 3538 4550 2338 
Q 4550 1131 3912 565 
Q 3275 0 1925 0 
L 628 0 
L 628 4666 
z
" transform="scale(0.015625)"/>
      </defs>
      <use xlink:href="#DejaVuSans-70"/>
      <use xlink:href="#DejaVuSans-4c" x="63.476562"/>
      <use xlink:href="#DejaVuSans-44" x="119.189453"/>
      <use xlink:href="#DejaVuSans-44" x="196.191406"/>
      <use xlink:href="#DejaVuSans-54" x="273.193359"/>
     </g>
    </g>
   </g>
   <g id="line2d_10">
    <path d="M 144.593954 159.59372 
L 184.77625 159.59372 
" clip-path="url(#p2baa23415b)" style="fill: none; stroke-dasharray: 3.75,2.25; stroke-dashoffset: 0; stroke: #1e1e1e; stroke-width: 3"/>
   </g>
   <g id="line2d_11">
    <path d="M 127.265676 107.752746 
L 184.77625 107.752746 
" clip-path="url(#p2baa23415b)" style="fill: none; stroke-dasharray: 7.5,3; stroke-dashoffset: 0; stroke: #1e1e1e; stroke-width: 3"/>
   </g>
   <g id="line2d_12">
    <path d="M 110.357256 79.517999 
L 184.77625 79.517999 
" clip-path="url(#p2baa23415b)" style="fill: none; stroke-dasharray: 3.75,2.25; stroke-dashoffset: 0; stroke: #1e1e1e; stroke-width: 3"/>
   </g>
   <g id="line2d_13">
    <path d="M 184.77625 100.201072 
L 215.030052 100.201072 
" clip-path="url(#p2baa23415b)" style="fill: none; stroke-dasharray: 3.75,2.25; stroke-dashoffset: 0; stroke: #1e1e1e; stroke-width: 3"/>
   </g>
   <g id="line2d_14">
    <path d="M 184.77625 78.777274 
L 252.946534 78.777274 
" clip-path="url(#p2baa23415b)" style="fill: none; stroke-dasharray: 7.5,3; stroke-dashoffset: 0; stroke: #1e1e1e; stroke-width: 3"/>
   </g>
   <g id="line2d_15">
    <path d="M 184.77625 68.392233 
L 256.965825 68.392233 
" clip-path="url(#p2baa23415b)" style="fill: none; stroke-dasharray: 3.75,2.25; stroke-dashoffset: 0; stroke: #1e1e1e; stroke-width: 3"/>
   </g>
   <g id="line2d_16">
    <path d="M 331.890003 160.720006 
L 372.66875 160.720006 
" clip-path="url(#p2baa23415b)" style="fill: none; stroke-dasharray: 3.75,2.25; stroke-dashoffset: 0; stroke: #1e1e1e; stroke-width: 3"/>
   </g>
   <g id="line2d_17">
    <path d="M 315.323598 116.070192 
L 372.66875 116.070192 
" clip-path="url(#p2baa23415b)" style="fill: none; stroke-dasharray: 7.5,3; stroke-dashoffset: 0; stroke: #1e1e1e; stroke-width: 3"/>
   </g>
   <g id="line2d_18">
    <path d="M 301.223626 83.846628 
L 372.66875 83.846628 
" clip-path="url(#p2baa23415b)" style="fill: none; stroke-dasharray: 3.75,2.25; stroke-dashoffset: 0; stroke: #1e1e1e; stroke-width: 3"/>
   </g>
   <g id="line2d_19">
    <path d="M 372.66875 125.997639 
L 392.145974 125.997639 
" clip-path="url(#p2baa23415b)" style="fill: none; stroke-dasharray: 3.75,2.25; stroke-dashoffset: 0; stroke: #1e1e1e; stroke-width: 3"/>
   </g>
   <g id="line2d_20">
    <path d="M 372.66875 92.492714 
L 418.295761 92.492714 
" clip-path="url(#p2baa23415b)" style="fill: none; stroke-dasharray: 7.5,3; stroke-dashoffset: 0; stroke: #1e1e1e; stroke-width: 3"/>
   </g>
   <g id="line2d_21">
    <path d="M 372.66875 76.013127 
L 419.630744 76.013127 
" clip-path="url(#p2baa23415b)" style="fill: none; stroke-dasharray: 3.75,2.25; stroke-dashoffset: 0; stroke: #1e1e1e; stroke-width: 3"/>
   </g>
   <g id="line2d_22">
    <path d="M 504.917372 336.387378 
L 560.56125 336.387378 
" clip-path="url(#p2baa23415b)" style="fill: none; stroke-dasharray: 3.75,2.25; stroke-dashoffset: 0; stroke: #1e1e1e; stroke-width: 3"/>
   </g>
   <g id="line2d_23">
    <path d="M 521.090668 295.225997 
L 560.56125 295.225997 
" clip-path="url(#p2baa23415b)" style="fill: none; stroke-dasharray: 7.5,3; stroke-dashoffset: 0; stroke: #1e1e1e; stroke-width: 3"/>
   </g>
   <g id="line2d_24">
    <path d="M 535.990404 218.262593 
L 560.56125 218.262593 
" clip-path="url(#p2baa23415b)" style="fill: none; stroke-dasharray: 3.75,2.25; stroke-dashoffset: 0; stroke: #1e1e1e; stroke-width: 3"/>
   </g>
   <g id="line2d_25">
    <path d="M 560.56125 176.077274 
L 578.305806 176.077274 
" clip-path="url(#p2baa23415b)" style="fill: none; stroke-dasharray: 3.75,2.25; stroke-dashoffset: 0; stroke: #1e1e1e; stroke-width: 3"/>
   </g>
   <g id="line2d_26">
    <path d="M 560.56125 141.801165 
L 587.859699 141.801165 
" clip-path="url(#p2baa23415b)" style="fill: none; stroke-dasharray: 7.5,3; stroke-dashoffset: 0; stroke: #1e1e1e; stroke-width: 3"/>
   </g>
   <g id="line2d_27">
    <path d="M 560.56125 113.189877 
L 586.346394 113.189877 
" clip-path="url(#p2baa23415b)" style="fill: none; stroke-dasharray: 3.75,2.25; stroke-dashoffset: 0; stroke: #1e1e1e; stroke-width: 3"/>
   </g>
   <g id="line2d_28">
    <path d="M 716.31876 202.593992 
L 748.45375 202.593992 
" clip-path="url(#p2baa23415b)" style="fill: none; stroke-dasharray: 3.75,2.25; stroke-dashoffset: 0; stroke: #1e1e1e; stroke-width: 3"/>
   </g>
   <g id="line2d_29">
    <path d="M 707.767578 150.702776 
L 748.45375 150.702776 
" clip-path="url(#p2baa23415b)" style="fill: none; stroke-dasharray: 7.5,3; stroke-dashoffset: 0; stroke: #1e1e1e; stroke-width: 3"/>
   </g>
   <g id="line2d_30">
    <path d="M 702.739509 91.65759 
L 748.45375 91.65759 
" clip-path="url(#p2baa23415b)" style="fill: none; stroke-dasharray: 3.75,2.25; stroke-dashoffset: 0; stroke: #1e1e1e; stroke-width: 3"/>
   </g>
   <g id="patch_5">
    <path d="M 90.83 379.350663 
L 90.83 46.32 
" style="fill: none; stroke: #000000; stroke-width: 3; stroke-linejoin: miter; stroke-linecap: square"/>
   </g>
   <g id="text_12">
    <!-- pLDDT of best model (N=174) -->
    <g transform="translate(285.053125 40.32) scale(0.24 -0.24)">
     <defs>
      <path id="DejaVuSans-66" d="M 2375 4863 
L 2375 4384 
L 1825 4384 
Q 1516 4384 1395 4259 
Q 1275 4134 1275 3809 
L 1275 3500 
L 2222 3500 
L 2222 3053 
L 1275 3053 
L 1275 0 
L 697 0 
L 697 3053 
L 147 3053 
L 147 3500 
L 697 3500 
L 697 3744 
Q 697 4328 969 4595 
Q 1241 4863 1831 4863 
L 2375 4863 
z
" transform="scale(0.015625)"/>
      <path id="DejaVuSans-62" d="M 3116 1747 
Q 3116 2381 2855 2742 
Q 2594 3103 2138 3103 
Q 1681 3103 1420 2742 
Q 1159 2381 1159 1747 
Q 1159 1113 1420 752 
Q 1681 391 2138 391 
Q 2594 391 2855 752 
Q 3116 1113 3116 1747 
z
M 1159 2969 
Q 1341 3281 1617 3432 
Q 1894 3584 2278 3584 
Q 2916 3584 3314 3078 
Q 3713 2572 3713 1747 
Q 3713 922 3314 415 
Q 2916 -91 2278 -91 
Q 1894 -91 1617 61 
Q 1341 213 1159 525 
L 1159 0 
L 581 0 
L 581 4863 
L 1159 4863 
L 1159 2969 
z
" transform="scale(0.015625)"/>
      <path id="DejaVuSans-6d" d="M 3328 2828 
Q 3544 3216 3844 3400 
Q 4144 3584 4550 3584 
Q 5097 3584 5394 3201 
Q 5691 2819 5691 2113 
L 5691 0 
L 5113 0 
L 5113 2094 
Q 5113 2597 4934 2840 
Q 4756 3084 4391 3084 
Q 3944 3084 3684 2787 
Q 3425 2491 3425 1978 
L 3425 0 
L 2847 0 
L 2847 2094 
Q 2847 2600 2669 2842 
Q 2491 3084 2119 3084 
Q 1678 3084 1418 2786 
Q 1159 2488 1159 1978 
L 1159 0 
L 581 0 
L 581 3500 
L 1159 3500 
L 1159 2956 
Q 1356 3278 1631 3431 
Q 1906 3584 2284 3584 
Q 2666 3584 2933 3390 
Q 3200 3197 3328 2828 
z
" transform="scale(0.015625)"/>
      <path id="DejaVuSans-28" d="M 1984 4856 
Q 1566 4138 1362 3434 
Q 1159 2731 1159 2009 
Q 1159 1288 1364 580 
Q 1569 -128 1984 -844 
L 1484 -844 
Q 1016 -109 783 600 
Q 550 1309 550 2009 
Q 550 2706 781 3412 
Q 1013 4119 1484 4856 
L 1984 4856 
z
" transform="scale(0.015625)"/>
      <path id="DejaVuSans-4e" d="M 628 4666 
L 1478 4666 
L 3547 763 
L 3547 4666 
L 4159 4666 
L 4159 0 
L 3309 0 
L 1241 3903 
L 1241 0 
L 628 0 
L 628 4666 
z
" transform="scale(0.015625)"/>
      <path id="DejaVuSans-3d" d="M 678 2906 
L 4684 2906 
L 4684 2381 
L 678 2381 
L 678 2906 
z
M 678 1631 
L 4684 1631 
L 4684 1100 
L 678 1100 
L 678 1631 
z
" transform="scale(0.015625)"/>
      <path id="DejaVuSans-37" d="M 525 4666 
L 3525 4666 
L 3525 4397 
L 1831 0 
L 1172 0 
L 2766 4134 
L 525 4134 
L 525 4666 
z
" transform="scale(0.015625)"/>
      <path id="DejaVuSans-29" d="M 513 4856 
L 1013 4856 
Q 1481 4119 1714 3412 
Q 1947 2706 1947 2009 
Q 1947 1309 1714 600 
Q 1481 -109 1013 -844 
L 513 -844 
Q 928 -128 1133 580 
Q 1338 1288 1338 2009 
Q 1338 2731 1133 3434 
Q 928 4138 513 4856 
z
" transform="scale(0.015625)"/>
     </defs>
     <use xlink:href="#DejaVuSans-70"/>
     <use xlink:href="#DejaVuSans-4c" x="63.476562"/>
     <use xlink:href="#DejaVuSans-44" x="119.189453"/>
     <use xlink:href="#DejaVuSans-44" x="196.191406"/>
     <use xlink:href="#DejaVuSans-54" x="273.193359"/>
     <use xlink:href="#DejaVuSans-20" x="334.277344"/>
     <use xlink:href="#DejaVuSans-6f" x="366.064453"/>
     <use xlink:href="#DejaVuSans-66" x="427.246094"/>
     <use xlink:href="#DejaVuSans-20" x="462.451172"/>
     <use xlink:href="#DejaVuSans-62" x="494.238281"/>
     <use xlink:href="#DejaVuSans-65" x="557.714844"/>
     <use xlink:href="#DejaVuSans-73" x="619.238281"/>
     <use xlink:href="#DejaVuSans-74" x="671.337891"/>
     <use xlink:href="#DejaVuSans-20" x="710.546875"/>
     <use xlink:href="#DejaVuSans-6d" x="742.333984"/>
     <use xlink:href="#DejaVuSans-6f" x="839.746094"/>
     <use xlink:href="#DejaVuSans-64" x="900.927734"/>
     <use xlink:href="#DejaVuSans-65" x="964.404297"/>
     <use xlink:href="#DejaVuSans-6c" x="1025.927734"/>
     <use xlink:href="#DejaVuSans-20" x="1053.710938"/>
     <use xlink:href="#DejaVuSans-28" x="1085.498047"/>
     <use xlink:href="#DejaVuSans-4e" x="1124.511719"/>
     <use xlink:href="#DejaVuSans-3d" x="1199.316406"/>
     <use xlink:href="#DejaVuSans-31" x="1283.105469"/>
     <use xlink:href="#DejaVuSans-37" x="1346.728516"/>
     <use xlink:href="#DejaVuSans-34" x="1410.351562"/>
     <use xlink:href="#DejaVuSans-29" x="1473.974609"/>
    </g>
   </g>
   <g id="legend_1">
    <g id="patch_6">
     <path d="M 104.83 369.350663 
L 263.255 369.350663 
Q 267.255 369.350663 267.255 365.350663 
L 267.255 279.281913 
Q 267.255 275.281913 263.255 275.281913 
L 104.83 275.281913 
Q 100.83 275.281913 100.83 279.281913 
L 100.83 365.350663 
Q 100.83 369.350663 104.83 369.350663 
z
" style="fill: #ffffff; opacity: 0.8; stroke: #cccccc; stroke-linejoin: miter"/>
    </g>
    <g id="text_13">
     <!-- MSA -->
     <g transform="translate(162.037813 298.478788) scale(0.2 -0.2)">
      <defs>
       <path id="DejaVuSans-53" d="M 3425 4513 
L 3425 3897 
Q 3066 4069 2747 4153 
Q 2428 4238 2131 4238 
Q 1616 4238 1336 4038 
Q 1056 3838 1056 3469 
Q 1056 3159 1242 3001 
Q 1428 2844 1947 2747 
L 2328 2669 
Q 3034 2534 3370 2195 
Q 3706 1856 3706 1288 
Q 3706 609 3251 259 
Q 2797 -91 1919 -91 
Q 1588 -91 1214 -16 
Q 841 59 441 206 
L 441 856 
Q 825 641 1194 531 
Q 1563 422 1919 422 
Q 2459 422 2753 634 
Q 3047 847 3047 1241 
Q 3047 1584 2836 1778 
Q 2625 1972 2144 2069 
L 1759 2144 
Q 1053 2284 737 2584 
Q 422 2884 422 3419 
Q 422 4038 858 4394 
Q 1294 4750 2059 4750 
Q 2388 4750 2728 4690 
Q 3069 4631 3425 4513 
z
" transform="scale(0.015625)"/>
      </defs>
      <use xlink:href="#DejaVuSans-4d"/>
      <use xlink:href="#DejaVuSans-53" x="86.279297"/>
      <use xlink:href="#DejaVuSans-41" x="151.630859"/>
     </g>
    </g>
    <g id="patch_7">
     <path d="M 108.83 327.835038 
L 148.83 327.835038 
L 148.83 313.835038 
L 108.83 313.835038 
z
" style="fill: #006400"/>
    </g>
    <g id="text_14">
     <!-- MMseqs2 -->
     <g transform="translate(164.83 327.835038) scale(0.2 -0.2)">
      <defs>
       <path id="DejaVuSans-71" d="M 947 1747 
Q 947 1113 1208 752 
Q 1469 391 1925 391 
Q 2381 391 2643 752 
Q 2906 1113 2906 1747 
Q 2906 2381 2643 2742 
Q 2381 3103 1925 3103 
Q 1469 3103 1208 2742 
Q 947 2381 947 1747 
z
M 2906 525 
Q 2725 213 2448 61 
Q 2172 -91 1784 -91 
Q 1150 -91 751 415 
Q 353 922 353 1747 
Q 353 2572 751 3078 
Q 1150 3584 1784 3584 
Q 2172 3584 2448 3432 
Q 2725 3281 2906 2969 
L 2906 3500 
L 3481 3500 
L 3481 -1331 
L 2906 -1331 
L 2906 525 
z
" transform="scale(0.015625)"/>
      </defs>
      <use xlink:href="#DejaVuSans-4d"/>
      <use xlink:href="#DejaVuSans-4d" x="86.279297"/>
      <use xlink:href="#DejaVuSans-73" x="172.558594"/>
      <use xlink:href="#DejaVuSans-65" x="224.658203"/>
      <use xlink:href="#DejaVuSans-71" x="286.181641"/>
      <use xlink:href="#DejaVuSans-73" x="349.658203"/>
      <use xlink:href="#DejaVuSans-32" x="401.757812"/>
     </g>
    </g>
    <g id="patch_8">
     <path d="M 108.83 357.191288 
L 148.83 357.191288 
L 148.83 343.191288 
L 108.83 343.191288 
z
" style="fill: #90ee90"/>
    </g>
    <g id="text_15">
     <!-- Synthetic -->
     <g transform="translate(164.83 357.191288) scale(0.2 -0.2)">
      <defs>
       <path id="DejaVuSans-79" d="M 2059 -325 
Q 1816 -950 1584 -1140 
Q 1353 -1331 966 -1331 
L 506 -1331 
L 506 -850 
L 844 -850 
Q 1081 -850 1212 -737 
Q 1344 -625 1503 -206 
L 1606 56 
L 191 3500 
L 800 3500 
L 1894 763 
L 2988 3500 
L 3597 3500 
L 2059 -325 
z
" transform="scale(0.015625)"/>
       <path id="DejaVuSans-6e" d="M 3513 2113 
L 3513 0 
L 2938 0 
L 2938 2094 
Q 2938 2591 2744 2837 
Q 2550 3084 2163 3084 
Q 1697 3084 1428 2787 
Q 1159 2491 1159 1978 
L 1159 0 
L 581 0 
L 581 3500 
L 1159 3500 
L 1159 2956 
Q 1366 3272 1645 3428 
Q 1925 3584 2291 3584 
Q 2894 3584 3203 3211 
Q 3513 2838 3513 2113 
z
" transform="scale(0.015625)"/>
       <path id="DejaVuSans-69" d="M 603 3500 
L 1178 3500 
L 1178 0 
L 603 0 
L 603 3500 
z
M 603 4863 
L 1178 4863 
L 1178 4134 
L 603 4134 
L 603 4863 
z
" transform="scale(0.015625)"/>
       <path id="DejaVuSans-63" d="M 3122 3366 
L 3122 2828 
Q 2878 2963 2633 3030 
Q 2388 3097 2138 3097 
Q 1578 3097 1268 2742 
Q 959 2388 959 1747 
Q 959 1106 1268 751 
Q 1578 397 2138 397 
Q 2388 397 2633 464 
Q 2878 531 3122 666 
L 3122 134 
Q 2881 22 2623 -34 
Q 2366 -91 2075 -91 
Q 1284 -91 818 406 
Q 353 903 353 1747 
Q 353 2603 823 3093 
Q 1294 3584 2113 3584 
Q 2378 3584 2631 3529 
Q 2884 3475 3122 3366 
z
" transform="scale(0.015625)"/>
      </defs>
      <use xlink:href="#DejaVuSans-53"/>
      <use xlink:href="#DejaVuSans-79" x="63.476562"/>
      <use xlink:href="#DejaVuSans-6e" x="122.65625"/>
      <use xlink:href="#DejaVuSans-74" x="186.035156"/>
      <use xlink:href="#DejaVuSans-68" x="225.244141"/>
      <use xlink:href="#DejaVuSans-65" x="288.623047"/>
      <use xlink:href="#DejaVuSans-74" x="350.146484"/>
      <use xlink:href="#DejaVuSans-69" x="389.355469"/>
      <use xlink:href="#DejaVuSans-63" x="417.138672"/>
     </g>
    </g>
   </g>
  </g>
 </g>
 <defs>
  <clipPath id="p2baa23415b">
   <rect x="90.83" y="46.32" width="751.57" height="333.030663"/>
  </clipPath>
 </defs>
</svg>
