<?xml version="1.0" encoding="utf-8" standalone="no"?>
<!DOCTYPE svg PUBLIC "-//W3C//DTD SVG 1.1//EN"
  "http://www.w3.org/Graphics/SVG/1.1/DTD/svg11.dtd">
<svg xmlns:xlink="http://www.w3.org/1999/xlink" width="576pt" height="576pt" viewBox="0 0 576 576" xmlns="http://www.w3.org/2000/svg" version="1.1">
 <metadata>
  <rdf:RDF xmlns:dc="http://purl.org/dc/elements/1.1/" xmlns:cc="http://creativecommons.org/ns#" xmlns:rdf="http://www.w3.org/1999/02/22-rdf-syntax-ns#">
   <cc:Work>
    <dc:type rdf:resource="http://purl.org/dc/dcmitype/StillImage"/>
    <dc:date>2025-10-29T10:18:01.146661</dc:date>
    <dc:format>image/svg+xml</dc:format>
    <dc:creator>
     <cc:Agent>
      <dc:title>Matplotlib v3.9.2, https://matplotlib.org/</dc:title>
     </cc:Agent>
    </dc:creator>
   </cc:Work>
  </rdf:RDF>
 </metadata>
 <defs>
  <style type="text/css">*{stroke-linejoin: round; stroke-linecap: butt}</style>
 </defs>
 <g id="figure_1">
  <g id="patch_1">
   <path d="M 0 576 
L 576 576 
L 576 0 
L 0 0 
L 0 576 
z
" style="fill: none"/>
  </g>
  <g id="axes_1">
   <g id="patch_2">
    <path d="M 84.53 503.08 
L 554.4 503.08 
L 554.4 21.6 
L 84.53 21.6 
L 84.53 503.08 
z
" style="fill: none"/>
   </g>
   <g id="PathCollection_1">
    <path d="M 389.518345 352.425707 
C 390.889483 352.425707 392.204648 351.880948 393.174189 350.911407 
C 394.14373 349.941866 394.688489 348.626702 394.688489 347.255564 
C 394.688489 345.884426 394.14373 344.569261 393.174189 343.59972 
C 392.204648 342.630179 390.889483 342.08542 389.518345 342.08542 
C 388.147207 342.08542 386.832043 342.630179 385.862502 343.59972 
C 384.892961 344.569261 384.348202 345.884426 384.348202 347.255564 
C 384.348202 348.626702 384.892961 349.941866 385.862502 350.911407 
C 386.832043 351.880948 388.147207 352.425707 389.518345 352.425707 
z
" clip-path="url(#p3368524233)" style="fill: #f9a11c; stroke: #f9a11c"/>
    <path d="M 166.970827 411.92857 
C 167.870856 411.92857 168.734143 411.570985 169.370559 410.934569 
C 170.006976 410.298152 170.364561 409.434865 170.364561 408.534836 
C 170.364561 407.634808 170.006976 406.771521 169.370559 406.135104 
C 168.734143 405.498688 167.870856 405.141103 166.970827 405.141103 
C 166.070799 405.141103 165.207512 405.498688 164.571095 406.135104 
C 163.934679 406.771521 163.577094 407.634808 163.577094 408.534836 
C 163.577094 409.434865 163.934679 410.298152 164.571095 410.934569 
C 165.207512 411.570985 166.070799 411.92857 166.970827 411.92857 
z
" clip-path="url(#p3368524233)" style="fill: #f9a11c; stroke: #f9a11c"/>
    <path d="M 174.659609 415.770113 
C 175.533691 415.770113 176.37209 415.422837 176.990159 414.804768 
C 177.608227 414.186699 177.955504 413.3483 177.955504 412.474218 
C 177.955504 411.600137 177.608227 410.761738 176.990159 410.143669 
C 176.37209 409.5256 175.533691 409.178324 174.659609 409.178324 
C 173.785528 409.178324 172.947129 409.5256 172.32906 410.143669 
C 171.710991 410.761738 171.363714 411.600137 171.363714 412.474218 
C 171.363714 413.3483 171.710991 414.186699 172.32906 414.804768 
C 172.947129 415.422837 173.785528 415.770113 174.659609 415.770113 
z
" clip-path="url(#p3368524233)" style="fill: #f9a11c; stroke: #f9a11c"/>
    <path d="M 202.851809 376.657438 
C 203.800451 376.657438 204.710366 376.280538 205.381157 375.609748 
C 206.051947 374.938957 206.428847 374.029041 206.428847 373.0804 
C 206.428847 372.131759 206.051947 371.221843 205.381157 370.551052 
C 204.710366 369.880262 203.800451 369.503362 202.851809 369.503362 
C 201.903168 369.503362 200.993252 369.880262 200.322462 370.551052 
C 199.651671 371.221843 199.274771 372.131759 199.274771 373.0804 
C 199.274771 374.029041 199.651671 374.938957 200.322462 375.609748 
C 200.993252 376.280538 201.903168 376.657438 202.851809 376.657438 
z
" clip-path="url(#p3368524233)" style="fill: #f9a11c; stroke: #f9a11c"/>
    <path d="M 266.924991 279.631487 
C 268.724783 279.631487 270.451103 278.916422 271.723749 277.643776 
C 272.996394 276.371131 273.711459 274.644811 273.711459 272.845018 
C 273.711459 271.045226 272.996394 269.318906 271.723749 268.04626 
C 270.451103 266.773615 268.724783 266.05855 266.924991 266.05855 
C 265.125198 266.05855 263.398878 266.773615 262.126233 268.04626 
C 260.853588 269.318906 260.138522 271.045226 260.138522 272.845018 
C 260.138522 274.644811 260.853588 276.371131 262.126233 277.643776 
C 263.398878 278.916422 265.125198 279.631487 266.924991 279.631487 
z
" clip-path="url(#p3368524233)" style="fill: #f9a11c; stroke: #f9a11c"/>
    <path d="M 214.384982 374.711509 
C 215.514048 374.711509 216.597022 374.262926 217.395392 373.464556 
C 218.193763 372.666186 218.642345 371.583211 218.642345 370.454145 
C 218.642345 369.325079 218.193763 368.242105 217.395392 367.443735 
C 216.597022 366.645365 215.514048 366.196782 214.384982 366.196782 
C 213.255916 366.196782 212.172941 366.645365 211.374571 367.443735 
C 210.576201 368.242105 210.127618 369.325079 210.127618 370.454145 
C 210.127618 371.583211 210.576201 372.666186 211.374571 373.464556 
C 212.172941 374.262926 213.255916 374.711509 214.384982 374.711509 
z
" clip-path="url(#p3368524233)" style="fill: #f9a11c; stroke: #f9a11c"/>
    <path d="M 210.967745 342.065904 
C 212.377395 342.065904 213.729499 341.505844 214.726271 340.509071 
C 215.723044 339.512299 216.283104 338.160195 216.283104 336.750545 
C 216.283104 335.340896 215.723044 333.988792 214.726271 332.99202 
C 213.729499 331.995247 212.377395 331.435187 210.967745 331.435187 
C 209.558096 331.435187 208.205992 331.995247 207.20922 332.99202 
C 206.212447 333.988792 205.652387 335.340896 205.652387 336.750545 
C 205.652387 338.160195 206.212447 339.512299 207.20922 340.509071 
C 208.205992 341.505844 209.558096 342.065904 210.967745 342.065904 
z
" clip-path="url(#p3368524233)" style="fill: #f9a11c; stroke: #f9a11c"/>
    <path d="M 216.947909 108.397472 
C 219.884715 108.397472 222.701632 107.230666 224.778267 105.154031 
C 226.854903 103.077396 228.021708 100.260479 228.021708 97.323673 
C 228.021708 94.386867 226.854903 91.56995 224.778267 89.493314 
C 222.701632 87.416679 219.884715 86.249874 216.947909 86.249874 
C 214.011103 86.249874 211.194186 87.416679 209.117551 89.493314 
C 207.040915 91.56995 205.87411 94.386867 205.87411 97.323673 
C 205.87411 100.260479 207.040915 103.077396 209.117551 105.154031 
C 211.194186 107.230666 214.011103 108.397472 216.947909 108.397472 
z
" clip-path="url(#p3368524233)" style="fill: #f9a11c; stroke: #f9a11c"/>
    <path d="M 202.424655 368.794447 
C 203.609643 368.794447 204.746257 368.323647 205.58417 367.485733 
C 206.422083 366.64782 206.892884 365.511206 206.892884 364.326218 
C 206.892884 363.14123 206.422083 362.004616 205.58417 361.166703 
C 204.746257 360.32879 203.609643 359.857989 202.424655 359.857989 
C 201.239666 359.857989 200.103053 360.32879 199.265139 361.166703 
C 198.427226 362.004616 197.956425 363.14123 197.956425 364.326218 
C 197.956425 365.511206 198.427226 366.64782 199.265139 367.485733 
C 200.103053 368.323647 201.239666 368.794447 202.424655 368.794447 
z
" clip-path="url(#p3368524233)" style="fill: #f9a11c; stroke: #f9a11c"/>
    <path d="M 377.558018 366.848103 
C 379.039402 366.848103 380.460312 366.259543 381.507809 365.212046 
C 382.555306 364.164549 383.143866 362.743639 383.143866 361.262255 
C 383.143866 359.78087 382.555306 358.35996 381.507809 357.312463 
C 380.460312 356.264967 379.039402 355.676406 377.558018 355.676406 
C 376.076634 355.676406 374.655724 356.264967 373.608227 357.312463 
C 372.56073 358.35996 371.97217 359.78087 371.97217 361.262255 
C 371.97217 362.743639 372.56073 364.164549 373.608227 365.212046 
C 374.655724 366.259543 376.076634 366.848103 377.558018 366.848103 
z
" clip-path="url(#p3368524233)" style="fill: #f9a11c; stroke: #f9a11c"/>
    <path d="M 214.384982 157.976784 
C 216.540558 157.976784 218.608137 157.120364 220.13236 155.596142 
C 221.656582 154.071919 222.513002 152.00434 222.513002 149.848764 
C 222.513002 147.693188 221.656582 145.625608 220.13236 144.101386 
C 218.608137 142.577163 216.540558 141.720744 214.384982 141.720744 
C 212.229406 141.720744 210.161826 142.577163 208.637604 144.101386 
C 207.113381 145.625608 206.256962 147.693188 206.256962 149.848764 
C 206.256962 152.00434 207.113381 154.071919 208.637604 155.596142 
C 210.161826 157.120364 212.229406 157.976784 214.384982 157.976784 
z
" clip-path="url(#p3368524233)" style="fill: #f9a11c; stroke: #f9a11c"/>
    <path d="M 254.110355 378.663284 
C 255.358789 378.663284 256.556259 378.167276 257.439036 377.284499 
C 258.321812 376.401723 258.817821 375.204253 258.817821 373.955818 
C 258.817821 372.707384 258.321812 371.509914 257.439036 370.627137 
C 256.556259 369.74436 255.358789 369.248352 254.110355 369.248352 
C 252.86192 369.248352 251.66445 369.74436 250.781673 370.627137 
C 249.898897 371.509914 249.402888 372.707384 249.402888 373.955818 
C 249.402888 375.204253 249.898897 376.401723 250.781673 377.284499 
C 251.66445 378.167276 252.86192 378.663284 254.110355 378.663284 
z
" clip-path="url(#p3368524233)" style="fill: #f9a11c; stroke: #f9a11c"/>
    <path d="M 437.359655 385.908356 
C 439.020441 385.908356 440.61343 385.248519 441.787783 384.074165 
C 442.962137 382.899812 443.621974 381.306823 443.621974 379.646036 
C 443.621974 377.98525 442.962137 376.392261 441.787783 375.217908 
C 440.61343 374.043554 439.020441 373.383717 437.359655 373.383717 
C 435.698868 373.383717 434.105879 374.043554 432.931526 375.217908 
C 431.757172 376.392261 431.097335 377.98525 431.097335 379.646036 
C 431.097335 381.306823 431.757172 382.899812 432.931526 384.074165 
C 434.105879 385.248519 435.698868 385.908356 437.359655 385.908356 
z
" clip-path="url(#p3368524233)" style="fill: #f9a11c; stroke: #f9a11c"/>
    <path d="M 249.838809 381.159807 
C 251.16892 381.159807 252.444733 380.631349 253.385263 379.690818 
C 254.325794 378.750287 254.854253 377.474475 254.854253 376.144364 
C 254.854253 374.814252 254.325794 373.53844 253.385263 372.597909 
C 252.444733 371.657379 251.16892 371.12892 249.838809 371.12892 
C 248.508698 371.12892 247.232885 371.657379 246.292355 372.597909 
C 245.351824 373.53844 244.823365 374.814252 244.823365 376.144364 
C 244.823365 377.474475 245.351824 378.750287 246.292355 379.690818 
C 247.232885 380.631349 248.508698 381.159807 249.838809 381.159807 
z
" clip-path="url(#p3368524233)" style="fill: #f9a11c; stroke: #f9a11c"/>
    <path d="M 177.649691 373.089961 
C 179.16129 373.089961 180.611181 372.489396 181.680043 371.420534 
C 182.748905 370.351672 183.34947 368.901781 183.34947 367.390182 
C 183.34947 365.878583 182.748905 364.428692 181.680043 363.35983 
C 180.611181 362.290968 179.16129 361.690403 177.649691 361.690403 
C 176.138092 361.690403 174.688201 362.290968 173.619339 363.35983 
C 172.550477 364.428692 171.949912 365.878583 171.949912 367.390182 
C 171.949912 368.901781 172.550477 370.351672 173.619339 371.420534 
C 174.688201 372.489396 176.138092 373.089961 177.649691 373.089961 
z
" clip-path="url(#p3368524233)" style="fill: #f9a11c; stroke: #f9a11c"/>
    <path d="M 291.699955 407.924429 
C 293.2793 407.924429 294.794171 407.296948 295.910937 406.180183 
C 297.027703 405.063417 297.655183 403.548545 297.655183 401.9692 
C 297.655183 400.389855 297.027703 398.874983 295.910937 397.758217 
C 294.794171 396.641452 293.2793 396.013971 291.699955 396.013971 
C 290.120609 396.013971 288.605738 396.641452 287.488972 397.758217 
C 286.372206 398.874983 285.744726 400.389855 285.744726 401.9692 
C 285.744726 403.548545 286.372206 405.063417 287.488972 406.180183 
C 288.605738 407.296948 290.120609 407.924429 291.699955 407.924429 
z
" clip-path="url(#p3368524233)" style="fill: #f9a11c; stroke: #f9a11c"/>
    <path d="M 340.395573 389.854551 
C 341.593839 389.854551 342.743189 389.378475 343.590491 388.531172 
C 344.437793 387.68387 344.913869 386.534521 344.913869 385.336255 
C 344.913869 384.137988 344.437793 382.988639 343.590491 382.141337 
C 342.743189 381.294034 341.593839 380.817958 340.395573 380.817958 
C 339.197307 380.817958 338.047957 381.294034 337.200655 382.141337 
C 336.353353 382.988639 335.877276 384.137988 335.877276 385.336255 
C 335.877276 386.534521 336.353353 387.68387 337.200655 388.531172 
C 338.047957 389.378475 339.197307 389.854551 340.395573 389.854551 
z
" clip-path="url(#p3368524233)" style="fill: #f9a11c; stroke: #f9a11c"/>
    <path d="M 419.846318 371.182912 
C 422.129062 371.182912 424.318618 370.275968 425.932761 368.661825 
C 427.546905 367.047681 428.453848 364.858125 428.453848 362.575382 
C 428.453848 360.292638 427.546905 358.103082 425.932761 356.488939 
C 424.318618 354.874795 422.129062 353.967852 419.846318 353.967852 
C 417.563575 353.967852 415.374019 354.874795 413.759875 356.488939 
C 412.145732 358.103082 411.238788 360.292638 411.238788 362.575382 
C 411.238788 364.858125 412.145732 367.047681 413.759875 368.661825 
C 415.374019 370.275968 417.563575 371.182912 419.846318 371.182912 
z
" clip-path="url(#p3368524233)" style="fill: #f9a11c; stroke: #f9a11c"/>
    <path d="M 442.485509 368.874122 
C 444.272036 368.874122 445.985633 368.164327 447.248898 366.901062 
C 448.512164 365.637796 449.221958 363.9242 449.221958 362.137673 
C 449.221958 360.351146 448.512164 358.637549 447.248898 357.374284 
C 445.985633 356.111018 444.272036 355.401223 442.485509 355.401223 
C 440.698982 355.401223 438.985386 356.111018 437.72212 357.374284 
C 436.458855 358.637549 435.74906 360.351146 435.74906 362.137673 
C 435.74906 363.9242 436.458855 365.637796 437.72212 366.901062 
C 438.985386 368.164327 440.698982 368.874122 442.485509 368.874122 
z
" clip-path="url(#p3368524233)" style="fill: #f9a11c; stroke: #f9a11c"/>
    <path d="M 441.6312 371.793509 
C 443.263303 371.793509 444.828779 371.145067 445.982851 369.990996 
C 447.136922 368.836925 447.785363 367.271449 447.785363 365.639345 
C 447.785363 364.007242 447.136922 362.441766 445.982851 361.287695 
C 444.828779 360.133624 443.263303 359.485182 441.6312 359.485182 
C 439.999097 359.485182 438.433621 360.133624 437.279549 361.287695 
C 436.125478 362.441766 435.477037 364.007242 435.477037 365.639345 
C 435.477037 367.271449 436.125478 368.836925 437.279549 369.990996 
C 438.433621 371.145067 439.999097 371.793509 441.6312 371.793509 
z
" clip-path="url(#p3368524233)" style="fill: #f9a11c; stroke: #f9a11c"/>
    <path d="M 406.604527 345.431142 
C 407.861912 345.431142 409.067967 344.931578 409.957072 344.042472 
C 410.846178 343.153367 411.345742 341.947312 411.345742 340.689927 
C 411.345742 339.432542 410.846178 338.226487 409.957072 337.337382 
C 409.067967 336.448277 407.861912 335.948712 406.604527 335.948712 
C 405.347142 335.948712 404.141087 336.448277 403.251982 337.337382 
C 402.362877 338.226487 401.863312 339.432542 401.863312 340.689927 
C 401.863312 341.947312 402.362877 343.153367 403.251982 344.042472 
C 404.141087 344.931578 405.347142 345.431142 406.604527 345.431142 
z
" clip-path="url(#p3368524233)" style="fill: #f9a11c; stroke: #f9a11c"/>
    <path d="M 206.6962 356.916258 
C 207.981346 356.916258 209.214029 356.405664 210.122765 355.496928 
C 211.0315 354.588193 211.542094 353.35551 211.542094 352.070364 
C 211.542094 350.785217 211.0315 349.552535 210.122765 348.643799 
C 209.214029 347.735063 207.981346 347.224469 206.6962 347.224469 
C 205.411054 347.224469 204.178371 347.735063 203.269635 348.643799 
C 202.3609 349.552535 201.850306 350.785217 201.850306 352.070364 
C 201.850306 353.35551 202.3609 354.588193 203.269635 355.496928 
C 204.178371 356.405664 205.411054 356.916258 206.6962 356.916258 
z
" clip-path="url(#p3368524233)" style="fill: #f9a11c; stroke: #f9a11c"/>
    <path d="M 437.359655 381.076378 
C 439.015886 381.076378 440.604505 380.418351 441.775637 379.247219 
C 442.946769 378.076086 443.604797 376.487467 443.604797 374.831236 
C 443.604797 373.175005 442.946769 371.586386 441.775637 370.415254 
C 440.604505 369.244122 439.015886 368.586094 437.359655 368.586094 
C 435.703424 368.586094 434.114804 369.244122 432.943672 370.415254 
C 431.77254 371.586386 431.114513 373.175005 431.114513 374.831236 
C 431.114513 376.487467 431.77254 378.076086 432.943672 379.247219 
C 434.114804 380.418351 435.703424 381.076378 437.359655 381.076378 
z
" clip-path="url(#p3368524233)" style="fill: #f9a11c; stroke: #f9a11c"/>
    <path d="M 178.931155 394.394854 
C 180.056623 394.394854 181.136147 393.947701 181.931974 393.151874 
C 182.727801 392.356047 183.174954 391.276523 183.174954 390.151055 
C 183.174954 389.025586 182.727801 387.946062 181.931974 387.150235 
C 181.136147 386.354408 180.056623 385.907255 178.931155 385.907255 
C 177.805686 385.907255 176.726162 386.354408 175.930335 387.150235 
C 175.134508 387.946062 174.687355 389.025586 174.687355 390.151055 
C 174.687355 391.276523 175.134508 392.356047 175.930335 393.151874 
C 176.726162 393.947701 177.805686 394.394854 178.931155 394.394854 
z
" clip-path="url(#p3368524233)" style="fill: #f9a11c; stroke: #f9a11c"/>
    <path d="M 391.226964 373.679187 
C 392.4305 373.679187 393.584905 373.201017 394.435934 372.349988 
C 395.286963 371.498959 395.765133 370.344555 395.765133 369.141018 
C 395.765133 367.937482 395.286963 366.783077 394.435934 365.932048 
C 393.584905 365.081019 392.4305 364.602849 391.226964 364.602849 
C 390.023427 364.602849 388.869022 365.081019 388.017994 365.932048 
C 387.166965 366.783077 386.688795 367.937482 386.688795 369.141018 
C 386.688795 370.344555 387.166965 371.498959 388.017994 372.349988 
C 388.869022 373.201017 390.023427 373.679187 391.226964 373.679187 
z
" clip-path="url(#p3368524233)" style="fill: #f9a11c; stroke: #f9a11c"/>
    <path d="M 257.954745 385.464701 
C 259.26571 385.464701 260.523157 384.94385 261.450149 384.016858 
C 262.377141 383.089866 262.897992 381.832419 262.897992 380.521455 
C 262.897992 379.21049 262.377141 377.953043 261.450149 377.026051 
C 260.523157 376.099059 259.26571 375.578208 257.954745 375.578208 
C 256.643781 375.578208 255.386334 376.099059 254.459342 377.026051 
C 253.53235 377.953043 253.011499 379.21049 253.011499 380.521455 
C 253.011499 381.832419 253.53235 383.089866 254.459342 384.016858 
C 255.386334 384.94385 256.643781 385.464701 257.954745 385.464701 
z
" clip-path="url(#p3368524233)" style="fill: #f9a11c; stroke: #f9a11c"/>
    <path d="M 398.915745 379.907375 
C 400.145871 379.907375 401.32578 379.418641 402.195611 378.548811 
C 403.065441 377.67898 403.554175 376.499071 403.554175 375.268945 
C 403.554175 374.038819 403.065441 372.858911 402.195611 371.98908 
C 401.32578 371.11925 400.145871 370.630515 398.915745 370.630515 
C 397.685619 370.630515 396.505711 371.11925 395.63588 371.98908 
C 394.76605 372.858911 394.277315 374.038819 394.277315 375.268945 
C 394.277315 376.499071 394.76605 377.67898 395.63588 378.548811 
C 396.505711 379.418641 397.685619 379.907375 398.915745 379.907375 
z
" clip-path="url(#p3368524233)" style="fill: #f9a11c; stroke: #f9a11c"/>
    <path d="M 475.803564 374.351216 
C 477.765733 374.351216 479.647802 373.571637 481.035265 372.184174 
C 482.422728 370.796711 483.202307 368.914642 483.202307 366.952473 
C 483.202307 364.990303 482.422728 363.108235 481.035265 361.720771 
C 479.647802 360.333308 477.765733 359.55373 475.803564 359.55373 
C 473.841394 359.55373 471.959326 360.333308 470.571862 361.720771 
C 469.184399 363.108235 468.404821 364.990303 468.404821 366.952473 
C 468.404821 368.914642 469.184399 370.796711 470.571862 372.184174 
C 471.959326 373.571637 473.841394 374.351216 475.803564 374.351216 
z
" clip-path="url(#p3368524233)" style="fill: #f9a11c; stroke: #f9a11c"/>
    <path d="M 281.8754 384.939483 
C 283.163157 384.939483 284.398344 384.427852 285.308925 383.517271 
C 286.219507 382.606689 286.731138 381.371502 286.731138 380.083745 
C 286.731138 378.795989 286.219507 377.560802 285.308925 376.65022 
C 284.398344 375.739639 283.163157 375.228008 281.8754 375.228008 
C 280.587643 375.228008 279.352456 375.739639 278.441875 376.65022 
C 277.531293 377.560802 277.019662 378.795989 277.019662 380.083745 
C 277.019662 381.371502 277.531293 382.606689 278.441875 383.517271 
C 279.352456 384.427852 280.587643 384.939483 281.8754 384.939483 
z
" clip-path="url(#p3368524233)" style="fill: #f9a11c; stroke: #f9a11c"/>
    <path d="M 206.269045 378.522442 
C 207.828374 378.522442 209.324046 377.902914 210.426657 376.800303 
C 211.529269 375.697691 212.148796 374.202019 212.148796 372.642691 
C 212.148796 371.083363 211.529269 369.587691 210.426657 368.485079 
C 209.324046 367.382468 207.828374 366.76294 206.269045 366.76294 
C 204.709717 366.76294 203.214045 367.382468 202.111434 368.485079 
C 201.008822 369.587691 200.389295 371.083363 200.389295 372.642691 
C 200.389295 374.202019 201.008822 375.697691 202.111434 376.800303 
C 203.214045 377.902914 204.709717 378.522442 206.269045 378.522442 
z
" clip-path="url(#p3368524233)" style="fill: #f9a11c; stroke: #f9a11c"/>
    <path d="M 394.6442 363.426813 
C 395.798657 363.426813 396.905985 362.968142 397.722309 362.151818 
C 398.538633 361.335494 398.997303 360.228166 398.997303 359.073709 
C 398.997303 357.919253 398.538633 356.811924 397.722309 355.9956 
C 396.905985 355.179276 395.798657 354.720606 394.6442 354.720606 
C 393.489743 354.720606 392.382415 355.179276 391.566091 355.9956 
C 390.749767 356.811924 390.291097 357.919253 390.291097 359.073709 
C 390.291097 360.228166 390.749767 361.335494 391.566091 362.151818 
C 392.382415 362.968142 393.489743 363.426813 394.6442 363.426813 
z
" clip-path="url(#p3368524233)" style="fill: #f9a11c; stroke: #f9a11c"/>
    <path d="M 202.851809 390.511163 
C 203.992047 390.511163 205.085737 390.058141 205.892008 389.251871 
C 206.698278 388.445601 207.151299 387.351911 207.151299 386.211673 
C 207.151299 385.071435 206.698278 383.977744 205.892008 383.171474 
C 205.085737 382.365204 203.992047 381.912183 202.851809 381.912183 
C 201.711571 381.912183 200.617881 382.365204 199.811611 383.171474 
C 199.005341 383.977744 198.552319 385.071435 198.552319 386.211673 
C 198.552319 387.351911 199.005341 388.445601 199.811611 389.251871 
C 200.617881 390.058141 201.711571 390.511163 202.851809 390.511163 
z
" clip-path="url(#p3368524233)" style="fill: #f9a11c; stroke: #f9a11c"/>
    <path d="M 334.415409 390.385569 
C 335.754503 390.385569 337.038931 389.853542 337.985814 388.906659 
C 338.932696 387.959777 339.464724 386.675348 339.464724 385.336255 
C 339.464724 383.997161 338.932696 382.712732 337.985814 381.76585 
C 337.038931 380.818968 335.754503 380.28694 334.415409 380.28694 
C 333.076315 380.28694 331.791887 380.818968 330.845004 381.76585 
C 329.898122 382.712732 329.366094 383.997161 329.366094 385.336255 
C 329.366094 386.675348 329.898122 387.959777 330.845004 388.906659 
C 331.791887 389.853542 333.076315 390.385569 334.415409 390.385569 
z
" clip-path="url(#p3368524233)" style="fill: #f9a11c; stroke: #f9a11c"/>
    <path d="M 237.024173 391.32648 
C 238.380636 391.32648 239.681724 390.787552 240.640888 389.828388 
C 241.600052 388.869224 242.13898 387.568136 242.13898 386.211673 
C 242.13898 384.85521 241.600052 383.554122 240.640888 382.594958 
C 239.681724 381.635793 238.380636 381.096865 237.024173 381.096865 
C 235.66771 381.096865 234.366622 381.635793 233.407458 382.594958 
C 232.448293 383.554122 231.909365 384.85521 231.909365 386.211673 
C 231.909365 387.568136 232.448293 388.869224 233.407458 389.828388 
C 234.366622 390.787552 235.66771 391.32648 237.024173 391.32648 
z
" clip-path="url(#p3368524233)" style="fill: #f9a11c; stroke: #f9a11c"/>
    <path d="M 294.690036 369.408433 
C 295.805692 369.408433 296.875803 368.965178 297.664691 368.176291 
C 298.453578 367.387403 298.896833 366.317292 298.896833 365.201636 
C 298.896833 364.085981 298.453578 363.01587 297.664691 362.226982 
C 296.875803 361.438094 295.805692 360.99484 294.690036 360.99484 
C 293.574381 360.99484 292.50427 361.438094 291.715382 362.226982 
C 290.926494 363.01587 290.48324 364.085981 290.48324 365.201636 
C 290.48324 366.317292 290.926494 367.387403 291.715382 368.176291 
C 292.50427 368.965178 293.574381 369.408433 294.690036 369.408433 
z
" clip-path="url(#p3368524233)" style="fill: #f9a11c; stroke: #f9a11c"/>
    <path d="M 193.454409 399.567838 
C 194.210542 399.567838 194.935808 399.267423 195.470475 398.732756 
C 196.005142 398.19809 196.305556 397.472824 196.305556 396.716691 
C 196.305556 395.960558 196.005142 395.235292 195.470475 394.700625 
C 194.935808 394.165958 194.210542 393.865544 193.454409 393.865544 
C 192.698276 393.865544 191.97301 394.165958 191.438344 394.700625 
C 190.903677 395.235292 190.603262 395.960558 190.603262 396.716691 
C 190.603262 397.472824 190.903677 398.19809 191.438344 398.732756 
C 191.97301 399.267423 192.698276 399.567838 193.454409 399.567838 
z
" clip-path="url(#p3368524233)" style="fill: #f9a11c; stroke: #f9a11c"/>
    <path d="M 309.213291 379.624885 
C 310.020254 379.624885 310.794275 379.304275 311.364884 378.733666 
C 311.935493 378.163057 312.256103 377.389036 312.256103 376.582073 
C 312.256103 375.775109 311.935493 375.001089 311.364884 374.43048 
C 310.794275 373.85987 310.020254 373.53926 309.213291 373.53926 
C 308.406328 373.53926 307.632307 373.85987 307.061698 374.43048 
C 306.491088 375.001089 306.170479 375.775109 306.170479 376.582073 
C 306.170479 377.389036 306.491088 378.163057 307.061698 378.733666 
C 307.632307 379.304275 308.406328 379.624885 309.213291 379.624885 
z
" clip-path="url(#p3368524233)" style="fill: #f9a11c; stroke: #f9a11c"/>
    <path d="M 352.783055 389.08183 
C 353.892475 389.08183 354.956605 388.641053 355.741083 387.856574 
C 356.525562 387.072096 356.966339 386.007965 356.966339 384.898545 
C 356.966339 383.789125 356.525562 382.724995 355.741083 381.940517 
C 354.956605 381.156038 353.892475 380.715261 352.783055 380.715261 
C 351.673635 380.715261 350.609504 381.156038 349.825026 381.940517 
C 349.040547 382.724995 348.59977 383.789125 348.59977 384.898545 
C 348.59977 386.007965 349.040547 387.072096 349.825026 387.856574 
C 350.609504 388.641053 351.673635 389.08183 352.783055 389.08183 
z
" clip-path="url(#p3368524233)" style="fill: #f9a11c; stroke: #f9a11c"/>
    <path d="M 445.902745 412.435781 
C 447.749861 412.435781 449.521571 411.701914 450.827679 410.395806 
C 452.133787 409.089699 452.867653 407.317988 452.867653 405.470873 
C 452.867653 403.623758 452.133787 401.852047 450.827679 400.545939 
C 449.521571 399.239831 447.749861 398.505965 445.902745 398.505965 
C 444.05563 398.505965 442.283919 399.239831 440.977812 400.545939 
C 439.671704 401.852047 438.937837 403.623758 438.937837 405.470873 
C 438.937837 407.317988 439.671704 409.089699 440.977812 410.395806 
C 442.283919 411.701914 444.05563 412.435781 445.902745 412.435781 
z
" clip-path="url(#p3368524233)" style="fill: #f9a11c; stroke: #f9a11c"/>
    <path d="M 252.401736 355.781199 
C 253.385861 355.781199 254.329812 355.390202 255.025693 354.694321 
C 255.721575 353.998439 256.112572 353.054489 256.112572 352.070364 
C 256.112572 351.086239 255.721575 350.142288 255.025693 349.446407 
C 254.329812 348.750525 253.385861 348.359528 252.401736 348.359528 
C 251.417611 348.359528 250.473661 348.750525 249.777779 349.446407 
C 249.081898 350.142288 248.690901 351.086239 248.690901 352.070364 
C 248.690901 353.054489 249.081898 353.998439 249.777779 354.694321 
C 250.473661 355.390202 251.417611 355.781199 252.401736 355.781199 
z
" clip-path="url(#p3368524233)" style="fill: #f9a11c; stroke: #f9a11c"/>
    <path d="M 415.147618 396.150924 
C 416.738802 396.150924 418.26503 395.51874 419.390167 394.393603 
C 420.515304 393.268466 421.147488 391.742239 421.147488 390.151055 
C 421.147488 388.55987 420.515304 387.033643 419.390167 385.908506 
C 418.26503 384.783369 416.738802 384.151185 415.147618 384.151185 
C 413.556434 384.151185 412.030207 384.783369 410.90507 385.908506 
C 409.779932 387.033643 409.147748 388.55987 409.147748 390.151055 
C 409.147748 391.742239 409.779932 393.268466 410.90507 394.393603 
C 412.030207 395.51874 413.556434 396.150924 415.147618 396.150924 
z
" clip-path="url(#p3368524233)" style="fill: #f9a11c; stroke: #f9a11c"/>
    <path d="M 181.494082 409.901989 
C 182.2049 409.901989 182.886701 409.619578 183.389326 409.116953 
C 183.891951 408.614329 184.174362 407.932528 184.174362 407.221709 
C 184.174362 406.51089 183.891951 405.829089 183.389326 405.326465 
C 182.886701 404.82384 182.2049 404.541429 181.494082 404.541429 
C 180.783263 404.541429 180.101462 404.82384 179.598838 405.326465 
C 179.096213 405.829089 178.813802 406.51089 178.813802 407.221709 
C 178.813802 407.932528 179.096213 408.614329 179.598838 409.116953 
C 180.101462 409.619578 180.783263 409.901989 181.494082 409.901989 
z
" clip-path="url(#p3368524233)" style="fill: #f9a11c; stroke: #f9a11c"/>
    <path d="M 411.303227 375.036912 
C 413.331164 375.036912 415.276314 374.231204 416.710282 372.797237 
C 418.14425 371.363269 418.949957 369.418118 418.949957 367.390182 
C 418.949957 365.362245 418.14425 363.417095 416.710282 361.983127 
C 415.276314 360.549159 413.331164 359.743452 411.303227 359.743452 
C 409.275291 359.743452 407.33014 360.549159 405.896173 361.983127 
C 404.462205 363.417095 403.656497 365.362245 403.656497 367.390182 
C 403.656497 369.418118 404.462205 371.363269 405.896173 372.797237 
C 407.33014 374.231204 409.275291 375.036912 411.303227 375.036912 
z
" clip-path="url(#p3368524233)" style="fill: #f9a11c; stroke: #f9a11c"/>
    <path d="M 414.293309 372.338408 
C 416.069921 372.338408 417.774007 371.632552 419.030261 370.376298 
C 420.286516 369.120043 420.992371 367.415958 420.992371 365.639345 
C 420.992371 363.862733 420.286516 362.158648 419.030261 360.902393 
C 417.774007 359.646139 416.069921 358.940283 414.293309 358.940283 
C 412.516697 358.940283 410.812611 359.646139 409.556357 360.902393 
C 408.300102 362.158648 407.594247 363.862733 407.594247 365.639345 
C 407.594247 367.415958 408.300102 369.120043 409.556357 370.376298 
C 410.812611 371.632552 412.516697 372.338408 414.293309 372.338408 
z
" clip-path="url(#p3368524233)" style="fill: #f9a11c; stroke: #f9a11c"/>
    <path d="M 331.425327 375.577439 
C 332.435795 375.577439 333.405013 375.175976 334.119522 374.461467 
C 334.83403 373.746958 335.235494 372.777741 335.235494 371.767273 
C 335.235494 370.756805 334.83403 369.787587 334.119522 369.073078 
C 333.405013 368.35857 332.435795 367.957106 331.425327 367.957106 
C 330.414859 367.957106 329.445642 368.35857 328.731133 369.073078 
C 328.016624 369.787587 327.615161 370.756805 327.615161 371.767273 
C 327.615161 372.777741 328.016624 373.746958 328.731133 374.461467 
C 329.445642 375.175976 330.414859 375.577439 331.425327 375.577439 
z
" clip-path="url(#p3368524233)" style="fill: #f9a11c; stroke: #f9a11c"/>
    <path d="M 481.356573 369.457356 
C 483.413857 369.457356 485.387158 368.639988 486.841877 367.185268 
C 488.296597 365.730549 489.113965 363.757248 489.113965 361.699964 
C 489.113965 359.642679 488.296597 357.669379 486.841877 356.214659 
C 485.387158 354.759939 483.413857 353.942571 481.356573 353.942571 
C 479.299288 353.942571 477.325988 354.759939 475.871268 356.214659 
C 474.416548 357.669379 473.59918 359.642679 473.59918 361.699964 
C 473.59918 363.757248 474.416548 365.730549 475.871268 367.185268 
C 477.325988 368.639988 479.299288 369.457356 481.356573 369.457356 
z
" clip-path="url(#p3368524233)" style="fill: #f9a11c; stroke: #f9a11c"/>
    <path d="M 188.328555 388.314129 
C 189.35046 388.314129 190.330648 387.908122 191.053244 387.185526 
C 191.77584 386.46293 192.181847 385.482741 192.181847 384.460836 
C 192.181847 383.438931 191.77584 382.458743 191.053244 381.736147 
C 190.330648 381.013551 189.35046 380.607544 188.328555 380.607544 
C 187.306649 380.607544 186.326461 381.013551 185.603865 381.736147 
C 184.881269 382.458743 184.475262 383.438931 184.475262 384.460836 
C 184.475262 385.482741 184.881269 386.46293 185.603865 387.185526 
C 186.326461 387.908122 187.306649 388.314129 188.328555 388.314129 
z
" clip-path="url(#p3368524233)" style="fill: #f9a11c; stroke: #f9a11c"/>
    <path d="M 436.078191 415.992944 
C 437.823941 415.992944 439.498424 415.29935 440.732855 414.064919 
C 441.967287 412.830487 442.66088 411.156004 442.66088 409.410255 
C 442.66088 407.664505 441.967287 405.990022 440.732855 404.75559 
C 439.498424 403.521159 437.823941 402.827565 436.078191 402.827565 
C 434.332441 402.827565 432.657958 403.521159 431.423527 404.75559 
C 430.189095 405.990022 429.495502 407.664505 429.495502 409.410255 
C 429.495502 411.156004 430.189095 412.830487 431.423527 414.064919 
C 432.657958 415.29935 434.332441 415.992944 436.078191 415.992944 
z
" clip-path="url(#p3368524233)" style="fill: #f9a11c; stroke: #f9a11c"/>
    <path d="M 286.146945 376.864297 
C 287.266528 376.864297 288.340407 376.419482 289.132072 375.627817 
C 289.923737 374.836152 290.368552 373.762274 290.368552 372.642691 
C 290.368552 371.523108 289.923737 370.449229 289.132072 369.657565 
C 288.340407 368.8659 287.266528 368.421085 286.146945 368.421085 
C 285.027362 368.421085 283.953484 368.8659 283.161819 369.657565 
C 282.370154 370.449229 281.925339 371.523108 281.925339 372.642691 
C 281.925339 373.762274 282.370154 374.836152 283.161819 375.627817 
C 283.953484 376.419482 285.027362 376.864297 286.146945 376.864297 
z
" clip-path="url(#p3368524233)" style="fill: #f9a11c; stroke: #f9a11c"/>
    <path d="M 195.590182 380.961659 
C 196.983825 380.961659 198.320576 380.407959 199.306031 379.422504 
C 200.291486 378.437049 200.845186 377.100298 200.845186 375.706655 
C 200.845186 374.313011 200.291486 372.97626 199.306031 371.990805 
C 198.320576 371.00535 196.983825 370.45165 195.590182 370.45165 
C 194.196538 370.45165 192.859787 371.00535 191.874332 371.990805 
C 190.888878 372.97626 190.335177 374.313011 190.335177 375.706655 
C 190.335177 377.100298 190.888878 378.437049 191.874332 379.422504 
C 192.859787 380.407959 194.196538 380.961659 195.590182 380.961659 
z
" clip-path="url(#p3368524233)" style="fill: #f9a11c; stroke: #f9a11c"/>
    <path d="M 435.223882 373.772176 
C 436.916406 373.772176 438.539837 373.099729 439.736633 371.902933 
C 440.933429 370.706137 441.605876 369.082706 441.605876 367.390182 
C 441.605876 365.697657 440.933429 364.074226 439.736633 362.877431 
C 438.539837 361.680635 436.916406 361.008188 435.223882 361.008188 
C 433.531357 361.008188 431.907926 361.680635 430.711131 362.877431 
C 429.514335 364.074226 428.841888 365.697657 428.841888 367.390182 
C 428.841888 369.082706 429.514335 370.706137 430.711131 371.902933 
C 431.907926 373.099729 433.531357 373.772176 435.223882 373.772176 
z
" clip-path="url(#p3368524233)" style="fill: #f9a11c; stroke: #f9a11c"/>
    <path d="M 338.686955 373.765941 
C 339.913498 373.765941 341.089971 373.27863 341.957269 372.411332 
C 342.824566 371.544035 343.311877 370.367562 343.311877 369.141018 
C 343.311877 367.914474 342.824566 366.738001 341.957269 365.870704 
C 341.089971 365.003407 339.913498 364.516096 338.686955 364.516096 
C 337.460411 364.516096 336.283938 365.003407 335.41664 365.870704 
C 334.549343 366.738001 334.062032 367.914474 334.062032 369.141018 
C 334.062032 370.367562 334.549343 371.544035 335.41664 372.411332 
C 336.283938 373.27863 337.460411 373.765941 338.686955 373.765941 
z
" clip-path="url(#p3368524233)" style="fill: #f9a11c; stroke: #f9a11c"/>
    <path d="M 348.084355 390.599893 
C 349.364206 390.599893 350.59181 390.091403 351.496802 389.186411 
C 352.401794 388.281419 352.910284 387.053815 352.910284 385.773964 
C 352.910284 384.494112 352.401794 383.266508 351.496802 382.361516 
C 350.59181 381.456525 349.364206 380.948034 348.084355 380.948034 
C 346.804503 380.948034 345.576899 381.456525 344.671907 382.361516 
C 343.766915 383.266508 343.258425 384.494112 343.258425 385.773964 
C 343.258425 387.053815 343.766915 388.281419 344.671907 389.186411 
C 345.576899 390.091403 346.804503 390.599893 348.084355 390.599893 
z
" clip-path="url(#p3368524233)" style="fill: #f9a11c; stroke: #f9a11c"/>
    <path d="M 413.011845 369.746798 
C 414.4494 369.746798 415.82827 369.175651 416.844774 368.159147 
C 417.861279 367.142642 418.432425 365.763773 418.432425 364.326218 
C 418.432425 362.888664 417.861279 361.509794 416.844774 360.493289 
C 415.82827 359.476785 414.4494 358.905638 413.011845 358.905638 
C 411.574291 358.905638 410.195421 359.476785 409.178917 360.493289 
C 408.162412 361.509794 407.591266 362.888664 407.591266 364.326218 
C 407.591266 365.763773 408.162412 367.142642 409.178917 368.159147 
C 410.195421 369.175651 411.574291 369.746798 413.011845 369.746798 
z
" clip-path="url(#p3368524233)" style="fill: #f9a11c; stroke: #f9a11c"/>
    <path d="M 445.902745 372.930814 
C 447.836466 372.930814 449.691246 372.162539 451.058593 370.795193 
C 452.425939 369.427846 453.194214 367.573066 453.194214 365.639345 
C 453.194214 363.705625 452.425939 361.850845 451.058593 360.483498 
C 449.691246 359.116152 447.836466 358.347877 445.902745 358.347877 
C 443.969025 358.347877 442.114245 359.116152 440.746898 360.483498 
C 439.379552 361.850845 438.611277 363.705625 438.611277 365.639345 
C 438.611277 367.573066 439.379552 369.427846 440.746898 370.795193 
C 442.114245 372.162539 443.969025 372.930814 445.902745 372.930814 
z
" clip-path="url(#p3368524233)" style="fill: #f9a11c; stroke: #f9a11c"/>
    <path d="M 166.543673 420.963614 
C 167.634269 420.963614 168.680343 420.530315 169.451511 419.759148 
C 170.222679 418.98798 170.655977 417.941905 170.655977 416.851309 
C 170.655977 415.760713 170.222679 414.714638 169.451511 413.943471 
C 168.680343 413.172303 167.634269 412.739004 166.543673 412.739004 
C 165.453077 412.739004 164.407002 413.172303 163.635834 413.943471 
C 162.864666 414.714638 162.431368 415.760713 162.431368 416.851309 
C 162.431368 417.941905 162.864666 418.98798 163.635834 419.759148 
C 164.407002 420.530315 165.453077 420.963614 166.543673 420.963614 
z
" clip-path="url(#p3368524233)" style="fill: #f9a11c; stroke: #f9a11c"/>
    <path d="M 230.1897 383.62913 
C 231.94252 383.62913 233.623784 382.932727 234.863215 381.693297 
C 236.102645 380.453866 236.799048 378.772601 236.799048 377.019782 
C 236.799048 375.266962 236.102645 373.585698 234.863215 372.346267 
C 233.623784 371.106836 231.94252 370.410434 230.1897 370.410434 
C 228.43688 370.410434 226.755616 371.106836 225.516185 372.346267 
C 224.276755 373.585698 223.580352 375.266962 223.580352 377.019782 
C 223.580352 378.772601 224.276755 380.453866 225.516185 381.693297 
C 226.755616 382.932727 228.43688 383.62913 230.1897 383.62913 
z
" clip-path="url(#p3368524233)" style="fill: #f9a11c; stroke: #f9a11c"/>
    <path d="M 287.855564 417.451491 
C 288.943388 417.451491 289.986805 417.019294 290.756013 416.250086 
C 291.525221 415.480878 291.957419 414.437461 291.957419 413.349636 
C 291.957419 412.261812 291.525221 411.218395 290.756013 410.449187 
C 289.986805 409.679979 288.943388 409.247781 287.855564 409.247781 
C 286.767739 409.247781 285.724322 409.679979 284.955114 410.449187 
C 284.185906 411.218395 283.753709 412.261812 283.753709 413.349636 
C 283.753709 414.437461 284.185906 415.480878 284.955114 416.250086 
C 285.724322 417.019294 286.767739 417.451491 287.855564 417.451491 
z
" clip-path="url(#p3368524233)" style="fill: #f9a11c; stroke: #f9a11c"/>
    <path d="M 167.397982 391.908627 
C 168.328423 391.908627 169.220881 391.538959 169.878802 390.881038 
C 170.536723 390.223117 170.906391 389.330659 170.906391 388.400218 
C 170.906391 387.469777 170.536723 386.577319 169.878802 385.919398 
C 169.220881 385.261477 168.328423 384.891809 167.397982 384.891809 
C 166.467541 384.891809 165.575083 385.261477 164.917162 385.919398 
C 164.259241 386.577319 163.889573 387.469777 163.889573 388.400218 
C 163.889573 389.330659 164.259241 390.223117 164.917162 390.881038 
C 165.575083 391.538959 166.467541 391.908627 167.397982 391.908627 
z
" clip-path="url(#p3368524233)" style="fill: #f9a11c; stroke: #f9a11c"/>
    <path d="M 428.816564 348.617759 
C 430.570804 348.617759 432.253431 347.920792 433.493866 346.680357 
C 434.734301 345.439922 435.431268 343.757295 435.431268 342.003055 
C 435.431268 340.248814 434.734301 338.566187 433.493866 337.325752 
C 432.253431 336.085317 430.570804 335.38835 428.816564 335.38835 
C 427.062324 335.38835 425.379696 336.085317 424.139261 337.325752 
C 422.898826 338.566187 422.201859 340.248814 422.201859 342.003055 
C 422.201859 343.757295 422.898826 345.439922 424.139261 346.680357 
C 425.379696 347.920792 427.062324 348.617759 428.816564 348.617759 
z
" clip-path="url(#p3368524233)" style="fill: #f9a11c; stroke: #f9a11c"/>
   </g>
   <g id="PathCollection_2">
    <path d="M 249.838809 325.168887 
C 252.571408 325.168887 255.192454 324.083214 257.124693 322.150975 
C 259.056932 320.218736 260.142605 317.597689 260.142605 314.865091 
C 260.142605 312.132492 259.056932 309.511446 257.124693 307.579207 
C 255.192454 305.646968 252.571408 304.561295 249.838809 304.561295 
C 247.106211 304.561295 244.485164 305.646968 242.552925 307.579207 
C 240.620686 309.511446 239.535013 312.132492 239.535013 314.865091 
C 239.535013 317.597689 240.620686 320.218736 242.552925 322.150975 
C 244.485164 324.083214 247.106211 325.168887 249.838809 325.168887 
z
" clip-path="url(#p3368524233)" style="fill: #fa3e00; stroke: #fa3e00"/>
    <path d="M 234.034091 340.689133 
C 236.58768 340.689133 239.037025 339.674581 240.842685 337.868921 
C 242.648345 336.063261 243.662897 333.613916 243.662897 331.060327 
C 243.662897 328.506738 242.648345 326.057394 240.842685 324.251733 
C 239.037025 322.446073 236.58768 321.431521 234.034091 321.431521 
C 231.480502 321.431521 229.031157 322.446073 227.225497 324.251733 
C 225.419837 326.057394 224.405285 328.506738 224.405285 331.060327 
C 224.405285 333.613916 225.419837 336.063261 227.225497 337.868921 
C 229.031157 339.674581 231.480502 340.689133 234.034091 340.689133 
z
" clip-path="url(#p3368524233)" style="fill: #fa3e00; stroke: #fa3e00"/>
    <path d="M 208.404818 264.431666 
C 210.700762 264.431666 212.902978 263.519478 214.526455 261.896001 
C 216.149933 260.272524 217.062121 258.070307 217.062121 255.774364 
C 217.062121 253.47842 216.149933 251.276204 214.526455 249.652726 
C 212.902978 248.029249 210.700762 247.117061 208.404818 247.117061 
C 206.108875 247.117061 203.906658 248.029249 202.283181 249.652726 
C 200.659704 251.276204 199.747516 253.47842 199.747516 255.774364 
C 199.747516 258.070307 200.659704 260.272524 202.283181 261.896001 
C 203.906658 263.519478 206.108875 264.431666 208.404818 264.431666 
z
" clip-path="url(#p3368524233)" style="fill: #fa3e00; stroke: #fa3e00"/>
    <path d="M 213.530673 279.927526 
C 215.641139 279.927526 217.665451 279.089028 219.157776 277.596703 
C 220.650101 276.104378 221.488598 274.080067 221.488598 271.9696 
C 221.488598 269.859133 220.650101 267.834822 219.157776 266.342497 
C 217.665451 264.850172 215.641139 264.011674 213.530673 264.011674 
C 211.420206 264.011674 209.395895 264.850172 207.90357 266.342497 
C 206.411244 267.834822 205.572747 269.859133 205.572747 271.9696 
C 205.572747 274.080067 206.411244 276.104378 207.90357 277.596703 
C 209.395895 279.089028 211.420206 279.927526 213.530673 279.927526 
z
" clip-path="url(#p3368524233)" style="fill: #fa3e00; stroke: #fa3e00"/>
    <path d="M 181.066927 340.570944 
C 182.892681 340.570944 184.643903 339.845564 185.934906 338.554561 
C 187.225909 337.263558 187.951289 335.512336 187.951289 333.686582 
C 187.951289 331.860828 187.225909 330.109606 185.934906 328.818603 
C 184.643903 327.5276 182.892681 326.80222 181.066927 326.80222 
C 179.241173 326.80222 177.489951 327.5276 176.198948 328.818603 
C 174.907945 330.109606 174.182565 331.860828 174.182565 333.686582 
C 174.182565 335.512336 174.907945 337.263558 176.198948 338.554561 
C 177.489951 339.845564 179.241173 340.570944 181.066927 340.570944 
z
" clip-path="url(#p3368524233)" style="fill: #fa3e00; stroke: #fa3e00"/>
    <path d="M 237.451327 394.955938 
C 239.189924 394.955938 240.857547 394.265186 242.086921 393.035812 
C 243.316295 391.806438 244.007047 390.138815 244.007047 388.400218 
C 244.007047 386.661621 243.316295 384.993998 242.086921 383.764625 
C 240.857547 382.535251 239.189924 381.844499 237.451327 381.844499 
C 235.71273 381.844499 234.045107 382.535251 232.815734 383.764625 
C 231.58636 384.993998 230.895608 386.661621 230.895608 388.400218 
C 230.895608 390.138815 231.58636 391.806438 232.815734 393.035812 
C 234.045107 394.265186 235.71273 394.955938 237.451327 394.955938 
z
" clip-path="url(#p3368524233)" style="fill: #fa3e00; stroke: #fa3e00"/>
    <path d="M 231.471164 183.552115 
C 234.257061 183.552115 236.92923 182.445266 238.899157 180.475339 
C 240.869084 178.505412 241.975933 175.833243 241.975933 173.047345 
C 241.975933 170.261448 240.869084 167.589279 238.899157 165.619352 
C 236.92923 163.649425 234.257061 162.542576 231.471164 162.542576 
C 228.685266 162.542576 226.013097 163.649425 224.04317 165.619352 
C 222.073243 167.589279 220.966394 170.261448 220.966394 173.047345 
C 220.966394 175.833243 222.073243 178.505412 224.04317 180.475339 
C 226.013097 182.445266 228.685266 183.552115 231.471164 183.552115 
z
" clip-path="url(#p3368524233)" style="fill: #fa3e00; stroke: #fa3e00"/>
    <path d="M 247.703036 235.492225 
C 249.753386 235.492225 251.720035 234.677613 253.169851 233.227796 
C 254.619667 231.77798 255.43428 229.811332 255.43428 227.760982 
C 255.43428 225.710632 254.619667 223.743983 253.169851 222.294167 
C 251.720035 220.844351 249.753386 220.029738 247.703036 220.029738 
C 245.652687 220.029738 243.686038 220.844351 242.236222 222.294167 
C 240.786406 223.743983 239.971793 225.710632 239.971793 227.760982 
C 239.971793 229.811332 240.786406 231.77798 242.236222 233.227796 
C 243.686038 234.677613 245.652687 235.492225 247.703036 235.492225 
z
" clip-path="url(#p3368524233)" style="fill: #fa3e00; stroke: #fa3e00"/>
    <path d="M 240.868564 275.571455 
C 243.913259 275.571455 246.833662 274.361785 248.986587 272.20886 
C 251.139512 270.055935 252.349182 267.135532 252.349182 264.090836 
C 252.349182 261.046141 251.139512 258.125738 248.986587 255.972813 
C 246.833662 253.819888 243.913259 252.610218 240.868564 252.610218 
C 237.823868 252.610218 234.903465 253.819888 232.75054 255.972813 
C 230.597615 258.125738 229.387945 261.046141 229.387945 264.090836 
C 229.387945 267.135532 230.597615 270.055935 232.75054 272.20886 
C 234.903465 274.361785 237.823868 275.571455 240.868564 275.571455 
z
" clip-path="url(#p3368524233)" style="fill: #fa3e00; stroke: #fa3e00"/>
    <path d="M 234.461245 370.242907 
C 236.494697 370.242907 238.445137 369.435008 239.883004 367.997141 
C 241.320871 366.559273 242.12877 364.608833 242.12877 362.575382 
C 242.12877 360.54193 241.320871 358.59149 239.883004 357.153623 
C 238.445137 355.715756 236.494697 354.907857 234.461245 354.907857 
C 232.427794 354.907857 230.477354 355.715756 229.039487 357.153623 
C 227.601619 358.59149 226.793721 360.54193 226.793721 362.575382 
C 226.793721 364.608833 227.601619 366.559273 229.039487 367.997141 
C 230.477354 369.435008 232.427794 370.242907 234.461245 370.242907 
z
" clip-path="url(#p3368524233)" style="fill: #fa3e00; stroke: #fa3e00"/>
    <path d="M 163.126436 292.776968 
C 165.278242 292.776968 167.342206 291.922047 168.863763 290.40049 
C 170.385319 288.878933 171.240241 286.81497 171.240241 284.663164 
C 171.240241 282.511358 170.385319 280.447394 168.863763 278.925837 
C 167.342206 277.404281 165.278242 276.549359 163.126436 276.549359 
C 160.97463 276.549359 158.910667 277.404281 157.38911 278.925837 
C 155.867553 280.447394 155.012632 282.511358 155.012632 284.663164 
C 155.012632 286.81497 155.867553 288.878933 157.38911 290.40049 
C 158.910667 291.922047 160.97463 292.776968 163.126436 292.776968 
z
" clip-path="url(#p3368524233)" style="fill: #fa3e00; stroke: #fa3e00"/>
    <path d="M 149.457491 295.957311 
C 152.452734 295.957311 155.325702 294.767288 157.443659 292.649332 
C 159.561615 290.531375 160.751638 287.658406 160.751638 284.663164 
C 160.751638 281.667921 159.561615 278.794952 157.443659 276.676996 
C 155.325702 274.559039 152.452734 273.369017 149.457491 273.369017 
C 146.462248 273.369017 143.58928 274.559039 141.471323 276.676996 
C 139.353367 278.794952 138.163344 281.667921 138.163344 284.663164 
C 138.163344 287.658406 139.353367 290.531375 141.471323 292.649332 
C 143.58928 294.767288 146.462248 295.957311 149.457491 295.957311 
z
" clip-path="url(#p3368524233)" style="fill: #fa3e00; stroke: #fa3e00"/>
    <path d="M 233.179782 271.549554 
C 235.854348 271.549554 238.41973 270.486937 240.310934 268.595734 
C 242.202137 266.70453 243.264754 264.139148 243.264754 261.464582 
C 243.264754 258.790016 242.202137 256.224633 240.310934 254.33343 
C 238.41973 252.442226 235.854348 251.37961 233.179782 251.37961 
C 230.505216 251.37961 227.939833 252.442226 226.04863 254.33343 
C 224.157426 256.224633 223.09481 258.790016 223.09481 261.464582 
C 223.09481 264.139148 224.157426 266.70453 226.04863 268.595734 
C 227.939833 270.486937 230.505216 271.549554 233.179782 271.549554 
z
" clip-path="url(#p3368524233)" style="fill: #fa3e00; stroke: #fa3e00"/>
    <path d="M 174.659609 423.243669 
C 176.703128 423.243669 178.663225 422.43177 180.108211 420.986784 
C 181.553197 419.541798 182.365096 417.581701 182.365096 415.538182 
C 182.365096 413.494663 181.553197 411.534566 180.108211 410.08958 
C 178.663225 408.644593 176.703128 407.832695 174.659609 407.832695 
C 172.61609 407.832695 170.655993 408.644593 169.211007 410.08958 
C 167.766021 411.534566 166.954122 413.494663 166.954122 415.538182 
C 166.954122 417.581701 167.766021 419.541798 169.211007 420.986784 
C 170.655993 422.43177 172.61609 423.243669 174.659609 423.243669 
z
" clip-path="url(#p3368524233)" style="fill: #fa3e00; stroke: #fa3e00"/>
    <path d="M 323.736545 381.336788 
C 326.158329 381.336788 328.481248 380.374603 330.193707 378.662144 
C 331.906167 376.949684 332.868351 374.626765 332.868351 372.204982 
C 332.868351 369.783199 331.906167 367.460279 330.193707 365.74782 
C 328.481248 364.035361 326.158329 363.073176 323.736545 363.073176 
C 321.314762 363.073176 318.991843 364.035361 317.279384 365.74782 
C 315.566924 367.460279 314.60474 369.783199 314.60474 372.204982 
C 314.60474 374.626765 315.566924 376.949684 317.279384 378.662144 
C 318.991843 380.374603 321.314762 381.336788 323.736545 381.336788 
z
" clip-path="url(#p3368524233)" style="fill: #fa3e00; stroke: #fa3e00"/>
    <path d="M 212.676364 284.108579 
C 215.199168 284.108579 217.618984 283.106258 219.402875 281.322366 
C 221.186767 279.538474 222.189088 277.118658 222.189088 274.595855 
C 222.189088 272.073051 221.186767 269.653235 219.402875 267.869343 
C 217.618984 266.085451 215.199168 265.083131 212.676364 265.083131 
C 210.15356 265.083131 207.733744 266.085451 205.949852 267.869343 
C 204.16596 269.653235 203.16364 272.073051 203.16364 274.595855 
C 203.16364 277.118658 204.16596 279.538474 205.949852 281.322366 
C 207.733744 283.106258 210.15356 284.108579 212.676364 284.108579 
z
" clip-path="url(#p3368524233)" style="fill: #fa3e00; stroke: #fa3e00"/>
    <path d="M 199.007418 196.995508 
C 201.411764 196.995508 203.717957 196.040251 205.418086 194.340122 
C 207.118215 192.639993 208.073471 190.3338 208.073471 187.929455 
C 208.073471 185.525109 207.118215 183.218916 205.418086 181.518787 
C 203.717957 179.818658 201.411764 178.863401 199.007418 178.863401 
C 196.603073 178.863401 194.296879 179.818658 192.59675 181.518787 
C 190.896621 183.218916 189.941365 185.525109 189.941365 187.929455 
C 189.941365 190.3338 190.896621 192.639993 192.59675 194.340122 
C 194.296879 196.040251 196.603073 196.995508 199.007418 196.995508 
z
" clip-path="url(#p3368524233)" style="fill: #fa3e00; stroke: #fa3e00"/>
    <path d="M 210.113436 339.624032 
C 211.92023 339.624032 213.653266 338.906185 214.930862 337.628589 
C 216.208458 336.350993 216.926305 334.617958 216.926305 332.811164 
C 216.926305 331.00437 216.208458 329.271334 214.930862 327.993738 
C 213.653266 326.716142 211.92023 325.998295 210.113436 325.998295 
C 208.306642 325.998295 206.573607 326.716142 205.296011 327.993738 
C 204.018415 329.271334 203.300568 331.00437 203.300568 332.811164 
C 203.300568 334.617958 204.018415 336.350993 205.296011 337.628589 
C 206.573607 338.906185 208.306642 339.624032 210.113436 339.624032 
z
" clip-path="url(#p3368524233)" style="fill: #fa3e00; stroke: #fa3e00"/>
    <path d="M 227.199618 178.606447 
C 230.299054 178.606447 233.271963 177.375028 235.463596 175.183396 
C 237.655228 172.991763 238.886647 170.018854 238.886647 166.919418 
C 238.886647 163.819982 237.655228 160.847073 235.463596 158.655441 
C 233.271963 156.463808 230.299054 155.232389 227.199618 155.232389 
C 224.100182 155.232389 221.127273 156.463808 218.935641 158.655441 
C 216.744008 160.847073 215.512589 163.819982 215.512589 166.919418 
C 215.512589 170.018854 216.744008 172.991763 218.935641 175.183396 
C 221.127273 177.375028 224.100182 178.606447 227.199618 178.606447 
z
" clip-path="url(#p3368524233)" style="fill: #fa3e00; stroke: #fa3e00"/>
    <path d="M 216.0936 287.529456 
C 218.246731 287.529456 220.311966 286.674007 221.834459 285.151514 
C 223.356953 283.62902 224.212401 281.563786 224.212401 279.410655 
C 224.212401 277.257523 223.356953 275.192289 221.834459 273.669795 
C 220.311966 272.147302 218.246731 271.291854 216.0936 271.291854 
C 213.940469 271.291854 211.875234 272.147302 210.352741 273.669795 
C 208.830247 275.192289 207.974799 277.257523 207.974799 279.410655 
C 207.974799 281.563786 208.830247 283.62902 210.352741 285.151514 
C 211.875234 286.674007 213.940469 287.529456 216.0936 287.529456 
z
" clip-path="url(#p3368524233)" style="fill: #fa3e00; stroke: #fa3e00"/>
    <path d="M 207.123355 182.058703 
C 209.977522 182.058703 212.715174 180.92473 214.733375 178.906529 
C 216.751575 176.888328 217.885548 174.150676 217.885548 171.296509 
C 217.885548 168.442342 216.751575 165.70469 214.733375 163.686489 
C 212.715174 161.668288 209.977522 160.534316 207.123355 160.534316 
C 204.269187 160.534316 201.531535 161.668288 199.513335 163.686489 
C 197.495134 165.70469 196.361161 168.442342 196.361161 171.296509 
C 196.361161 174.150676 197.495134 176.888328 199.513335 178.906529 
C 201.531535 180.92473 204.269187 182.058703 207.123355 182.058703 
z
" clip-path="url(#p3368524233)" style="fill: #fa3e00; stroke: #fa3e00"/>
    <path d="M 234.034091 265.670171 
C 236.426326 265.670171 238.720903 264.719726 240.412469 263.02816 
C 242.104035 261.336594 243.05448 259.042017 243.05448 256.649782 
C 243.05448 254.257547 242.104035 251.962969 240.412469 250.271404 
C 238.720903 248.579838 236.426326 247.629393 234.034091 247.629393 
C 231.641856 247.629393 229.347278 248.579838 227.655713 250.271404 
C 225.964147 251.962969 225.013702 254.257547 225.013702 256.649782 
C 225.013702 259.042017 225.964147 261.336594 227.655713 263.02816 
C 229.347278 264.719726 231.641856 265.670171 234.034091 265.670171 
z
" clip-path="url(#p3368524233)" style="fill: #fa3e00; stroke: #fa3e00"/>
    <path d="M 239.159945 257.95511 
C 241.015186 257.95511 242.79469 257.218015 244.106544 255.906162 
C 245.418397 254.594309 246.155492 252.814804 246.155492 250.959564 
C 246.155492 249.104323 245.418397 247.324819 244.106544 246.012966 
C 242.79469 244.701112 241.015186 243.964017 239.159945 243.964017 
C 237.304705 243.964017 235.5252 244.701112 234.213347 246.012966 
C 232.901494 247.324819 232.164399 249.104323 232.164399 250.959564 
C 232.164399 252.814804 232.901494 254.594309 234.213347 255.906162 
C 235.5252 257.218015 237.304705 257.95511 239.159945 257.95511 
z
" clip-path="url(#p3368524233)" style="fill: #fa3e00; stroke: #fa3e00"/>
    <path d="M 246.421573 304.950489 
C 248.087216 304.950489 249.684864 304.288722 250.862652 303.110934 
C 252.04044 301.933146 252.702207 300.335498 252.702207 298.669855 
C 252.702207 297.004211 252.04044 295.406563 250.862652 294.228775 
C 249.684864 293.050988 248.087216 292.38922 246.421573 292.38922 
C 244.755929 292.38922 243.158282 293.050988 241.980494 294.228775 
C 240.802706 295.406563 240.140938 297.004211 240.140938 298.669855 
C 240.140938 300.335498 240.802706 301.933146 241.980494 303.110934 
C 243.158282 304.288722 244.755929 304.950489 246.421573 304.950489 
z
" clip-path="url(#p3368524233)" style="fill: #fa3e00; stroke: #fa3e00"/>
   </g>
   <g id="matplotlib.axis_1">
    <g id="xtick_1">
     <g id="line2d_1">
      <defs>
       <path id="mee359b6b7e" d="M 0 0 
L 0 3.5 
" style="stroke: #000000; stroke-width: 0.8"/>
      </defs>
      <g>
       <use xlink:href="#mee359b6b7e" x="105.887727" y="503.08" style="stroke: #000000; stroke-width: 0.8"/>
      </g>
     </g>
     <g id="text_1">
      <!-- 0.0 -->
      <g transform="translate(89.984602 525.276875) scale(0.2 -0.2)">
       <defs>
        <path id="DejaVuSans-30" d="M 2034 4250 
Q 1547 4250 1301 3770 
Q 1056 3291 1056 2328 
Q 1056 1369 1301 889 
Q 1547 409 2034 409 
Q 2525 409 2770 889 
Q 3016 1369 3016 2328 
Q 3016 3291 2770 3770 
Q 2525 4250 2034 4250 
z
M 2034 4750 
Q 2819 4750 3233 4129 
Q 3647 3509 3647 2328 
Q 3647 1150 3233 529 
Q 2819 -91 2034 -91 
Q 1250 -91 836 529 
Q 422 1150 422 2328 
Q 422 3509 836 4129 
Q 1250 4750 2034 4750 
z
" transform="scale(0.015625)"/>
        <path id="DejaVuSans-2e" d="M 684 794 
L 1344 794 
L 1344 0 
L 684 0 
L 684 794 
z
" transform="scale(0.015625)"/>
       </defs>
       <use xlink:href="#DejaVuSans-30"/>
       <use xlink:href="#DejaVuSans-2e" x="63.623047"/>
       <use xlink:href="#DejaVuSans-30" x="95.410156"/>
      </g>
     </g>
    </g>
    <g id="xtick_2">
     <g id="line2d_2">
      <g>
       <use xlink:href="#mee359b6b7e" x="191.318636" y="503.08" style="stroke: #000000; stroke-width: 0.8"/>
      </g>
     </g>
     <g id="text_2">
      <!-- 0.2 -->
      <g transform="translate(175.415511 525.276875) scale(0.2 -0.2)">
       <defs>
        <path id="DejaVuSans-32" d="M 1228 531 
L 3431 531 
L 3431 0 
L 469 0 
L 469 531 
Q 828 903 1448 1529 
Q 2069 2156 2228 2338 
Q 2531 2678 2651 2914 
Q 2772 3150 2772 3378 
Q 2772 3750 2511 3984 
Q 2250 4219 1831 4219 
Q 1534 4219 1204 4116 
Q 875 4013 500 3803 
L 500 4441 
Q 881 4594 1212 4672 
Q 1544 4750 1819 4750 
Q 2544 4750 2975 4387 
Q 3406 4025 3406 3419 
Q 3406 3131 3298 2873 
Q 3191 2616 2906 2266 
Q 2828 2175 2409 1742 
Q 1991 1309 1228 531 
z
" transform="scale(0.015625)"/>
       </defs>
       <use xlink:href="#DejaVuSans-30"/>
       <use xlink:href="#DejaVuSans-2e" x="63.623047"/>
       <use xlink:href="#DejaVuSans-32" x="95.410156"/>
      </g>
     </g>
    </g>
    <g id="xtick_3">
     <g id="line2d_3">
      <g>
       <use xlink:href="#mee359b6b7e" x="276.749545" y="503.08" style="stroke: #000000; stroke-width: 0.8"/>
      </g>
     </g>
     <g id="text_3">
      <!-- 0.4 -->
      <g transform="translate(260.84642 525.276875) scale(0.2 -0.2)">
       <defs>
        <path id="DejaVuSans-34" d="M 2419 4116 
L 825 1625 
L 2419 1625 
L 2419 4116 
z
M 2253 4666 
L 3047 4666 
L 3047 1625 
L 3713 1625 
L 3713 1100 
L 3047 1100 
L 3047 0 
L 2419 0 
L 2419 1100 
L 313 1100 
L 313 1709 
L 2253 4666 
z
" transform="scale(0.015625)"/>
       </defs>
       <use xlink:href="#DejaVuSans-30"/>
       <use xlink:href="#DejaVuSans-2e" x="63.623047"/>
       <use xlink:href="#DejaVuSans-34" x="95.410156"/>
      </g>
     </g>
    </g>
    <g id="xtick_4">
     <g id="line2d_4">
      <g>
       <use xlink:href="#mee359b6b7e" x="362.180455" y="503.08" style="stroke: #000000; stroke-width: 0.8"/>
      </g>
     </g>
     <g id="text_4">
      <!-- 0.6 -->
      <g transform="translate(346.27733 525.276875) scale(0.2 -0.2)">
       <defs>
        <path id="DejaVuSans-36" d="M 2113 2584 
Q 1688 2584 1439 2293 
Q 1191 2003 1191 1497 
Q 1191 994 1439 701 
Q 1688 409 2113 409 
Q 2538 409 2786 701 
Q 3034 994 3034 1497 
Q 3034 2003 2786 2293 
Q 2538 2584 2113 2584 
z
M 3366 4563 
L 3366 3988 
Q 3128 4100 2886 4159 
Q 2644 4219 2406 4219 
Q 1781 4219 1451 3797 
Q 1122 3375 1075 2522 
Q 1259 2794 1537 2939 
Q 1816 3084 2150 3084 
Q 2853 3084 3261 2657 
Q 3669 2231 3669 1497 
Q 3669 778 3244 343 
Q 2819 -91 2113 -91 
Q 1303 -91 875 529 
Q 447 1150 447 2328 
Q 447 3434 972 4092 
Q 1497 4750 2381 4750 
Q 2619 4750 2861 4703 
Q 3103 4656 3366 4563 
z
" transform="scale(0.015625)"/>
       </defs>
       <use xlink:href="#DejaVuSans-30"/>
       <use xlink:href="#DejaVuSans-2e" x="63.623047"/>
       <use xlink:href="#DejaVuSans-36" x="95.410156"/>
      </g>
     </g>
    </g>
    <g id="xtick_5">
     <g id="line2d_5">
      <g>
       <use xlink:href="#mee359b6b7e" x="447.611364" y="503.08" style="stroke: #000000; stroke-width: 0.8"/>
      </g>
     </g>
     <g id="text_5">
      <!-- 0.8 -->
      <g transform="translate(431.708239 525.276875) scale(0.2 -0.2)">
       <defs>
        <path id="DejaVuSans-38" d="M 2034 2216 
Q 1584 2216 1326 1975 
Q 1069 1734 1069 1313 
Q 1069 891 1326 650 
Q 1584 409 2034 409 
Q 2484 409 2743 651 
Q 3003 894 3003 1313 
Q 3003 1734 2745 1975 
Q 2488 2216 2034 2216 
z
M 1403 2484 
Q 997 2584 770 2862 
Q 544 3141 544 3541 
Q 544 4100 942 4425 
Q 1341 4750 2034 4750 
Q 2731 4750 3128 4425 
Q 3525 4100 3525 3541 
Q 3525 3141 3298 2862 
Q 3072 2584 2669 2484 
Q 3125 2378 3379 2068 
Q 3634 1759 3634 1313 
Q 3634 634 3220 271 
Q 2806 -91 2034 -91 
Q 1263 -91 848 271 
Q 434 634 434 1313 
Q 434 1759 690 2068 
Q 947 2378 1403 2484 
z
M 1172 3481 
Q 1172 3119 1398 2916 
Q 1625 2713 2034 2713 
Q 2441 2713 2670 2916 
Q 2900 3119 2900 3481 
Q 2900 3844 2670 4047 
Q 2441 4250 2034 4250 
Q 1625 4250 1398 4047 
Q 1172 3844 1172 3481 
z
" transform="scale(0.015625)"/>
       </defs>
       <use xlink:href="#DejaVuSans-30"/>
       <use xlink:href="#DejaVuSans-2e" x="63.623047"/>
       <use xlink:href="#DejaVuSans-38" x="95.410156"/>
      </g>
     </g>
    </g>
    <g id="xtick_6">
     <g id="line2d_6">
      <g>
       <use xlink:href="#mee359b6b7e" x="533.042273" y="503.08" style="stroke: #000000; stroke-width: 0.8"/>
      </g>
     </g>
     <g id="text_6">
      <!-- 1.0 -->
      <g transform="translate(517.139148 525.276875) scale(0.2 -0.2)">
       <defs>
        <path id="DejaVuSans-31" d="M 794 531 
L 1825 531 
L 1825 4091 
L 703 3866 
L 703 4441 
L 1819 4666 
L 2450 4666 
L 2450 531 
L 3481 531 
L 3481 0 
L 794 0 
L 794 531 
z
" transform="scale(0.015625)"/>
       </defs>
       <use xlink:href="#DejaVuSans-31"/>
       <use xlink:href="#DejaVuSans-2e" x="63.623047"/>
       <use xlink:href="#DejaVuSans-30" x="95.410156"/>
      </g>
     </g>
    </g>
    <g id="text_7">
     <!-- TM-Score to Adversary -->
     <g transform="translate(206.157188 548.633125) scale(0.2 -0.2)">
      <defs>
       <path id="DejaVuSans-54" d="M -19 4666 
L 3928 4666 
L 3928 4134 
L 2272 4134 
L 2272 0 
L 1638 0 
L 1638 4134 
L -19 4134 
L -19 4666 
z
" transform="scale(0.015625)"/>
       <path id="DejaVuSans-4d" d="M 628 4666 
L 1569 4666 
L 2759 1491 
L 3956 4666 
L 4897 4666 
L 4897 0 
L 4281 0 
L 4281 4097 
L 3078 897 
L 2444 897 
L 1241 4097 
L 1241 0 
L 628 0 
L 628 4666 
z
" transform="scale(0.015625)"/>
       <path id="DejaVuSans-2d" d="M 313 2009 
L 1997 2009 
L 1997 1497 
L 313 1497 
L 313 2009 
z
" transform="scale(0.015625)"/>
       <path id="DejaVuSans-53" d="M 3425 4513 
L 3425 3897 
Q 3066 4069 2747 4153 
Q 2428 4238 2131 4238 
Q 1616 4238 1336 4038 
Q 1056 3838 1056 3469 
Q 1056 3159 1242 3001 
Q 1428 2844 1947 2747 
L 2328 2669 
Q 3034 2534 3370 2195 
Q 3706 1856 3706 1288 
Q 3706 609 3251 259 
Q 2797 -91 1919 -91 
Q 1588 -91 1214 -16 
Q 841 59 441 206 
L 441 856 
Q 825 641 1194 531 
Q 1563 422 1919 422 
Q 2459 422 2753 634 
Q 3047 847 3047 1241 
Q 3047 1584 2836 1778 
Q 2625 1972 2144 2069 
L 1759 2144 
Q 1053 2284 737 2584 
Q 422 2884 422 3419 
Q 422 4038 858 4394 
Q 1294 4750 2059 4750 
Q 2388 4750 2728 4690 
Q 3069 4631 3425 4513 
z
" transform="scale(0.015625)"/>
       <path id="DejaVuSans-63" d="M 3122 3366 
L 3122 2828 
Q 2878 2963 2633 3030 
Q 2388 3097 2138 3097 
Q 1578 3097 1268 2742 
Q 959 2388 959 1747 
Q 959 1106 1268 751 
Q 1578 397 2138 397 
Q 2388 397 2633 464 
Q 2878 531 3122 666 
L 3122 134 
Q 2881 22 2623 -34 
Q 2366 -91 2075 -91 
Q 1284 -91 818 406 
Q 353 903 353 1747 
Q 353 2603 823 3093 
Q 1294 3584 2113 3584 
Q 2378 3584 2631 3529 
Q 2884 3475 3122 3366 
z
" transform="scale(0.015625)"/>
       <path id="DejaVuSans-6f" d="M 1959 3097 
Q 1497 3097 1228 2736 
Q 959 2375 959 1747 
Q 959 1119 1226 758 
Q 1494 397 1959 397 
Q 2419 397 2687 759 
Q 2956 1122 2956 1747 
Q 2956 2369 2687 2733 
Q 2419 3097 1959 3097 
z
M 1959 3584 
Q 2709 3584 3137 3096 
Q 3566 2609 3566 1747 
Q 3566 888 3137 398 
Q 2709 -91 1959 -91 
Q 1206 -91 779 398 
Q 353 888 353 1747 
Q 353 2609 779 3096 
Q 1206 3584 1959 3584 
z
" transform="scale(0.015625)"/>
       <path id="DejaVuSans-72" d="M 2631 2963 
Q 2534 3019 2420 3045 
Q 2306 3072 2169 3072 
Q 1681 3072 1420 2755 
Q 1159 2438 1159 1844 
L 1159 0 
L 581 0 
L 581 3500 
L 1159 3500 
L 1159 2956 
Q 1341 3275 1631 3429 
Q 1922 3584 2338 3584 
Q 2397 3584 2469 3576 
Q 2541 3569 2628 3553 
L 2631 2963 
z
" transform="scale(0.015625)"/>
       <path id="DejaVuSans-65" d="M 3597 1894 
L 3597 1613 
L 953 1613 
Q 991 1019 1311 708 
Q 1631 397 2203 397 
Q 2534 397 2845 478 
Q 3156 559 3463 722 
L 3463 178 
Q 3153 47 2828 -22 
Q 2503 -91 2169 -91 
Q 1331 -91 842 396 
Q 353 884 353 1716 
Q 353 2575 817 3079 
Q 1281 3584 2069 3584 
Q 2775 3584 3186 3129 
Q 3597 2675 3597 1894 
z
M 3022 2063 
Q 3016 2534 2758 2815 
Q 2500 3097 2075 3097 
Q 1594 3097 1305 2825 
Q 1016 2553 972 2059 
L 3022 2063 
z
" transform="scale(0.015625)"/>
       <path id="DejaVuSans-20" transform="scale(0.015625)"/>
       <path id="DejaVuSans-74" d="M 1172 4494 
L 1172 3500 
L 2356 3500 
L 2356 3053 
L 1172 3053 
L 1172 1153 
Q 1172 725 1289 603 
Q 1406 481 1766 481 
L 2356 481 
L 2356 0 
L 1766 0 
Q 1100 0 847 248 
Q 594 497 594 1153 
L 594 3053 
L 172 3053 
L 172 3500 
L 594 3500 
L 594 4494 
L 1172 4494 
z
" transform="scale(0.015625)"/>
       <path id="DejaVuSans-41" d="M 2188 4044 
L 1331 1722 
L 3047 1722 
L 2188 4044 
z
M 1831 4666 
L 2547 4666 
L 4325 0 
L 3669 0 
L 3244 1197 
L 1141 1197 
L 716 0 
L 50 0 
L 1831 4666 
z
" transform="scale(0.015625)"/>
       <path id="DejaVuSans-64" d="M 2906 2969 
L 2906 4863 
L 3481 4863 
L 3481 0 
L 2906 0 
L 2906 525 
Q 2725 213 2448 61 
Q 2172 -91 1784 -91 
Q 1150 -91 751 415 
Q 353 922 353 1747 
Q 353 2572 751 3078 
Q 1150 3584 1784 3584 
Q 2172 3584 2448 3432 
Q 2725 3281 2906 2969 
z
M 947 1747 
Q 947 1113 1208 752 
Q 1469 391 1925 391 
Q 2381 391 2643 752 
Q 2906 1113 2906 1747 
Q 2906 2381 2643 2742 
Q 2381 3103 1925 3103 
Q 1469 3103 1208 2742 
Q 947 2381 947 1747 
z
" transform="scale(0.015625)"/>
       <path id="DejaVuSans-76" d="M 191 3500 
L 800 3500 
L 1894 563 
L 2988 3500 
L 3597 3500 
L 2284 0 
L 1503 0 
L 191 3500 
z
" transform="scale(0.015625)"/>
       <path id="DejaVuSans-73" d="M 2834 3397 
L 2834 2853 
Q 2591 2978 2328 3040 
Q 2066 3103 1784 3103 
Q 1356 3103 1142 2972 
Q 928 2841 928 2578 
Q 928 2378 1081 2264 
Q 1234 2150 1697 2047 
L 1894 2003 
Q 2506 1872 2764 1633 
Q 3022 1394 3022 966 
Q 3022 478 2636 193 
Q 2250 -91 1575 -91 
Q 1294 -91 989 -36 
Q 684 19 347 128 
L 347 722 
Q 666 556 975 473 
Q 1284 391 1588 391 
Q 1994 391 2212 530 
Q 2431 669 2431 922 
Q 2431 1156 2273 1281 
Q 2116 1406 1581 1522 
L 1381 1569 
Q 847 1681 609 1914 
Q 372 2147 372 2553 
Q 372 3047 722 3315 
Q 1072 3584 1716 3584 
Q 2034 3584 2315 3537 
Q 2597 3491 2834 3397 
z
" transform="scale(0.015625)"/>
       <path id="DejaVuSans-61" d="M 2194 1759 
Q 1497 1759 1228 1600 
Q 959 1441 959 1056 
Q 959 750 1161 570 
Q 1363 391 1709 391 
Q 2188 391 2477 730 
Q 2766 1069 2766 1631 
L 2766 1759 
L 2194 1759 
z
M 3341 1997 
L 3341 0 
L 2766 0 
L 2766 531 
Q 2569 213 2275 61 
Q 1981 -91 1556 -91 
Q 1019 -91 701 211 
Q 384 513 384 1019 
Q 384 1609 779 1909 
Q 1175 2209 1959 2209 
L 2766 2209 
L 2766 2266 
Q 2766 2663 2505 2880 
Q 2244 3097 1772 3097 
Q 1472 3097 1187 3025 
Q 903 2953 641 2809 
L 641 3341 
Q 956 3463 1253 3523 
Q 1550 3584 1831 3584 
Q 2591 3584 2966 3190 
Q 3341 2797 3341 1997 
z
" transform="scale(0.015625)"/>
       <path id="DejaVuSans-79" d="M 2059 -325 
Q 1816 -950 1584 -1140 
Q 1353 -1331 966 -1331 
L 506 -1331 
L 506 -850 
L 844 -850 
Q 1081 -850 1212 -737 
Q 1344 -625 1503 -206 
L 1606 56 
L 191 3500 
L 800 3500 
L 1894 763 
L 2988 3500 
L 3597 3500 
L 2059 -325 
z
" transform="scale(0.015625)"/>
      </defs>
      <use xlink:href="#DejaVuSans-54"/>
      <use xlink:href="#DejaVuSans-4d" x="61.083984"/>
      <use xlink:href="#DejaVuSans-2d" x="147.363281"/>
      <use xlink:href="#DejaVuSans-53" x="183.447266"/>
      <use xlink:href="#DejaVuSans-63" x="246.923828"/>
      <use xlink:href="#DejaVuSans-6f" x="301.904297"/>
      <use xlink:href="#DejaVuSans-72" x="363.085938"/>
      <use xlink:href="#DejaVuSans-65" x="401.949219"/>
      <use xlink:href="#DejaVuSans-20" x="463.472656"/>
      <use xlink:href="#DejaVuSans-74" x="495.259766"/>
      <use xlink:href="#DejaVuSans-6f" x="534.46875"/>
      <use xlink:href="#DejaVuSans-20" x="595.650391"/>
      <use xlink:href="#DejaVuSans-41" x="627.4375"/>
      <use xlink:href="#DejaVuSans-64" x="694.095703"/>
      <use xlink:href="#DejaVuSans-76" x="757.572266"/>
      <use xlink:href="#DejaVuSans-65" x="816.751953"/>
      <use xlink:href="#DejaVuSans-72" x="878.275391"/>
      <use xlink:href="#DejaVuSans-73" x="919.388672"/>
      <use xlink:href="#DejaVuSans-61" x="971.488281"/>
      <use xlink:href="#DejaVuSans-72" x="1032.767578"/>
      <use xlink:href="#DejaVuSans-79" x="1073.880859"/>
     </g>
    </g>
   </g>
   <g id="matplotlib.axis_2">
    <g id="ytick_1">
     <g id="line2d_7">
      <defs>
       <path id="m048d332b06" d="M 0 0 
L -3.5 0 
" style="stroke: #000000; stroke-width: 0.8"/>
      </defs>
      <g>
       <use xlink:href="#m048d332b06" x="84.53" y="481.194545" style="stroke: #000000; stroke-width: 0.8"/>
      </g>
     </g>
     <g id="text_8">
      <!-- 0.0 -->
      <g transform="translate(45.72375 488.792983) scale(0.2 -0.2)">
       <use xlink:href="#DejaVuSans-30"/>
       <use xlink:href="#DejaVuSans-2e" x="63.623047"/>
       <use xlink:href="#DejaVuSans-30" x="95.410156"/>
      </g>
     </g>
    </g>
    <g id="ytick_2">
     <g id="line2d_8">
      <g>
       <use xlink:href="#m048d332b06" x="84.53" y="393.652727" style="stroke: #000000; stroke-width: 0.8"/>
      </g>
     </g>
     <g id="text_9">
      <!-- 0.2 -->
      <g transform="translate(45.72375 401.251165) scale(0.2 -0.2)">
       <use xlink:href="#DejaVuSans-30"/>
       <use xlink:href="#DejaVuSans-2e" x="63.623047"/>
       <use xlink:href="#DejaVuSans-32" x="95.410156"/>
      </g>
     </g>
    </g>
    <g id="ytick_3">
     <g id="line2d_9">
      <g>
       <use xlink:href="#m048d332b06" x="84.53" y="306.110909" style="stroke: #000000; stroke-width: 0.8"/>
      </g>
     </g>
     <g id="text_10">
      <!-- 0.4 -->
      <g transform="translate(45.72375 313.709347) scale(0.2 -0.2)">
       <use xlink:href="#DejaVuSans-30"/>
       <use xlink:href="#DejaVuSans-2e" x="63.623047"/>
       <use xlink:href="#DejaVuSans-34" x="95.410156"/>
      </g>
     </g>
    </g>
    <g id="ytick_4">
     <g id="line2d_10">
      <g>
       <use xlink:href="#m048d332b06" x="84.53" y="218.569091" style="stroke: #000000; stroke-width: 0.8"/>
      </g>
     </g>
     <g id="text_11">
      <!-- 0.6 -->
      <g transform="translate(45.72375 226.167528) scale(0.2 -0.2)">
       <use xlink:href="#DejaVuSans-30"/>
       <use xlink:href="#DejaVuSans-2e" x="63.623047"/>
       <use xlink:href="#DejaVuSans-36" x="95.410156"/>
      </g>
     </g>
    </g>
    <g id="ytick_5">
     <g id="line2d_11">
      <g>
       <use xlink:href="#m048d332b06" x="84.53" y="131.027273" style="stroke: #000000; stroke-width: 0.8"/>
      </g>
     </g>
     <g id="text_12">
      <!-- 0.8 -->
      <g transform="translate(45.72375 138.62571) scale(0.2 -0.2)">
       <use xlink:href="#DejaVuSans-30"/>
       <use xlink:href="#DejaVuSans-2e" x="63.623047"/>
       <use xlink:href="#DejaVuSans-38" x="95.410156"/>
      </g>
     </g>
    </g>
    <g id="ytick_6">
     <g id="line2d_12">
      <g>
       <use xlink:href="#m048d332b06" x="84.53" y="43.485455" style="stroke: #000000; stroke-width: 0.8"/>
      </g>
     </g>
     <g id="text_13">
      <!-- 1.0 -->
      <g transform="translate(45.72375 51.083892) scale(0.2 -0.2)">
       <use xlink:href="#DejaVuSans-31"/>
       <use xlink:href="#DejaVuSans-2e" x="63.623047"/>
       <use xlink:href="#DejaVuSans-30" x="95.410156"/>
      </g>
     </g>
    </g>
    <g id="text_14">
     <!-- TM-Score to Selected -->
     <g transform="translate(37.564375 368.436875) rotate(-90) scale(0.2 -0.2)">
      <defs>
       <path id="DejaVuSans-6c" d="M 603 4863 
L 1178 4863 
L 1178 0 
L 603 0 
L 603 4863 
z
" transform="scale(0.015625)"/>
      </defs>
      <use xlink:href="#DejaVuSans-54"/>
      <use xlink:href="#DejaVuSans-4d" x="61.083984"/>
      <use xlink:href="#DejaVuSans-2d" x="147.363281"/>
      <use xlink:href="#DejaVuSans-53" x="183.447266"/>
      <use xlink:href="#DejaVuSans-63" x="246.923828"/>
      <use xlink:href="#DejaVuSans-6f" x="301.904297"/>
      <use xlink:href="#DejaVuSans-72" x="363.085938"/>
      <use xlink:href="#DejaVuSans-65" x="401.949219"/>
      <use xlink:href="#DejaVuSans-20" x="463.472656"/>
      <use xlink:href="#DejaVuSans-74" x="495.259766"/>
      <use xlink:href="#DejaVuSans-6f" x="534.46875"/>
      <use xlink:href="#DejaVuSans-20" x="595.650391"/>
      <use xlink:href="#DejaVuSans-53" x="627.4375"/>
      <use xlink:href="#DejaVuSans-65" x="690.914062"/>
      <use xlink:href="#DejaVuSans-6c" x="752.4375"/>
      <use xlink:href="#DejaVuSans-65" x="780.220703"/>
      <use xlink:href="#DejaVuSans-63" x="841.744141"/>
      <use xlink:href="#DejaVuSans-74" x="896.724609"/>
      <use xlink:href="#DejaVuSans-65" x="935.933594"/>
      <use xlink:href="#DejaVuSans-64" x="997.457031"/>
     </g>
    </g>
   </g>
   <g id="line2d_13">
    <path d="M 319.465 481.194545 
L 319.465 43.485455 
" clip-path="url(#p3368524233)" style="fill: none; stroke-dasharray: 5.55,2.4; stroke-dashoffset: 0; stroke: #000000; stroke-width: 1.5"/>
   </g>
   <g id="line2d_14">
    <path d="M 105.887727 262.34 
L 533.042273 262.34 
" clip-path="url(#p3368524233)" style="fill: none; stroke-dasharray: 5.55,2.4; stroke-dashoffset: 0; stroke: #000000; stroke-width: 1.5"/>
   </g>
   <g id="patch_3">
    <path d="M 84.53 503.08 
L 84.53 21.6 
" style="fill: none; stroke: #000000; stroke-width: 3; stroke-linejoin: miter; stroke-linecap: square"/>
   </g>
   <g id="patch_4">
    <path d="M 84.53 503.08 
L 554.4 503.08 
" style="fill: none; stroke: #000000; stroke-width: 3; stroke-linejoin: miter; stroke-linecap: square"/>
   </g>
   <g id="legend_1">
    <g id="patch_5">
     <path d="M 354.621875 155.025 
L 540.4 155.025 
Q 544.4 155.025 544.4 151.025 
L 544.4 35.6 
Q 544.4 31.6 540.4 31.6 
L 354.621875 31.6 
Q 350.621875 31.6 350.621875 35.6 
L 350.621875 151.025 
Q 350.621875 155.025 354.621875 155.025 
z
" style="fill: #ffffff; opacity: 0.8; stroke: #cccccc; stroke-linejoin: miter"/>
    </g>
    <g id="patch_6">
     <path d="M 358.621875 54.796875 
L 398.621875 54.796875 
L 398.621875 40.796875 
L 358.621875 40.796875 
z
" style="fill: #fa3e00"/>
    </g>
    <g id="text_15">
     <!-- Fast folding -->
     <g transform="translate(414.621875 54.796875) scale(0.2 -0.2)">
      <defs>
       <path id="DejaVuSans-46" d="M 628 4666 
L 3309 4666 
L 3309 4134 
L 1259 4134 
L 1259 2759 
L 3109 2759 
L 3109 2228 
L 1259 2228 
L 1259 0 
L 628 0 
L 628 4666 
z
" transform="scale(0.015625)"/>
       <path id="DejaVuSans-66" d="M 2375 4863 
L 2375 4384 
L 1825 4384 
Q 1516 4384 1395 4259 
Q 1275 4134 1275 3809 
L 1275 3500 
L 2222 3500 
L 2222 3053 
L 1275 3053 
L 1275 0 
L 697 0 
L 697 3053 
L 147 3053 
L 147 3500 
L 697 3500 
L 697 3744 
Q 697 4328 969 4595 
Q 1241 4863 1831 4863 
L 2375 4863 
z
" transform="scale(0.015625)"/>
       <path id="DejaVuSans-69" d="M 603 3500 
L 1178 3500 
L 1178 0 
L 603 0 
L 603 3500 
z
M 603 4863 
L 1178 4863 
L 1178 4134 
L 603 4134 
L 603 4863 
z
" transform="scale(0.015625)"/>
       <path id="DejaVuSans-6e" d="M 3513 2113 
L 3513 0 
L 2938 0 
L 2938 2094 
Q 2938 2591 2744 2837 
Q 2550 3084 2163 3084 
Q 1697 3084 1428 2787 
Q 1159 2491 1159 1978 
L 1159 0 
L 581 0 
L 581 3500 
L 1159 3500 
L 1159 2956 
Q 1366 3272 1645 3428 
Q 1925 3584 2291 3584 
Q 2894 3584 3203 3211 
Q 3513 2838 3513 2113 
z
" transform="scale(0.015625)"/>
       <path id="DejaVuSans-67" d="M 2906 1791 
Q 2906 2416 2648 2759 
Q 2391 3103 1925 3103 
Q 1463 3103 1205 2759 
Q 947 2416 947 1791 
Q 947 1169 1205 825 
Q 1463 481 1925 481 
Q 2391 481 2648 825 
Q 2906 1169 2906 1791 
z
M 3481 434 
Q 3481 -459 3084 -895 
Q 2688 -1331 1869 -1331 
Q 1566 -1331 1297 -1286 
Q 1028 -1241 775 -1147 
L 775 -588 
Q 1028 -725 1275 -790 
Q 1522 -856 1778 -856 
Q 2344 -856 2625 -561 
Q 2906 -266 2906 331 
L 2906 616 
Q 2728 306 2450 153 
Q 2172 0 1784 0 
Q 1141 0 747 490 
Q 353 981 353 1791 
Q 353 2603 747 3093 
Q 1141 3584 1784 3584 
Q 2172 3584 2450 3431 
Q 2728 3278 2906 2969 
L 2906 3500 
L 3481 3500 
L 3481 434 
z
" transform="scale(0.015625)"/>
      </defs>
      <use xlink:href="#DejaVuSans-46"/>
      <use xlink:href="#DejaVuSans-61" x="48.394531"/>
      <use xlink:href="#DejaVuSans-73" x="109.673828"/>
      <use xlink:href="#DejaVuSans-74" x="161.773438"/>
      <use xlink:href="#DejaVuSans-20" x="200.982422"/>
      <use xlink:href="#DejaVuSans-66" x="232.769531"/>
      <use xlink:href="#DejaVuSans-6f" x="267.974609"/>
      <use xlink:href="#DejaVuSans-6c" x="329.15625"/>
      <use xlink:href="#DejaVuSans-64" x="356.939453"/>
      <use xlink:href="#DejaVuSans-69" x="420.416016"/>
      <use xlink:href="#DejaVuSans-6e" x="448.199219"/>
      <use xlink:href="#DejaVuSans-67" x="511.578125"/>
     </g>
    </g>
    <g id="patch_7">
     <path d="M 358.621875 84.153125 
L 398.621875 84.153125 
L 398.621875 70.153125 
L 358.621875 70.153125 
z
" style="fill: #f9a11c"/>
    </g>
    <g id="text_16">
     <!-- Diverse -->
     <g transform="translate(414.621875 84.153125) scale(0.2 -0.2)">
      <defs>
       <path id="DejaVuSans-44" d="M 1259 4147 
L 1259 519 
L 2022 519 
Q 2988 519 3436 956 
Q 3884 1394 3884 2338 
Q 3884 3275 3436 3711 
Q 2988 4147 2022 4147 
L 1259 4147 
z
M 628 4666 
L 1925 4666 
Q 3281 4666 3915 4102 
Q 4550 3538 4550 2338 
Q 4550 1131 3912 565 
Q 3275 0 1925 0 
L 628 0 
L 628 4666 
z
" transform="scale(0.015625)"/>
      </defs>
      <use xlink:href="#DejaVuSans-44"/>
      <use xlink:href="#DejaVuSans-69" x="77.001953"/>
      <use xlink:href="#DejaVuSans-76" x="104.785156"/>
      <use xlink:href="#DejaVuSans-65" x="163.964844"/>
      <use xlink:href="#DejaVuSans-72" x="225.488281"/>
      <use xlink:href="#DejaVuSans-73" x="266.601562"/>
      <use xlink:href="#DejaVuSans-65" x="318.701172"/>
     </g>
    </g>
    <g id="line2d_15">
     <defs>
      <path id="mb2df5289c1" d="M 0 4.472136 
C 1.186024 4.472136 2.323632 4.000923 3.162278 3.162278 
C 4.000923 2.323632 4.472136 1.186024 4.472136 0 
C 4.472136 -1.186024 4.000923 -2.323632 3.162278 -3.162278 
C 2.323632 -4.000923 1.186024 -4.472136 0 -4.472136 
C -1.186024 -4.472136 -2.323632 -4.000923 -3.162278 -3.162278 
C -4.000923 -2.323632 -4.472136 -1.186024 -4.472136 0 
C -4.472136 1.186024 -4.000923 2.323632 -3.162278 3.162278 
C -2.323632 4.000923 -1.186024 4.472136 0 4.472136 
z
" style="stroke: #000000"/>
     </defs>
     <g>
      <use xlink:href="#mb2df5289c1" x="378.621875" y="106.509375" style="stroke: #000000"/>
     </g>
    </g>
    <g id="text_17">
     <!-- pLDDT = 50 -->
     <g transform="translate(414.621875 113.509375) scale(0.2 -0.2)">
      <defs>
       <path id="DejaVuSans-70" d="M 1159 525 
L 1159 -1331 
L 581 -1331 
L 581 3500 
L 1159 3500 
L 1159 2969 
Q 1341 3281 1617 3432 
Q 1894 3584 2278 3584 
Q 2916 3584 3314 3078 
Q 3713 2572 3713 1747 
Q 3713 922 3314 415 
Q 2916 -91 2278 -91 
Q 1894 -91 1617 61 
Q 1341 213 1159 525 
z
M 3116 1747 
Q 3116 2381 2855 2742 
Q 2594 3103 2138 3103 
Q 1681 3103 1420 2742 
Q 1159 2381 1159 1747 
Q 1159 1113 1420 752 
Q 1681 391 2138 391 
Q 2594 391 2855 752 
Q 3116 1113 3116 1747 
z
" transform="scale(0.015625)"/>
       <path id="DejaVuSans-4c" d="M 628 4666 
L 1259 4666 
L 1259 531 
L 3531 531 
L 3531 0 
L 628 0 
L 628 4666 
z
" transform="scale(0.015625)"/>
       <path id="DejaVuSans-3d" d="M 678 2906 
L 4684 2906 
L 4684 2381 
L 678 2381 
L 678 2906 
z
M 678 1631 
L 4684 1631 
L 4684 1100 
L 678 1100 
L 678 1631 
z
" transform="scale(0.015625)"/>
       <path id="DejaVuSans-35" d="M 691 4666 
L 3169 4666 
L 3169 4134 
L 1269 4134 
L 1269 2991 
Q 1406 3038 1543 3061 
Q 1681 3084 1819 3084 
Q 2600 3084 3056 2656 
Q 3513 2228 3513 1497 
Q 3513 744 3044 326 
Q 2575 -91 1722 -91 
Q 1428 -91 1123 -41 
Q 819 9 494 109 
L 494 744 
Q 775 591 1075 516 
Q 1375 441 1709 441 
Q 2250 441 2565 725 
Q 2881 1009 2881 1497 
Q 2881 1984 2565 2268 
Q 2250 2553 1709 2553 
Q 1456 2553 1204 2497 
Q 953 2441 691 2322 
L 691 4666 
z
" transform="scale(0.015625)"/>
      </defs>
      <use xlink:href="#DejaVuSans-70"/>
      <use xlink:href="#DejaVuSans-4c" x="63.476562"/>
      <use xlink:href="#DejaVuSans-44" x="119.189453"/>
      <use xlink:href="#DejaVuSans-44" x="196.191406"/>
      <use xlink:href="#DejaVuSans-54" x="273.193359"/>
      <use xlink:href="#DejaVuSans-20" x="334.277344"/>
      <use xlink:href="#DejaVuSans-3d" x="366.064453"/>
      <use xlink:href="#DejaVuSans-20" x="449.853516"/>
      <use xlink:href="#DejaVuSans-35" x="481.640625"/>
      <use xlink:href="#DejaVuSans-30" x="545.263672"/>
     </g>
    </g>
    <g id="line2d_16">
     <defs>
      <path id="mc19e958f78" d="M 0 10 
C 2.652031 10 5.195799 8.946337 7.071068 7.071068 
C 8.946337 5.195799 10 2.652031 10 0 
C 10 -2.652031 8.946337 -5.195799 7.071068 -7.071068 
C 5.195799 -8.946337 2.652031 -10 0 -10 
C -2.652031 -10 -5.195799 -8.946337 -7.071068 -7.071068 
C -8.946337 -5.195799 -10 -2.652031 -10 0 
C -10 2.652031 -8.946337 5.195799 -7.071068 7.071068 
C -5.195799 8.946337 -2.652031 10 0 10 
z
" style="stroke: #000000"/>
     </defs>
     <g>
      <use xlink:href="#mc19e958f78" x="378.621875" y="135.865625" style="stroke: #000000"/>
     </g>
    </g>
    <g id="text_18">
     <!-- pLDDT = 80 -->
     <g transform="translate(414.621875 142.865625) scale(0.2 -0.2)">
      <use xlink:href="#DejaVuSans-70"/>
      <use xlink:href="#DejaVuSans-4c" x="63.476562"/>
      <use xlink:href="#DejaVuSans-44" x="119.189453"/>
      <use xlink:href="#DejaVuSans-44" x="196.191406"/>
      <use xlink:href="#DejaVuSans-54" x="273.193359"/>
      <use xlink:href="#DejaVuSans-20" x="334.277344"/>
      <use xlink:href="#DejaVuSans-3d" x="366.064453"/>
      <use xlink:href="#DejaVuSans-20" x="449.853516"/>
      <use xlink:href="#DejaVuSans-38" x="481.640625"/>
      <use xlink:href="#DejaVuSans-30" x="545.263672"/>
     </g>
    </g>
   </g>
  </g>
 </g>
 <defs>
  <clipPath id="p3368524233">
   <rect x="84.53" y="21.6" width="469.87" height="481.48"/>
  </clipPath>
 </defs>
</svg>
