<?xml version="1.0" encoding="utf-8" standalone="no"?>
<!DOCTYPE svg PUBLIC "-//W3C//DTD SVG 1.1//EN"
  "http://www.w3.org/Graphics/SVG/1.1/DTD/svg11.dtd">
<svg xmlns:xlink="http://www.w3.org/1999/xlink" width="864pt" height="576pt" viewBox="0 0 864 576" xmlns="http://www.w3.org/2000/svg" version="1.1">
 <metadata>
  <rdf:RDF xmlns:dc="http://purl.org/dc/elements/1.1/" xmlns:cc="http://creativecommons.org/ns#" xmlns:rdf="http://www.w3.org/1999/02/22-rdf-syntax-ns#">
   <cc:Work>
    <dc:type rdf:resource="http://purl.org/dc/dcmitype/StillImage"/>
    <dc:date>2025-11-07T09:51:21.570868</dc:date>
    <dc:format>image/svg+xml</dc:format>
    <dc:creator>
     <cc:Agent>
      <dc:title>Matplotlib v3.9.2, https://matplotlib.org/</dc:title>
     </cc:Agent>
    </dc:creator>
   </cc:Work>
  </rdf:RDF>
 </metadata>
 <defs>
  <style type="text/css">*{stroke-linejoin: round; stroke-linecap: butt}</style>
 </defs>
 <g id="figure_1">
  <g id="patch_1">
   <path d="M 0 576 
L 864 576 
L 864 0 
L 0 0 
L 0 576 
z
" style="fill: none"/>
  </g>
  <g id="axes_1">
   <g id="patch_2">
    <path d="M 84.53 379.350663 
L 842.4 379.350663 
L 842.4 46.32 
L 84.53 46.32 
L 84.53 379.350663 
z
" style="fill: none"/>
   </g>
   <g id="PolyCollection_1">
    <defs>
     <path id="mcfdd8897ef" d="M 179.26375 -212.465158 
L 174.142503 -212.465158 
L 173.341167 -215.513017 
L 172.454693 -218.560876 
L 171.480795 -221.608735 
L 170.418137 -224.656594 
L 169.266429 -227.704454 
L 168.026514 -230.752313 
L 166.700454 -233.800172 
L 165.291622 -236.848031 
L 163.804806 -239.89589 
L 162.246333 -242.943749 
L 160.624202 -245.991608 
L 158.94823 -249.039467 
L 157.230189 -252.087327 
L 155.483915 -255.135186 
L 153.725353 -258.183045 
L 151.972525 -261.230904 
L 150.245362 -264.278763 
L 148.565398 -267.326622 
L 146.955293 -270.374481 
L 145.438186 -273.42234 
L 144.036892 -276.470199 
L 142.772973 -279.518059 
L 141.665732 -282.565918 
L 140.731204 -285.613777 
L 139.98121 -288.661636 
L 139.422561 -291.709495 
L 139.056498 -294.757354 
L 138.878411 -297.805213 
L 138.877903 -300.853072 
L 139.039203 -303.900932 
L 139.341923 -306.948791 
L 139.762114 -309.99665 
L 140.273548 -313.044509 
L 140.849145 -316.092368 
L 141.462428 -319.140227 
L 142.088914 -322.188086 
L 142.707322 -325.235945 
L 143.300535 -328.283805 
L 143.856231 -331.331664 
L 144.36718 -334.379523 
L 144.831166 -337.427382 
L 145.250597 -340.475241 
L 145.631823 -343.5231 
L 145.984243 -346.570959 
L 146.319281 -349.618818 
L 146.649303 -352.666678 
L 146.986569 -355.714537 
L 147.34227 -358.762396 
L 147.725733 -361.810255 
L 148.143809 -364.858114 
L 148.600483 -367.905973 
L 149.096712 -370.953832 
L 149.630466 -374.001691 
L 150.196974 -377.049551 
L 150.789121 -380.09741 
L 151.397964 -383.145269 
L 152.013327 -386.193128 
L 152.624431 -389.240987 
L 153.220503 -392.288846 
L 153.791357 -395.336705 
L 154.32789 -398.384564 
L 154.822485 -401.432424 
L 155.269315 -404.480283 
L 155.664524 -407.528142 
L 156.006302 -410.576001 
L 156.294866 -413.62386 
L 156.532336 -416.671719 
L 156.722557 -419.719578 
L 156.87085 -422.767437 
L 156.983732 -425.815297 
L 157.068623 -428.863156 
L 157.133536 -431.911015 
L 157.186801 -434.958874 
L 157.236797 -438.006733 
L 157.291733 -441.054592 
L 157.359474 -444.102451 
L 157.447409 -447.15031 
L 157.56237 -450.19817 
L 157.710589 -453.246029 
L 157.897694 -456.293888 
L 158.12871 -459.341747 
L 158.40808 -462.389606 
L 158.739658 -465.437465 
L 159.126695 -468.485324 
L 159.57178 -471.533183 
L 160.076756 -474.581042 
L 160.642597 -477.628902 
L 161.269263 -480.676761 
L 161.955554 -483.72462 
L 162.698965 -486.772479 
L 163.495585 -489.820338 
L 164.340042 -492.868197 
L 165.225517 -495.916056 
L 166.143845 -498.963915 
L 167.08569 -502.011775 
L 168.040807 -505.059634 
L 168.998369 -508.107493 
L 169.947336 -511.155352 
L 170.876855 -514.203211 
L 179.26375 -514.203211 
L 179.26375 -514.203211 
L 179.26375 -511.155352 
L 179.26375 -508.107493 
L 179.26375 -505.059634 
L 179.26375 -502.011775 
L 179.26375 -498.963915 
L 179.26375 -495.916056 
L 179.26375 -492.868197 
L 179.26375 -489.820338 
L 179.26375 -486.772479 
L 179.26375 -483.72462 
L 179.26375 -480.676761 
L 179.26375 -477.628902 
L 179.26375 -474.581042 
L 179.26375 -471.533183 
L 179.26375 -468.485324 
L 179.26375 -465.437465 
L 179.26375 -462.389606 
L 179.26375 -459.341747 
L 179.26375 -456.293888 
L 179.26375 -453.246029 
L 179.26375 -450.19817 
L 179.26375 -447.15031 
L 179.26375 -444.102451 
L 179.26375 -441.054592 
L 179.26375 -438.006733 
L 179.26375 -434.958874 
L 179.26375 -431.911015 
L 179.26375 -428.863156 
L 179.26375 -425.815297 
L 179.26375 -422.767437 
L 179.26375 -419.719578 
L 179.26375 -416.671719 
L 179.26375 -413.62386 
L 179.26375 -410.576001 
L 179.26375 -407.528142 
L 179.26375 -404.480283 
L 179.26375 -401.432424 
L 179.26375 -398.384564 
L 179.26375 -395.336705 
L 179.26375 -392.288846 
L 179.26375 -389.240987 
L 179.26375 -386.193128 
L 179.26375 -383.145269 
L 179.26375 -380.09741 
L 179.26375 -377.049551 
L 179.26375 -374.001691 
L 179.26375 -370.953832 
L 179.26375 -367.905973 
L 179.26375 -364.858114 
L 179.26375 -361.810255 
L 179.26375 -358.762396 
L 179.26375 -355.714537 
L 179.26375 -352.666678 
L 179.26375 -349.618818 
L 179.26375 -346.570959 
L 179.26375 -343.5231 
L 179.26375 -340.475241 
L 179.26375 -337.427382 
L 179.26375 -334.379523 
L 179.26375 -331.331664 
L 179.26375 -328.283805 
L 179.26375 -325.235945 
L 179.26375 -322.188086 
L 179.26375 -319.140227 
L 179.26375 -316.092368 
L 179.26375 -313.044509 
L 179.26375 -309.99665 
L 179.26375 -306.948791 
L 179.26375 -303.900932 
L 179.26375 -300.853072 
L 179.26375 -297.805213 
L 179.26375 -294.757354 
L 179.26375 -291.709495 
L 179.26375 -288.661636 
L 179.26375 -285.613777 
L 179.26375 -282.565918 
L 179.26375 -279.518059 
L 179.26375 -276.470199 
L 179.26375 -273.42234 
L 179.26375 -270.374481 
L 179.26375 -267.326622 
L 179.26375 -264.278763 
L 179.26375 -261.230904 
L 179.26375 -258.183045 
L 179.26375 -255.135186 
L 179.26375 -252.087327 
L 179.26375 -249.039467 
L 179.26375 -245.991608 
L 179.26375 -242.943749 
L 179.26375 -239.89589 
L 179.26375 -236.848031 
L 179.26375 -233.800172 
L 179.26375 -230.752313 
L 179.26375 -227.704454 
L 179.26375 -224.656594 
L 179.26375 -221.608735 
L 179.26375 -218.560876 
L 179.26375 -215.513017 
L 179.26375 -212.465158 
z
" style="stroke: #1e1e1e; stroke-width: 3"/>
    </defs>
    <g clip-path="url(#p6d2c72acaa)">
     <use xlink:href="#mcfdd8897ef" x="0" y="576" style="fill: #0c580c; stroke: #1e1e1e; stroke-width: 3"/>
    </g>
   </g>
   <g id="PolyCollection_2">
    <defs>
     <path id="mcaaf0be6d1" d="M 183.418726 -212.126126 
L 179.26375 -212.126126 
L 179.26375 -215.167136 
L 179.26375 -218.208146 
L 179.26375 -221.249156 
L 179.26375 -224.290166 
L 179.26375 -227.331176 
L 179.26375 -230.372186 
L 179.26375 -233.413196 
L 179.26375 -236.454206 
L 179.26375 -239.495216 
L 179.26375 -242.536226 
L 179.26375 -245.577236 
L 179.26375 -248.618246 
L 179.26375 -251.659256 
L 179.26375 -254.700266 
L 179.26375 -257.741276 
L 179.26375 -260.782286 
L 179.26375 -263.823296 
L 179.26375 -266.864306 
L 179.26375 -269.905316 
L 179.26375 -272.946326 
L 179.26375 -275.987336 
L 179.26375 -279.028346 
L 179.26375 -282.069356 
L 179.26375 -285.110366 
L 179.26375 -288.151376 
L 179.26375 -291.192386 
L 179.26375 -294.233396 
L 179.26375 -297.274406 
L 179.26375 -300.315416 
L 179.26375 -303.356426 
L 179.26375 -306.397436 
L 179.26375 -309.438446 
L 179.26375 -312.479456 
L 179.26375 -315.520466 
L 179.26375 -318.561476 
L 179.26375 -321.602486 
L 179.26375 -324.643496 
L 179.26375 -327.684506 
L 179.26375 -330.725516 
L 179.26375 -333.766526 
L 179.26375 -336.807536 
L 179.26375 -339.848546 
L 179.26375 -342.889556 
L 179.26375 -345.930566 
L 179.26375 -348.971576 
L 179.26375 -352.012586 
L 179.26375 -355.053596 
L 179.26375 -358.094606 
L 179.26375 -361.135616 
L 179.26375 -364.176626 
L 179.26375 -367.217636 
L 179.26375 -370.258646 
L 179.26375 -373.299656 
L 179.26375 -376.340666 
L 179.26375 -379.381676 
L 179.26375 -382.422686 
L 179.26375 -385.463696 
L 179.26375 -388.504706 
L 179.26375 -391.545716 
L 179.26375 -394.586726 
L 179.26375 -397.627736 
L 179.26375 -400.668746 
L 179.26375 -403.709756 
L 179.26375 -406.750766 
L 179.26375 -409.791776 
L 179.26375 -412.832786 
L 179.26375 -415.873796 
L 179.26375 -418.914806 
L 179.26375 -421.955816 
L 179.26375 -424.996826 
L 179.26375 -428.037836 
L 179.26375 -431.078846 
L 179.26375 -434.119856 
L 179.26375 -437.160866 
L 179.26375 -440.201876 
L 179.26375 -443.242886 
L 179.26375 -446.283896 
L 179.26375 -449.324906 
L 179.26375 -452.365916 
L 179.26375 -455.406927 
L 179.26375 -458.447937 
L 179.26375 -461.488947 
L 179.26375 -464.529957 
L 179.26375 -467.570967 
L 179.26375 -470.611977 
L 179.26375 -473.652987 
L 179.26375 -476.693997 
L 179.26375 -479.735007 
L 179.26375 -482.776017 
L 179.26375 -485.817027 
L 179.26375 -488.858037 
L 179.26375 -491.899047 
L 179.26375 -494.940057 
L 179.26375 -497.981067 
L 179.26375 -501.022077 
L 179.26375 -504.063087 
L 179.26375 -507.104097 
L 179.26375 -510.145107 
L 179.26375 -513.186117 
L 201.889894 -513.186117 
L 201.889894 -513.186117 
L 204.939094 -510.145107 
L 208.154918 -507.104097 
L 211.508434 -504.063087 
L 214.966157 -501.022077 
L 218.490831 -497.981067 
L 222.042357 -494.940057 
L 225.578844 -491.899047 
L 229.057732 -488.858037 
L 232.436965 -485.817027 
L 235.676166 -482.776017 
L 238.737775 -479.735007 
L 241.588103 -476.693997 
L 244.198263 -473.652987 
L 246.544927 -470.611977 
L 248.610864 -467.570967 
L 250.385226 -464.529957 
L 251.863555 -461.488947 
L 253.047509 -458.447937 
L 253.944322 -455.406927 
L 254.566037 -452.365916 
L 254.928579 -449.324906 
L 255.05075 -446.283896 
L 254.953227 -443.242886 
L 254.657657 -440.201876 
L 254.185922 -437.160866 
L 253.559618 -434.119856 
L 252.799768 -431.078846 
L 251.926756 -428.037836 
L 250.960417 -424.996826 
L 249.92023 -421.955816 
L 248.825505 -418.914806 
L 247.695483 -415.873796 
L 246.549276 -412.832786 
L 245.405599 -409.791776 
L 244.282281 -406.750766 
L 243.195586 -403.709756 
L 242.159412 -400.668746 
L 241.184462 -397.627736 
L 240.277492 -394.586726 
L 239.440757 -391.545716 
L 238.671751 -388.504706 
L 237.963293 -385.463696 
L 237.304015 -382.422686 
L 236.679214 -379.381676 
L 236.072017 -376.340666 
L 235.464772 -373.299656 
L 234.840543 -370.258646 
L 234.18456 -367.217636 
L 233.485526 -364.176626 
L 232.736628 -361.135616 
L 231.936195 -358.094606 
L 231.087925 -355.053596 
L 230.200677 -352.012586 
L 229.287838 -348.971576 
L 228.366333 -345.930566 
L 227.455346 -342.889556 
L 226.574861 -339.848546 
L 225.744145 -336.807536 
L 224.980265 -333.766526 
L 224.296762 -330.725516 
L 223.702565 -327.684506 
L 223.201214 -324.643496 
L 222.790425 -321.602486 
L 222.462035 -318.561476 
L 222.202286 -315.520466 
L 221.992448 -312.479456 
L 221.809709 -309.438446 
L 221.628273 -306.397436 
L 221.420604 -303.356426 
L 221.15874 -300.315416 
L 220.815602 -297.274406 
L 220.366249 -294.233396 
L 219.789007 -291.192386 
L 219.066446 -288.151376 
L 218.186149 -285.110366 
L 217.141255 -282.069356 
L 215.930761 -279.028346 
L 214.559559 -275.987336 
L 213.03822 -272.946326 
L 211.382533 -269.905316 
L 209.612817 -266.864306 
L 207.753032 -263.823296 
L 205.829756 -260.782286 
L 203.871051 -257.741276 
L 201.905302 -254.700266 
L 199.96008 -251.659256 
L 198.061091 -248.618246 
L 196.231272 -245.577236 
L 194.490074 -242.536226 
L 192.852974 -239.495216 
L 191.331212 -236.454206 
L 189.931777 -233.413196 
L 188.657602 -230.372186 
L 187.507956 -227.331176 
L 186.47897 -224.290166 
L 185.564275 -221.249156 
L 184.755668 -218.208146 
L 184.043785 -215.167136 
L 183.418726 -212.126126 
z
" style="stroke: #1e1e1e; stroke-width: 3"/>
    </defs>
    <g clip-path="url(#p6d2c72acaa)">
     <use xlink:href="#mcaaf0be6d1" x="0" y="576" style="fill: #9ce29c; stroke: #1e1e1e; stroke-width: 3"/>
    </g>
   </g>
   <g id="PolyCollection_3">
    <defs>
     <path id="m4bf61f4fca" d="M 368.73125 -211.787095 
L 364.311966 -211.787095 
L 363.652341 -214.845228 
L 362.921872 -217.90336 
L 362.116951 -220.961493 
L 361.234399 -224.019626 
L 360.27159 -227.077759 
L 359.226587 -230.135892 
L 358.098293 -233.194024 
L 356.886614 -236.252157 
L 355.592632 -239.31029 
L 354.218795 -242.368423 
L 352.769108 -245.426556 
L 351.249315 -248.484689 
L 349.667074 -251.542821 
L 348.032078 -254.600954 
L 346.356137 -257.659087 
L 344.653168 -260.71722 
L 342.939095 -263.775353 
L 341.231625 -266.833485 
L 339.549914 -269.891618 
L 337.9141 -272.949751 
L 336.344732 -276.007884 
L 334.862117 -279.066017 
L 333.48561 -282.124149 
L 332.232902 -285.182282 
L 331.119341 -288.240415 
L 330.157341 -291.298548 
L 329.355914 -294.356681 
L 328.720353 -297.414813 
L 328.252105 -300.472946 
L 327.948808 -303.531079 
L 327.804519 -306.589212 
L 327.810082 -309.647345 
L 327.95363 -312.705477 
L 328.221173 -315.76361 
L 328.59723 -318.821743 
L 329.065493 -321.879876 
L 329.609451 -324.938009 
L 330.212985 -327.996141 
L 330.860882 -331.054274 
L 331.539275 -334.112407 
L 332.235972 -337.17054 
L 332.940687 -340.228673 
L 333.645159 -343.286805 
L 334.343159 -346.344938 
L 335.030381 -349.403071 
L 335.704242 -352.461204 
L 336.363586 -355.519337 
L 337.008316 -358.57747 
L 337.638998 -361.635602 
L 338.256427 -364.693735 
L 338.861238 -367.751868 
L 339.453549 -370.810001 
L 340.0327 -373.868134 
L 340.597087 -376.926266 
L 341.144124 -379.984399 
L 341.670324 -383.042532 
L 342.171493 -386.100665 
L 342.643031 -389.158798 
L 343.080285 -392.21693 
L 343.478957 -395.275063 
L 343.835495 -398.333196 
L 344.14746 -401.391329 
L 344.413817 -404.449462 
L 344.635142 -407.507594 
L 344.813707 -410.565727 
L 344.953462 -413.62386 
L 345.059895 -416.681993 
L 345.139787 -419.740126 
L 345.200887 -422.798258 
L 345.251528 -425.856391 
L 345.300208 -428.914524 
L 345.355186 -431.972657 
L 345.4241 -435.03079 
L 345.513666 -438.088922 
L 345.629448 -441.147055 
L 345.775752 -444.205188 
L 345.955622 -447.263321 
L 346.170944 -450.321454 
L 346.422654 -453.379587 
L 346.711007 -456.437719 
L 347.035889 -459.495852 
L 347.39713 -462.553985 
L 347.794777 -465.612118 
L 348.229296 -468.670251 
L 348.70168 -471.728383 
L 349.213431 -474.786516 
L 349.766435 -477.844649 
L 350.362721 -480.902782 
L 351.004136 -483.960915 
L 351.691972 -487.019047 
L 352.426581 -490.07718 
L 353.207023 -493.135313 
L 354.030791 -496.193446 
L 354.893637 -499.251579 
L 355.789534 -502.309711 
L 356.710771 -505.367844 
L 357.648185 -508.425977 
L 358.591505 -511.48411 
L 359.529789 -514.542243 
L 368.73125 -514.542243 
L 368.73125 -514.542243 
L 368.73125 -511.48411 
L 368.73125 -508.425977 
L 368.73125 -505.367844 
L 368.73125 -502.309711 
L 368.73125 -499.251579 
L 368.73125 -496.193446 
L 368.73125 -493.135313 
L 368.73125 -490.07718 
L 368.73125 -487.019047 
L 368.73125 -483.960915 
L 368.73125 -480.902782 
L 368.73125 -477.844649 
L 368.73125 -474.786516 
L 368.73125 -471.728383 
L 368.73125 -468.670251 
L 368.73125 -465.612118 
L 368.73125 -462.553985 
L 368.73125 -459.495852 
L 368.73125 -456.437719 
L 368.73125 -453.379587 
L 368.73125 -450.321454 
L 368.73125 -447.263321 
L 368.73125 -444.205188 
L 368.73125 -441.147055 
L 368.73125 -438.088922 
L 368.73125 -435.03079 
L 368.73125 -431.972657 
L 368.73125 -428.914524 
L 368.73125 -425.856391 
L 368.73125 -422.798258 
L 368.73125 -419.740126 
L 368.73125 -416.681993 
L 368.73125 -413.62386 
L 368.73125 -410.565727 
L 368.73125 -407.507594 
L 368.73125 -404.449462 
L 368.73125 -401.391329 
L 368.73125 -398.333196 
L 368.73125 -395.275063 
L 368.73125 -392.21693 
L 368.73125 -389.158798 
L 368.73125 -386.100665 
L 368.73125 -383.042532 
L 368.73125 -379.984399 
L 368.73125 -376.926266 
L 368.73125 -373.868134 
L 368.73125 -370.810001 
L 368.73125 -367.751868 
L 368.73125 -364.693735 
L 368.73125 -361.635602 
L 368.73125 -358.57747 
L 368.73125 -355.519337 
L 368.73125 -352.461204 
L 368.73125 -349.403071 
L 368.73125 -346.344938 
L 368.73125 -343.286805 
L 368.73125 -340.228673 
L 368.73125 -337.17054 
L 368.73125 -334.112407 
L 368.73125 -331.054274 
L 368.73125 -327.996141 
L 368.73125 -324.938009 
L 368.73125 -321.879876 
L 368.73125 -318.821743 
L 368.73125 -315.76361 
L 368.73125 -312.705477 
L 368.73125 -309.647345 
L 368.73125 -306.589212 
L 368.73125 -303.531079 
L 368.73125 -300.472946 
L 368.73125 -297.414813 
L 368.73125 -294.356681 
L 368.73125 -291.298548 
L 368.73125 -288.240415 
L 368.73125 -285.182282 
L 368.73125 -282.124149 
L 368.73125 -279.066017 
L 368.73125 -276.007884 
L 368.73125 -272.949751 
L 368.73125 -269.891618 
L 368.73125 -266.833485 
L 368.73125 -263.775353 
L 368.73125 -260.71722 
L 368.73125 -257.659087 
L 368.73125 -254.600954 
L 368.73125 -251.542821 
L 368.73125 -248.484689 
L 368.73125 -245.426556 
L 368.73125 -242.368423 
L 368.73125 -239.31029 
L 368.73125 -236.252157 
L 368.73125 -233.194024 
L 368.73125 -230.135892 
L 368.73125 -227.077759 
L 368.73125 -224.019626 
L 368.73125 -220.961493 
L 368.73125 -217.90336 
L 368.73125 -214.845228 
L 368.73125 -211.787095 
z
" style="stroke: #1e1e1e; stroke-width: 3"/>
    </defs>
    <g clip-path="url(#p6d2c72acaa)">
     <use xlink:href="#m4bf61f4fca" x="0" y="576" style="fill: #0c580c; stroke: #1e1e1e; stroke-width: 3"/>
    </g>
   </g>
   <g id="PolyCollection_4">
    <defs>
     <path id="m2a2dc9519a" d="M 374.159477 -219.923851 
L 368.73125 -219.923851 
L 368.73125 -222.879247 
L 368.73125 -225.834643 
L 368.73125 -228.790039 
L 368.73125 -231.745435 
L 368.73125 -234.700831 
L 368.73125 -237.656227 
L 368.73125 -240.611623 
L 368.73125 -243.567019 
L 368.73125 -246.522415 
L 368.73125 -249.477811 
L 368.73125 -252.433207 
L 368.73125 -255.388603 
L 368.73125 -258.343999 
L 368.73125 -261.299395 
L 368.73125 -264.254791 
L 368.73125 -267.210187 
L 368.73125 -270.165583 
L 368.73125 -273.120979 
L 368.73125 -276.076375 
L 368.73125 -279.031771 
L 368.73125 -281.987167 
L 368.73125 -284.942563 
L 368.73125 -287.897959 
L 368.73125 -290.853355 
L 368.73125 -293.808751 
L 368.73125 -296.764147 
L 368.73125 -299.719543 
L 368.73125 -302.674939 
L 368.73125 -305.630335 
L 368.73125 -308.585731 
L 368.73125 -311.541127 
L 368.73125 -314.496523 
L 368.73125 -317.451919 
L 368.73125 -320.407315 
L 368.73125 -323.362711 
L 368.73125 -326.318107 
L 368.73125 -329.273503 
L 368.73125 -332.228899 
L 368.73125 -335.184295 
L 368.73125 -338.139691 
L 368.73125 -341.095087 
L 368.73125 -344.050483 
L 368.73125 -347.005879 
L 368.73125 -349.961275 
L 368.73125 -352.916671 
L 368.73125 -355.872066 
L 368.73125 -358.827462 
L 368.73125 -361.782858 
L 368.73125 -364.738254 
L 368.73125 -367.69365 
L 368.73125 -370.649046 
L 368.73125 -373.604442 
L 368.73125 -376.559838 
L 368.73125 -379.515234 
L 368.73125 -382.47063 
L 368.73125 -385.426026 
L 368.73125 -388.381422 
L 368.73125 -391.336818 
L 368.73125 -394.292214 
L 368.73125 -397.24761 
L 368.73125 -400.203006 
L 368.73125 -403.158402 
L 368.73125 -406.113798 
L 368.73125 -409.069194 
L 368.73125 -412.02459 
L 368.73125 -414.979986 
L 368.73125 -417.935382 
L 368.73125 -420.890778 
L 368.73125 -423.846174 
L 368.73125 -426.80157 
L 368.73125 -429.756966 
L 368.73125 -432.712362 
L 368.73125 -435.667758 
L 368.73125 -438.623154 
L 368.73125 -441.57855 
L 368.73125 -444.533946 
L 368.73125 -447.489342 
L 368.73125 -450.444738 
L 368.73125 -453.400134 
L 368.73125 -456.35553 
L 368.73125 -459.310926 
L 368.73125 -462.266322 
L 368.73125 -465.221718 
L 368.73125 -468.177114 
L 368.73125 -471.13251 
L 368.73125 -474.087906 
L 368.73125 -477.043302 
L 368.73125 -479.998698 
L 368.73125 -482.954094 
L 368.73125 -485.90949 
L 368.73125 -488.864886 
L 368.73125 -491.820282 
L 368.73125 -494.775678 
L 368.73125 -497.731074 
L 368.73125 -500.68647 
L 368.73125 -503.641866 
L 368.73125 -506.597262 
L 368.73125 -509.552658 
L 368.73125 -512.508053 
L 393.952739 -512.508053 
L 393.952739 -512.508053 
L 396.987757 -509.552658 
L 400.140206 -506.597262 
L 403.37977 -503.641866 
L 406.673283 -500.68647 
L 409.985541 -497.731074 
L 413.280163 -494.775678 
L 416.520496 -491.820282 
L 419.670519 -488.864886 
L 422.695717 -485.90949 
L 425.563921 -482.954094 
L 428.246091 -479.998698 
L 430.717019 -477.043302 
L 432.955952 -474.087906 
L 434.947116 -471.13251 
L 436.68013 -468.177114 
L 438.150286 -465.221718 
L 439.358679 -462.266322 
L 440.312174 -459.310926 
L 441.023176 -456.35553 
L 441.509198 -453.400134 
L 441.792223 -450.444738 
L 441.897848 -447.489342 
L 441.854255 -444.533946 
L 441.691015 -441.57855 
L 441.437795 -438.623154 
L 441.12303 -435.667758 
L 440.772631 -432.712362 
L 440.408805 -429.756966 
L 440.049081 -426.80157 
L 439.705591 -423.846174 
L 439.384675 -420.890778 
L 439.086828 -417.935382 
L 438.807 -414.979986 
L 438.53523 -412.02459 
L 438.257571 -409.069194 
L 437.95723 -406.113798 
L 437.615858 -403.158402 
L 437.214891 -400.203006 
L 436.736861 -397.24761 
L 436.166596 -394.292214 
L 435.492235 -391.336818 
L 434.706008 -388.381422 
L 433.804754 -385.426026 
L 432.790148 -382.47063 
L 431.668654 -379.515234 
L 430.451215 -376.559838 
L 429.152711 -373.604442 
L 427.791237 -370.649046 
L 426.387229 -367.69365 
L 424.962504 -364.738254 
L 423.539261 -361.782858 
L 422.139084 -358.827462 
L 420.782015 -355.872066 
L 419.485717 -352.916671 
L 418.264791 -349.961275 
L 417.13026 -347.005879 
L 416.089265 -344.050483 
L 415.144961 -341.095087 
L 414.296634 -338.139691 
L 413.540013 -335.184295 
L 412.86775 -332.228899 
L 412.27001 -329.273503 
L 411.735144 -326.318107 
L 411.250359 -323.362711 
L 410.802335 -320.407315 
L 410.377754 -317.451919 
L 409.963681 -314.496523 
L 409.547804 -311.541127 
L 409.118522 -308.585731 
L 408.66492 -305.630335 
L 408.176657 -302.674939 
L 407.643836 -299.719543 
L 407.056894 -296.764147 
L 406.40658 -293.808751 
L 405.684035 -290.853355 
L 404.881008 -287.897959 
L 403.990198 -284.942563 
L 403.005695 -281.987167 
L 401.923482 -279.031771 
L 400.741935 -276.076375 
L 399.462261 -273.120979 
L 398.088826 -270.165583 
L 396.629307 -267.210187 
L 395.09465 -264.254791 
L 393.498808 -261.299395 
L 391.858288 -258.343999 
L 390.191501 -255.388603 
L 388.518002 -252.433207 
L 386.857644 -249.477811 
L 385.229724 -246.522415 
L 383.652187 -243.567019 
L 382.140929 -240.611623 
L 380.709263 -237.656227 
L 379.367556 -234.700831 
L 378.123068 -231.745435 
L 376.979976 -228.790039 
L 375.939559 -225.834643 
L 375.000535 -222.879247 
L 374.159477 -219.923851 
z
" style="stroke: #1e1e1e; stroke-width: 3"/>
    </defs>
    <g clip-path="url(#p6d2c72acaa)">
     <use xlink:href="#m2a2dc9519a" x="0" y="576" style="fill: #9ce29c; stroke: #1e1e1e; stroke-width: 3"/>
    </g>
   </g>
   <g id="PolyCollection_5">
    <defs>
     <path id="m12193c4a34" d="M 558.19875 -218.228694 
L 531.583267 -218.228694 
L 528.080289 -220.779992 
L 524.434729 -223.331289 
L 520.68883 -225.882587 
L 516.888509 -228.433885 
L 513.081964 -230.985183 
L 509.318273 -233.536481 
L 505.646085 -236.087778 
L 502.112467 -238.639076 
L 498.761973 -241.190374 
L 495.635964 -243.741672 
L 492.772161 -246.29297 
L 490.204418 -248.844267 
L 487.962641 -251.395565 
L 486.072793 -253.946863 
L 484.556894 -256.498161 
L 483.432961 -259.049459 
L 482.714817 -261.600756 
L 482.41175 -264.152054 
L 482.528018 -266.703352 
L 483.062242 -269.25465 
L 484.006756 -271.805948 
L 485.346995 -274.357245 
L 487.061045 -276.908543 
L 489.119437 -279.459841 
L 491.485301 -282.011139 
L 494.114927 -284.562437 
L 496.958758 -287.113734 
L 499.962826 -289.665032 
L 503.070528 -292.21633 
L 506.224682 -294.767628 
L 509.369701 -297.318926 
L 512.453736 -299.870224 
L 515.430638 -302.421521 
L 518.261575 -304.972819 
L 520.916201 -307.524117 
L 523.373275 -310.075415 
L 525.620713 -312.626713 
L 527.655089 -315.17801 
L 529.48064 -317.729308 
L 531.107913 -320.280606 
L 532.552162 -322.831904 
L 533.831668 -325.383202 
L 534.966128 -327.934499 
L 535.975221 -330.485797 
L 536.877476 -333.037095 
L 537.689473 -335.588393 
L 538.425394 -338.139691 
L 539.096911 -340.690988 
L 539.713332 -343.242286 
L 540.28195 -345.793584 
L 540.808502 -348.344882 
L 541.29766 -350.89618 
L 541.753488 -353.447477 
L 542.179834 -355.998775 
L 542.580603 -358.550073 
L 542.959936 -361.101371 
L 543.322272 -363.652669 
L 543.672321 -366.203966 
L 544.014965 -368.755264 
L 544.355094 -371.306562 
L 544.697391 -373.85786 
L 545.046086 -376.409158 
L 545.404678 -378.960455 
L 545.775659 -381.511753 
L 546.160241 -384.063051 
L 546.558136 -386.614349 
L 546.967406 -389.165647 
L 547.384427 -391.716945 
L 547.803994 -394.268242 
L 548.219573 -396.81954 
L 548.623709 -399.370838 
L 549.008561 -401.922136 
L 549.366522 -404.473434 
L 549.69087 -407.024731 
L 549.97637 -409.576029 
L 550.219776 -412.127327 
L 550.420162 -414.678625 
L 550.579053 -417.229923 
L 550.700335 -419.78122 
L 550.789958 -422.332518 
L 550.855474 -424.883816 
L 550.905452 -427.435114 
L 550.948847 -429.986412 
L 550.994386 -432.537709 
L 551.050024 -435.089007 
L 551.122529 -437.640305 
L 551.217211 -440.191603 
L 551.337802 -442.742901 
L 551.486482 -445.294198 
L 551.664013 -447.845496 
L 551.869951 -450.396794 
L 552.102891 -452.948092 
L 552.360714 -455.49939 
L 552.640799 -458.050687 
L 552.940188 -460.601985 
L 553.255694 -463.153283 
L 553.583962 -465.704581 
L 553.921492 -468.255879 
L 554.264648 -470.807176 
L 558.19875 -470.807176 
L 558.19875 -470.807176 
L 558.19875 -468.255879 
L 558.19875 -465.704581 
L 558.19875 -463.153283 
L 558.19875 -460.601985 
L 558.19875 -458.050687 
L 558.19875 -455.49939 
L 558.19875 -452.948092 
L 558.19875 -450.396794 
L 558.19875 -447.845496 
L 558.19875 -445.294198 
L 558.19875 -442.742901 
L 558.19875 -440.191603 
L 558.19875 -437.640305 
L 558.19875 -435.089007 
L 558.19875 -432.537709 
L 558.19875 -429.986412 
L 558.19875 -427.435114 
L 558.19875 -424.883816 
L 558.19875 -422.332518 
L 558.19875 -419.78122 
L 558.19875 -417.229923 
L 558.19875 -414.678625 
L 558.19875 -412.127327 
L 558.19875 -409.576029 
L 558.19875 -407.024731 
L 558.19875 -404.473434 
L 558.19875 -401.922136 
L 558.19875 -399.370838 
L 558.19875 -396.81954 
L 558.19875 -394.268242 
L 558.19875 -391.716945 
L 558.19875 -389.165647 
L 558.19875 -386.614349 
L 558.19875 -384.063051 
L 558.19875 -381.511753 
L 558.19875 -378.960455 
L 558.19875 -376.409158 
L 558.19875 -373.85786 
L 558.19875 -371.306562 
L 558.19875 -368.755264 
L 558.19875 -366.203966 
L 558.19875 -363.652669 
L 558.19875 -361.101371 
L 558.19875 -358.550073 
L 558.19875 -355.998775 
L 558.19875 -353.447477 
L 558.19875 -350.89618 
L 558.19875 -348.344882 
L 558.19875 -345.793584 
L 558.19875 -343.242286 
L 558.19875 -340.690988 
L 558.19875 -338.139691 
L 558.19875 -335.588393 
L 558.19875 -333.037095 
L 558.19875 -330.485797 
L 558.19875 -327.934499 
L 558.19875 -325.383202 
L 558.19875 -322.831904 
L 558.19875 -320.280606 
L 558.19875 -317.729308 
L 558.19875 -315.17801 
L 558.19875 -312.626713 
L 558.19875 -310.075415 
L 558.19875 -307.524117 
L 558.19875 -304.972819 
L 558.19875 -302.421521 
L 558.19875 -299.870224 
L 558.19875 -297.318926 
L 558.19875 -294.767628 
L 558.19875 -292.21633 
L 558.19875 -289.665032 
L 558.19875 -287.113734 
L 558.19875 -284.562437 
L 558.19875 -282.011139 
L 558.19875 -279.459841 
L 558.19875 -276.908543 
L 558.19875 -274.357245 
L 558.19875 -271.805948 
L 558.19875 -269.25465 
L 558.19875 -266.703352 
L 558.19875 -264.152054 
L 558.19875 -261.600756 
L 558.19875 -259.049459 
L 558.19875 -256.498161 
L 558.19875 -253.946863 
L 558.19875 -251.395565 
L 558.19875 -248.844267 
L 558.19875 -246.29297 
L 558.19875 -243.741672 
L 558.19875 -241.190374 
L 558.19875 -238.639076 
L 558.19875 -236.087778 
L 558.19875 -233.536481 
L 558.19875 -230.985183 
L 558.19875 -228.433885 
L 558.19875 -225.882587 
L 558.19875 -223.331289 
L 558.19875 -220.779992 
L 558.19875 -218.228694 
z
" style="stroke: #1e1e1e; stroke-width: 3"/>
    </defs>
    <g clip-path="url(#p6d2c72acaa)">
     <use xlink:href="#m12193c4a34" x="0" y="576" style="fill: #0c580c; stroke: #1e1e1e; stroke-width: 3"/>
    </g>
   </g>
   <g id="PolyCollection_6">
    <defs>
     <path id="m3062be1944" d="M 574.293909 -212.126126 
L 558.19875 -212.126126 
L 558.19875 -215.119193 
L 558.19875 -218.112259 
L 558.19875 -221.105325 
L 558.19875 -224.098391 
L 558.19875 -227.091457 
L 558.19875 -230.084523 
L 558.19875 -233.077589 
L 558.19875 -236.070656 
L 558.19875 -239.063722 
L 558.19875 -242.056788 
L 558.19875 -245.049854 
L 558.19875 -248.04292 
L 558.19875 -251.035986 
L 558.19875 -254.029052 
L 558.19875 -257.022119 
L 558.19875 -260.015185 
L 558.19875 -263.008251 
L 558.19875 -266.001317 
L 558.19875 -268.994383 
L 558.19875 -271.987449 
L 558.19875 -274.980516 
L 558.19875 -277.973582 
L 558.19875 -280.966648 
L 558.19875 -283.959714 
L 558.19875 -286.95278 
L 558.19875 -289.945846 
L 558.19875 -292.938912 
L 558.19875 -295.931979 
L 558.19875 -298.925045 
L 558.19875 -301.918111 
L 558.19875 -304.911177 
L 558.19875 -307.904243 
L 558.19875 -310.897309 
L 558.19875 -313.890375 
L 558.19875 -316.883442 
L 558.19875 -319.876508 
L 558.19875 -322.869574 
L 558.19875 -325.86264 
L 558.19875 -328.855706 
L 558.19875 -331.848772 
L 558.19875 -334.841839 
L 558.19875 -337.834905 
L 558.19875 -340.827971 
L 558.19875 -343.821037 
L 558.19875 -346.814103 
L 558.19875 -349.807169 
L 558.19875 -352.800235 
L 558.19875 -355.793302 
L 558.19875 -358.786368 
L 558.19875 -361.779434 
L 558.19875 -364.7725 
L 558.19875 -367.765566 
L 558.19875 -370.758632 
L 558.19875 -373.751698 
L 558.19875 -376.744765 
L 558.19875 -379.737831 
L 558.19875 -382.730897 
L 558.19875 -385.723963 
L 558.19875 -388.717029 
L 558.19875 -391.710095 
L 558.19875 -394.703162 
L 558.19875 -397.696228 
L 558.19875 -400.689294 
L 558.19875 -403.68236 
L 558.19875 -406.675426 
L 558.19875 -409.668492 
L 558.19875 -412.661558 
L 558.19875 -415.654625 
L 558.19875 -418.647691 
L 558.19875 -421.640757 
L 558.19875 -424.633823 
L 558.19875 -427.626889 
L 558.19875 -430.619955 
L 558.19875 -433.613021 
L 558.19875 -436.606088 
L 558.19875 -439.599154 
L 558.19875 -442.59222 
L 558.19875 -445.585286 
L 558.19875 -448.578352 
L 558.19875 -451.571418 
L 558.19875 -454.564485 
L 558.19875 -457.557551 
L 558.19875 -460.550617 
L 558.19875 -463.543683 
L 558.19875 -466.536749 
L 558.19875 -469.529815 
L 558.19875 -472.522881 
L 558.19875 -475.515948 
L 558.19875 -478.509014 
L 558.19875 -481.50208 
L 558.19875 -484.495146 
L 558.19875 -487.488212 
L 558.19875 -490.481278 
L 558.19875 -493.474344 
L 558.19875 -496.467411 
L 558.19875 -499.460477 
L 558.19875 -502.453543 
L 558.19875 -505.446609 
L 558.19875 -508.439675 
L 573.959462 -508.439675 
L 573.959462 -508.439675 
L 575.671481 -505.446609 
L 577.464003 -502.453543 
L 579.331301 -499.460477 
L 581.26707 -496.467411 
L 583.264297 -493.474344 
L 585.31505 -490.481278 
L 587.410226 -487.488212 
L 589.539266 -484.495146 
L 591.689883 -481.50208 
L 593.847838 -478.509014 
L 595.996816 -475.515948 
L 598.118433 -472.522881 
L 600.192423 -469.529815 
L 602.197011 -466.536749 
L 604.109501 -463.543683 
L 605.907064 -460.550617 
L 607.567704 -457.557551 
L 609.071342 -454.564485 
L 610.400984 -451.571418 
L 611.54386 -448.578352 
L 612.492475 -445.585286 
L 613.245454 -442.59222 
L 613.808122 -439.599154 
L 614.192714 -436.606088 
L 614.418187 -433.613021 
L 614.509595 -430.619955 
L 614.497037 -427.626889 
L 614.414223 -424.633823 
L 614.296721 -421.640757 
L 614.180015 -418.647691 
L 614.097467 -415.654625 
L 614.078356 -412.661558 
L 614.146112 -409.668492 
L 614.316876 -406.675426 
L 614.598509 -403.68236 
L 614.990112 -400.689294 
L 615.482099 -397.696228 
L 616.056826 -394.703162 
L 616.689738 -391.710095 
L 617.350941 -388.717029 
L 618.00711 -385.723963 
L 618.623587 -382.730897 
L 619.166544 -379.737831 
L 619.605053 -376.744765 
L 619.912956 -373.751698 
L 620.070397 -370.758632 
L 620.064948 -367.765566 
L 619.892265 -364.7725 
L 619.556255 -361.779434 
L 619.068747 -358.786368 
L 618.448729 -355.793302 
L 617.721178 -352.800235 
L 616.915603 -349.807169 
L 616.064352 -346.814103 
L 615.200826 -343.821037 
L 614.357667 -340.827971 
L 613.565039 -337.834905 
L 612.849075 -334.841839 
L 612.230582 -331.848772 
L 611.724045 -328.855706 
L 611.336991 -325.86264 
L 611.069717 -322.869574 
L 610.91541 -319.876508 
L 610.860621 -316.883442 
L 610.88608 -313.890375 
L 610.967788 -310.897309 
L 611.078334 -307.904243 
L 611.188349 -304.911177 
L 611.268022 -301.918111 
L 611.288591 -298.925045 
L 611.223719 -295.931979 
L 611.050682 -292.938912 
L 610.751306 -289.945846 
L 610.312597 -286.95278 
L 609.727051 -283.959714 
L 608.992628 -280.966648 
L 608.112406 -277.973582 
L 607.093969 -274.980516 
L 605.948575 -271.987449 
L 604.690168 -268.994383 
L 603.334334 -266.001317 
L 601.897259 -263.008251 
L 600.394779 -260.015185 
L 598.841572 -257.022119 
L 597.25056 -254.029052 
L 595.632524 -251.035986 
L 593.995976 -248.04292 
L 592.347238 -245.049854 
L 590.69073 -242.056788 
L 589.029412 -239.063722 
L 587.365316 -236.070656 
L 585.700125 -233.077589 
L 584.03573 -230.084523 
L 582.374718 -227.091457 
L 580.720739 -224.098391 
L 579.07874 -221.105325 
L 577.455032 -218.112259 
L 575.857205 -215.119193 
L 574.293909 -212.126126 
z
" style="stroke: #1e1e1e; stroke-width: 3"/>
    </defs>
    <g clip-path="url(#p6d2c72acaa)">
     <use xlink:href="#m3062be1944" x="0" y="576" style="fill: #9ce29c; stroke: #1e1e1e; stroke-width: 3"/>
    </g>
   </g>
   <g id="PolyCollection_7">
    <defs>
     <path id="md2f02a7fb1" d="M 747.66625 -225.687387 
L 745.210504 -225.687387 
L 744.983845 -228.498952 
L 744.741024 -231.310516 
L 744.477648 -234.12208 
L 744.188696 -236.933645 
L 743.868714 -239.745209 
L 743.511993 -242.556774 
L 743.112714 -245.368338 
L 742.665042 -248.179903 
L 742.163144 -250.991467 
L 741.601146 -253.803031 
L 740.973057 -256.614596 
L 740.272688 -259.42616 
L 739.493608 -262.237725 
L 738.6292 -265.049289 
L 737.672841 -267.860854 
L 736.618239 -270.672418 
L 735.459921 -273.483982 
L 734.193861 -276.295547 
L 732.818183 -279.107111 
L 731.33387 -281.918676 
L 729.745394 -284.73024 
L 728.06118 -287.541805 
L 726.2938 -290.353369 
L 724.459862 -293.164933 
L 722.57954 -295.976498 
L 720.675768 -298.788062 
L 718.77314 -301.599627 
L 716.896606 -304.411191 
L 715.070087 -307.222756 
L 713.315148 -310.03432 
L 711.649867 -312.845884 
L 710.088022 -315.657449 
L 708.638699 -318.469013 
L 707.306357 -321.280578 
L 706.091342 -324.092142 
L 704.990792 -326.903707 
L 703.999817 -329.715271 
L 703.112808 -332.526835 
L 702.324714 -335.3384 
L 701.632141 -338.149964 
L 701.034124 -340.961529 
L 700.532512 -343.773093 
L 700.131923 -346.584658 
L 699.839285 -349.396222 
L 699.663053 -352.207786 
L 699.612191 -355.019351 
L 699.695057 -357.830915 
L 699.918312 -360.64248 
L 700.285964 -363.454044 
L 700.798629 -366.265609 
L 701.453063 -369.077173 
L 702.241974 -371.888737 
L 703.154106 -374.700302 
L 704.174565 -377.511866 
L 705.285334 -380.323431 
L 706.465936 -383.134995 
L 707.694193 -385.94656 
L 708.947044 -388.758124 
L 710.201372 -391.569688 
L 711.434823 -394.381253 
L 712.626563 -397.192817 
L 713.757968 -400.004382 
L 714.813189 -402.815946 
L 715.779598 -405.627511 
L 716.648076 -408.439075 
L 717.413146 -411.250639 
L 718.072952 -414.062204 
L 718.629101 -416.873768 
L 719.086391 -419.685333 
L 719.452452 -422.496897 
L 719.737328 -425.308462 
L 719.953029 -428.120026 
L 720.113069 -430.93159 
L 720.231998 -433.743155 
L 720.324936 -436.554719 
L 720.407102 -439.366284 
L 720.493344 -442.177848 
L 720.597682 -444.989413 
L 720.732859 -447.800977 
L 720.909954 -450.612541 
L 721.138061 -453.424106 
L 721.424085 -456.23567 
L 721.772687 -459.047235 
L 722.186374 -461.858799 
L 722.665764 -464.670363 
L 723.209976 -467.481928 
L 723.817104 -470.293492 
L 724.484725 -473.105057 
L 725.210337 -475.916621 
L 725.991691 -478.728186 
L 726.82693 -481.53975 
L 727.714527 -484.351314 
L 728.653017 -487.162879 
L 729.640563 -489.974443 
L 730.674431 -492.786008 
L 731.75045 -495.597572 
L 732.862569 -498.409137 
L 734.002579 -501.220701 
L 735.160072 -504.032265 
L 747.66625 -504.032265 
L 747.66625 -504.032265 
L 747.66625 -501.220701 
L 747.66625 -498.409137 
L 747.66625 -495.597572 
L 747.66625 -492.786008 
L 747.66625 -489.974443 
L 747.66625 -487.162879 
L 747.66625 -484.351314 
L 747.66625 -481.53975 
L 747.66625 -478.728186 
L 747.66625 -475.916621 
L 747.66625 -473.105057 
L 747.66625 -470.293492 
L 747.66625 -467.481928 
L 747.66625 -464.670363 
L 747.66625 -461.858799 
L 747.66625 -459.047235 
L 747.66625 -456.23567 
L 747.66625 -453.424106 
L 747.66625 -450.612541 
L 747.66625 -447.800977 
L 747.66625 -444.989413 
L 747.66625 -442.177848 
L 747.66625 -439.366284 
L 747.66625 -436.554719 
L 747.66625 -433.743155 
L 747.66625 -430.93159 
L 747.66625 -428.120026 
L 747.66625 -425.308462 
L 747.66625 -422.496897 
L 747.66625 -419.685333 
L 747.66625 -416.873768 
L 747.66625 -414.062204 
L 747.66625 -411.250639 
L 747.66625 -408.439075 
L 747.66625 -405.627511 
L 747.66625 -402.815946 
L 747.66625 -400.004382 
L 747.66625 -397.192817 
L 747.66625 -394.381253 
L 747.66625 -391.569688 
L 747.66625 -388.758124 
L 747.66625 -385.94656 
L 747.66625 -383.134995 
L 747.66625 -380.323431 
L 747.66625 -377.511866 
L 747.66625 -374.700302 
L 747.66625 -371.888737 
L 747.66625 -369.077173 
L 747.66625 -366.265609 
L 747.66625 -363.454044 
L 747.66625 -360.64248 
L 747.66625 -357.830915 
L 747.66625 -355.019351 
L 747.66625 -352.207786 
L 747.66625 -349.396222 
L 747.66625 -346.584658 
L 747.66625 -343.773093 
L 747.66625 -340.961529 
L 747.66625 -338.149964 
L 747.66625 -335.3384 
L 747.66625 -332.526835 
L 747.66625 -329.715271 
L 747.66625 -326.903707 
L 747.66625 -324.092142 
L 747.66625 -321.280578 
L 747.66625 -318.469013 
L 747.66625 -315.657449 
L 747.66625 -312.845884 
L 747.66625 -310.03432 
L 747.66625 -307.222756 
L 747.66625 -304.411191 
L 747.66625 -301.599627 
L 747.66625 -298.788062 
L 747.66625 -295.976498 
L 747.66625 -293.164933 
L 747.66625 -290.353369 
L 747.66625 -287.541805 
L 747.66625 -284.73024 
L 747.66625 -281.918676 
L 747.66625 -279.107111 
L 747.66625 -276.295547 
L 747.66625 -273.483982 
L 747.66625 -270.672418 
L 747.66625 -267.860854 
L 747.66625 -265.049289 
L 747.66625 -262.237725 
L 747.66625 -259.42616 
L 747.66625 -256.614596 
L 747.66625 -253.803031 
L 747.66625 -250.991467 
L 747.66625 -248.179903 
L 747.66625 -245.368338 
L 747.66625 -242.556774 
L 747.66625 -239.745209 
L 747.66625 -236.933645 
L 747.66625 -234.12208 
L 747.66625 -231.310516 
L 747.66625 -228.498952 
L 747.66625 -225.687387 
z
" style="stroke: #1e1e1e; stroke-width: 3"/>
    </defs>
    <g clip-path="url(#p6d2c72acaa)">
     <use xlink:href="#md2f02a7fb1" x="0" y="576" style="fill: #0c580c; stroke: #1e1e1e; stroke-width: 3"/>
    </g>
   </g>
   <g id="patch_3">
    <path d="M 179.26375 397.098963 
L 179.26375 397.098963 
L 179.26375 397.098963 
L 179.26375 397.098963 
z
" clip-path="url(#p6d2c72acaa)" style="fill: #0c580c; stroke: #1e1e1e; stroke-width: 3; stroke-linejoin: miter"/>
   </g>
   <g id="patch_4">
    <path d="M 179.26375 397.098963 
L 179.26375 397.098963 
L 179.26375 397.098963 
L 179.26375 397.098963 
z
" clip-path="url(#p6d2c72acaa)" style="fill: #9ce29c; stroke: #1e1e1e; stroke-width: 3; stroke-linejoin: miter"/>
   </g>
   <g id="matplotlib.axis_1">
    <g id="xtick_1">
     <g id="line2d_1"/>
     <g id="text_1">
      <!-- AlphaFold 2 -->
      <g transform="translate(141.724114 476.480439) rotate(-45) scale(0.2 -0.2)">
       <defs>
        <path id="DejaVuSans-41" d="M 2188 4044 
L 1331 1722 
L 3047 1722 
L 2188 4044 
z
M 1831 4666 
L 2547 4666 
L 4325 0 
L 3669 0 
L 3244 1197 
L 1141 1197 
L 716 0 
L 50 0 
L 1831 4666 
z
" transform="scale(0.015625)"/>
        <path id="DejaVuSans-6c" d="M 603 4863 
L 1178 4863 
L 1178 0 
L 603 0 
L 603 4863 
z
" transform="scale(0.015625)"/>
        <path id="DejaVuSans-70" d="M 1159 525 
L 1159 -1331 
L 581 -1331 
L 581 3500 
L 1159 3500 
L 1159 2969 
Q 1341 3281 1617 3432 
Q 1894 3584 2278 3584 
Q 2916 3584 3314 3078 
Q 3713 2572 3713 1747 
Q 3713 922 3314 415 
Q 2916 -91 2278 -91 
Q 1894 -91 1617 61 
Q 1341 213 1159 525 
z
M 3116 1747 
Q 3116 2381 2855 2742 
Q 2594 3103 2138 3103 
Q 1681 3103 1420 2742 
Q 1159 2381 1159 1747 
Q 1159 1113 1420 752 
Q 1681 391 2138 391 
Q 2594 391 2855 752 
Q 3116 1113 3116 1747 
z
" transform="scale(0.015625)"/>
        <path id="DejaVuSans-68" d="M 3513 2113 
L 3513 0 
L 2938 0 
L 2938 2094 
Q 2938 2591 2744 2837 
Q 2550 3084 2163 3084 
Q 1697 3084 1428 2787 
Q 1159 2491 1159 1978 
L 1159 0 
L 581 0 
L 581 4863 
L 1159 4863 
L 1159 2956 
Q 1366 3272 1645 3428 
Q 1925 3584 2291 3584 
Q 2894 3584 3203 3211 
Q 3513 2838 3513 2113 
z
" transform="scale(0.015625)"/>
        <path id="DejaVuSans-61" d="M 2194 1759 
Q 1497 1759 1228 1600 
Q 959 1441 959 1056 
Q 959 750 1161 570 
Q 1363 391 1709 391 
Q 2188 391 2477 730 
Q 2766 1069 2766 1631 
L 2766 1759 
L 2194 1759 
z
M 3341 1997 
L 3341 0 
L 2766 0 
L 2766 531 
Q 2569 213 2275 61 
Q 1981 -91 1556 -91 
Q 1019 -91 701 211 
Q 384 513 384 1019 
Q 384 1609 779 1909 
Q 1175 2209 1959 2209 
L 2766 2209 
L 2766 2266 
Q 2766 2663 2505 2880 
Q 2244 3097 1772 3097 
Q 1472 3097 1187 3025 
Q 903 2953 641 2809 
L 641 3341 
Q 956 3463 1253 3523 
Q 1550 3584 1831 3584 
Q 2591 3584 2966 3190 
Q 3341 2797 3341 1997 
z
" transform="scale(0.015625)"/>
        <path id="DejaVuSans-46" d="M 628 4666 
L 3309 4666 
L 3309 4134 
L 1259 4134 
L 1259 2759 
L 3109 2759 
L 3109 2228 
L 1259 2228 
L 1259 0 
L 628 0 
L 628 4666 
z
" transform="scale(0.015625)"/>
        <path id="DejaVuSans-6f" d="M 1959 3097 
Q 1497 3097 1228 2736 
Q 959 2375 959 1747 
Q 959 1119 1226 758 
Q 1494 397 1959 397 
Q 2419 397 2687 759 
Q 2956 1122 2956 1747 
Q 2956 2369 2687 2733 
Q 2419 3097 1959 3097 
z
M 1959 3584 
Q 2709 3584 3137 3096 
Q 3566 2609 3566 1747 
Q 3566 888 3137 398 
Q 2709 -91 1959 -91 
Q 1206 -91 779 398 
Q 353 888 353 1747 
Q 353 2609 779 3096 
Q 1206 3584 1959 3584 
z
" transform="scale(0.015625)"/>
        <path id="DejaVuSans-64" d="M 2906 2969 
L 2906 4863 
L 3481 4863 
L 3481 0 
L 2906 0 
L 2906 525 
Q 2725 213 2448 61 
Q 2172 -91 1784 -91 
Q 1150 -91 751 415 
Q 353 922 353 1747 
Q 353 2572 751 3078 
Q 1150 3584 1784 3584 
Q 2172 3584 2448 3432 
Q 2725 3281 2906 2969 
z
M 947 1747 
Q 947 1113 1208 752 
Q 1469 391 1925 391 
Q 2381 391 2643 752 
Q 2906 1113 2906 1747 
Q 2906 2381 2643 2742 
Q 2381 3103 1925 3103 
Q 1469 3103 1208 2742 
Q 947 2381 947 1747 
z
" transform="scale(0.015625)"/>
        <path id="DejaVuSans-20" transform="scale(0.015625)"/>
        <path id="DejaVuSans-32" d="M 1228 531 
L 3431 531 
L 3431 0 
L 469 0 
L 469 531 
Q 828 903 1448 1529 
Q 2069 2156 2228 2338 
Q 2531 2678 2651 2914 
Q 2772 3150 2772 3378 
Q 2772 3750 2511 3984 
Q 2250 4219 1831 4219 
Q 1534 4219 1204 4116 
Q 875 4013 500 3803 
L 500 4441 
Q 881 4594 1212 4672 
Q 1544 4750 1819 4750 
Q 2544 4750 2975 4387 
Q 3406 4025 3406 3419 
Q 3406 3131 3298 2873 
Q 3191 2616 2906 2266 
Q 2828 2175 2409 1742 
Q 1991 1309 1228 531 
z
" transform="scale(0.015625)"/>
       </defs>
       <use xlink:href="#DejaVuSans-41"/>
       <use xlink:href="#DejaVuSans-6c" x="68.408203"/>
       <use xlink:href="#DejaVuSans-70" x="96.191406"/>
       <use xlink:href="#DejaVuSans-68" x="159.667969"/>
       <use xlink:href="#DejaVuSans-61" x="223.046875"/>
       <use xlink:href="#DejaVuSans-46" x="284.326172"/>
       <use xlink:href="#DejaVuSans-6f" x="338.220703"/>
       <use xlink:href="#DejaVuSans-6c" x="399.402344"/>
       <use xlink:href="#DejaVuSans-64" x="427.185547"/>
       <use xlink:href="#DejaVuSans-20" x="490.662109"/>
       <use xlink:href="#DejaVuSans-32" x="522.449219"/>
      </g>
     </g>
    </g>
    <g id="xtick_2">
     <g id="line2d_2"/>
     <g id="text_2">
      <!-- AlphaFold 3 -->
      <g transform="translate(331.191614 476.480439) rotate(-45) scale(0.2 -0.2)">
       <defs>
        <path id="DejaVuSans-33" d="M 2597 2516 
Q 3050 2419 3304 2112 
Q 3559 1806 3559 1356 
Q 3559 666 3084 287 
Q 2609 -91 1734 -91 
Q 1441 -91 1130 -33 
Q 819 25 488 141 
L 488 750 
Q 750 597 1062 519 
Q 1375 441 1716 441 
Q 2309 441 2620 675 
Q 2931 909 2931 1356 
Q 2931 1769 2642 2001 
Q 2353 2234 1838 2234 
L 1294 2234 
L 1294 2753 
L 1863 2753 
Q 2328 2753 2575 2939 
Q 2822 3125 2822 3475 
Q 2822 3834 2567 4026 
Q 2313 4219 1838 4219 
Q 1578 4219 1281 4162 
Q 984 4106 628 3988 
L 628 4550 
Q 988 4650 1302 4700 
Q 1616 4750 1894 4750 
Q 2613 4750 3031 4423 
Q 3450 4097 3450 3541 
Q 3450 3153 3228 2886 
Q 3006 2619 2597 2516 
z
" transform="scale(0.015625)"/>
       </defs>
       <use xlink:href="#DejaVuSans-41"/>
       <use xlink:href="#DejaVuSans-6c" x="68.408203"/>
       <use xlink:href="#DejaVuSans-70" x="96.191406"/>
       <use xlink:href="#DejaVuSans-68" x="159.667969"/>
       <use xlink:href="#DejaVuSans-61" x="223.046875"/>
       <use xlink:href="#DejaVuSans-46" x="284.326172"/>
       <use xlink:href="#DejaVuSans-6f" x="338.220703"/>
       <use xlink:href="#DejaVuSans-6c" x="399.402344"/>
       <use xlink:href="#DejaVuSans-64" x="427.185547"/>
       <use xlink:href="#DejaVuSans-20" x="490.662109"/>
       <use xlink:href="#DejaVuSans-33" x="522.449219"/>
      </g>
     </g>
    </g>
    <g id="xtick_3">
     <g id="line2d_3"/>
     <g id="text_3">
      <!-- RoseTTAFold2 -->
      <g transform="translate(513.25217 491.294326) rotate(-45) scale(0.2 -0.2)">
       <defs>
        <path id="DejaVuSans-52" d="M 2841 2188 
Q 3044 2119 3236 1894 
Q 3428 1669 3622 1275 
L 4263 0 
L 3584 0 
L 2988 1197 
Q 2756 1666 2539 1819 
Q 2322 1972 1947 1972 
L 1259 1972 
L 1259 0 
L 628 0 
L 628 4666 
L 2053 4666 
Q 2853 4666 3247 4331 
Q 3641 3997 3641 3322 
Q 3641 2881 3436 2590 
Q 3231 2300 2841 2188 
z
M 1259 4147 
L 1259 2491 
L 2053 2491 
Q 2509 2491 2742 2702 
Q 2975 2913 2975 3322 
Q 2975 3731 2742 3939 
Q 2509 4147 2053 4147 
L 1259 4147 
z
" transform="scale(0.015625)"/>
        <path id="DejaVuSans-73" d="M 2834 3397 
L 2834 2853 
Q 2591 2978 2328 3040 
Q 2066 3103 1784 3103 
Q 1356 3103 1142 2972 
Q 928 2841 928 2578 
Q 928 2378 1081 2264 
Q 1234 2150 1697 2047 
L 1894 2003 
Q 2506 1872 2764 1633 
Q 3022 1394 3022 966 
Q 3022 478 2636 193 
Q 2250 -91 1575 -91 
Q 1294 -91 989 -36 
Q 684 19 347 128 
L 347 722 
Q 666 556 975 473 
Q 1284 391 1588 391 
Q 1994 391 2212 530 
Q 2431 669 2431 922 
Q 2431 1156 2273 1281 
Q 2116 1406 1581 1522 
L 1381 1569 
Q 847 1681 609 1914 
Q 372 2147 372 2553 
Q 372 3047 722 3315 
Q 1072 3584 1716 3584 
Q 2034 3584 2315 3537 
Q 2597 3491 2834 3397 
z
" transform="scale(0.015625)"/>
        <path id="DejaVuSans-65" d="M 3597 1894 
L 3597 1613 
L 953 1613 
Q 991 1019 1311 708 
Q 1631 397 2203 397 
Q 2534 397 2845 478 
Q 3156 559 3463 722 
L 3463 178 
Q 3153 47 2828 -22 
Q 2503 -91 2169 -91 
Q 1331 -91 842 396 
Q 353 884 353 1716 
Q 353 2575 817 3079 
Q 1281 3584 2069 3584 
Q 2775 3584 3186 3129 
Q 3597 2675 3597 1894 
z
M 3022 2063 
Q 3016 2534 2758 2815 
Q 2500 3097 2075 3097 
Q 1594 3097 1305 2825 
Q 1016 2553 972 2059 
L 3022 2063 
z
" transform="scale(0.015625)"/>
        <path id="DejaVuSans-54" d="M -19 4666 
L 3928 4666 
L 3928 4134 
L 2272 4134 
L 2272 0 
L 1638 0 
L 1638 4134 
L -19 4134 
L -19 4666 
z
" transform="scale(0.015625)"/>
       </defs>
       <use xlink:href="#DejaVuSans-52"/>
       <use xlink:href="#DejaVuSans-6f" x="64.982422"/>
       <use xlink:href="#DejaVuSans-73" x="126.164062"/>
       <use xlink:href="#DejaVuSans-65" x="178.263672"/>
       <use xlink:href="#DejaVuSans-54" x="239.787109"/>
       <use xlink:href="#DejaVuSans-54" x="299.121094"/>
       <use xlink:href="#DejaVuSans-41" x="352.455078"/>
       <use xlink:href="#DejaVuSans-46" x="420.863281"/>
       <use xlink:href="#DejaVuSans-6f" x="474.757812"/>
       <use xlink:href="#DejaVuSans-6c" x="535.939453"/>
       <use xlink:href="#DejaVuSans-64" x="563.722656"/>
       <use xlink:href="#DejaVuSans-32" x="627.199219"/>
      </g>
     </g>
    </g>
    <g id="xtick_4">
     <g id="line2d_4"/>
     <g id="text_4">
      <!-- AlphaFold2 Cluster -->
      <g transform="translate(685.029847 526.673972) rotate(-45) scale(0.2 -0.2)">
       <defs>
        <path id="DejaVuSans-43" d="M 4122 4306 
L 4122 3641 
Q 3803 3938 3442 4084 
Q 3081 4231 2675 4231 
Q 1875 4231 1450 3742 
Q 1025 3253 1025 2328 
Q 1025 1406 1450 917 
Q 1875 428 2675 428 
Q 3081 428 3442 575 
Q 3803 722 4122 1019 
L 4122 359 
Q 3791 134 3420 21 
Q 3050 -91 2638 -91 
Q 1578 -91 968 557 
Q 359 1206 359 2328 
Q 359 3453 968 4101 
Q 1578 4750 2638 4750 
Q 3056 4750 3426 4639 
Q 3797 4528 4122 4306 
z
" transform="scale(0.015625)"/>
        <path id="DejaVuSans-75" d="M 544 1381 
L 544 3500 
L 1119 3500 
L 1119 1403 
Q 1119 906 1312 657 
Q 1506 409 1894 409 
Q 2359 409 2629 706 
Q 2900 1003 2900 1516 
L 2900 3500 
L 3475 3500 
L 3475 0 
L 2900 0 
L 2900 538 
Q 2691 219 2414 64 
Q 2138 -91 1772 -91 
Q 1169 -91 856 284 
Q 544 659 544 1381 
z
M 1991 3584 
L 1991 3584 
z
" transform="scale(0.015625)"/>
        <path id="DejaVuSans-74" d="M 1172 4494 
L 1172 3500 
L 2356 3500 
L 2356 3053 
L 1172 3053 
L 1172 1153 
Q 1172 725 1289 603 
Q 1406 481 1766 481 
L 2356 481 
L 2356 0 
L 1766 0 
Q 1100 0 847 248 
Q 594 497 594 1153 
L 594 3053 
L 172 3053 
L 172 3500 
L 594 3500 
L 594 4494 
L 1172 4494 
z
" transform="scale(0.015625)"/>
        <path id="DejaVuSans-72" d="M 2631 2963 
Q 2534 3019 2420 3045 
Q 2306 3072 2169 3072 
Q 1681 3072 1420 2755 
Q 1159 2438 1159 1844 
L 1159 0 
L 581 0 
L 581 3500 
L 1159 3500 
L 1159 2956 
Q 1341 3275 1631 3429 
Q 1922 3584 2338 3584 
Q 2397 3584 2469 3576 
Q 2541 3569 2628 3553 
L 2631 2963 
z
" transform="scale(0.015625)"/>
       </defs>
       <use xlink:href="#DejaVuSans-41"/>
       <use xlink:href="#DejaVuSans-6c" x="68.408203"/>
       <use xlink:href="#DejaVuSans-70" x="96.191406"/>
       <use xlink:href="#DejaVuSans-68" x="159.667969"/>
       <use xlink:href="#DejaVuSans-61" x="223.046875"/>
       <use xlink:href="#DejaVuSans-46" x="284.326172"/>
       <use xlink:href="#DejaVuSans-6f" x="338.220703"/>
       <use xlink:href="#DejaVuSans-6c" x="399.402344"/>
       <use xlink:href="#DejaVuSans-64" x="427.185547"/>
       <use xlink:href="#DejaVuSans-32" x="490.662109"/>
       <use xlink:href="#DejaVuSans-20" x="554.285156"/>
       <use xlink:href="#DejaVuSans-43" x="586.072266"/>
       <use xlink:href="#DejaVuSans-6c" x="655.896484"/>
       <use xlink:href="#DejaVuSans-75" x="683.679688"/>
       <use xlink:href="#DejaVuSans-73" x="747.058594"/>
       <use xlink:href="#DejaVuSans-74" x="799.158203"/>
       <use xlink:href="#DejaVuSans-65" x="838.367188"/>
       <use xlink:href="#DejaVuSans-72" x="899.890625"/>
      </g>
     </g>
    </g>
    <g id="text_5">
     <!-- Model -->
     <g transform="translate(433.438438 548.811969) scale(0.2 -0.2)">
      <defs>
       <path id="DejaVuSans-4d" d="M 628 4666 
L 1569 4666 
L 2759 1491 
L 3956 4666 
L 4897 4666 
L 4897 0 
L 4281 0 
L 4281 4097 
L 3078 897 
L 2444 897 
L 1241 4097 
L 1241 0 
L 628 0 
L 628 4666 
z
" transform="scale(0.015625)"/>
      </defs>
      <use xlink:href="#DejaVuSans-4d"/>
      <use xlink:href="#DejaVuSans-6f" x="86.279297"/>
      <use xlink:href="#DejaVuSans-64" x="147.460938"/>
      <use xlink:href="#DejaVuSans-65" x="210.9375"/>
      <use xlink:href="#DejaVuSans-6c" x="272.460938"/>
     </g>
    </g>
   </g>
   <g id="matplotlib.axis_2">
    <g id="ytick_1">
     <g id="line2d_5">
      <defs>
       <path id="m36bc46a159" d="M 0 0 
L -3.5 0 
" style="stroke: #000000; stroke-width: 0.8"/>
      </defs>
      <g>
       <use xlink:href="#m36bc46a159" x="84.53" y="329.292659" style="stroke: #000000; stroke-width: 0.8"/>
      </g>
     </g>
     <g id="text_6">
      <!-- 0.2 -->
      <g transform="translate(45.72375 336.891096) scale(0.2 -0.2)">
       <defs>
        <path id="DejaVuSans-30" d="M 2034 4250 
Q 1547 4250 1301 3770 
Q 1056 3291 1056 2328 
Q 1056 1369 1301 889 
Q 1547 409 2034 409 
Q 2525 409 2770 889 
Q 3016 1369 3016 2328 
Q 3016 3291 2770 3770 
Q 2525 4250 2034 4250 
z
M 2034 4750 
Q 2819 4750 3233 4129 
Q 3647 3509 3647 2328 
Q 3647 1150 3233 529 
Q 2819 -91 2034 -91 
Q 1250 -91 836 529 
Q 422 1150 422 2328 
Q 422 3509 836 4129 
Q 1250 4750 2034 4750 
z
" transform="scale(0.015625)"/>
        <path id="DejaVuSans-2e" d="M 684 794 
L 1344 794 
L 1344 0 
L 684 0 
L 684 794 
z
" transform="scale(0.015625)"/>
       </defs>
       <use xlink:href="#DejaVuSans-30"/>
       <use xlink:href="#DejaVuSans-2e" x="63.623047"/>
       <use xlink:href="#DejaVuSans-32" x="95.410156"/>
      </g>
     </g>
    </g>
    <g id="ytick_2">
     <g id="line2d_6">
      <g>
       <use xlink:href="#m36bc46a159" x="84.53" y="261.486354" style="stroke: #000000; stroke-width: 0.8"/>
      </g>
     </g>
     <g id="text_7">
      <!-- 0.4 -->
      <g transform="translate(45.72375 269.084792) scale(0.2 -0.2)">
       <defs>
        <path id="DejaVuSans-34" d="M 2419 4116 
L 825 1625 
L 2419 1625 
L 2419 4116 
z
M 2253 4666 
L 3047 4666 
L 3047 1625 
L 3713 1625 
L 3713 1100 
L 3047 1100 
L 3047 0 
L 2419 0 
L 2419 1100 
L 313 1100 
L 313 1709 
L 2253 4666 
z
" transform="scale(0.015625)"/>
       </defs>
       <use xlink:href="#DejaVuSans-30"/>
       <use xlink:href="#DejaVuSans-2e" x="63.623047"/>
       <use xlink:href="#DejaVuSans-34" x="95.410156"/>
      </g>
     </g>
    </g>
    <g id="ytick_3">
     <g id="line2d_7">
      <g>
       <use xlink:href="#m36bc46a159" x="84.53" y="193.68005" style="stroke: #000000; stroke-width: 0.8"/>
      </g>
     </g>
     <g id="text_8">
      <!-- 0.6 -->
      <g transform="translate(45.72375 201.278488) scale(0.2 -0.2)">
       <defs>
        <path id="DejaVuSans-36" d="M 2113 2584 
Q 1688 2584 1439 2293 
Q 1191 2003 1191 1497 
Q 1191 994 1439 701 
Q 1688 409 2113 409 
Q 2538 409 2786 701 
Q 3034 994 3034 1497 
Q 3034 2003 2786 2293 
Q 2538 2584 2113 2584 
z
M 3366 4563 
L 3366 3988 
Q 3128 4100 2886 4159 
Q 2644 4219 2406 4219 
Q 1781 4219 1451 3797 
Q 1122 3375 1075 2522 
Q 1259 2794 1537 2939 
Q 1816 3084 2150 3084 
Q 2853 3084 3261 2657 
Q 3669 2231 3669 1497 
Q 3669 778 3244 343 
Q 2819 -91 2113 -91 
Q 1303 -91 875 529 
Q 447 1150 447 2328 
Q 447 3434 972 4092 
Q 1497 4750 2381 4750 
Q 2619 4750 2861 4703 
Q 3103 4656 3366 4563 
z
" transform="scale(0.015625)"/>
       </defs>
       <use xlink:href="#DejaVuSans-30"/>
       <use xlink:href="#DejaVuSans-2e" x="63.623047"/>
       <use xlink:href="#DejaVuSans-36" x="95.410156"/>
      </g>
     </g>
    </g>
    <g id="ytick_4">
     <g id="line2d_8">
      <g>
       <use xlink:href="#m36bc46a159" x="84.53" y="125.873746" style="stroke: #000000; stroke-width: 0.8"/>
      </g>
     </g>
     <g id="text_9">
      <!-- 0.8 -->
      <g transform="translate(45.72375 133.472184) scale(0.2 -0.2)">
       <defs>
        <path id="DejaVuSans-38" d="M 2034 2216 
Q 1584 2216 1326 1975 
Q 1069 1734 1069 1313 
Q 1069 891 1326 650 
Q 1584 409 2034 409 
Q 2484 409 2743 651 
Q 3003 894 3003 1313 
Q 3003 1734 2745 1975 
Q 2488 2216 2034 2216 
z
M 1403 2484 
Q 997 2584 770 2862 
Q 544 3141 544 3541 
Q 544 4100 942 4425 
Q 1341 4750 2034 4750 
Q 2731 4750 3128 4425 
Q 3525 4100 3525 3541 
Q 3525 3141 3298 2862 
Q 3072 2584 2669 2484 
Q 3125 2378 3379 2068 
Q 3634 1759 3634 1313 
Q 3634 634 3220 271 
Q 2806 -91 2034 -91 
Q 1263 -91 848 271 
Q 434 634 434 1313 
Q 434 1759 690 2068 
Q 947 2378 1403 2484 
z
M 1172 3481 
Q 1172 3119 1398 2916 
Q 1625 2713 2034 2713 
Q 2441 2713 2670 2916 
Q 2900 3119 2900 3481 
Q 2900 3844 2670 4047 
Q 2441 4250 2034 4250 
Q 1625 4250 1398 4047 
Q 1172 3844 1172 3481 
z
" transform="scale(0.015625)"/>
       </defs>
       <use xlink:href="#DejaVuSans-30"/>
       <use xlink:href="#DejaVuSans-2e" x="63.623047"/>
       <use xlink:href="#DejaVuSans-38" x="95.410156"/>
      </g>
     </g>
    </g>
    <g id="ytick_5">
     <g id="line2d_9">
      <g>
       <use xlink:href="#m36bc46a159" x="84.53" y="58.067442" style="stroke: #000000; stroke-width: 0.8"/>
      </g>
     </g>
     <g id="text_10">
      <!-- 1.0 -->
      <g transform="translate(45.72375 65.66588) scale(0.2 -0.2)">
       <defs>
        <path id="DejaVuSans-31" d="M 794 531 
L 1825 531 
L 1825 4091 
L 703 3866 
L 703 4441 
L 1819 4666 
L 2450 4666 
L 2450 531 
L 3481 531 
L 3481 0 
L 794 0 
L 794 531 
z
" transform="scale(0.015625)"/>
       </defs>
       <use xlink:href="#DejaVuSans-31"/>
       <use xlink:href="#DejaVuSans-2e" x="63.623047"/>
       <use xlink:href="#DejaVuSans-30" x="95.410156"/>
      </g>
     </g>
    </g>
    <g id="text_11">
     <!-- TM-score -->
     <g transform="translate(37.564375 258.044706) rotate(-90) scale(0.2 -0.2)">
      <defs>
       <path id="DejaVuSans-2d" d="M 313 2009 
L 1997 2009 
L 1997 1497 
L 313 1497 
L 313 2009 
z
" transform="scale(0.015625)"/>
       <path id="DejaVuSans-63" d="M 3122 3366 
L 3122 2828 
Q 2878 2963 2633 3030 
Q 2388 3097 2138 3097 
Q 1578 3097 1268 2742 
Q 959 2388 959 1747 
Q 959 1106 1268 751 
Q 1578 397 2138 397 
Q 2388 397 2633 464 
Q 2878 531 3122 666 
L 3122 134 
Q 2881 22 2623 -34 
Q 2366 -91 2075 -91 
Q 1284 -91 818 406 
Q 353 903 353 1747 
Q 353 2603 823 3093 
Q 1294 3584 2113 3584 
Q 2378 3584 2631 3529 
Q 2884 3475 3122 3366 
z
" transform="scale(0.015625)"/>
      </defs>
      <use xlink:href="#DejaVuSans-54"/>
      <use xlink:href="#DejaVuSans-4d" x="61.083984"/>
      <use xlink:href="#DejaVuSans-2d" x="147.363281"/>
      <use xlink:href="#DejaVuSans-73" x="183.447266"/>
      <use xlink:href="#DejaVuSans-63" x="235.546875"/>
      <use xlink:href="#DejaVuSans-6f" x="290.527344"/>
      <use xlink:href="#DejaVuSans-72" x="351.708984"/>
      <use xlink:href="#DejaVuSans-65" x="390.572266"/>
     </g>
    </g>
   </g>
   <g id="line2d_10">
    <path d="M 138.966904 279.709299 
L 179.26375 279.709299 
" clip-path="url(#p6d2c72acaa)" style="fill: none; stroke-dasharray: 3.75,2.25; stroke-dashoffset: 0; stroke: #1e1e1e; stroke-width: 3"/>
   </g>
   <g id="line2d_11">
    <path d="M 145.727253 231.651581 
L 179.26375 231.651581 
" clip-path="url(#p6d2c72acaa)" style="fill: none; stroke-dasharray: 7.5,3; stroke-dashoffset: 0; stroke: #1e1e1e; stroke-width: 3"/>
   </g>
   <g id="line2d_12">
    <path d="M 156.578395 158.590288 
L 179.26375 158.590288 
" clip-path="url(#p6d2c72acaa)" style="fill: none; stroke-dasharray: 3.75,2.25; stroke-dashoffset: 0; stroke: #1e1e1e; stroke-width: 3"/>
   </g>
   <g id="line2d_13">
    <path d="M 179.26375 236.906569 
L 226.368585 236.906569 
" clip-path="url(#p6d2c72acaa)" style="fill: none; stroke-dasharray: 3.75,2.25; stroke-dashoffset: 0; stroke: #1e1e1e; stroke-width: 3"/>
   </g>
   <g id="line2d_14">
    <path d="M 179.26375 170.456391 
L 243.850907 170.456391 
" clip-path="url(#p6d2c72acaa)" style="fill: none; stroke-dasharray: 7.5,3; stroke-dashoffset: 0; stroke: #1e1e1e; stroke-width: 3"/>
   </g>
   <g id="line2d_15">
    <path d="M 179.26375 122.822463 
L 254.400106 122.822463 
" clip-path="url(#p6d2c72acaa)" style="fill: none; stroke-dasharray: 3.75,2.25; stroke-dashoffset: 0; stroke: #1e1e1e; stroke-width: 3"/>
   </g>
   <g id="line2d_16">
    <path d="M 328.529095 277.336078 
L 368.73125 277.336078 
" clip-path="url(#p6d2c72acaa)" style="fill: none; stroke-dasharray: 3.75,2.25; stroke-dashoffset: 0; stroke: #1e1e1e; stroke-width: 3"/>
   </g>
   <g id="line2d_17">
    <path d="M 334.119611 230.634486 
L 368.73125 230.634486 
" clip-path="url(#p6d2c72acaa)" style="fill: none; stroke-dasharray: 7.5,3; stroke-dashoffset: 0; stroke: #1e1e1e; stroke-width: 3"/>
   </g>
   <g id="line2d_18">
    <path d="M 345.211307 152.572479 
L 368.73125 152.572479 
" clip-path="url(#p6d2c72acaa)" style="fill: none; stroke-dasharray: 3.75,2.25; stroke-dashoffset: 0; stroke: #1e1e1e; stroke-width: 3"/>
   </g>
   <g id="line2d_19">
    <path d="M 368.73125 230.973518 
L 416.433047 230.973518 
" clip-path="url(#p6d2c72acaa)" style="fill: none; stroke-dasharray: 3.75,2.25; stroke-dashoffset: 0; stroke: #1e1e1e; stroke-width: 3"/>
   </g>
   <g id="line2d_20">
    <path d="M 368.73125 173.338159 
L 437.548488 173.338159 
" clip-path="url(#p6d2c72acaa)" style="fill: none; stroke-dasharray: 7.5,3; stroke-dashoffset: 0; stroke: #1e1e1e; stroke-width: 3"/>
   </g>
   <g id="line2d_21">
    <path d="M 368.73125 122.991978 
L 441.546749 122.991978 
" clip-path="url(#p6d2c72acaa)" style="fill: none; stroke-dasharray: 3.75,2.25; stroke-dashoffset: 0; stroke: #1e1e1e; stroke-width: 3"/>
   </g>
   <g id="line2d_22">
    <path d="M 487.919517 324.546217 
L 558.19875 324.546217 
" clip-path="url(#p6d2c72acaa)" style="fill: none; stroke-dasharray: 3.75,2.25; stroke-dashoffset: 0; stroke: #1e1e1e; stroke-width: 3"/>
   </g>
   <g id="line2d_23">
    <path d="M 485.562114 301.322558 
L 558.19875 301.322558 
" clip-path="url(#p6d2c72acaa)" style="fill: none; stroke-dasharray: 7.5,3; stroke-dashoffset: 0; stroke: #1e1e1e; stroke-width: 3"/>
   </g>
   <g id="line2d_24">
    <path d="M 524.89369 264.198607 
L 558.19875 264.198607 
" clip-path="url(#p6d2c72acaa)" style="fill: none; stroke-dasharray: 3.75,2.25; stroke-dashoffset: 0; stroke: #1e1e1e; stroke-width: 3"/>
   </g>
   <g id="line2d_25">
    <path d="M 558.19875 280.302604 
L 611.210157 280.302604 
" clip-path="url(#p6d2c72acaa)" style="fill: none; stroke-dasharray: 3.75,2.25; stroke-dashoffset: 0; stroke: #1e1e1e; stroke-width: 3"/>
   </g>
   <g id="line2d_26">
    <path d="M 558.19875 209.953563 
L 619.965764 209.953563 
" clip-path="url(#p6d2c72acaa)" style="fill: none; stroke-dasharray: 7.5,3; stroke-dashoffset: 0; stroke: #1e1e1e; stroke-width: 3"/>
   </g>
   <g id="line2d_27">
    <path d="M 558.19875 146.978458 
L 614.502888 146.978458 
" clip-path="url(#p6d2c72acaa)" style="fill: none; stroke-dasharray: 3.75,2.25; stroke-dashoffset: 0; stroke: #1e1e1e; stroke-width: 3"/>
   </g>
   <g id="line2d_28">
    <path d="M 703.554692 244.87381 
L 747.66625 244.87381 
" clip-path="url(#p6d2c72acaa)" style="fill: none; stroke-dasharray: 3.75,2.25; stroke-dashoffset: 0; stroke: #1e1e1e; stroke-width: 3"/>
   </g>
   <g id="line2d_29">
    <path d="M 701.553959 206.563248 
L 747.66625 206.563248 
" clip-path="url(#p6d2c72acaa)" style="fill: none; stroke-dasharray: 7.5,3; stroke-dashoffset: 0; stroke: #1e1e1e; stroke-width: 3"/>
   </g>
   <g id="line2d_30">
    <path d="M 720.013994 146.808943 
L 747.66625 146.808943 
" clip-path="url(#p6d2c72acaa)" style="fill: none; stroke-dasharray: 3.75,2.25; stroke-dashoffset: 0; stroke: #1e1e1e; stroke-width: 3"/>
   </g>
   <g id="patch_5">
    <path d="M 84.53 379.350663 
L 84.53 46.32 
" style="fill: none; stroke: #000000; stroke-width: 2; stroke-linejoin: miter; stroke-linecap: square"/>
   </g>
   <g id="text_12">
    <!-- TM-score of best model (N=174) -->
    <g transform="translate(267.765625 40.32) scale(0.24 -0.24)">
     <defs>
      <path id="DejaVuSans-66" d="M 2375 4863 
L 2375 4384 
L 1825 4384 
Q 1516 4384 1395 4259 
Q 1275 4134 1275 3809 
L 1275 3500 
L 2222 3500 
L 2222 3053 
L 1275 3053 
L 1275 0 
L 697 0 
L 697 3053 
L 147 3053 
L 147 3500 
L 697 3500 
L 697 3744 
Q 697 4328 969 4595 
Q 1241 4863 1831 4863 
L 2375 4863 
z
" transform="scale(0.015625)"/>
      <path id="DejaVuSans-62" d="M 3116 1747 
Q 3116 2381 2855 2742 
Q 2594 3103 2138 3103 
Q 1681 3103 1420 2742 
Q 1159 2381 1159 1747 
Q 1159 1113 1420 752 
Q 1681 391 2138 391 
Q 2594 391 2855 752 
Q 3116 1113 3116 1747 
z
M 1159 2969 
Q 1341 3281 1617 3432 
Q 1894 3584 2278 3584 
Q 2916 3584 3314 3078 
Q 3713 2572 3713 1747 
Q 3713 922 3314 415 
Q 2916 -91 2278 -91 
Q 1894 -91 1617 61 
Q 1341 213 1159 525 
L 1159 0 
L 581 0 
L 581 4863 
L 1159 4863 
L 1159 2969 
z
" transform="scale(0.015625)"/>
      <path id="DejaVuSans-6d" d="M 3328 2828 
Q 3544 3216 3844 3400 
Q 4144 3584 4550 3584 
Q 5097 3584 5394 3201 
Q 5691 2819 5691 2113 
L 5691 0 
L 5113 0 
L 5113 2094 
Q 5113 2597 4934 2840 
Q 4756 3084 4391 3084 
Q 3944 3084 3684 2787 
Q 3425 2491 3425 1978 
L 3425 0 
L 2847 0 
L 2847 2094 
Q 2847 2600 2669 2842 
Q 2491 3084 2119 3084 
Q 1678 3084 1418 2786 
Q 1159 2488 1159 1978 
L 1159 0 
L 581 0 
L 581 3500 
L 1159 3500 
L 1159 2956 
Q 1356 3278 1631 3431 
Q 1906 3584 2284 3584 
Q 2666 3584 2933 3390 
Q 3200 3197 3328 2828 
z
" transform="scale(0.015625)"/>
      <path id="DejaVuSans-28" d="M 1984 4856 
Q 1566 4138 1362 3434 
Q 1159 2731 1159 2009 
Q 1159 1288 1364 580 
Q 1569 -128 1984 -844 
L 1484 -844 
Q 1016 -109 783 600 
Q 550 1309 550 2009 
Q 550 2706 781 3412 
Q 1013 4119 1484 4856 
L 1984 4856 
z
" transform="scale(0.015625)"/>
      <path id="DejaVuSans-4e" d="M 628 4666 
L 1478 4666 
L 3547 763 
L 3547 4666 
L 4159 4666 
L 4159 0 
L 3309 0 
L 1241 3903 
L 1241 0 
L 628 0 
L 628 4666 
z
" transform="scale(0.015625)"/>
      <path id="DejaVuSans-3d" d="M 678 2906 
L 4684 2906 
L 4684 2381 
L 678 2381 
L 678 2906 
z
M 678 1631 
L 4684 1631 
L 4684 1100 
L 678 1100 
L 678 1631 
z
" transform="scale(0.015625)"/>
      <path id="DejaVuSans-37" d="M 525 4666 
L 3525 4666 
L 3525 4397 
L 1831 0 
L 1172 0 
L 2766 4134 
L 525 4134 
L 525 4666 
z
" transform="scale(0.015625)"/>
      <path id="DejaVuSans-29" d="M 513 4856 
L 1013 4856 
Q 1481 4119 1714 3412 
Q 1947 2706 1947 2009 
Q 1947 1309 1714 600 
Q 1481 -109 1013 -844 
L 513 -844 
Q 928 -128 1133 580 
Q 1338 1288 1338 2009 
Q 1338 2731 1133 3434 
Q 928 4138 513 4856 
z
" transform="scale(0.015625)"/>
     </defs>
     <use xlink:href="#DejaVuSans-54"/>
     <use xlink:href="#DejaVuSans-4d" x="61.083984"/>
     <use xlink:href="#DejaVuSans-2d" x="147.363281"/>
     <use xlink:href="#DejaVuSans-73" x="183.447266"/>
     <use xlink:href="#DejaVuSans-63" x="235.546875"/>
     <use xlink:href="#DejaVuSans-6f" x="290.527344"/>
     <use xlink:href="#DejaVuSans-72" x="351.708984"/>
     <use xlink:href="#DejaVuSans-65" x="390.572266"/>
     <use xlink:href="#DejaVuSans-20" x="452.095703"/>
     <use xlink:href="#DejaVuSans-6f" x="483.882812"/>
     <use xlink:href="#DejaVuSans-66" x="545.064453"/>
     <use xlink:href="#DejaVuSans-20" x="580.269531"/>
     <use xlink:href="#DejaVuSans-62" x="612.056641"/>
     <use xlink:href="#DejaVuSans-65" x="675.533203"/>
     <use xlink:href="#DejaVuSans-73" x="737.056641"/>
     <use xlink:href="#DejaVuSans-74" x="789.15625"/>
     <use xlink:href="#DejaVuSans-20" x="828.365234"/>
     <use xlink:href="#DejaVuSans-6d" x="860.152344"/>
     <use xlink:href="#DejaVuSans-6f" x="957.564453"/>
     <use xlink:href="#DejaVuSans-64" x="1018.746094"/>
     <use xlink:href="#DejaVuSans-65" x="1082.222656"/>
     <use xlink:href="#DejaVuSans-6c" x="1143.746094"/>
     <use xlink:href="#DejaVuSans-20" x="1171.529297"/>
     <use xlink:href="#DejaVuSans-28" x="1203.316406"/>
     <use xlink:href="#DejaVuSans-4e" x="1242.330078"/>
     <use xlink:href="#DejaVuSans-3d" x="1317.134766"/>
     <use xlink:href="#DejaVuSans-31" x="1400.923828"/>
     <use xlink:href="#DejaVuSans-37" x="1464.546875"/>
     <use xlink:href="#DejaVuSans-34" x="1528.169922"/>
     <use xlink:href="#DejaVuSans-29" x="1591.792969"/>
    </g>
   </g>
   <g id="legend_1">
    <g id="patch_6">
     <path d="M 384.2525 150.38875 
L 542.6775 150.38875 
Q 546.6775 150.38875 546.6775 146.38875 
L 546.6775 60.32 
Q 546.6775 56.32 542.6775 56.32 
L 384.2525 56.32 
Q 380.2525 56.32 380.2525 60.32 
L 380.2525 146.38875 
Q 380.2525 150.38875 384.2525 150.38875 
z
" style="fill: #ffffff; opacity: 0.8; stroke: #cccccc; stroke-linejoin: miter"/>
    </g>
    <g id="text_13">
     <!-- MSA -->
     <g transform="translate(441.460312 79.516875) scale(0.2 -0.2)">
      <defs>
       <path id="DejaVuSans-53" d="M 3425 4513 
L 3425 3897 
Q 3066 4069 2747 4153 
Q 2428 4238 2131 4238 
Q 1616 4238 1336 4038 
Q 1056 3838 1056 3469 
Q 1056 3159 1242 3001 
Q 1428 2844 1947 2747 
L 2328 2669 
Q 3034 2534 3370 2195 
Q 3706 1856 3706 1288 
Q 3706 609 3251 259 
Q 2797 -91 1919 -91 
Q 1588 -91 1214 -16 
Q 841 59 441 206 
L 441 856 
Q 825 641 1194 531 
Q 1563 422 1919 422 
Q 2459 422 2753 634 
Q 3047 847 3047 1241 
Q 3047 1584 2836 1778 
Q 2625 1972 2144 2069 
L 1759 2144 
Q 1053 2284 737 2584 
Q 422 2884 422 3419 
Q 422 4038 858 4394 
Q 1294 4750 2059 4750 
Q 2388 4750 2728 4690 
Q 3069 4631 3425 4513 
z
" transform="scale(0.015625)"/>
      </defs>
      <use xlink:href="#DejaVuSans-4d"/>
      <use xlink:href="#DejaVuSans-53" x="86.279297"/>
      <use xlink:href="#DejaVuSans-41" x="151.630859"/>
     </g>
    </g>
    <g id="patch_7">
     <path d="M 388.2525 108.873125 
L 428.2525 108.873125 
L 428.2525 94.873125 
L 388.2525 94.873125 
z
" style="fill: #006400"/>
    </g>
    <g id="text_14">
     <!-- MMseqs2 -->
     <g transform="translate(444.2525 108.873125) scale(0.2 -0.2)">
      <defs>
       <path id="DejaVuSans-71" d="M 947 1747 
Q 947 1113 1208 752 
Q 1469 391 1925 391 
Q 2381 391 2643 752 
Q 2906 1113 2906 1747 
Q 2906 2381 2643 2742 
Q 2381 3103 1925 3103 
Q 1469 3103 1208 2742 
Q 947 2381 947 1747 
z
M 2906 525 
Q 2725 213 2448 61 
Q 2172 -91 1784 -91 
Q 1150 -91 751 415 
Q 353 922 353 1747 
Q 353 2572 751 3078 
Q 1150 3584 1784 3584 
Q 2172 3584 2448 3432 
Q 2725 3281 2906 2969 
L 2906 3500 
L 3481 3500 
L 3481 -1331 
L 2906 -1331 
L 2906 525 
z
" transform="scale(0.015625)"/>
      </defs>
      <use xlink:href="#DejaVuSans-4d"/>
      <use xlink:href="#DejaVuSans-4d" x="86.279297"/>
      <use xlink:href="#DejaVuSans-73" x="172.558594"/>
      <use xlink:href="#DejaVuSans-65" x="224.658203"/>
      <use xlink:href="#DejaVuSans-71" x="286.181641"/>
      <use xlink:href="#DejaVuSans-73" x="349.658203"/>
      <use xlink:href="#DejaVuSans-32" x="401.757812"/>
     </g>
    </g>
    <g id="patch_8">
     <path d="M 388.2525 138.229375 
L 428.2525 138.229375 
L 428.2525 124.229375 
L 388.2525 124.229375 
z
" style="fill: #90ee90"/>
    </g>
    <g id="text_15">
     <!-- Synthetic -->
     <g transform="translate(444.2525 138.229375) scale(0.2 -0.2)">
      <defs>
       <path id="DejaVuSans-79" d="M 2059 -325 
Q 1816 -950 1584 -1140 
Q 1353 -1331 966 -1331 
L 506 -1331 
L 506 -850 
L 844 -850 
Q 1081 -850 1212 -737 
Q 1344 -625 1503 -206 
L 1606 56 
L 191 3500 
L 800 3500 
L 1894 763 
L 2988 3500 
L 3597 3500 
L 2059 -325 
z
" transform="scale(0.015625)"/>
       <path id="DejaVuSans-6e" d="M 3513 2113 
L 3513 0 
L 2938 0 
L 2938 2094 
Q 2938 2591 2744 2837 
Q 2550 3084 2163 3084 
Q 1697 3084 1428 2787 
Q 1159 2491 1159 1978 
L 1159 0 
L 581 0 
L 581 3500 
L 1159 3500 
L 1159 2956 
Q 1366 3272 1645 3428 
Q 1925 3584 2291 3584 
Q 2894 3584 3203 3211 
Q 3513 2838 3513 2113 
z
" transform="scale(0.015625)"/>
       <path id="DejaVuSans-69" d="M 603 3500 
L 1178 3500 
L 1178 0 
L 603 0 
L 603 3500 
z
M 603 4863 
L 1178 4863 
L 1178 4134 
L 603 4134 
L 603 4863 
z
" transform="scale(0.015625)"/>
      </defs>
      <use xlink:href="#DejaVuSans-53"/>
      <use xlink:href="#DejaVuSans-79" x="63.476562"/>
      <use xlink:href="#DejaVuSans-6e" x="122.65625"/>
      <use xlink:href="#DejaVuSans-74" x="186.035156"/>
      <use xlink:href="#DejaVuSans-68" x="225.244141"/>
      <use xlink:href="#DejaVuSans-65" x="288.623047"/>
      <use xlink:href="#DejaVuSans-74" x="350.146484"/>
      <use xlink:href="#DejaVuSans-69" x="389.355469"/>
      <use xlink:href="#DejaVuSans-63" x="417.138672"/>
     </g>
    </g>
   </g>
  </g>
 </g>
 <defs>
  <clipPath id="p6d2c72acaa">
   <rect x="84.53" y="46.32" width="757.87" height="333.030663"/>
  </clipPath>
 </defs>
</svg>
