<?xml version="1.0" encoding="utf-8" standalone="no"?>
<!DOCTYPE svg PUBLIC "-//W3C//DTD SVG 1.1//EN"
  "http://www.w3.org/Graphics/SVG/1.1/DTD/svg11.dtd">
<svg xmlns:xlink="http://www.w3.org/1999/xlink" width="504pt" height="576pt" viewBox="0 0 504 576" xmlns="http://www.w3.org/2000/svg" version="1.1">
 <metadata>
  <rdf:RDF xmlns:dc="http://purl.org/dc/elements/1.1/" xmlns:cc="http://creativecommons.org/ns#" xmlns:rdf="http://www.w3.org/1999/02/22-rdf-syntax-ns#">
   <cc:Work>
    <dc:type rdf:resource="http://purl.org/dc/dcmitype/StillImage"/>
    <dc:date>2025-11-07T09:51:22.099262</dc:date>
    <dc:format>image/svg+xml</dc:format>
    <dc:creator>
     <cc:Agent>
      <dc:title>Matplotlib v3.9.2, https://matplotlib.org/</dc:title>
     </cc:Agent>
    </dc:creator>
   </cc:Work>
  </rdf:RDF>
 </metadata>
 <defs>
  <style type="text/css">*{stroke-linejoin: round; stroke-linecap: butt}</style>
 </defs>
 <g id="figure_1">
  <g id="patch_1">
   <path d="M 0 576 
L 504 576 
L 504 0 
L 0 0 
L 0 576 
z
" style="fill: none"/>
  </g>
  <g id="axes_1">
   <g id="patch_2">
    <path d="M 84.53 384.505471 
L 482.4 384.505471 
L 482.4 46.32 
L 84.53 46.32 
L 84.53 384.505471 
z
" style="fill: none"/>
   </g>
   <g id="PolyCollection_1">
    <defs>
     <path id="m7e9614cb3b" d="M 183.9975 -207.211648 
L 173.906883 -207.211648 
L 172.327976 -210.313631 
L 170.581318 -213.415613 
L 168.662404 -216.517596 
L 166.568602 -219.619579 
L 164.299341 -222.721561 
L 161.856283 -225.823544 
L 159.243489 -228.925527 
L 156.467606 -232.027509 
L 153.538068 -235.129492 
L 150.46734 -238.231475 
L 147.271184 -241.333457 
L 143.968943 -244.43544 
L 140.583812 -247.537423 
L 137.143051 -250.639405 
L 133.678081 -253.741388 
L 130.224407 -256.843371 
L 126.821303 -259.945353 
L 123.511197 -263.047336 
L 120.338736 -266.149319 
L 117.349513 -269.251301 
L 114.588482 -272.353284 
L 112.098127 -275.455267 
L 109.916483 -278.55725 
L 108.075142 -281.659232 
L 106.597394 -284.761215 
L 105.496665 -287.863198 
L 104.775394 -290.96518 
L 104.424502 -294.067163 
L 104.4235 -297.169146 
L 104.741316 -300.271128 
L 105.33778 -303.373111 
L 106.1657 -306.475094 
L 107.173402 -309.577076 
L 108.307525 -312.679059 
L 109.515904 -315.781042 
L 110.750297 -318.883024 
L 111.968773 -321.985007 
L 113.137605 -325.08699 
L 114.232518 -328.188972 
L 115.239263 -331.290955 
L 116.153475 -334.392938 
L 116.979899 -337.49492 
L 117.731044 -340.596903 
L 118.425433 -343.698886 
L 119.085573 -346.800868 
L 119.735831 -349.902851 
L 120.400359 -353.004834 
L 121.101213 -356.106817 
L 121.856767 -359.208799 
L 122.68052 -362.310782 
L 123.580326 -365.412765 
L 124.558066 -368.514747 
L 125.609745 -371.61673 
L 126.725961 -374.718713 
L 127.892694 -377.820695 
L 129.092323 -380.922678 
L 130.304802 -384.024661 
L 131.508886 -387.126643 
L 132.683353 -390.228626 
L 133.808132 -393.330609 
L 134.865285 -396.432591 
L 135.839808 -399.534574 
L 136.720217 -402.636557 
L 137.498913 -405.738539 
L 138.172335 -408.840522 
L 138.740903 -411.942505 
L 139.208802 -415.044487 
L 139.583603 -418.14647 
L 139.87579 -421.248453 
L 140.098208 -424.350435 
L 140.26547 -427.452418 
L 140.393373 -430.554401 
L 140.498323 -433.656383 
L 140.596832 -436.758366 
L 140.705075 -439.860349 
L 140.838549 -442.962332 
L 141.011811 -446.064314 
L 141.238322 -449.166297 
L 141.530365 -452.26828 
L 141.899025 -455.370262 
L 142.354208 -458.472245 
L 142.904662 -461.574228 
L 143.557985 -464.67621 
L 144.32058 -467.778193 
L 145.197551 -470.880176 
L 146.192528 -473.982158 
L 147.307428 -477.084141 
L 148.542176 -480.186124 
L 149.894404 -483.288106 
L 151.359179 -486.390089 
L 152.928795 -489.492072 
L 154.592666 -492.594054 
L 156.337357 -495.696037 
L 158.146778 -498.79802 
L 160.002536 -501.900002 
L 161.884445 -505.001985 
L 163.771171 -508.103968 
L 165.640963 -511.20595 
L 167.472435 -514.307933 
L 183.9975 -514.307933 
L 183.9975 -514.307933 
L 183.9975 -511.20595 
L 183.9975 -508.103968 
L 183.9975 -505.001985 
L 183.9975 -501.900002 
L 183.9975 -498.79802 
L 183.9975 -495.696037 
L 183.9975 -492.594054 
L 183.9975 -489.492072 
L 183.9975 -486.390089 
L 183.9975 -483.288106 
L 183.9975 -480.186124 
L 183.9975 -477.084141 
L 183.9975 -473.982158 
L 183.9975 -470.880176 
L 183.9975 -467.778193 
L 183.9975 -464.67621 
L 183.9975 -461.574228 
L 183.9975 -458.472245 
L 183.9975 -455.370262 
L 183.9975 -452.26828 
L 183.9975 -449.166297 
L 183.9975 -446.064314 
L 183.9975 -442.962332 
L 183.9975 -439.860349 
L 183.9975 -436.758366 
L 183.9975 -433.656383 
L 183.9975 -430.554401 
L 183.9975 -427.452418 
L 183.9975 -424.350435 
L 183.9975 -421.248453 
L 183.9975 -418.14647 
L 183.9975 -415.044487 
L 183.9975 -411.942505 
L 183.9975 -408.840522 
L 183.9975 -405.738539 
L 183.9975 -402.636557 
L 183.9975 -399.534574 
L 183.9975 -396.432591 
L 183.9975 -393.330609 
L 183.9975 -390.228626 
L 183.9975 -387.126643 
L 183.9975 -384.024661 
L 183.9975 -380.922678 
L 183.9975 -377.820695 
L 183.9975 -374.718713 
L 183.9975 -371.61673 
L 183.9975 -368.514747 
L 183.9975 -365.412765 
L 183.9975 -362.310782 
L 183.9975 -359.208799 
L 183.9975 -356.106817 
L 183.9975 -353.004834 
L 183.9975 -349.902851 
L 183.9975 -346.800868 
L 183.9975 -343.698886 
L 183.9975 -340.596903 
L 183.9975 -337.49492 
L 183.9975 -334.392938 
L 183.9975 -331.290955 
L 183.9975 -328.188972 
L 183.9975 -325.08699 
L 183.9975 -321.985007 
L 183.9975 -318.883024 
L 183.9975 -315.781042 
L 183.9975 -312.679059 
L 183.9975 -309.577076 
L 183.9975 -306.475094 
L 183.9975 -303.373111 
L 183.9975 -300.271128 
L 183.9975 -297.169146 
L 183.9975 -294.067163 
L 183.9975 -290.96518 
L 183.9975 -287.863198 
L 183.9975 -284.761215 
L 183.9975 -281.659232 
L 183.9975 -278.55725 
L 183.9975 -275.455267 
L 183.9975 -272.353284 
L 183.9975 -269.251301 
L 183.9975 -266.149319 
L 183.9975 -263.047336 
L 183.9975 -259.945353 
L 183.9975 -256.843371 
L 183.9975 -253.741388 
L 183.9975 -250.639405 
L 183.9975 -247.537423 
L 183.9975 -244.43544 
L 183.9975 -241.333457 
L 183.9975 -238.231475 
L 183.9975 -235.129492 
L 183.9975 -232.027509 
L 183.9975 -228.925527 
L 183.9975 -225.823544 
L 183.9975 -222.721561 
L 183.9975 -219.619579 
L 183.9975 -216.517596 
L 183.9975 -213.415613 
L 183.9975 -210.313631 
L 183.9975 -207.211648 
z
" style="stroke: #1e1e1e; stroke-width: 3"/>
    </defs>
    <g clip-path="url(#p58d665c856)">
     <use xlink:href="#m7e9614cb3b" x="0" y="576" style="fill: #0c580c; stroke: #1e1e1e; stroke-width: 3"/>
    </g>
   </g>
   <g id="PolyCollection_2">
    <defs>
     <path id="mff8258fa04" d="M 188.360096 -206.866596 
L 183.9975 -206.866596 
L 183.9975 -209.961608 
L 183.9975 -213.05662 
L 183.9975 -216.151632 
L 183.9975 -219.246644 
L 183.9975 -222.341656 
L 183.9975 -225.436667 
L 183.9975 -228.531679 
L 183.9975 -231.626691 
L 183.9975 -234.721703 
L 183.9975 -237.816715 
L 183.9975 -240.911727 
L 183.9975 -244.006739 
L 183.9975 -247.101751 
L 183.9975 -250.196763 
L 183.9975 -253.291775 
L 183.9975 -256.386787 
L 183.9975 -259.481799 
L 183.9975 -262.576811 
L 183.9975 -265.671823 
L 183.9975 -268.766835 
L 183.9975 -271.861846 
L 183.9975 -274.956858 
L 183.9975 -278.05187 
L 183.9975 -281.146882 
L 183.9975 -284.241894 
L 183.9975 -287.336906 
L 183.9975 -290.431918 
L 183.9975 -293.52693 
L 183.9975 -296.621942 
L 183.9975 -299.716954 
L 183.9975 -302.811966 
L 183.9975 -305.906978 
L 183.9975 -309.00199 
L 183.9975 -312.097002 
L 183.9975 -315.192014 
L 183.9975 -318.287025 
L 183.9975 -321.382037 
L 183.9975 -324.477049 
L 183.9975 -327.572061 
L 183.9975 -330.667073 
L 183.9975 -333.762085 
L 183.9975 -336.857097 
L 183.9975 -339.952109 
L 183.9975 -343.047121 
L 183.9975 -346.142133 
L 183.9975 -349.237145 
L 183.9975 -352.332157 
L 183.9975 -355.427169 
L 183.9975 -358.522181 
L 183.9975 -361.617192 
L 183.9975 -364.712204 
L 183.9975 -367.807216 
L 183.9975 -370.902228 
L 183.9975 -373.99724 
L 183.9975 -377.092252 
L 183.9975 -380.187264 
L 183.9975 -383.282276 
L 183.9975 -386.377288 
L 183.9975 -389.4723 
L 183.9975 -392.567312 
L 183.9975 -395.662324 
L 183.9975 -398.757336 
L 183.9975 -401.852348 
L 183.9975 -404.94736 
L 183.9975 -408.042371 
L 183.9975 -411.137383 
L 183.9975 -414.232395 
L 183.9975 -417.327407 
L 183.9975 -420.422419 
L 183.9975 -423.517431 
L 183.9975 -426.612443 
L 183.9975 -429.707455 
L 183.9975 -432.802467 
L 183.9975 -435.897479 
L 183.9975 -438.992491 
L 183.9975 -442.087503 
L 183.9975 -445.182515 
L 183.9975 -448.277527 
L 183.9975 -451.372538 
L 183.9975 -454.46755 
L 183.9975 -457.562562 
L 183.9975 -460.657574 
L 183.9975 -463.752586 
L 183.9975 -466.847598 
L 183.9975 -469.94261 
L 183.9975 -473.037622 
L 183.9975 -476.132634 
L 183.9975 -479.227646 
L 183.9975 -482.322658 
L 183.9975 -485.41767 
L 183.9975 -488.512682 
L 183.9975 -491.607694 
L 183.9975 -494.702706 
L 183.9975 -497.797717 
L 183.9975 -500.892729 
L 183.9975 -503.987741 
L 183.9975 -507.082753 
L 183.9975 -510.177765 
L 183.9975 -513.272777 
L 207.75425 -513.272777 
L 207.75425 -513.272777 
L 210.955815 -510.177765 
L 214.332331 -507.082753 
L 217.853418 -503.987741 
L 221.48392 -500.892729 
L 225.184718 -497.797717 
L 228.913711 -494.702706 
L 232.626913 -491.607694 
L 236.279637 -488.512682 
L 239.827727 -485.41767 
L 243.228788 -482.322658 
L 246.443382 -479.227646 
L 249.436138 -476.132634 
L 252.176725 -473.037622 
L 254.640649 -469.94261 
L 256.809819 -466.847598 
L 258.672844 -463.752586 
L 260.225044 -460.657574 
L 261.46816 -457.562562 
L 262.409785 -454.46755 
L 263.062566 -451.372538 
L 263.443224 -448.277527 
L 263.5715 -445.182515 
L 263.469104 -442.087503 
L 263.158764 -438.992491 
L 262.663457 -435.897479 
L 262.005857 -432.802467 
L 261.208039 -429.707455 
L 260.291403 -426.612443 
L 259.276777 -423.517431 
L 258.184613 -420.422419 
L 257.035186 -417.327407 
L 255.848697 -414.232395 
L 254.645216 -411.137383 
L 253.444391 -408.042371 
L 252.264941 -404.94736 
L 251.123945 -401.852348 
L 250.035995 -398.757336 
L 249.012328 -395.662324 
L 248.060037 -392.567312 
L 247.181492 -389.4723 
L 246.374058 -386.377288 
L 245.6302 -383.282276 
L 244.937979 -380.187264 
L 244.281957 -377.092252 
L 243.644418 -373.99724 
L 243.006831 -370.902228 
L 242.351409 -367.807216 
L 241.662648 -364.712204 
L 240.928683 -361.617192 
L 240.142363 -358.522181 
L 239.301934 -355.427169 
L 238.411277 -352.332157 
L 237.479694 -349.237145 
L 236.521241 -346.142133 
L 235.55369 -343.047121 
L 234.597181 -339.952109 
L 233.6727 -336.857097 
L 232.800474 -333.762085 
L 231.998423 -330.667073 
L 231.280766 -327.572061 
L 230.656878 -324.477049 
L 230.130474 -321.382037 
L 229.699159 -318.287025 
L 229.35436 -315.192014 
L 229.081631 -312.097002 
L 228.861308 -309.00199 
L 228.669438 -305.906978 
L 228.478935 -302.811966 
L 228.26089 -299.716954 
L 227.98594 -296.621942 
L 227.625656 -293.52693 
L 227.153849 -290.431918 
L 226.547763 -287.336906 
L 225.789097 -284.241894 
L 224.864812 -281.146882 
L 223.767706 -278.05187 
L 222.496725 -274.956858 
L 221.057004 -271.861846 
L 219.459646 -268.766835 
L 217.721227 -265.671823 
L 215.863079 -262.576811 
L 213.910363 -259.481799 
L 211.890982 -256.386787 
L 209.834403 -253.291775 
L 207.770428 -250.196763 
L 205.728005 -247.101751 
L 203.734125 -244.006739 
L 201.812872 -240.911727 
L 199.984668 -237.816715 
L 198.265764 -234.721703 
L 196.667961 -231.626691 
L 195.198597 -228.531679 
L 193.860753 -225.436667 
L 192.65366 -222.341656 
L 191.573258 -219.246644 
L 190.612856 -216.151632 
L 189.763843 -213.05662 
L 189.016388 -209.961608 
L 188.360096 -206.866596 
z
" style="stroke: #1e1e1e; stroke-width: 3"/>
    </defs>
    <g clip-path="url(#p58d665c856)">
     <use xlink:href="#mff8258fa04" x="0" y="576" style="fill: #9ce29c; stroke: #1e1e1e; stroke-width: 3"/>
    </g>
   </g>
   <g id="PolyCollection_3">
    <defs>
     <path id="m480543008c" d="M 389.851785 -206.866596 
L 382.9325 -206.866596 
L 382.9325 -209.877959 
L 382.9325 -212.889322 
L 382.9325 -215.900685 
L 382.9325 -218.912048 
L 382.9325 -221.923411 
L 382.9325 -224.934774 
L 382.9325 -227.946137 
L 382.9325 -230.9575 
L 382.9325 -233.968863 
L 382.9325 -236.980226 
L 382.9325 -239.991588 
L 382.9325 -243.002951 
L 382.9325 -246.014314 
L 382.9325 -249.025677 
L 382.9325 -252.03704 
L 382.9325 -255.048403 
L 382.9325 -258.059766 
L 382.9325 -261.071129 
L 382.9325 -264.082492 
L 382.9325 -267.093855 
L 382.9325 -270.105218 
L 382.9325 -273.116581 
L 382.9325 -276.127944 
L 382.9325 -279.139307 
L 382.9325 -282.15067 
L 382.9325 -285.162033 
L 382.9325 -288.173396 
L 382.9325 -291.184759 
L 382.9325 -294.196122 
L 382.9325 -297.207485 
L 382.9325 -300.218848 
L 382.9325 -303.230211 
L 382.9325 -306.241574 
L 382.9325 -309.252937 
L 382.9325 -312.2643 
L 382.9325 -315.275662 
L 382.9325 -318.287025 
L 382.9325 -321.298388 
L 382.9325 -324.309751 
L 382.9325 -327.321114 
L 382.9325 -330.332477 
L 382.9325 -333.34384 
L 382.9325 -336.355203 
L 382.9325 -339.366566 
L 382.9325 -342.377929 
L 382.9325 -345.389292 
L 382.9325 -348.400655 
L 382.9325 -351.412018 
L 382.9325 -354.423381 
L 382.9325 -357.434744 
L 382.9325 -360.446107 
L 382.9325 -363.45747 
L 382.9325 -366.468833 
L 382.9325 -369.480196 
L 382.9325 -372.491559 
L 382.9325 -375.502922 
L 382.9325 -378.514285 
L 382.9325 -381.525648 
L 382.9325 -384.537011 
L 382.9325 -387.548374 
L 382.9325 -390.559736 
L 382.9325 -393.571099 
L 382.9325 -396.582462 
L 382.9325 -399.593825 
L 382.9325 -402.605188 
L 382.9325 -405.616551 
L 382.9325 -408.627914 
L 382.9325 -411.639277 
L 382.9325 -414.65064 
L 382.9325 -417.662003 
L 382.9325 -420.673366 
L 382.9325 -423.684729 
L 382.9325 -426.696092 
L 382.9325 -429.707455 
L 382.9325 -432.718818 
L 382.9325 -435.730181 
L 382.9325 -438.741544 
L 382.9325 -441.752907 
L 382.9325 -444.76427 
L 382.9325 -447.775633 
L 382.9325 -450.786996 
L 382.9325 -453.798359 
L 382.9325 -456.809722 
L 382.9325 -459.821085 
L 382.9325 -462.832448 
L 382.9325 -465.84381 
L 382.9325 -468.855173 
L 382.9325 -471.866536 
L 382.9325 -474.877899 
L 382.9325 -477.889262 
L 382.9325 -480.900625 
L 382.9325 -483.911988 
L 382.9325 -486.923351 
L 382.9325 -489.934714 
L 382.9325 -492.946077 
L 382.9325 -495.95744 
L 382.9325 -498.968803 
L 382.9325 -501.980166 
L 382.9325 -504.991529 
L 406.056632 -504.991529 
L 406.056632 -504.991529 
L 408.594838 -501.980166 
L 411.193315 -498.968803 
L 413.824154 -495.95744 
L 416.458253 -492.946077 
L 419.066181 -489.934714 
L 421.619062 -486.923351 
L 424.089441 -483.911988 
L 426.452099 -480.900625 
L 428.684778 -477.889262 
L 430.768796 -474.877899 
L 432.689515 -471.866536 
L 434.436656 -468.855173 
L 436.004425 -465.84381 
L 437.391463 -462.832448 
L 438.600615 -459.821085 
L 439.638524 -456.809722 
L 440.515084 -453.798359 
L 441.242788 -450.786996 
L 441.835998 -447.775633 
L 442.310209 -444.76427 
L 442.681332 -441.752907 
L 442.965055 -438.741544 
L 443.176318 -435.730181 
L 443.328913 -432.718818 
L 443.435229 -429.707455 
L 443.506122 -426.696092 
L 443.550905 -423.684729 
L 443.577399 -420.673366 
L 443.592037 -417.662003 
L 443.599963 -414.65064 
L 443.605107 -411.639277 
L 443.610215 -408.627914 
L 443.616832 -405.616551 
L 443.625252 -402.605188 
L 443.634457 -399.593825 
L 443.64208 -396.582462 
L 443.644429 -393.571099 
L 443.636606 -390.559736 
L 443.612753 -387.548374 
L 443.566419 -384.537011 
L 443.491055 -381.525648 
L 443.380608 -378.514285 
L 443.230169 -375.502922 
L 443.036628 -372.491559 
L 442.799267 -369.480196 
L 442.520251 -366.468833 
L 442.204941 -363.45747 
L 441.862012 -360.446107 
L 441.503336 -357.434744 
L 441.143633 -354.423381 
L 440.799899 -351.412018 
L 440.490633 -348.400655 
L 440.234911 -345.389292 
L 440.051346 -342.377929 
L 439.956991 -339.366566 
L 439.966242 -336.355203 
L 440.089796 -333.34384 
L 440.333709 -330.332477 
L 440.698621 -327.321114 
L 441.179171 -324.309751 
L 441.763664 -321.298388 
L 442.434002 -318.287025 
L 443.165916 -315.275662 
L 443.929505 -312.2643 
L 444.690072 -309.252937 
L 445.409242 -306.241574 
L 446.046329 -303.230211 
L 446.559878 -300.218848 
L 446.909329 -297.207485 
L 447.056705 -294.196122 
L 446.968248 -291.184759 
L 446.615894 -288.173396 
L 445.978517 -285.162033 
L 445.042868 -282.15067 
L 443.804154 -279.139307 
L 442.266222 -276.127944 
L 440.44136 -273.116581 
L 438.349718 -270.105218 
L 436.018397 -267.093855 
L 433.480276 -264.082492 
L 430.772632 -261.071129 
L 427.93566 -258.059766 
L 425.010953 -255.048403 
L 422.040031 -252.03704 
L 419.062992 -249.025677 
L 416.117333 -246.014314 
L 413.236981 -243.002951 
L 410.451569 -239.991588 
L 407.785953 -236.980226 
L 405.259971 -233.968863 
L 402.888429 -230.9575 
L 400.681276 -227.946137 
L 398.643945 -224.934774 
L 396.777817 -221.923411 
L 395.080767 -218.912048 
L 393.547763 -215.900685 
L 392.171477 -212.889322 
L 390.942878 -209.877959 
L 389.851785 -206.866596 
z
" style="stroke: #1e1e1e; stroke-width: 3"/>
    </defs>
    <g clip-path="url(#p58d665c856)">
     <use xlink:href="#m480543008c" x="0" y="576" style="fill: #9ce29c; stroke: #1e1e1e; stroke-width: 3"/>
    </g>
   </g>
   <g id="patch_3">
    <path d="M 183.9975 402.948501 
L 183.9975 402.948501 
L 183.9975 402.948501 
L 183.9975 402.948501 
z
" clip-path="url(#p58d665c856)" style="fill: #0c580c; stroke: #1e1e1e; stroke-width: 3; stroke-linejoin: miter"/>
   </g>
   <g id="patch_4">
    <path d="M 183.9975 402.948501 
L 183.9975 402.948501 
L 183.9975 402.948501 
L 183.9975 402.948501 
z
" clip-path="url(#p58d665c856)" style="fill: #9ce29c; stroke: #1e1e1e; stroke-width: 3; stroke-linejoin: miter"/>
   </g>
   <g id="matplotlib.axis_1">
    <g id="xtick_1">
     <g id="line2d_1"/>
     <g id="text_1">
      <!-- AlphaFold 2 -->
      <g transform="translate(146.457864 481.635248) rotate(-45) scale(0.2 -0.2)">
       <defs>
        <path id="DejaVuSans-41" d="M 2188 4044 
L 1331 1722 
L 3047 1722 
L 2188 4044 
z
M 1831 4666 
L 2547 4666 
L 4325 0 
L 3669 0 
L 3244 1197 
L 1141 1197 
L 716 0 
L 50 0 
L 1831 4666 
z
" transform="scale(0.015625)"/>
        <path id="DejaVuSans-6c" d="M 603 4863 
L 1178 4863 
L 1178 0 
L 603 0 
L 603 4863 
z
" transform="scale(0.015625)"/>
        <path id="DejaVuSans-70" d="M 1159 525 
L 1159 -1331 
L 581 -1331 
L 581 3500 
L 1159 3500 
L 1159 2969 
Q 1341 3281 1617 3432 
Q 1894 3584 2278 3584 
Q 2916 3584 3314 3078 
Q 3713 2572 3713 1747 
Q 3713 922 3314 415 
Q 2916 -91 2278 -91 
Q 1894 -91 1617 61 
Q 1341 213 1159 525 
z
M 3116 1747 
Q 3116 2381 2855 2742 
Q 2594 3103 2138 3103 
Q 1681 3103 1420 2742 
Q 1159 2381 1159 1747 
Q 1159 1113 1420 752 
Q 1681 391 2138 391 
Q 2594 391 2855 752 
Q 3116 1113 3116 1747 
z
" transform="scale(0.015625)"/>
        <path id="DejaVuSans-68" d="M 3513 2113 
L 3513 0 
L 2938 0 
L 2938 2094 
Q 2938 2591 2744 2837 
Q 2550 3084 2163 3084 
Q 1697 3084 1428 2787 
Q 1159 2491 1159 1978 
L 1159 0 
L 581 0 
L 581 4863 
L 1159 4863 
L 1159 2956 
Q 1366 3272 1645 3428 
Q 1925 3584 2291 3584 
Q 2894 3584 3203 3211 
Q 3513 2838 3513 2113 
z
" transform="scale(0.015625)"/>
        <path id="DejaVuSans-61" d="M 2194 1759 
Q 1497 1759 1228 1600 
Q 959 1441 959 1056 
Q 959 750 1161 570 
Q 1363 391 1709 391 
Q 2188 391 2477 730 
Q 2766 1069 2766 1631 
L 2766 1759 
L 2194 1759 
z
M 3341 1997 
L 3341 0 
L 2766 0 
L 2766 531 
Q 2569 213 2275 61 
Q 1981 -91 1556 -91 
Q 1019 -91 701 211 
Q 384 513 384 1019 
Q 384 1609 779 1909 
Q 1175 2209 1959 2209 
L 2766 2209 
L 2766 2266 
Q 2766 2663 2505 2880 
Q 2244 3097 1772 3097 
Q 1472 3097 1187 3025 
Q 903 2953 641 2809 
L 641 3341 
Q 956 3463 1253 3523 
Q 1550 3584 1831 3584 
Q 2591 3584 2966 3190 
Q 3341 2797 3341 1997 
z
" transform="scale(0.015625)"/>
        <path id="DejaVuSans-46" d="M 628 4666 
L 3309 4666 
L 3309 4134 
L 1259 4134 
L 1259 2759 
L 3109 2759 
L 3109 2228 
L 1259 2228 
L 1259 0 
L 628 0 
L 628 4666 
z
" transform="scale(0.015625)"/>
        <path id="DejaVuSans-6f" d="M 1959 3097 
Q 1497 3097 1228 2736 
Q 959 2375 959 1747 
Q 959 1119 1226 758 
Q 1494 397 1959 397 
Q 2419 397 2687 759 
Q 2956 1122 2956 1747 
Q 2956 2369 2687 2733 
Q 2419 3097 1959 3097 
z
M 1959 3584 
Q 2709 3584 3137 3096 
Q 3566 2609 3566 1747 
Q 3566 888 3137 398 
Q 2709 -91 1959 -91 
Q 1206 -91 779 398 
Q 353 888 353 1747 
Q 353 2609 779 3096 
Q 1206 3584 1959 3584 
z
" transform="scale(0.015625)"/>
        <path id="DejaVuSans-64" d="M 2906 2969 
L 2906 4863 
L 3481 4863 
L 3481 0 
L 2906 0 
L 2906 525 
Q 2725 213 2448 61 
Q 2172 -91 1784 -91 
Q 1150 -91 751 415 
Q 353 922 353 1747 
Q 353 2572 751 3078 
Q 1150 3584 1784 3584 
Q 2172 3584 2448 3432 
Q 2725 3281 2906 2969 
z
M 947 1747 
Q 947 1113 1208 752 
Q 1469 391 1925 391 
Q 2381 391 2643 752 
Q 2906 1113 2906 1747 
Q 2906 2381 2643 2742 
Q 2381 3103 1925 3103 
Q 1469 3103 1208 2742 
Q 947 2381 947 1747 
z
" transform="scale(0.015625)"/>
        <path id="DejaVuSans-20" transform="scale(0.015625)"/>
        <path id="DejaVuSans-32" d="M 1228 531 
L 3431 531 
L 3431 0 
L 469 0 
L 469 531 
Q 828 903 1448 1529 
Q 2069 2156 2228 2338 
Q 2531 2678 2651 2914 
Q 2772 3150 2772 3378 
Q 2772 3750 2511 3984 
Q 2250 4219 1831 4219 
Q 1534 4219 1204 4116 
Q 875 4013 500 3803 
L 500 4441 
Q 881 4594 1212 4672 
Q 1544 4750 1819 4750 
Q 2544 4750 2975 4387 
Q 3406 4025 3406 3419 
Q 3406 3131 3298 2873 
Q 3191 2616 2906 2266 
Q 2828 2175 2409 1742 
Q 1991 1309 1228 531 
z
" transform="scale(0.015625)"/>
       </defs>
       <use xlink:href="#DejaVuSans-41"/>
       <use xlink:href="#DejaVuSans-6c" x="68.408203"/>
       <use xlink:href="#DejaVuSans-70" x="96.191406"/>
       <use xlink:href="#DejaVuSans-68" x="159.667969"/>
       <use xlink:href="#DejaVuSans-61" x="223.046875"/>
       <use xlink:href="#DejaVuSans-46" x="284.326172"/>
       <use xlink:href="#DejaVuSans-6f" x="338.220703"/>
       <use xlink:href="#DejaVuSans-6c" x="399.402344"/>
       <use xlink:href="#DejaVuSans-64" x="427.185547"/>
       <use xlink:href="#DejaVuSans-20" x="490.662109"/>
       <use xlink:href="#DejaVuSans-32" x="522.449219"/>
      </g>
     </g>
    </g>
    <g id="xtick_2">
     <g id="line2d_2"/>
     <g id="text_2">
      <!-- Remote homologs -->
      <g transform="translate(322.81848 526.784016) rotate(-45) scale(0.2 -0.2)">
       <defs>
        <path id="DejaVuSans-52" d="M 2841 2188 
Q 3044 2119 3236 1894 
Q 3428 1669 3622 1275 
L 4263 0 
L 3584 0 
L 2988 1197 
Q 2756 1666 2539 1819 
Q 2322 1972 1947 1972 
L 1259 1972 
L 1259 0 
L 628 0 
L 628 4666 
L 2053 4666 
Q 2853 4666 3247 4331 
Q 3641 3997 3641 3322 
Q 3641 2881 3436 2590 
Q 3231 2300 2841 2188 
z
M 1259 4147 
L 1259 2491 
L 2053 2491 
Q 2509 2491 2742 2702 
Q 2975 2913 2975 3322 
Q 2975 3731 2742 3939 
Q 2509 4147 2053 4147 
L 1259 4147 
z
" transform="scale(0.015625)"/>
        <path id="DejaVuSans-65" d="M 3597 1894 
L 3597 1613 
L 953 1613 
Q 991 1019 1311 708 
Q 1631 397 2203 397 
Q 2534 397 2845 478 
Q 3156 559 3463 722 
L 3463 178 
Q 3153 47 2828 -22 
Q 2503 -91 2169 -91 
Q 1331 -91 842 396 
Q 353 884 353 1716 
Q 353 2575 817 3079 
Q 1281 3584 2069 3584 
Q 2775 3584 3186 3129 
Q 3597 2675 3597 1894 
z
M 3022 2063 
Q 3016 2534 2758 2815 
Q 2500 3097 2075 3097 
Q 1594 3097 1305 2825 
Q 1016 2553 972 2059 
L 3022 2063 
z
" transform="scale(0.015625)"/>
        <path id="DejaVuSans-6d" d="M 3328 2828 
Q 3544 3216 3844 3400 
Q 4144 3584 4550 3584 
Q 5097 3584 5394 3201 
Q 5691 2819 5691 2113 
L 5691 0 
L 5113 0 
L 5113 2094 
Q 5113 2597 4934 2840 
Q 4756 3084 4391 3084 
Q 3944 3084 3684 2787 
Q 3425 2491 3425 1978 
L 3425 0 
L 2847 0 
L 2847 2094 
Q 2847 2600 2669 2842 
Q 2491 3084 2119 3084 
Q 1678 3084 1418 2786 
Q 1159 2488 1159 1978 
L 1159 0 
L 581 0 
L 581 3500 
L 1159 3500 
L 1159 2956 
Q 1356 3278 1631 3431 
Q 1906 3584 2284 3584 
Q 2666 3584 2933 3390 
Q 3200 3197 3328 2828 
z
" transform="scale(0.015625)"/>
        <path id="DejaVuSans-74" d="M 1172 4494 
L 1172 3500 
L 2356 3500 
L 2356 3053 
L 1172 3053 
L 1172 1153 
Q 1172 725 1289 603 
Q 1406 481 1766 481 
L 2356 481 
L 2356 0 
L 1766 0 
Q 1100 0 847 248 
Q 594 497 594 1153 
L 594 3053 
L 172 3053 
L 172 3500 
L 594 3500 
L 594 4494 
L 1172 4494 
z
" transform="scale(0.015625)"/>
        <path id="DejaVuSans-67" d="M 2906 1791 
Q 2906 2416 2648 2759 
Q 2391 3103 1925 3103 
Q 1463 3103 1205 2759 
Q 947 2416 947 1791 
Q 947 1169 1205 825 
Q 1463 481 1925 481 
Q 2391 481 2648 825 
Q 2906 1169 2906 1791 
z
M 3481 434 
Q 3481 -459 3084 -895 
Q 2688 -1331 1869 -1331 
Q 1566 -1331 1297 -1286 
Q 1028 -1241 775 -1147 
L 775 -588 
Q 1028 -725 1275 -790 
Q 1522 -856 1778 -856 
Q 2344 -856 2625 -561 
Q 2906 -266 2906 331 
L 2906 616 
Q 2728 306 2450 153 
Q 2172 0 1784 0 
Q 1141 0 747 490 
Q 353 981 353 1791 
Q 353 2603 747 3093 
Q 1141 3584 1784 3584 
Q 2172 3584 2450 3431 
Q 2728 3278 2906 2969 
L 2906 3500 
L 3481 3500 
L 3481 434 
z
" transform="scale(0.015625)"/>
        <path id="DejaVuSans-73" d="M 2834 3397 
L 2834 2853 
Q 2591 2978 2328 3040 
Q 2066 3103 1784 3103 
Q 1356 3103 1142 2972 
Q 928 2841 928 2578 
Q 928 2378 1081 2264 
Q 1234 2150 1697 2047 
L 1894 2003 
Q 2506 1872 2764 1633 
Q 3022 1394 3022 966 
Q 3022 478 2636 193 
Q 2250 -91 1575 -91 
Q 1294 -91 989 -36 
Q 684 19 347 128 
L 347 722 
Q 666 556 975 473 
Q 1284 391 1588 391 
Q 1994 391 2212 530 
Q 2431 669 2431 922 
Q 2431 1156 2273 1281 
Q 2116 1406 1581 1522 
L 1381 1569 
Q 847 1681 609 1914 
Q 372 2147 372 2553 
Q 372 3047 722 3315 
Q 1072 3584 1716 3584 
Q 2034 3584 2315 3537 
Q 2597 3491 2834 3397 
z
" transform="scale(0.015625)"/>
       </defs>
       <use xlink:href="#DejaVuSans-52"/>
       <use xlink:href="#DejaVuSans-65" x="64.982422"/>
       <use xlink:href="#DejaVuSans-6d" x="126.505859"/>
       <use xlink:href="#DejaVuSans-6f" x="223.917969"/>
       <use xlink:href="#DejaVuSans-74" x="285.099609"/>
       <use xlink:href="#DejaVuSans-65" x="324.308594"/>
       <use xlink:href="#DejaVuSans-20" x="385.832031"/>
       <use xlink:href="#DejaVuSans-68" x="417.619141"/>
       <use xlink:href="#DejaVuSans-6f" x="480.998047"/>
       <use xlink:href="#DejaVuSans-6d" x="542.179688"/>
       <use xlink:href="#DejaVuSans-6f" x="639.591797"/>
       <use xlink:href="#DejaVuSans-6c" x="700.773438"/>
       <use xlink:href="#DejaVuSans-6f" x="728.556641"/>
       <use xlink:href="#DejaVuSans-67" x="789.738281"/>
       <use xlink:href="#DejaVuSans-73" x="853.214844"/>
      </g>
     </g>
    </g>
    <g id="text_3">
     <!-- Model -->
     <g transform="translate(253.438438 548.922013) scale(0.2 -0.2)">
      <defs>
       <path id="DejaVuSans-4d" d="M 628 4666 
L 1569 4666 
L 2759 1491 
L 3956 4666 
L 4897 4666 
L 4897 0 
L 4281 0 
L 4281 4097 
L 3078 897 
L 2444 897 
L 1241 4097 
L 1241 0 
L 628 0 
L 628 4666 
z
" transform="scale(0.015625)"/>
      </defs>
      <use xlink:href="#DejaVuSans-4d"/>
      <use xlink:href="#DejaVuSans-6f" x="86.279297"/>
      <use xlink:href="#DejaVuSans-64" x="147.460938"/>
      <use xlink:href="#DejaVuSans-65" x="210.9375"/>
      <use xlink:href="#DejaVuSans-6c" x="272.460938"/>
     </g>
    </g>
   </g>
   <g id="matplotlib.axis_2">
    <g id="ytick_1">
     <g id="line2d_3">
      <defs>
       <path id="mdfafb331ba" d="M 0 0 
L -3.5 0 
" style="stroke: #000000; stroke-width: 0.8"/>
      </defs>
      <g>
       <use xlink:href="#mdfafb331ba" x="84.53" y="333.9381" style="stroke: #000000; stroke-width: 0.8"/>
      </g>
     </g>
     <g id="text_4">
      <!-- 0.2 -->
      <g transform="translate(45.72375 341.536537) scale(0.2 -0.2)">
       <defs>
        <path id="DejaVuSans-30" d="M 2034 4250 
Q 1547 4250 1301 3770 
Q 1056 3291 1056 2328 
Q 1056 1369 1301 889 
Q 1547 409 2034 409 
Q 2525 409 2770 889 
Q 3016 1369 3016 2328 
Q 3016 3291 2770 3770 
Q 2525 4250 2034 4250 
z
M 2034 4750 
Q 2819 4750 3233 4129 
Q 3647 3509 3647 2328 
Q 3647 1150 3233 529 
Q 2819 -91 2034 -91 
Q 1250 -91 836 529 
Q 422 1150 422 2328 
Q 422 3509 836 4129 
Q 1250 4750 2034 4750 
z
" transform="scale(0.015625)"/>
        <path id="DejaVuSans-2e" d="M 684 794 
L 1344 794 
L 1344 0 
L 684 0 
L 684 794 
z
" transform="scale(0.015625)"/>
       </defs>
       <use xlink:href="#DejaVuSans-30"/>
       <use xlink:href="#DejaVuSans-2e" x="63.623047"/>
       <use xlink:href="#DejaVuSans-32" x="95.410156"/>
      </g>
     </g>
    </g>
    <g id="ytick_2">
     <g id="line2d_4">
      <g>
       <use xlink:href="#mdfafb331ba" x="84.53" y="264.927698" style="stroke: #000000; stroke-width: 0.8"/>
      </g>
     </g>
     <g id="text_5">
      <!-- 0.4 -->
      <g transform="translate(45.72375 272.526136) scale(0.2 -0.2)">
       <defs>
        <path id="DejaVuSans-34" d="M 2419 4116 
L 825 1625 
L 2419 1625 
L 2419 4116 
z
M 2253 4666 
L 3047 4666 
L 3047 1625 
L 3713 1625 
L 3713 1100 
L 3047 1100 
L 3047 0 
L 2419 0 
L 2419 1100 
L 313 1100 
L 313 1709 
L 2253 4666 
z
" transform="scale(0.015625)"/>
       </defs>
       <use xlink:href="#DejaVuSans-30"/>
       <use xlink:href="#DejaVuSans-2e" x="63.623047"/>
       <use xlink:href="#DejaVuSans-34" x="95.410156"/>
      </g>
     </g>
    </g>
    <g id="ytick_3">
     <g id="line2d_5">
      <g>
       <use xlink:href="#mdfafb331ba" x="84.53" y="195.917297" style="stroke: #000000; stroke-width: 0.8"/>
      </g>
     </g>
     <g id="text_6">
      <!-- 0.6 -->
      <g transform="translate(45.72375 203.515735) scale(0.2 -0.2)">
       <defs>
        <path id="DejaVuSans-36" d="M 2113 2584 
Q 1688 2584 1439 2293 
Q 1191 2003 1191 1497 
Q 1191 994 1439 701 
Q 1688 409 2113 409 
Q 2538 409 2786 701 
Q 3034 994 3034 1497 
Q 3034 2003 2786 2293 
Q 2538 2584 2113 2584 
z
M 3366 4563 
L 3366 3988 
Q 3128 4100 2886 4159 
Q 2644 4219 2406 4219 
Q 1781 4219 1451 3797 
Q 1122 3375 1075 2522 
Q 1259 2794 1537 2939 
Q 1816 3084 2150 3084 
Q 2853 3084 3261 2657 
Q 3669 2231 3669 1497 
Q 3669 778 3244 343 
Q 2819 -91 2113 -91 
Q 1303 -91 875 529 
Q 447 1150 447 2328 
Q 447 3434 972 4092 
Q 1497 4750 2381 4750 
Q 2619 4750 2861 4703 
Q 3103 4656 3366 4563 
z
" transform="scale(0.015625)"/>
       </defs>
       <use xlink:href="#DejaVuSans-30"/>
       <use xlink:href="#DejaVuSans-2e" x="63.623047"/>
       <use xlink:href="#DejaVuSans-36" x="95.410156"/>
      </g>
     </g>
    </g>
    <g id="ytick_4">
     <g id="line2d_6">
      <g>
       <use xlink:href="#mdfafb331ba" x="84.53" y="126.906896" style="stroke: #000000; stroke-width: 0.8"/>
      </g>
     </g>
     <g id="text_7">
      <!-- 0.8 -->
      <g transform="translate(45.72375 134.505333) scale(0.2 -0.2)">
       <defs>
        <path id="DejaVuSans-38" d="M 2034 2216 
Q 1584 2216 1326 1975 
Q 1069 1734 1069 1313 
Q 1069 891 1326 650 
Q 1584 409 2034 409 
Q 2484 409 2743 651 
Q 3003 894 3003 1313 
Q 3003 1734 2745 1975 
Q 2488 2216 2034 2216 
z
M 1403 2484 
Q 997 2584 770 2862 
Q 544 3141 544 3541 
Q 544 4100 942 4425 
Q 1341 4750 2034 4750 
Q 2731 4750 3128 4425 
Q 3525 4100 3525 3541 
Q 3525 3141 3298 2862 
Q 3072 2584 2669 2484 
Q 3125 2378 3379 2068 
Q 3634 1759 3634 1313 
Q 3634 634 3220 271 
Q 2806 -91 2034 -91 
Q 1263 -91 848 271 
Q 434 634 434 1313 
Q 434 1759 690 2068 
Q 947 2378 1403 2484 
z
M 1172 3481 
Q 1172 3119 1398 2916 
Q 1625 2713 2034 2713 
Q 2441 2713 2670 2916 
Q 2900 3119 2900 3481 
Q 2900 3844 2670 4047 
Q 2441 4250 2034 4250 
Q 1625 4250 1398 4047 
Q 1172 3844 1172 3481 
z
" transform="scale(0.015625)"/>
       </defs>
       <use xlink:href="#DejaVuSans-30"/>
       <use xlink:href="#DejaVuSans-2e" x="63.623047"/>
       <use xlink:href="#DejaVuSans-38" x="95.410156"/>
      </g>
     </g>
    </g>
    <g id="ytick_5">
     <g id="line2d_7">
      <g>
       <use xlink:href="#mdfafb331ba" x="84.53" y="57.896495" style="stroke: #000000; stroke-width: 0.8"/>
      </g>
     </g>
     <g id="text_8">
      <!-- 1.0 -->
      <g transform="translate(45.72375 65.494932) scale(0.2 -0.2)">
       <defs>
        <path id="DejaVuSans-31" d="M 794 531 
L 1825 531 
L 1825 4091 
L 703 3866 
L 703 4441 
L 1819 4666 
L 2450 4666 
L 2450 531 
L 3481 531 
L 3481 0 
L 794 0 
L 794 531 
z
" transform="scale(0.015625)"/>
       </defs>
       <use xlink:href="#DejaVuSans-31"/>
       <use xlink:href="#DejaVuSans-2e" x="63.623047"/>
       <use xlink:href="#DejaVuSans-30" x="95.410156"/>
      </g>
     </g>
    </g>
    <g id="text_9">
     <!-- TM-score -->
     <g transform="translate(37.564375 260.62211) rotate(-90) scale(0.2 -0.2)">
      <defs>
       <path id="DejaVuSans-54" d="M -19 4666 
L 3928 4666 
L 3928 4134 
L 2272 4134 
L 2272 0 
L 1638 0 
L 1638 4134 
L -19 4134 
L -19 4666 
z
" transform="scale(0.015625)"/>
       <path id="DejaVuSans-2d" d="M 313 2009 
L 1997 2009 
L 1997 1497 
L 313 1497 
L 313 2009 
z
" transform="scale(0.015625)"/>
       <path id="DejaVuSans-63" d="M 3122 3366 
L 3122 2828 
Q 2878 2963 2633 3030 
Q 2388 3097 2138 3097 
Q 1578 3097 1268 2742 
Q 959 2388 959 1747 
Q 959 1106 1268 751 
Q 1578 397 2138 397 
Q 2388 397 2633 464 
Q 2878 531 3122 666 
L 3122 134 
Q 2881 22 2623 -34 
Q 2366 -91 2075 -91 
Q 1284 -91 818 406 
Q 353 903 353 1747 
Q 353 2603 823 3093 
Q 1294 3584 2113 3584 
Q 2378 3584 2631 3529 
Q 2884 3475 3122 3366 
z
" transform="scale(0.015625)"/>
       <path id="DejaVuSans-72" d="M 2631 2963 
Q 2534 3019 2420 3045 
Q 2306 3072 2169 3072 
Q 1681 3072 1420 2755 
Q 1159 2438 1159 1844 
L 1159 0 
L 581 0 
L 581 3500 
L 1159 3500 
L 1159 2956 
Q 1341 3275 1631 3429 
Q 1922 3584 2338 3584 
Q 2397 3584 2469 3576 
Q 2541 3569 2628 3553 
L 2631 2963 
z
" transform="scale(0.015625)"/>
      </defs>
      <use xlink:href="#DejaVuSans-54"/>
      <use xlink:href="#DejaVuSans-4d" x="61.083984"/>
      <use xlink:href="#DejaVuSans-2d" x="147.363281"/>
      <use xlink:href="#DejaVuSans-73" x="183.447266"/>
      <use xlink:href="#DejaVuSans-63" x="235.546875"/>
      <use xlink:href="#DejaVuSans-6f" x="290.527344"/>
      <use xlink:href="#DejaVuSans-72" x="351.708984"/>
      <use xlink:href="#DejaVuSans-65" x="390.572266"/>
     </g>
    </g>
   </g>
   <g id="line2d_8">
    <path d="M 104.598864 283.474244 
L 183.9975 283.474244 
" clip-path="url(#p58d665c856)" style="fill: none; stroke-dasharray: 3.75,2.25; stroke-dashoffset: 0; stroke: #1e1e1e; stroke-width: 3"/>
   </g>
   <g id="line2d_9">
    <path d="M 117.919075 234.563122 
L 183.9975 234.563122 
" clip-path="url(#p58d665c856)" style="fill: none; stroke-dasharray: 7.5,3; stroke-dashoffset: 0; stroke: #1e1e1e; stroke-width: 3"/>
   </g>
   <g id="line2d_10">
    <path d="M 139.299555 160.204415 
L 183.9975 160.204415 
" clip-path="url(#p58d665c856)" style="fill: none; stroke-dasharray: 3.75,2.25; stroke-dashoffset: 0; stroke: #1e1e1e; stroke-width: 3"/>
   </g>
   <g id="line2d_11">
    <path d="M 183.9975 239.911428 
L 233.456117 239.911428 
" clip-path="url(#p58d665c856)" style="fill: none; stroke-dasharray: 3.75,2.25; stroke-dashoffset: 0; stroke: #1e1e1e; stroke-width: 3"/>
   </g>
   <g id="line2d_12">
    <path d="M 183.9975 172.281235 
L 251.812012 172.281235 
" clip-path="url(#p58d665c856)" style="fill: none; stroke-dasharray: 7.5,3; stroke-dashoffset: 0; stroke: #1e1e1e; stroke-width: 3"/>
   </g>
   <g id="line2d_13">
    <path d="M 183.9975 123.801428 
L 262.888344 123.801428 
" clip-path="url(#p58d665c856)" style="fill: none; stroke-dasharray: 3.75,2.25; stroke-dashoffset: 0; stroke: #1e1e1e; stroke-width: 3"/>
   </g>
   <g id="line2d_14">
    <path d="M 382.9325 278.298464 
L 446.851997 278.298464 
" clip-path="url(#p58d665c856)" style="fill: none; stroke-dasharray: 3.75,2.25; stroke-dashoffset: 0; stroke: #1e1e1e; stroke-width: 3"/>
   </g>
   <g id="line2d_15">
    <path d="M 382.9325 207.304013 
L 442.726607 207.304013 
" clip-path="url(#p58d665c856)" style="fill: none; stroke-dasharray: 7.5,3; stroke-dashoffset: 0; stroke: #1e1e1e; stroke-width: 3"/>
   </g>
   <g id="line2d_16">
    <path d="M 382.9325 144.245759 
L 443.362967 144.245759 
" clip-path="url(#p58d665c856)" style="fill: none; stroke-dasharray: 3.75,2.25; stroke-dashoffset: 0; stroke: #1e1e1e; stroke-width: 3"/>
   </g>
   <g id="patch_5">
    <path d="M 84.53 384.505471 
L 84.53 46.32 
" style="fill: none; stroke: #000000; stroke-width: 3; stroke-linejoin: miter; stroke-linecap: square"/>
   </g>
   <g id="text_10">
    <!-- TM-score of best model (N=174) -->
    <g transform="translate(87.765625 40.32) scale(0.24 -0.24)">
     <defs>
      <path id="DejaVuSans-66" d="M 2375 4863 
L 2375 4384 
L 1825 4384 
Q 1516 4384 1395 4259 
Q 1275 4134 1275 3809 
L 1275 3500 
L 2222 3500 
L 2222 3053 
L 1275 3053 
L 1275 0 
L 697 0 
L 697 3053 
L 147 3053 
L 147 3500 
L 697 3500 
L 697 3744 
Q 697 4328 969 4595 
Q 1241 4863 1831 4863 
L 2375 4863 
z
" transform="scale(0.015625)"/>
      <path id="DejaVuSans-62" d="M 3116 1747 
Q 3116 2381 2855 2742 
Q 2594 3103 2138 3103 
Q 1681 3103 1420 2742 
Q 1159 2381 1159 1747 
Q 1159 1113 1420 752 
Q 1681 391 2138 391 
Q 2594 391 2855 752 
Q 3116 1113 3116 1747 
z
M 1159 2969 
Q 1341 3281 1617 3432 
Q 1894 3584 2278 3584 
Q 2916 3584 3314 3078 
Q 3713 2572 3713 1747 
Q 3713 922 3314 415 
Q 2916 -91 2278 -91 
Q 1894 -91 1617 61 
Q 1341 213 1159 525 
L 1159 0 
L 581 0 
L 581 4863 
L 1159 4863 
L 1159 2969 
z
" transform="scale(0.015625)"/>
      <path id="DejaVuSans-28" d="M 1984 4856 
Q 1566 4138 1362 3434 
Q 1159 2731 1159 2009 
Q 1159 1288 1364 580 
Q 1569 -128 1984 -844 
L 1484 -844 
Q 1016 -109 783 600 
Q 550 1309 550 2009 
Q 550 2706 781 3412 
Q 1013 4119 1484 4856 
L 1984 4856 
z
" transform="scale(0.015625)"/>
      <path id="DejaVuSans-4e" d="M 628 4666 
L 1478 4666 
L 3547 763 
L 3547 4666 
L 4159 4666 
L 4159 0 
L 3309 0 
L 1241 3903 
L 1241 0 
L 628 0 
L 628 4666 
z
" transform="scale(0.015625)"/>
      <path id="DejaVuSans-3d" d="M 678 2906 
L 4684 2906 
L 4684 2381 
L 678 2381 
L 678 2906 
z
M 678 1631 
L 4684 1631 
L 4684 1100 
L 678 1100 
L 678 1631 
z
" transform="scale(0.015625)"/>
      <path id="DejaVuSans-37" d="M 525 4666 
L 3525 4666 
L 3525 4397 
L 1831 0 
L 1172 0 
L 2766 4134 
L 525 4134 
L 525 4666 
z
" transform="scale(0.015625)"/>
      <path id="DejaVuSans-29" d="M 513 4856 
L 1013 4856 
Q 1481 4119 1714 3412 
Q 1947 2706 1947 2009 
Q 1947 1309 1714 600 
Q 1481 -109 1013 -844 
L 513 -844 
Q 928 -128 1133 580 
Q 1338 1288 1338 2009 
Q 1338 2731 1133 3434 
Q 928 4138 513 4856 
z
" transform="scale(0.015625)"/>
     </defs>
     <use xlink:href="#DejaVuSans-54"/>
     <use xlink:href="#DejaVuSans-4d" x="61.083984"/>
     <use xlink:href="#DejaVuSans-2d" x="147.363281"/>
     <use xlink:href="#DejaVuSans-73" x="183.447266"/>
     <use xlink:href="#DejaVuSans-63" x="235.546875"/>
     <use xlink:href="#DejaVuSans-6f" x="290.527344"/>
     <use xlink:href="#DejaVuSans-72" x="351.708984"/>
     <use xlink:href="#DejaVuSans-65" x="390.572266"/>
     <use xlink:href="#DejaVuSans-20" x="452.095703"/>
     <use xlink:href="#DejaVuSans-6f" x="483.882812"/>
     <use xlink:href="#DejaVuSans-66" x="545.064453"/>
     <use xlink:href="#DejaVuSans-20" x="580.269531"/>
     <use xlink:href="#DejaVuSans-62" x="612.056641"/>
     <use xlink:href="#DejaVuSans-65" x="675.533203"/>
     <use xlink:href="#DejaVuSans-73" x="737.056641"/>
     <use xlink:href="#DejaVuSans-74" x="789.15625"/>
     <use xlink:href="#DejaVuSans-20" x="828.365234"/>
     <use xlink:href="#DejaVuSans-6d" x="860.152344"/>
     <use xlink:href="#DejaVuSans-6f" x="957.564453"/>
     <use xlink:href="#DejaVuSans-64" x="1018.746094"/>
     <use xlink:href="#DejaVuSans-65" x="1082.222656"/>
     <use xlink:href="#DejaVuSans-6c" x="1143.746094"/>
     <use xlink:href="#DejaVuSans-20" x="1171.529297"/>
     <use xlink:href="#DejaVuSans-28" x="1203.316406"/>
     <use xlink:href="#DejaVuSans-4e" x="1242.330078"/>
     <use xlink:href="#DejaVuSans-3d" x="1317.134766"/>
     <use xlink:href="#DejaVuSans-31" x="1400.923828"/>
     <use xlink:href="#DejaVuSans-37" x="1464.546875"/>
     <use xlink:href="#DejaVuSans-34" x="1528.169922"/>
     <use xlink:href="#DejaVuSans-29" x="1591.792969"/>
    </g>
   </g>
   <g id="legend_1">
    <g id="patch_6">
     <path d="M 204.2525 374.505471 
L 362.6775 374.505471 
Q 366.6775 374.505471 366.6775 370.505471 
L 366.6775 284.436721 
Q 366.6775 280.436721 362.6775 280.436721 
L 204.2525 280.436721 
Q 200.2525 280.436721 200.2525 284.436721 
L 200.2525 370.505471 
Q 200.2525 374.505471 204.2525 374.505471 
z
" style="fill: #ffffff; opacity: 0.8; stroke: #cccccc; stroke-linejoin: miter"/>
    </g>
    <g id="text_11">
     <!-- MSA -->
     <g transform="translate(261.460312 303.633596) scale(0.2 -0.2)">
      <defs>
       <path id="DejaVuSans-53" d="M 3425 4513 
L 3425 3897 
Q 3066 4069 2747 4153 
Q 2428 4238 2131 4238 
Q 1616 4238 1336 4038 
Q 1056 3838 1056 3469 
Q 1056 3159 1242 3001 
Q 1428 2844 1947 2747 
L 2328 2669 
Q 3034 2534 3370 2195 
Q 3706 1856 3706 1288 
Q 3706 609 3251 259 
Q 2797 -91 1919 -91 
Q 1588 -91 1214 -16 
Q 841 59 441 206 
L 441 856 
Q 825 641 1194 531 
Q 1563 422 1919 422 
Q 2459 422 2753 634 
Q 3047 847 3047 1241 
Q 3047 1584 2836 1778 
Q 2625 1972 2144 2069 
L 1759 2144 
Q 1053 2284 737 2584 
Q 422 2884 422 3419 
Q 422 4038 858 4394 
Q 1294 4750 2059 4750 
Q 2388 4750 2728 4690 
Q 3069 4631 3425 4513 
z
" transform="scale(0.015625)"/>
      </defs>
      <use xlink:href="#DejaVuSans-4d"/>
      <use xlink:href="#DejaVuSans-53" x="86.279297"/>
      <use xlink:href="#DejaVuSans-41" x="151.630859"/>
     </g>
    </g>
    <g id="patch_7">
     <path d="M 208.2525 332.989846 
L 248.2525 332.989846 
L 248.2525 318.989846 
L 208.2525 318.989846 
z
" style="fill: #006400"/>
    </g>
    <g id="text_12">
     <!-- MMseqs2 -->
     <g transform="translate(264.2525 332.989846) scale(0.2 -0.2)">
      <defs>
       <path id="DejaVuSans-71" d="M 947 1747 
Q 947 1113 1208 752 
Q 1469 391 1925 391 
Q 2381 391 2643 752 
Q 2906 1113 2906 1747 
Q 2906 2381 2643 2742 
Q 2381 3103 1925 3103 
Q 1469 3103 1208 2742 
Q 947 2381 947 1747 
z
M 2906 525 
Q 2725 213 2448 61 
Q 2172 -91 1784 -91 
Q 1150 -91 751 415 
Q 353 922 353 1747 
Q 353 2572 751 3078 
Q 1150 3584 1784 3584 
Q 2172 3584 2448 3432 
Q 2725 3281 2906 2969 
L 2906 3500 
L 3481 3500 
L 3481 -1331 
L 2906 -1331 
L 2906 525 
z
" transform="scale(0.015625)"/>
      </defs>
      <use xlink:href="#DejaVuSans-4d"/>
      <use xlink:href="#DejaVuSans-4d" x="86.279297"/>
      <use xlink:href="#DejaVuSans-73" x="172.558594"/>
      <use xlink:href="#DejaVuSans-65" x="224.658203"/>
      <use xlink:href="#DejaVuSans-71" x="286.181641"/>
      <use xlink:href="#DejaVuSans-73" x="349.658203"/>
      <use xlink:href="#DejaVuSans-32" x="401.757812"/>
     </g>
    </g>
    <g id="patch_8">
     <path d="M 208.2525 362.346096 
L 248.2525 362.346096 
L 248.2525 348.346096 
L 208.2525 348.346096 
z
" style="fill: #90ee90"/>
    </g>
    <g id="text_13">
     <!-- Synthetic -->
     <g transform="translate(264.2525 362.346096) scale(0.2 -0.2)">
      <defs>
       <path id="DejaVuSans-79" d="M 2059 -325 
Q 1816 -950 1584 -1140 
Q 1353 -1331 966 -1331 
L 506 -1331 
L 506 -850 
L 844 -850 
Q 1081 -850 1212 -737 
Q 1344 -625 1503 -206 
L 1606 56 
L 191 3500 
L 800 3500 
L 1894 763 
L 2988 3500 
L 3597 3500 
L 2059 -325 
z
" transform="scale(0.015625)"/>
       <path id="DejaVuSans-6e" d="M 3513 2113 
L 3513 0 
L 2938 0 
L 2938 2094 
Q 2938 2591 2744 2837 
Q 2550 3084 2163 3084 
Q 1697 3084 1428 2787 
Q 1159 2491 1159 1978 
L 1159 0 
L 581 0 
L 581 3500 
L 1159 3500 
L 1159 2956 
Q 1366 3272 1645 3428 
Q 1925 3584 2291 3584 
Q 2894 3584 3203 3211 
Q 3513 2838 3513 2113 
z
" transform="scale(0.015625)"/>
       <path id="DejaVuSans-69" d="M 603 3500 
L 1178 3500 
L 1178 0 
L 603 0 
L 603 3500 
z
M 603 4863 
L 1178 4863 
L 1178 4134 
L 603 4134 
L 603 4863 
z
" transform="scale(0.015625)"/>
      </defs>
      <use xlink:href="#DejaVuSans-53"/>
      <use xlink:href="#DejaVuSans-79" x="63.476562"/>
      <use xlink:href="#DejaVuSans-6e" x="122.65625"/>
      <use xlink:href="#DejaVuSans-74" x="186.035156"/>
      <use xlink:href="#DejaVuSans-68" x="225.244141"/>
      <use xlink:href="#DejaVuSans-65" x="288.623047"/>
      <use xlink:href="#DejaVuSans-74" x="350.146484"/>
      <use xlink:href="#DejaVuSans-69" x="389.355469"/>
      <use xlink:href="#DejaVuSans-63" x="417.138672"/>
     </g>
    </g>
   </g>
  </g>
 </g>
 <defs>
  <clipPath id="p58d665c856">
   <rect x="84.53" y="46.32" width="397.87" height="338.185471"/>
  </clipPath>
 </defs>
</svg>
